<svg width="176" height="160" viewBox="0 0 176 160" fill="none" xmlns="http://www.w3.org/2000/svg">
<path d="M8 0.75H168C172.004 0.75 175.25 3.99594 175.25 8V152C175.25 156.004 172.004 159.25 168 159.25H8C3.99594 159.25 0.75 156.004 0.75 152V8C0.75 3.99594 3.99594 0.75 8 0.75Z" fill="white"/>
<path d="M8 0.75H168C172.004 0.75 175.25 3.99594 175.25 8V152C175.25 156.004 172.004 159.25 168 159.25H8C3.99594 159.25 0.75 156.004 0.75 152V8C0.75 3.99594 3.99594 0.75 8 0.75Z" stroke="#F0F2F7" stroke-width="1.5"/>
<path d="M46.265 73.088V68.544H34.873V65.152L45.593 50.368H50.425V64.928H53.145V68.544H50.425V73.088H46.265ZM39.417 64.928H46.265V55.776L39.417 64.928Z" fill="#00022A"/>
<path d="M63.7555 73.6C61.0462 73.6 58.9555 72.9813 57.4835 71.744C56.0115 70.4853 55.2222 68.8 55.1155 66.688L59.3715 66.496C59.4995 67.712 59.9475 68.5973 60.7155 69.152C61.5049 69.7066 62.5182 69.984 63.7555 69.984C64.5875 69.984 65.3449 69.8666 66.0275 69.632C66.7102 69.376 67.2542 68.992 67.6595 68.48C68.0649 67.968 68.2675 67.3066 68.2675 66.496C68.2675 65.2586 67.8515 64.3413 67.0195 63.744C66.1875 63.1466 65.0782 62.848 63.6915 62.848H61.7075V59.552H63.6915C64.7795 59.552 65.6862 59.328 66.4115 58.88C67.1582 58.4106 67.5315 57.632 67.5315 56.544C67.5315 55.5626 67.2222 54.8053 66.6035 54.272C66.0062 53.7386 65.0675 53.472 63.7875 53.472C62.5289 53.472 61.5795 53.728 60.9395 54.24C60.2995 54.752 59.9155 55.424 59.7875 56.256L55.5315 56.032C55.7662 54.1546 56.5875 52.6613 57.9955 51.552C59.4249 50.4213 61.3555 49.856 63.7875 49.856C65.4942 49.856 66.9449 50.112 68.1395 50.624C69.3342 51.136 70.2409 51.8613 70.8596 52.8C71.4995 53.7386 71.8195 54.8586 71.8195 56.16C71.8195 57.5253 71.3715 58.6453 70.4755 59.52C69.5795 60.3946 68.2995 60.9813 66.6355 61.28V60.736C68.4915 60.992 69.9422 61.6533 70.9875 62.72C72.0329 63.7653 72.5555 65.0986 72.5555 66.72C72.5555 68.1706 72.1929 69.408 71.4675 70.432C70.7422 71.456 69.7182 72.2453 68.3955 72.8C67.0729 73.3333 65.5262 73.6 63.7555 73.6Z" fill="#00022A"/>
<path d="M74.5945 78.144L76.2585 73.088H74.3065V68.608H78.9785V72.576L76.8666 78.144H74.5945Z" fill="#00022A"/>
<path d="M89.637 73.6C87.717 73.6 86.0424 73.12 84.613 72.16C83.205 71.2 82.117 69.8346 81.349 68.064C80.581 66.2933 80.197 64.192 80.197 61.76C80.197 59.328 80.581 57.2266 81.349 55.456C82.117 53.664 83.205 52.288 84.613 51.328C86.0424 50.3466 87.717 49.856 89.637 49.856C91.5997 49.856 93.285 50.3466 94.693 51.328C96.101 52.288 97.189 53.6533 97.957 55.424C98.725 57.1946 99.109 59.3066 99.109 61.76C99.109 64.192 98.725 66.2933 97.957 68.064C97.189 69.8346 96.101 71.2 94.693 72.16C93.285 73.12 91.5997 73.6 89.637 73.6ZM89.637 69.984C91.301 69.984 92.581 69.2906 93.477 67.904C94.373 66.496 94.821 64.448 94.821 61.76C94.821 59.968 94.6184 58.4533 94.213 57.216C93.8077 55.9786 93.221 55.0506 92.453 54.432C91.7064 53.792 90.7677 53.472 89.637 53.472C88.549 53.472 87.621 53.792 86.853 54.432C86.085 55.0506 85.4984 55.9786 85.093 57.216C84.6877 58.4533 84.485 59.968 84.485 61.76C84.485 64.448 84.933 66.496 85.829 67.904C86.725 69.2906 87.9944 69.984 89.637 69.984Z" fill="#00022A"/>
<path d="M110.646 73.6C108.726 73.6 107.051 73.12 105.622 72.16C104.214 71.2 103.126 69.8346 102.358 68.064C101.59 66.2933 101.206 64.192 101.206 61.76C101.206 59.328 101.59 57.2266 102.358 55.456C103.126 53.664 104.214 52.288 105.622 51.328C107.051 50.3466 108.726 49.856 110.646 49.856C112.608 49.856 114.294 50.3466 115.702 51.328C117.11 52.288 118.198 53.6533 118.966 55.424C119.734 57.1946 120.118 59.3066 120.118 61.76C120.118 64.192 119.734 66.2933 118.966 68.064C118.198 69.8346 117.11 71.2 115.702 72.16C114.294 73.12 112.608 73.6 110.646 73.6ZM110.646 69.984C112.31 69.984 113.59 69.2906 114.486 67.904C115.382 66.496 115.83 64.448 115.83 61.76C115.83 59.968 115.627 58.4533 115.222 57.216C114.816 55.9786 114.23 55.0506 113.462 54.432C112.715 53.792 111.776 53.472 110.646 53.472C109.558 53.472 108.63 53.792 107.862 54.432C107.094 55.0506 106.507 55.9786 106.102 57.216C105.696 58.4533 105.494 59.968 105.494 61.76C105.494 64.448 105.942 66.496 106.838 67.904C107.734 69.2906 109.003 69.984 110.646 69.984Z" fill="#00022A"/>
<path d="M131.655 73.6C129.735 73.6 128.06 73.12 126.631 72.16C125.223 71.2 124.135 69.8346 123.367 68.064C122.599 66.2933 122.215 64.192 122.215 61.76C122.215 59.328 122.599 57.2266 123.367 55.456C124.135 53.664 125.223 52.288 126.631 51.328C128.06 50.3466 129.735 49.856 131.655 49.856C133.617 49.856 135.303 50.3466 136.711 51.328C138.119 52.288 139.207 53.6533 139.975 55.424C140.743 57.1946 141.127 59.3066 141.127 61.76C141.127 64.192 140.743 66.2933 139.975 68.064C139.207 69.8346 138.119 71.2 136.711 72.16C135.303 73.12 133.617 73.6 131.655 73.6ZM131.655 69.984C133.319 69.984 134.599 69.2906 135.495 67.904C136.391 66.496 136.839 64.448 136.839 61.76C136.839 59.968 136.636 58.4533 136.231 57.216C135.825 55.9786 135.239 55.0506 134.471 54.432C133.724 53.792 132.785 53.472 131.655 53.472C130.567 53.472 129.639 53.792 128.871 54.432C128.103 55.0506 127.516 55.9786 127.111 57.216C126.705 58.4533 126.503 59.968 126.503 61.76C126.503 64.448 126.951 66.496 127.847 67.904C128.743 69.2906 130.012 69.984 131.655 69.984Z" fill="#00022A"/>
<path d="M46.9215 112.194V104.682H44.2695V103.674H50.6055V104.682H47.9535V112.194H46.9215Z" fill="#626884"/>
<path d="M53.1697 112.338C52.5857 112.338 52.0737 112.202 51.6337 111.93C51.1937 111.658 50.8537 111.274 50.6137 110.778C50.3737 110.274 50.2537 109.686 50.2537 109.014C50.2537 108.334 50.3737 107.746 50.6137 107.25C50.8537 106.754 51.1937 106.37 51.6337 106.098C52.0737 105.826 52.5857 105.69 53.1697 105.69C53.7537 105.69 54.2617 105.826 54.6937 106.098C55.1337 106.37 55.4737 106.754 55.7137 107.25C55.9537 107.746 56.0737 108.334 56.0737 109.014C56.0737 109.686 55.9537 110.274 55.7137 110.778C55.4737 111.274 55.1337 111.658 54.6937 111.93C54.2617 112.202 53.7537 112.338 53.1697 112.338ZM53.1697 111.378C53.7537 111.378 54.2057 111.17 54.5257 110.754C54.8537 110.33 55.0177 109.75 55.0177 109.014C55.0177 108.278 54.8537 107.702 54.5257 107.286C54.2057 106.862 53.7537 106.65 53.1697 106.65C52.5857 106.65 52.1297 106.862 51.8017 107.286C51.4737 107.702 51.3097 108.278 51.3097 109.014C51.3097 109.75 51.4737 110.33 51.8017 110.754C52.1297 111.17 52.5857 111.378 53.1697 111.378Z" fill="#626884"/>
<path d="M59.4693 112.194C58.8933 112.194 58.4653 112.062 58.1853 111.798C57.9133 111.534 57.7773 111.122 57.7773 110.562V104.346H58.7853V110.538C58.7853 110.826 58.8493 111.026 58.9773 111.138C59.1053 111.25 59.3013 111.306 59.5653 111.306H60.4773V112.194H59.4693ZM56.8413 106.722V105.834H60.4773V106.722H56.8413Z" fill="#626884"/>
<path d="M63.3793 112.338C62.7233 112.338 62.1993 112.186 61.8073 111.882C61.4233 111.578 61.2313 111.154 61.2313 110.61C61.2313 110.066 61.3913 109.638 61.7113 109.326C62.0313 109.014 62.5393 108.794 63.2353 108.666L65.4913 108.246C65.4913 107.71 65.3633 107.31 65.1073 107.046C64.8593 106.782 64.4833 106.65 63.9793 106.65C63.5393 106.65 63.1913 106.75 62.9353 106.95C62.6793 107.142 62.5033 107.422 62.4073 107.79L61.3393 107.706C61.4593 107.106 61.7473 106.622 62.2033 106.254C62.6673 105.878 63.2593 105.69 63.9793 105.69C64.7953 105.69 65.4193 105.922 65.8513 106.386C66.2833 106.842 66.4993 107.474 66.4993 108.282V110.91C66.4993 111.054 66.5233 111.158 66.5713 111.222C66.6273 111.278 66.7153 111.306 66.8353 111.306H67.0873V112.194C67.0553 112.202 67.0033 112.206 66.9313 112.206C66.8593 112.214 66.7833 112.218 66.7033 112.218C66.4153 112.218 66.1793 112.174 65.9953 112.086C65.8193 111.99 65.6913 111.846 65.6113 111.654C65.5313 111.454 65.4913 111.194 65.4913 110.874L65.6113 110.898C65.5553 111.17 65.4193 111.418 65.2033 111.642C64.9873 111.858 64.7193 112.03 64.3993 112.158C64.0793 112.278 63.7393 112.338 63.3793 112.338ZM63.4753 111.45C63.8993 111.45 64.2593 111.37 64.5553 111.21C64.8593 111.042 65.0913 110.818 65.2513 110.538C65.4113 110.25 65.4913 109.93 65.4913 109.578V109.122L63.4273 109.506C62.9953 109.586 62.6953 109.71 62.5273 109.878C62.3673 110.038 62.2873 110.25 62.2873 110.514C62.2873 110.81 62.3913 111.042 62.5993 111.21C62.8153 111.37 63.1073 111.45 63.4753 111.45Z" fill="#626884"/>
<path d="M69.3435 112.194C68.9755 112.194 68.6755 112.098 68.4435 111.906C68.2115 111.714 68.0955 111.41 68.0955 110.994V103.674H69.1035V110.91C69.1035 111.038 69.1355 111.138 69.1995 111.21C69.2715 111.274 69.3715 111.306 69.4995 111.306H70.0515V112.194H69.3435Z" fill="#626884"/>
<path d="M73.4548 112.194L76.5267 103.674H77.9188L80.9907 112.194H79.8628L79.0107 109.77H75.4347L74.5828 112.194H73.4548ZM75.7827 108.762H78.6628L77.2227 104.574L75.7827 108.762Z" fill="#626884"/>
<path d="M83.984 112.338C83.352 112.338 82.844 112.126 82.46 111.702C82.084 111.27 81.896 110.678 81.896 109.926V105.834H82.904V109.65C82.904 110.266 83.012 110.722 83.228 111.018C83.452 111.306 83.792 111.45 84.248 111.45C84.752 111.45 85.148 111.29 85.436 110.97C85.724 110.642 85.868 110.194 85.868 109.626V105.834H86.876V112.194H85.916V110.622L86.072 110.706C85.944 111.226 85.7 111.63 85.34 111.918C84.98 112.198 84.528 112.338 83.984 112.338Z" fill="#626884"/>
<path d="M90.8772 112.338C90.3252 112.338 89.8452 112.202 89.4372 111.93C89.0372 111.658 88.7292 111.274 88.5132 110.778C88.2972 110.282 88.1892 109.694 88.1892 109.014C88.1892 108.334 88.2972 107.746 88.5132 107.25C88.7292 106.754 89.0372 106.37 89.4372 106.098C89.8452 105.826 90.3252 105.69 90.8772 105.69C91.3012 105.69 91.6892 105.782 92.0412 105.966C92.3932 106.142 92.6572 106.394 92.8332 106.722V103.674H93.8412V112.194H92.9292L92.8932 111.234C92.7172 111.578 92.4492 111.85 92.0892 112.05C91.7292 112.242 91.3252 112.338 90.8772 112.338ZM91.0812 111.378C91.4572 111.378 91.7732 111.282 92.0292 111.09C92.2932 110.898 92.4932 110.626 92.6292 110.274C92.7652 109.914 92.8332 109.494 92.8332 109.014C92.8332 108.518 92.7652 108.094 92.6292 107.742C92.4932 107.39 92.2932 107.122 92.0292 106.938C91.7732 106.746 91.4572 106.65 91.0812 106.65C90.5212 106.65 90.0732 106.862 89.7372 107.286C89.4092 107.702 89.2452 108.278 89.2452 109.014C89.2452 109.742 89.4092 110.318 89.7372 110.742C90.0732 111.166 90.5212 111.378 91.0812 111.378Z" fill="#626884"/>
<path d="M95.4635 112.194V105.834H96.4715V112.194H95.4635ZM95.4395 104.838V103.662H96.4955V104.838H95.4395Z" fill="#626884"/>
<path d="M100.181 112.194C99.6047 112.194 99.1767 112.062 98.8967 111.798C98.6247 111.534 98.4887 111.122 98.4887 110.562V104.346H99.4967V110.538C99.4967 110.826 99.5607 111.026 99.6887 111.138C99.8167 111.25 100.013 111.306 100.277 111.306H101.189V112.194H100.181ZM97.5527 106.722V105.834H101.189V106.722H97.5527Z" fill="#626884"/>
<path d="M105.576 112.194V103.674H108.804C109.404 103.674 109.92 103.778 110.352 103.986C110.784 104.194 111.116 104.494 111.348 104.886C111.588 105.27 111.708 105.726 111.708 106.254C111.708 106.638 111.616 106.982 111.432 107.286C111.256 107.582 111.028 107.818 110.748 107.994C110.468 108.17 110.176 108.266 109.872 108.282L109.8 108.174C110.32 108.174 110.728 108.294 111.024 108.534C111.328 108.774 111.504 109.158 111.552 109.686L111.792 112.194H110.748L110.532 109.794C110.5 109.442 110.372 109.182 110.148 109.014C109.932 108.846 109.576 108.762 109.08 108.762H106.608V112.194H105.576ZM106.608 107.754H108.936C109.456 107.754 109.868 107.622 110.172 107.358C110.476 107.094 110.628 106.718 110.628 106.23C110.628 105.734 110.472 105.354 110.16 105.09C109.848 104.818 109.396 104.682 108.804 104.682H106.608V107.754Z" fill="#626884"/>
<path d="M115.405 112.338C114.773 112.338 114.265 112.126 113.881 111.702C113.505 111.27 113.317 110.678 113.317 109.926V105.834H114.325V109.65C114.325 110.266 114.433 110.722 114.649 111.018C114.873 111.306 115.213 111.45 115.669 111.45C116.173 111.45 116.569 111.29 116.857 110.97C117.145 110.642 117.289 110.194 117.289 109.626V105.834H118.297V112.194H117.337V110.622L117.493 110.706C117.365 111.226 117.121 111.63 116.761 111.918C116.401 112.198 115.949 112.338 115.405 112.338Z" fill="#626884"/>
<path d="M120.16 112.194V105.834H121.084L121.12 107.454L121 107.346C121.08 106.97 121.22 106.662 121.42 106.422C121.62 106.174 121.86 105.99 122.14 105.87C122.428 105.75 122.736 105.69 123.064 105.69C123.552 105.69 123.952 105.798 124.264 106.014C124.584 106.23 124.82 106.522 124.972 106.89C125.132 107.25 125.212 107.654 125.212 108.102V112.194H124.204V108.39C124.204 107.998 124.156 107.67 124.06 107.406C123.972 107.134 123.828 106.93 123.628 106.794C123.428 106.65 123.168 106.578 122.848 106.578C122.36 106.578 121.956 106.734 121.636 107.046C121.324 107.35 121.168 107.798 121.168 108.39V112.194H120.16Z" fill="#626884"/>
<path d="M129.248 112.338C128.68 112.338 128.196 112.246 127.796 112.062C127.404 111.878 127.096 111.626 126.872 111.306C126.656 110.978 126.532 110.606 126.5 110.19L127.556 110.118C127.62 110.502 127.784 110.81 128.048 111.042C128.312 111.266 128.712 111.378 129.248 111.378C129.68 111.378 130.024 111.31 130.28 111.174C130.544 111.03 130.676 110.802 130.676 110.49C130.676 110.322 130.636 110.182 130.556 110.07C130.476 109.958 130.32 109.862 130.088 109.782C129.856 109.694 129.512 109.61 129.056 109.53C128.448 109.418 127.968 109.282 127.616 109.122C127.272 108.954 127.024 108.75 126.872 108.51C126.728 108.262 126.656 107.97 126.656 107.634C126.656 107.066 126.864 106.602 127.28 106.242C127.696 105.874 128.288 105.69 129.056 105.69C129.576 105.69 130.012 105.786 130.364 105.978C130.724 106.162 131.004 106.41 131.204 106.722C131.412 107.026 131.548 107.362 131.612 107.73L130.556 107.802C130.508 107.578 130.42 107.382 130.292 107.214C130.164 107.038 129.996 106.902 129.788 106.806C129.58 106.702 129.332 106.65 129.044 106.65C128.588 106.65 128.252 106.738 128.036 106.914C127.82 107.09 127.712 107.314 127.712 107.586C127.712 107.794 127.76 107.966 127.856 108.102C127.96 108.23 128.124 108.338 128.348 108.426C128.572 108.506 128.872 108.578 129.248 108.642C129.896 108.754 130.4 108.89 130.76 109.05C131.12 109.21 131.372 109.406 131.516 109.638C131.66 109.87 131.732 110.154 131.732 110.49C131.732 110.882 131.62 111.218 131.396 111.498C131.18 111.77 130.884 111.978 130.508 112.122C130.14 112.266 129.72 112.338 129.248 112.338Z" fill="#626884"/>
</svg>
