<svg width="400" height="160" viewBox="0 0 400 160" fill="none" xmlns="http://www.w3.org/2000/svg">
<path d="M8 0.75H392C396.004 0.75 399.25 3.99593 399.25 8V152C399.25 156.004 396.004 159.25 392 159.25H7.99999C3.99593 159.25 0.75 156.004 0.75 152V8C0.75 3.99594 3.99594 0.75 8 0.75Z" fill="white"/>
<path d="M8 0.75H392C396.004 0.75 399.25 3.99593 399.25 8V152C399.25 156.004 396.004 159.25 392 159.25H7.99999C3.99593 159.25 0.75 156.004 0.75 152V8C0.75 3.99594 3.99594 0.75 8 0.75Z" stroke="#F0F2F7" stroke-width="1.5"/>
<path d="M20.72 33.936C19.7813 33.936 18.9707 33.7706 18.288 33.44C17.6053 33.1093 17.0667 32.6506 16.672 32.064C16.288 31.4666 16.064 30.7733 16 29.984L18.112 29.856C18.176 30.3466 18.3147 30.7626 18.528 31.104C18.752 31.4453 19.0453 31.7066 19.408 31.888C19.7813 32.0586 20.2293 32.144 20.752 32.144C21.2 32.144 21.5787 32.0906 21.888 31.984C22.208 31.8666 22.448 31.7013 22.608 31.488C22.7787 31.264 22.864 30.992 22.864 30.672C22.864 30.384 22.7947 30.128 22.656 29.904C22.5173 29.6693 22.2507 29.4613 21.856 29.28C21.4613 29.088 20.8747 28.9013 20.096 28.72C19.1573 28.5066 18.4053 28.2666 17.84 28C17.2747 27.7226 16.864 27.3813 16.608 26.976C16.352 26.56 16.224 26.0426 16.224 25.424C16.224 24.7626 16.3893 24.1813 16.72 23.68C17.0507 23.168 17.52 22.7733 18.128 22.496C18.736 22.208 19.4667 22.064 20.32 22.064C21.2267 22.064 21.9947 22.2293 22.624 22.56C23.2533 22.88 23.7493 23.3226 24.112 23.888C24.4747 24.4533 24.6987 25.104 24.784 25.84L22.688 25.936C22.6347 25.52 22.5067 25.1573 22.304 24.848C22.112 24.5386 21.8453 24.2986 21.504 24.128C21.1733 23.9466 20.768 23.856 20.288 23.856C19.6907 23.856 19.216 23.9946 18.864 24.272C18.5227 24.5386 18.352 24.896 18.352 25.344C18.352 25.6533 18.4213 25.9093 18.56 26.112C18.7093 26.3146 18.9707 26.4906 19.344 26.64C19.7173 26.7786 20.24 26.928 20.912 27.088C21.9253 27.3013 22.7307 27.5733 23.328 27.904C23.9253 28.2346 24.352 28.6186 24.608 29.056C24.864 29.4933 24.992 29.9946 24.992 30.56C24.992 31.2533 24.816 31.856 24.464 32.368C24.112 32.8693 23.616 33.2586 22.976 33.536C22.336 33.8026 21.584 33.936 20.72 33.936Z" fill="#00022A"/>
<path d="M29.8641 33.68C29.0108 33.68 28.3815 33.4826 27.9761 33.088C27.5815 32.6933 27.3841 32.0746 27.3841 31.232V23.136H29.4321V31.04C29.4321 31.4346 29.5175 31.712 29.6881 31.872C29.8588 32.0213 30.1255 32.096 30.4881 32.096H31.6881V33.68H29.8641ZM26.0401 26.72V25.136H31.6881V26.72H26.0401Z" fill="#00022A"/>
<path d="M35.4633 33.872C34.5673 33.872 33.8472 33.6693 33.3032 33.264C32.7592 32.848 32.4872 32.272 32.4872 31.536C32.4872 30.8 32.7166 30.224 33.1753 29.808C33.6339 29.392 34.3326 29.0933 35.2712 28.912L38.1033 28.352C38.1033 27.744 37.9646 27.2906 37.6873 26.992C37.4099 26.6826 36.9993 26.528 36.4552 26.528C35.9646 26.528 35.5753 26.6453 35.2873 26.88C35.0099 27.104 34.8179 27.4293 34.7113 27.856L32.6313 27.76C32.8019 26.8533 33.2179 26.16 33.8792 25.68C34.5406 25.1893 35.3992 24.944 36.4552 24.944C37.6712 24.944 38.5886 25.2533 39.2073 25.872C39.8366 26.48 40.1513 27.3546 40.1513 28.496V31.6C40.1513 31.824 40.1886 31.9786 40.2633 32.064C40.3486 32.1493 40.4713 32.192 40.6313 32.192H40.9032V33.68C40.8392 33.7013 40.7326 33.7173 40.5833 33.728C40.4446 33.7386 40.3006 33.744 40.1513 33.744C39.7993 33.744 39.4846 33.6906 39.2073 33.584C38.9299 33.4666 38.7166 33.2693 38.5673 32.992C38.4179 32.704 38.3433 32.3146 38.3433 31.824L38.5193 31.952C38.4339 32.3253 38.2473 32.6613 37.9593 32.96C37.6819 33.248 37.3299 33.472 36.9033 33.632C36.4766 33.792 35.9966 33.872 35.4633 33.872ZM35.8792 32.384C36.3379 32.384 36.7326 32.2933 37.0633 32.112C37.3939 31.9306 37.6499 31.68 37.8313 31.36C38.0126 31.04 38.1033 30.6613 38.1033 30.224V29.744L35.8953 30.192C35.4366 30.288 35.1059 30.432 34.9032 30.624C34.7112 30.8053 34.6152 31.0453 34.6152 31.344C34.6152 31.6746 34.7219 31.9306 34.9352 32.112C35.1592 32.2933 35.4739 32.384 35.8792 32.384Z" fill="#00022A"/>
<path d="M42.0732 33.68V25.136H43.9932L44.0732 27.504L43.8973 27.472C44.0253 26.6506 44.2653 26.0586 44.6173 25.696C44.9799 25.3226 45.4706 25.136 46.0893 25.136H46.8733V26.896H46.0732C45.6359 26.896 45.2733 26.96 44.9853 27.088C44.6973 27.216 44.4786 27.4186 44.3293 27.696C44.1906 27.9626 44.1213 28.3146 44.1213 28.752V33.68H42.0732Z" fill="#00022A"/>
<path d="M51.2747 33.68C50.4214 33.68 49.7921 33.4826 49.3867 33.088C48.9921 32.6933 48.7948 32.0746 48.7948 31.232V23.136H50.8428V31.04C50.8428 31.4346 50.9281 31.712 51.0988 31.872C51.2694 32.0213 51.5361 32.096 51.8988 32.096H53.0988V33.68H51.2747ZM47.4508 26.72V25.136H53.0988V26.72H47.4508Z" fill="#00022A"/>
<path d="M60.8761 33.68V29.2L56.9081 22.32H59.2441L61.9321 27.152L64.6041 22.32H66.9401L62.9721 29.2V33.68H60.8761Z" fill="#00022A"/>
<path d="M70.3796 33.872C69.537 33.872 68.7956 33.6906 68.1556 33.328C67.5263 32.9546 67.0356 32.432 66.6836 31.76C66.3423 31.088 66.1716 30.304 66.1716 29.408C66.1716 28.5013 66.3423 27.7173 66.6836 27.056C67.0356 26.384 67.5263 25.8666 68.1556 25.504C68.7956 25.1306 69.537 24.944 70.3796 24.944C71.2223 24.944 71.9583 25.1306 72.5876 25.504C73.217 25.8666 73.7023 26.384 74.0436 27.056C74.3956 27.7173 74.5716 28.5013 74.5716 29.408C74.5716 30.304 74.3956 31.088 74.0436 31.76C73.7023 32.432 73.217 32.9546 72.5876 33.328C71.9583 33.6906 71.2223 33.872 70.3796 33.872ZM70.3796 32.208C71.041 32.208 71.5476 31.9626 71.8996 31.472C72.2623 30.9813 72.4436 30.2933 72.4436 29.408C72.4436 28.5333 72.2623 27.8506 71.8996 27.36C71.5476 26.8586 71.041 26.608 70.3796 26.608C69.7183 26.608 69.2063 26.8586 68.8436 27.36C68.481 27.8506 68.2996 28.5333 68.2996 29.408C68.2996 30.2933 68.481 30.9813 68.8436 31.472C69.2063 31.9626 69.7183 32.208 70.3796 32.208Z" fill="#00022A"/>
<path d="M78.808 33.872C77.944 33.872 77.256 33.5893 76.744 33.024C76.2427 32.448 75.992 31.6533 75.992 30.64V25.136H78.04V30.128C78.04 30.8426 78.1573 31.3706 78.392 31.712C78.6373 32.0426 79.0053 32.208 79.496 32.208C80.0507 32.208 80.4773 32.0266 80.776 31.664C81.0853 31.2906 81.24 30.752 81.24 30.048V25.136H83.288V33.68H81.416L81.368 31.328L81.624 31.408C81.496 32.2186 81.192 32.832 80.712 33.248C80.232 33.664 79.5973 33.872 78.808 33.872Z" fill="#00022A"/>
<path d="M85.3789 33.68V25.136H87.2989L87.3789 27.504L87.2029 27.472C87.3309 26.6506 87.5709 26.0586 87.9229 25.696C88.2855 25.3226 88.7762 25.136 89.3949 25.136H90.1789V26.896H89.3789C88.9415 26.896 88.5789 26.96 88.2909 27.088C88.0029 27.216 87.7842 27.4186 87.6349 27.696C87.4962 27.9626 87.4269 28.3146 87.4269 28.752V33.68H85.3789Z" fill="#00022A"/>
<path d="M97.899 33.68V24.128H94.443V22.32H103.419V24.128H99.979V33.68H97.899Z" fill="#00022A"/>
<path d="M106.986 33.872C106.132 33.872 105.391 33.6906 104.762 33.328C104.132 32.9546 103.647 32.432 103.306 31.76C102.964 31.088 102.794 30.304 102.794 29.408C102.794 28.512 102.964 27.7333 103.306 27.072C103.647 26.4 104.127 25.8773 104.745 25.504C105.375 25.1306 106.106 24.944 106.938 24.944C107.748 24.944 108.458 25.1253 109.066 25.488C109.684 25.8506 110.159 26.3733 110.49 27.056C110.82 27.7386 110.986 28.56 110.986 29.52V29.984H104.922C104.964 30.7306 105.167 31.296 105.53 31.68C105.903 32.0533 106.394 32.24 107.002 32.24C107.46 32.24 107.839 32.1386 108.138 31.936C108.447 31.7226 108.66 31.4293 108.778 31.056L110.874 31.184C110.639 32.016 110.175 32.672 109.481 33.152C108.799 33.632 107.967 33.872 106.986 33.872ZM104.922 28.608H108.874C108.831 27.9146 108.634 27.4026 108.282 27.072C107.93 26.7306 107.481 26.56 106.938 26.56C106.394 26.56 105.94 26.736 105.577 27.088C105.225 27.44 105.007 27.9466 104.922 28.608Z" fill="#00022A"/>
<path d="M115.898 33.872C115.056 33.872 114.346 33.7493 113.77 33.504C113.205 33.2586 112.768 32.9173 112.458 32.48C112.149 32.0426 111.973 31.5466 111.93 30.992L114.026 30.896C114.101 31.344 114.288 31.6906 114.586 31.936C114.885 32.1813 115.328 32.304 115.914 32.304C116.394 32.304 116.768 32.2293 117.034 32.08C117.312 31.92 117.45 31.6746 117.45 31.344C117.45 31.152 117.402 30.992 117.306 30.864C117.21 30.736 117.029 30.624 116.762 30.528C116.496 30.432 116.101 30.336 115.578 30.24C114.704 30.0906 114.016 29.9093 113.514 29.696C113.013 29.472 112.656 29.1946 112.442 28.864C112.24 28.5333 112.138 28.1226 112.138 27.632C112.138 26.832 112.442 26.1866 113.05 25.696C113.669 25.1946 114.57 24.944 115.754 24.944C116.522 24.944 117.168 25.072 117.69 25.328C118.213 25.5733 118.618 25.9146 118.906 26.352C119.205 26.7786 119.392 27.2693 119.466 27.824L117.402 27.92C117.349 27.632 117.253 27.3813 117.114 27.168C116.976 26.9546 116.789 26.7946 116.554 26.688C116.32 26.5706 116.042 26.512 115.722 26.512C115.242 26.512 114.88 26.608 114.634 26.8C114.389 26.992 114.266 27.248 114.266 27.568C114.266 27.792 114.32 27.9786 114.426 28.128C114.544 28.2773 114.73 28.4 114.986 28.496C115.242 28.5813 115.584 28.6613 116.01 28.736C116.906 28.8746 117.61 29.056 118.122 29.28C118.645 29.4933 119.013 29.7706 119.226 30.112C119.45 30.4426 119.562 30.8426 119.562 31.312C119.562 31.856 119.408 32.32 119.098 32.704C118.8 33.088 118.373 33.3813 117.818 33.584C117.274 33.776 116.634 33.872 115.898 33.872Z" fill="#00022A"/>
<path d="M124.128 33.68C123.275 33.68 122.645 33.4826 122.24 33.088C121.845 32.6933 121.648 32.0746 121.648 31.232V23.136H123.696V31.04C123.696 31.4346 123.781 31.712 123.952 31.872C124.123 32.0213 124.389 32.096 124.752 32.096H125.952V33.68H124.128ZM120.304 26.72V25.136H125.952V26.72H120.304Z" fill="#00022A"/>
<path d="M130.177 33.68L134.273 22.32H136.817L140.913 33.68H138.737L137.793 30.992H133.297L132.353 33.68H130.177ZM133.905 29.216H137.185L135.553 24.416L133.905 29.216Z" fill="#00022A"/>
<path d="M144.649 33.872C143.785 33.872 143.097 33.5893 142.585 33.024C142.084 32.448 141.833 31.6533 141.833 30.64V25.136H143.881V30.128C143.881 30.8426 143.999 31.3706 144.233 31.712C144.479 32.0426 144.847 32.208 145.337 32.208C145.892 32.208 146.319 32.0266 146.617 31.664C146.927 31.2906 147.081 30.752 147.081 30.048V25.136H149.129V33.68H147.257L147.209 31.328L147.465 31.408C147.337 32.2186 147.033 32.832 146.553 33.248C146.073 33.664 145.439 33.872 144.649 33.872Z" fill="#00022A"/>
<path d="M154.104 33.872C153.379 33.872 152.749 33.6906 152.216 33.328C151.693 32.9653 151.288 32.448 151 31.776C150.712 31.104 150.568 30.3146 150.568 29.408C150.568 28.5013 150.712 27.712 151 27.04C151.288 26.368 151.699 25.8506 152.232 25.488C152.765 25.1253 153.389 24.944 154.104 24.944C154.701 24.944 155.224 25.0666 155.672 25.312C156.131 25.5573 156.477 25.904 156.712 26.352V22.32H158.76V33.68H156.808L156.76 32.416C156.525 32.8746 156.173 33.232 155.704 33.488C155.235 33.744 154.701 33.872 154.104 33.872ZM154.728 32.208C155.155 32.208 155.512 32.1013 155.8 31.888C156.099 31.6746 156.323 31.36 156.472 30.944C156.632 30.5173 156.712 30.0053 156.712 29.408C156.712 28.8 156.632 28.288 156.472 27.872C156.323 27.456 156.099 27.1413 155.8 26.928C155.512 26.7146 155.155 26.608 154.728 26.608C154.109 26.608 153.613 26.8586 153.24 27.36C152.877 27.8506 152.696 28.5333 152.696 29.408C152.696 30.2613 152.877 30.944 153.24 31.456C153.613 31.9573 154.109 32.208 154.728 32.208Z" fill="#00022A"/>
<path d="M160.591 33.68V25.136H162.639V33.68H160.591ZM160.559 24V22.176H162.687V24H160.559Z" fill="#00022A"/>
<path d="M167.621 33.68C166.768 33.68 166.138 33.4826 165.733 33.088C165.338 32.6933 165.141 32.0746 165.141 31.232V23.136H167.189V31.04C167.189 31.4346 167.274 31.712 167.445 31.872C167.616 32.0213 167.882 32.096 168.245 32.096H169.445V33.68H167.621ZM163.797 26.72V25.136H169.445V26.72H163.797Z" fill="#00022A"/>
<path d="M19.934 62.1722C19.1687 62.1722 18.5013 62.0275 17.932 61.7382C17.3627 61.4488 16.91 61.0522 16.574 60.5482C16.2473 60.0348 16.056 59.4422 16 58.7702L17.26 58.6862C17.3253 59.1808 17.47 59.6008 17.694 59.9462C17.918 60.2915 18.2167 60.5528 18.59 60.7302C18.9727 60.9075 19.43 60.9962 19.962 60.9962C20.4287 60.9962 20.8253 60.9355 21.152 60.8142C21.4787 60.6928 21.726 60.5155 21.894 60.2822C22.0713 60.0488 22.16 59.7642 22.16 59.4282C22.16 59.1202 22.0853 58.8495 21.936 58.6162C21.796 58.3735 21.5207 58.1542 21.11 57.9582C20.7087 57.7528 20.1113 57.5522 19.318 57.3562C18.5527 57.1602 17.9413 56.9455 17.484 56.7122C17.036 56.4788 16.7093 56.1942 16.504 55.8582C16.308 55.5222 16.21 55.1068 16.21 54.6122C16.21 54.0522 16.3407 53.5622 16.602 53.1422C16.8727 52.7128 17.2553 52.3815 17.75 52.1482C18.2447 51.9055 18.8327 51.7842 19.514 51.7842C20.242 51.7842 20.8673 51.9242 21.39 52.2042C21.9127 52.4748 22.328 52.8482 22.636 53.3242C22.944 53.8002 23.1353 54.3415 23.21 54.9482L21.95 55.0322C21.894 54.6308 21.7633 54.2762 21.558 53.9682C21.362 53.6508 21.0913 53.4035 20.746 53.2262C20.4007 53.0488 19.9807 52.9602 19.486 52.9602C18.87 52.9602 18.38 53.1095 18.016 53.4082C17.652 53.6975 17.47 54.0802 17.47 54.5562C17.47 54.8642 17.54 55.1208 17.68 55.3262C17.8293 55.5222 18.0907 55.6995 18.464 55.8582C18.8373 56.0075 19.374 56.1708 20.074 56.3482C20.9047 56.5535 21.5627 56.8008 22.048 57.0902C22.5427 57.3702 22.8927 57.6968 23.098 58.0702C23.3127 58.4435 23.42 58.8682 23.42 59.3442C23.42 59.9228 23.2707 60.4268 22.972 60.8562C22.6733 61.2762 22.2627 61.6028 21.74 61.8362C21.2173 62.0602 20.6153 62.1722 19.934 62.1722Z" fill="#626884"/>
<path d="M27.5393 61.9482C26.8673 61.9482 26.3679 61.7942 26.0413 61.4862C25.7239 61.1782 25.5653 60.6975 25.5653 60.0442V52.7922H26.7413V60.0162C26.7413 60.3522 26.8159 60.5855 26.9653 60.7162C27.1146 60.8468 27.3433 60.9122 27.6513 60.9122H28.7153V61.9482H27.5393ZM24.4733 55.5642V54.5282H28.7153V55.5642H24.4733Z" fill="#626884"/>
<path d="M32.031 62.1162C31.2657 62.1162 30.6543 61.9388 30.197 61.5842C29.749 61.2295 29.525 60.7348 29.525 60.1002C29.525 59.4655 29.7117 58.9662 30.085 58.6022C30.4583 58.2382 31.051 57.9815 31.863 57.8322L34.495 57.3422C34.495 56.7168 34.3457 56.2502 34.047 55.9422C33.7577 55.6342 33.319 55.4802 32.731 55.4802C32.2177 55.4802 31.8117 55.5968 31.513 55.8302C31.2143 56.0542 31.009 56.3808 30.897 56.8102L29.651 56.7122C29.791 56.0122 30.127 55.4475 30.659 55.0182C31.2003 54.5795 31.891 54.3602 32.731 54.3602C33.683 54.3602 34.411 54.6308 34.915 55.1722C35.419 55.7042 35.671 56.4415 35.671 57.3842V60.4502C35.671 60.6182 35.699 60.7395 35.755 60.8142C35.8203 60.8795 35.923 60.9122 36.063 60.9122H36.357V61.9482C36.3197 61.9575 36.259 61.9622 36.175 61.9622C36.091 61.9715 36.0023 61.9762 35.909 61.9762C35.573 61.9762 35.2977 61.9248 35.083 61.8222C34.8777 61.7102 34.7283 61.5422 34.635 61.3182C34.5417 61.0848 34.495 60.7815 34.495 60.4082L34.635 60.4362C34.5697 60.7535 34.411 61.0428 34.159 61.3042C33.907 61.5562 33.5943 61.7568 33.221 61.9062C32.8477 62.0462 32.451 62.1162 32.031 62.1162ZM32.143 61.0802C32.6377 61.0802 33.0577 60.9868 33.403 60.8002C33.7577 60.6042 34.0283 60.3428 34.215 60.0162C34.4017 59.6802 34.495 59.3068 34.495 58.8962V58.3642L32.087 58.8122C31.583 58.9055 31.233 59.0502 31.037 59.2462C30.8503 59.4328 30.757 59.6802 30.757 59.9882C30.757 60.3335 30.8783 60.6042 31.121 60.8002C31.373 60.9868 31.7137 61.0802 32.143 61.0802Z" fill="#626884"/>
<path d="M37.5452 61.9482V54.5282H38.5812L38.6372 56.4042L38.5252 56.3622C38.6186 55.7275 38.8192 55.2655 39.1272 54.9762C39.4446 54.6775 39.8646 54.5282 40.3872 54.5282H41.1152V55.6482H40.4012C40.0279 55.6482 39.7152 55.7182 39.4632 55.8582C39.2206 55.9888 39.0339 56.1895 38.9032 56.4602C38.7819 56.7215 38.7212 57.0575 38.7212 57.4682V61.9482H37.5452Z" fill="#626884"/>
<path d="M44.7287 61.9482C44.0567 61.9482 43.5573 61.7942 43.2307 61.4862C42.9133 61.1782 42.7547 60.6975 42.7547 60.0442V52.7922H43.9307V60.0162C43.9307 60.3522 44.0053 60.5855 44.1547 60.7162C44.304 60.8468 44.5327 60.9122 44.8407 60.9122H45.9047V61.9482H44.7287ZM41.6627 55.5642V54.5282H45.9047V55.5642H41.6627Z" fill="#626884"/>
<path d="M49.8751 61.9482L53.4591 52.0082H55.0831L58.6671 61.9482H57.3511L56.3571 59.1202H52.1851L51.1911 61.9482H49.8751ZM52.5911 57.9442H55.9511L54.2711 53.0582L52.5911 57.9442Z" fill="#626884"/>
<path d="M62.0892 62.1162C61.3519 62.1162 60.7592 61.8688 60.3112 61.3742C59.8725 60.8702 59.6532 60.1795 59.6532 59.3022V54.5282H60.8292V58.9802C60.8292 59.6988 60.9552 60.2308 61.2072 60.5762C61.4685 60.9122 61.8652 61.0802 62.3972 61.0802C62.9852 61.0802 63.4472 60.8935 63.7832 60.5202C64.1192 60.1375 64.2872 59.6148 64.2872 58.9522V54.5282H65.4632V61.9482H64.3432V60.1142L64.5252 60.2122C64.3759 60.8188 64.0912 61.2902 63.6712 61.6262C63.2512 61.9528 62.7239 62.1162 62.0892 62.1162Z" fill="#626884"/>
<path d="M70.0612 62.1162C69.4172 62.1162 68.8572 61.9575 68.3812 61.6402C67.9146 61.3228 67.5552 60.8748 67.3032 60.2962C67.0512 59.7175 66.9252 59.0315 66.9252 58.2382C66.9252 57.4448 67.0512 56.7588 67.3032 56.1802C67.5552 55.6015 67.9146 55.1535 68.3812 54.8362C68.8572 54.5188 69.4172 54.3602 70.0612 54.3602C70.5559 54.3602 71.0086 54.4675 71.4192 54.6822C71.8299 54.8875 72.1379 55.1815 72.3432 55.5642V52.0082H73.5192V61.9482H72.4552L72.4132 60.8282C72.2079 61.2295 71.8952 61.5468 71.4752 61.7802C71.0552 62.0042 70.5839 62.1162 70.0612 62.1162ZM70.2992 60.9962C70.7379 60.9962 71.1066 60.8842 71.4052 60.6602C71.7132 60.4362 71.9466 60.1188 72.1052 59.7082C72.2639 59.2882 72.3432 58.7982 72.3432 58.2382C72.3432 57.6595 72.2639 57.1648 72.1052 56.7542C71.9466 56.3435 71.7132 56.0308 71.4052 55.8162C71.1066 55.5922 70.7379 55.4802 70.2992 55.4802C69.6459 55.4802 69.1232 55.7275 68.7312 56.2222C68.3486 56.7075 68.1572 57.3795 68.1572 58.2382C68.1572 59.0875 68.3486 59.7595 68.7312 60.2542C69.1232 60.7488 69.6459 60.9962 70.2992 60.9962Z" fill="#626884"/>
<path d="M75.342 61.9482V54.5282H76.518V61.9482H75.342ZM75.314 53.3662V51.9942H76.546V53.3662H75.314Z" fill="#626884"/>
<path d="M80.7754 61.9482C80.1034 61.9482 79.604 61.7942 79.2774 61.4862C78.96 61.1782 78.8014 60.6975 78.8014 60.0442V52.7922H79.9774V60.0162C79.9774 60.3522 80.052 60.5855 80.2014 60.7162C80.3507 60.8468 80.5794 60.9122 80.8874 60.9122H81.9514V61.9482H80.7754ZM77.7094 55.5642V54.5282H81.9514V55.5642H77.7094Z" fill="#626884"/>
<path d="M83.3198 61.9482V54.5282H84.4958V61.9482H83.3198ZM83.2918 53.3662V51.9942H84.5238V53.3662H83.2918Z" fill="#626884"/>
<path d="M86.7345 61.9482V54.5282H87.8125L87.8545 56.4182L87.7145 56.2922C87.8078 55.8535 87.9711 55.4942 88.2045 55.2142C88.4378 54.9248 88.7178 54.7102 89.0445 54.5702C89.3805 54.4302 89.7398 54.3602 90.1225 54.3602C90.6918 54.3602 91.1585 54.4862 91.5225 54.7382C91.8958 54.9902 92.1711 55.3308 92.3484 55.7602C92.5351 56.1802 92.6285 56.6515 92.6285 57.1742V61.9482H91.4525V57.5102C91.4525 57.0528 91.3965 56.6702 91.2845 56.3622C91.1818 56.0448 91.0138 55.8068 90.7805 55.6482C90.5471 55.4802 90.2438 55.3962 89.8705 55.3962C89.3011 55.3962 88.8298 55.5782 88.4565 55.9422C88.0925 56.2968 87.9105 56.8195 87.9105 57.5102V61.9482H86.7345Z" fill="#626884"/>
<path d="M97.3792 64.2162C96.8472 64.2162 96.3665 64.1275 95.9372 63.9502C95.5078 63.7728 95.1485 63.5208 94.8592 63.1942C94.5698 62.8675 94.3738 62.4895 94.2712 62.0602L95.5032 61.9762C95.6152 62.3215 95.8112 62.5922 96.0912 62.7882C96.3805 62.9935 96.8098 63.0962 97.3792 63.0962C98.0512 63.0962 98.5645 62.9608 98.9192 62.6902C99.2832 62.4195 99.4652 62.0135 99.4652 61.4722V60.2682C99.2878 60.6602 99.0032 60.9728 98.6112 61.2062C98.2192 61.4395 97.7805 61.5562 97.2952 61.5562C96.6698 61.5562 96.1098 61.4022 95.6152 61.0942C95.1298 60.7862 94.7472 60.3615 94.4672 59.8202C94.1965 59.2788 94.0612 58.6582 94.0612 57.9582C94.0612 57.2488 94.1965 56.6282 94.4672 56.0962C94.7378 55.5548 95.1112 55.1302 95.5872 54.8222C96.0725 54.5142 96.6232 54.3602 97.2392 54.3602C97.7618 54.3602 98.2285 54.4815 98.6392 54.7242C99.0592 54.9668 99.3532 55.2935 99.5212 55.7042V54.5282H100.641V61.4442C100.641 62.0228 100.51 62.5175 100.249 62.9282C99.9878 63.3482 99.6145 63.6655 99.1292 63.8802C98.6438 64.1042 98.0605 64.2162 97.3792 64.2162ZM97.3512 60.4362C97.9858 60.4362 98.4945 60.2168 98.8772 59.7782C99.2598 59.3302 99.4558 58.7235 99.4652 57.9582C99.4745 57.4448 99.3905 57.0062 99.2132 56.6422C99.0452 56.2688 98.7978 55.9842 98.4712 55.7882C98.1538 55.5828 97.7805 55.4802 97.3512 55.4802C96.6978 55.4802 96.1892 55.7042 95.8252 56.1522C95.4705 56.5908 95.2932 57.1928 95.2932 57.9582C95.2932 58.7235 95.4752 59.3302 95.8392 59.7782C96.2125 60.2168 96.7165 60.4362 97.3512 60.4362Z" fill="#626884"/>
<path d="M106.266 61.9482V52.0082H112.51V53.1842H107.47V56.3902H112.342V57.5382H107.47V60.7722H112.622V61.9482H106.266Z" fill="#626884"/>
<path d="M114.393 61.9482V54.5282H115.471L115.513 56.4042L115.345 56.3482C115.429 55.9375 115.574 55.5875 115.779 55.2982C115.994 54.9995 116.255 54.7708 116.563 54.6122C116.871 54.4442 117.212 54.3602 117.585 54.3602C118.229 54.3602 118.752 54.5375 119.153 54.8922C119.564 55.2468 119.821 55.7415 119.923 56.3762L119.699 56.3622C119.774 55.9328 119.909 55.5735 120.105 55.2842C120.311 54.9855 120.572 54.7568 120.889 54.5982C121.207 54.4395 121.571 54.3602 121.981 54.3602C122.513 54.3602 122.961 54.4722 123.325 54.6962C123.689 54.9108 123.965 55.2282 124.151 55.6482C124.338 56.0682 124.431 56.5768 124.431 57.1742V61.9482H123.255V57.4262C123.255 56.7542 123.125 56.2502 122.863 55.9142C122.602 55.5688 122.215 55.3962 121.701 55.3962C121.356 55.3962 121.053 55.4802 120.791 55.6482C120.539 55.8162 120.343 56.0588 120.203 56.3762C120.063 56.6842 119.993 57.0622 119.993 57.5102V61.9482H118.817V57.5102C118.817 56.8475 118.701 56.3295 118.467 55.9562C118.234 55.5828 117.842 55.3962 117.291 55.3962C116.946 55.3962 116.643 55.4802 116.381 55.6482C116.129 55.8162 115.929 56.0588 115.779 56.3762C115.639 56.6935 115.569 57.0715 115.569 57.5102V61.9482H114.393Z" fill="#626884"/>
<path d="M128.396 62.1162C127.63 62.1162 127.019 61.9388 126.562 61.5842C126.114 61.2295 125.89 60.7348 125.89 60.1002C125.89 59.4655 126.076 58.9662 126.45 58.6022C126.823 58.2382 127.416 57.9815 128.228 57.8322L130.86 57.3422C130.86 56.7168 130.711 56.2502 130.412 55.9422C130.123 55.6342 129.684 55.4802 129.096 55.4802C128.582 55.4802 128.176 55.5968 127.878 55.8302C127.579 56.0542 127.374 56.3808 127.262 56.8102L126.016 56.7122C126.156 56.0122 126.492 55.4475 127.024 55.0182C127.565 54.5795 128.256 54.3602 129.096 54.3602C130.048 54.3602 130.776 54.6308 131.28 55.1722C131.784 55.7042 132.036 56.4415 132.036 57.3842V60.4502C132.036 60.6182 132.064 60.7395 132.12 60.8142C132.185 60.8795 132.288 60.9122 132.428 60.9122H132.722V61.9482C132.684 61.9575 132.624 61.9622 132.54 61.9622C132.456 61.9715 132.367 61.9762 132.274 61.9762C131.938 61.9762 131.662 61.9248 131.448 61.8222C131.242 61.7102 131.093 61.5422 131 61.3182C130.906 61.0848 130.86 60.7815 130.86 60.4082L131 60.4362C130.934 60.7535 130.776 61.0428 130.524 61.3042C130.272 61.5562 129.959 61.7568 129.586 61.9062C129.212 62.0462 128.816 62.1162 128.396 62.1162ZM128.508 61.0802C129.002 61.0802 129.422 60.9868 129.768 60.8002C130.122 60.6042 130.393 60.3428 130.58 60.0162C130.767 59.6802 130.86 59.3068 130.86 58.8962V58.3642L128.452 58.8122C127.948 58.9055 127.598 59.0502 127.402 59.2462C127.215 59.4328 127.122 59.6802 127.122 59.9882C127.122 60.3335 127.243 60.6042 127.486 60.8002C127.738 60.9868 128.078 61.0802 128.508 61.0802Z" fill="#626884"/>
<path d="M133.855 61.9482V54.5282H135.031V61.9482H133.855ZM133.827 53.3662V51.9942H135.059V53.3662H133.827Z" fill="#626884"/>
<path d="M138.453 61.9482C138.023 61.9482 137.673 61.8362 137.403 61.6122C137.132 61.3882 136.997 61.0335 136.997 60.5482V52.0082H138.173V60.4502C138.173 60.5995 138.21 60.7162 138.285 60.8002C138.369 60.8748 138.485 60.9122 138.635 60.9122H139.279V61.9482H138.453Z" fill="#626884"/>
<path d="M143.209 62.1162C142.546 62.1162 141.982 62.0088 141.515 61.7942C141.058 61.5795 140.698 61.2855 140.437 60.9122C140.185 60.5295 140.04 60.0955 140.003 59.6102L141.235 59.5262C141.31 59.9742 141.501 60.3335 141.809 60.6042C142.117 60.8655 142.584 60.9962 143.209 60.9962C143.713 60.9962 144.114 60.9168 144.413 60.7582C144.721 60.5902 144.875 60.3242 144.875 59.9602C144.875 59.7642 144.828 59.6008 144.735 59.4702C144.642 59.3395 144.46 59.2275 144.189 59.1342C143.918 59.0315 143.517 58.9335 142.985 58.8402C142.276 58.7095 141.716 58.5508 141.305 58.3642C140.904 58.1682 140.614 57.9302 140.437 57.6502C140.269 57.3608 140.185 57.0202 140.185 56.6282C140.185 55.9655 140.428 55.4242 140.913 55.0042C141.398 54.5748 142.089 54.3602 142.985 54.3602C143.592 54.3602 144.1 54.4722 144.511 54.6962C144.931 54.9108 145.258 55.2002 145.491 55.5642C145.734 55.9188 145.892 56.3108 145.967 56.7402L144.735 56.8242C144.679 56.5628 144.576 56.3342 144.427 56.1382C144.278 55.9328 144.082 55.7742 143.839 55.6622C143.596 55.5408 143.307 55.4802 142.971 55.4802C142.439 55.4802 142.047 55.5828 141.795 55.7882C141.543 55.9935 141.417 56.2548 141.417 56.5722C141.417 56.8148 141.473 57.0155 141.585 57.1742C141.706 57.3235 141.898 57.4495 142.159 57.5522C142.42 57.6455 142.77 57.7295 143.209 57.8042C143.965 57.9348 144.553 58.0935 144.973 58.2802C145.393 58.4668 145.687 58.6955 145.855 58.9662C146.023 59.2368 146.107 59.5682 146.107 59.9602C146.107 60.4175 145.976 60.8095 145.715 61.1362C145.463 61.4535 145.118 61.6962 144.679 61.8642C144.25 62.0322 143.76 62.1162 143.209 62.1162Z" fill="#626884"/>
<path d="M154.653 62.1722C153.887 62.1722 153.22 62.0275 152.651 61.7382C152.081 61.4488 151.629 61.0522 151.293 60.5482C150.966 60.0348 150.775 59.4422 150.719 58.7702L151.979 58.6862C152.044 59.1808 152.189 59.6008 152.413 59.9462C152.637 60.2915 152.935 60.5528 153.309 60.7302C153.691 60.9075 154.149 60.9962 154.681 60.9962C155.147 60.9962 155.544 60.9355 155.871 60.8142C156.197 60.6928 156.445 60.5155 156.613 60.2822C156.79 60.0488 156.879 59.7642 156.879 59.4282C156.879 59.1202 156.804 58.8495 156.655 58.6162C156.515 58.3735 156.239 58.1542 155.829 57.9582C155.427 57.7528 154.83 57.5522 154.037 57.3562C153.271 57.1602 152.66 56.9455 152.203 56.7122C151.755 56.4788 151.428 56.1942 151.223 55.8582C151.027 55.5222 150.929 55.1068 150.929 54.6122C150.929 54.0522 151.059 53.5622 151.321 53.1422C151.591 52.7128 151.974 52.3815 152.469 52.1482C152.963 51.9055 153.552 51.7842 154.233 51.7842C154.961 51.7842 155.586 51.9242 156.109 52.2042C156.631 52.4748 157.047 52.8482 157.355 53.3242C157.663 53.8002 157.854 54.3415 157.929 54.9482L156.669 55.0322C156.613 54.6308 156.482 54.2762 156.277 53.9682C156.081 53.6508 155.81 53.4035 155.465 53.2262C155.119 53.0488 154.7 52.9602 154.205 52.9602C153.589 52.9602 153.099 53.1095 152.735 53.4082C152.371 53.6975 152.189 54.0802 152.189 54.5562C152.189 54.8642 152.259 55.1208 152.399 55.3262C152.548 55.5222 152.809 55.6995 153.183 55.8582C153.556 56.0075 154.093 56.1708 154.793 56.3482C155.623 56.5535 156.281 56.8008 156.767 57.0902C157.261 57.3702 157.612 57.6968 157.817 58.0702C158.032 58.4435 158.139 58.8682 158.139 59.3442C158.139 59.9228 157.989 60.4268 157.691 60.8562C157.392 61.2762 156.981 61.6028 156.459 61.8362C155.936 62.0602 155.334 62.1722 154.653 62.1722Z" fill="#626884"/>
<path d="M162.973 62.1162C162.273 62.1162 161.667 61.9575 161.153 61.6402C160.649 61.3228 160.257 60.8748 159.977 60.2962C159.707 59.7082 159.571 59.0222 159.571 58.2382C159.571 57.4542 159.707 56.7728 159.977 56.1942C160.257 55.6155 160.645 55.1675 161.139 54.8502C161.643 54.5235 162.236 54.3602 162.917 54.3602C163.561 54.3602 164.131 54.5142 164.625 54.8222C165.12 55.1208 165.503 55.5595 165.773 56.1382C166.053 56.7168 166.193 57.4215 166.193 58.2522V58.6022H160.803C160.85 59.3955 161.06 59.9928 161.433 60.3942C161.816 60.7955 162.329 60.9962 162.973 60.9962C163.459 60.9962 163.855 60.8842 164.163 60.6602C164.481 60.4268 164.7 60.1235 164.821 59.7502L166.081 59.8482C165.885 60.5108 165.512 61.0568 164.961 61.4862C164.42 61.9062 163.757 62.1162 162.973 62.1162ZM160.803 57.5662H164.905C164.849 56.8475 164.639 56.3202 164.275 55.9842C163.921 55.6482 163.468 55.4802 162.917 55.4802C162.348 55.4802 161.877 55.6575 161.503 56.0122C161.139 56.3575 160.906 56.8755 160.803 57.5662Z" fill="#626884"/>
<path d="M167.646 61.9482V54.5282H168.724L168.766 56.4182L168.626 56.2922C168.72 55.8535 168.883 55.4942 169.116 55.2142C169.35 54.9248 169.63 54.7102 169.956 54.5702C170.292 54.4302 170.652 54.3602 171.034 54.3602C171.604 54.3602 172.07 54.4862 172.434 54.7382C172.808 54.9902 173.083 55.3308 173.26 55.7602C173.447 56.1802 173.54 56.6515 173.54 57.1742V61.9482H172.364V57.5102C172.364 57.0528 172.308 56.6702 172.196 56.3622C172.094 56.0448 171.926 55.8068 171.692 55.6482C171.459 55.4802 171.156 55.3962 170.782 55.3962C170.213 55.3962 169.742 55.5782 169.368 55.9422C169.004 56.2968 168.822 56.8195 168.822 57.5102V61.9482H167.646Z" fill="#626884"/>
<path d="M177.796 61.9482C177.124 61.9482 176.625 61.7942 176.298 61.4862C175.981 61.1782 175.822 60.6975 175.822 60.0442V52.7922H176.998V60.0162C176.998 60.3522 177.073 60.5855 177.222 60.7162C177.372 60.8468 177.6 60.9122 177.908 60.9122H178.972V61.9482H177.796ZM174.73 55.5642V54.5282H178.972V55.5642H174.73Z" fill="#626884"/>
<path d="M184.511 61.9482V53.8562C184.511 53.3055 184.67 52.8622 184.987 52.5262C185.304 52.1808 185.799 52.0082 186.471 52.0082H187.647V53.0442H186.555C186.266 53.0442 186.046 53.1235 185.897 53.2822C185.757 53.4408 185.687 53.6602 185.687 53.9402V61.9482H184.511ZM183.503 55.5642V54.5282H187.549V55.5642H183.503Z" fill="#626884"/>
<path d="M188.743 61.9482V54.5282H189.779L189.835 56.4042L189.723 56.3622C189.816 55.7275 190.017 55.2655 190.325 54.9762C190.642 54.6775 191.062 54.5282 191.585 54.5282H192.312V55.6482H191.598C191.225 55.6482 190.913 55.7182 190.661 55.8582C190.418 55.9888 190.231 56.1895 190.1 56.4602C189.979 56.7215 189.919 57.0575 189.919 57.4682V61.9482H188.743Z" fill="#626884"/>
<path d="M196.245 62.1162C195.563 62.1162 194.966 61.9575 194.453 61.6402C193.939 61.3228 193.543 60.8748 193.263 60.2962C192.983 59.7082 192.843 59.0222 192.843 58.2382C192.843 57.4448 192.983 56.7588 193.263 56.1802C193.543 55.6015 193.939 55.1535 194.453 54.8362C194.966 54.5188 195.563 54.3602 196.245 54.3602C196.926 54.3602 197.519 54.5188 198.023 54.8362C198.536 55.1535 198.933 55.6015 199.213 56.1802C199.493 56.7588 199.633 57.4448 199.633 58.2382C199.633 59.0222 199.493 59.7082 199.213 60.2962C198.933 60.8748 198.536 61.3228 198.023 61.6402C197.519 61.9575 196.926 62.1162 196.245 62.1162ZM196.245 60.9962C196.926 60.9962 197.453 60.7535 197.827 60.2682C198.209 59.7735 198.401 59.0968 198.401 58.2382C198.401 57.3795 198.209 56.7075 197.827 56.2222C197.453 55.7275 196.926 55.4802 196.245 55.4802C195.563 55.4802 195.031 55.7275 194.649 56.2222C194.266 56.7075 194.075 57.3795 194.075 58.2382C194.075 59.0968 194.266 59.7735 194.649 60.2682C195.031 60.7535 195.563 60.9962 196.245 60.9962Z" fill="#626884"/>
<path d="M201.095 61.9482V54.5282H202.173L202.215 56.4042L202.047 56.3482C202.131 55.9375 202.276 55.5875 202.481 55.2982C202.696 54.9995 202.957 54.7708 203.265 54.6122C203.573 54.4442 203.914 54.3602 204.287 54.3602C204.931 54.3602 205.454 54.5375 205.855 54.8922C206.266 55.2468 206.523 55.7415 206.625 56.3762L206.401 56.3622C206.476 55.9328 206.611 55.5735 206.807 55.2842C207.013 54.9855 207.274 54.7568 207.591 54.5982C207.909 54.4395 208.273 54.3602 208.683 54.3602C209.215 54.3602 209.663 54.4722 210.027 54.6962C210.391 54.9108 210.667 55.2282 210.853 55.6482C211.04 56.0682 211.133 56.5768 211.133 57.1742V61.9482H209.957V57.4262C209.957 56.7542 209.827 56.2502 209.565 55.9142C209.304 55.5688 208.917 55.3962 208.403 55.3962C208.058 55.3962 207.755 55.4802 207.493 55.6482C207.241 55.8162 207.045 56.0588 206.905 56.3762C206.765 56.6842 206.695 57.0622 206.695 57.5102V61.9482H205.519V57.5102C205.519 56.8475 205.403 56.3295 205.169 55.9562C204.936 55.5828 204.544 55.3962 203.993 55.3962C203.648 55.3962 203.345 55.4802 203.083 55.6482C202.831 55.8162 202.631 56.0588 202.481 56.3762C202.341 56.6935 202.271 57.0715 202.271 57.5102V61.9482H201.095Z" fill="#626884"/>
<path d="M215.753 61.9482L219.337 52.0082H220.961L224.545 61.9482H223.229L222.235 59.1202H218.063L217.069 61.9482H215.753ZM218.469 57.9442H221.829L220.149 53.0582L218.469 57.9442Z" fill="#626884"/>
<path d="M225.531 61.9482V54.5282H226.609L226.651 56.4182L226.511 56.2922C226.604 55.8535 226.767 55.4942 227.001 55.2142C227.234 54.9248 227.514 54.7102 227.841 54.5702C228.177 54.4302 228.536 54.3602 228.919 54.3602C229.488 54.3602 229.955 54.4862 230.319 54.7382C230.692 54.9902 230.967 55.3308 231.145 55.7602C231.331 56.1802 231.425 56.6515 231.425 57.1742V61.9482H230.249V57.5102C230.249 57.0528 230.193 56.6702 230.081 56.3622C229.978 56.0448 229.81 55.8068 229.577 55.6482C229.343 55.4802 229.04 55.3962 228.667 55.3962C228.097 55.3962 227.626 55.5782 227.253 55.9422C226.889 56.2968 226.707 56.8195 226.707 57.5102V61.9482H225.531Z" fill="#626884"/>
<path d="M233.369 64.0482V63.0122H234.223C234.484 63.0122 234.676 62.9702 234.797 62.8862C234.928 62.8115 235.026 62.6855 235.091 62.5082L235.357 61.8082H234.951L232.235 54.5282H233.523L235.735 60.7162L237.849 54.5282H239.137L236.127 62.8862C235.987 63.2875 235.777 63.5815 235.497 63.7682C235.217 63.9548 234.83 64.0482 234.335 64.0482H233.369Z" fill="#626884"/>
<path d="M243.955 61.9482V52.0082H250.199V53.1842H245.159V56.3902H250.031V57.5382H245.159V60.7722H250.311V61.9482H243.955Z" fill="#626884"/>
<path d="M252.082 61.9482V54.5282H253.16L253.202 56.4042L253.034 56.3482C253.118 55.9375 253.263 55.5875 253.468 55.2982C253.683 54.9995 253.944 54.7708 254.252 54.6122C254.56 54.4442 254.901 54.3602 255.274 54.3602C255.918 54.3602 256.441 54.5375 256.842 54.8922C257.253 55.2468 257.509 55.7415 257.612 56.3762L257.388 56.3622C257.463 55.9328 257.598 55.5735 257.794 55.2842C257.999 54.9855 258.261 54.7568 258.578 54.5982C258.895 54.4395 259.259 54.3602 259.67 54.3602C260.202 54.3602 260.65 54.4722 261.014 54.6962C261.378 54.9108 261.653 55.2282 261.84 55.6482C262.027 56.0682 262.12 56.5768 262.12 57.1742V61.9482H260.944V57.4262C260.944 56.7542 260.813 56.2502 260.552 55.9142C260.291 55.5688 259.903 55.3962 259.39 55.3962C259.045 55.3962 258.741 55.4802 258.48 55.6482C258.228 55.8162 258.032 56.0588 257.892 56.3762C257.752 56.6842 257.682 57.0622 257.682 57.5102V61.9482H256.506V57.5102C256.506 56.8475 256.389 56.3295 256.156 55.9562C255.923 55.5828 255.531 55.3962 254.98 55.3962C254.635 55.3962 254.331 55.4802 254.07 55.6482C253.818 55.8162 253.617 56.0588 253.468 56.3762C253.328 56.6935 253.258 57.0715 253.258 57.5102V61.9482H252.082Z" fill="#626884"/>
<path d="M266.085 62.1162C265.319 62.1162 264.708 61.9388 264.251 61.5842C263.803 61.2295 263.579 60.7348 263.579 60.1002C263.579 59.4655 263.765 58.9662 264.139 58.6022C264.512 58.2382 265.105 57.9815 265.917 57.8322L268.549 57.3422C268.549 56.7168 268.399 56.2502 268.101 55.9422C267.811 55.6342 267.373 55.4802 266.785 55.4802C266.271 55.4802 265.865 55.5968 265.567 55.8302C265.268 56.0542 265.063 56.3808 264.951 56.8102L263.705 56.7122C263.845 56.0122 264.181 55.4475 264.713 55.0182C265.254 54.5795 265.945 54.3602 266.785 54.3602C267.737 54.3602 268.465 54.6308 268.969 55.1722C269.473 55.7042 269.725 56.4415 269.725 57.3842V60.4502C269.725 60.6182 269.753 60.7395 269.809 60.8142C269.874 60.8795 269.977 60.9122 270.117 60.9122H270.411V61.9482C270.373 61.9575 270.313 61.9622 270.229 61.9622C270.145 61.9715 270.056 61.9762 269.963 61.9762C269.627 61.9762 269.351 61.9248 269.137 61.8222C268.931 61.7102 268.782 61.5422 268.689 61.3182C268.595 61.0848 268.549 60.7815 268.549 60.4082L268.689 60.4362C268.623 60.7535 268.465 61.0428 268.213 61.3042C267.961 61.5562 267.648 61.7568 267.275 61.9062C266.901 62.0462 266.505 62.1162 266.085 62.1162ZM266.197 61.0802C266.691 61.0802 267.111 60.9868 267.457 60.8002C267.811 60.6042 268.082 60.3428 268.269 60.0162C268.455 59.6802 268.549 59.3068 268.549 58.8962V58.3642L266.141 58.8122C265.637 58.9055 265.287 59.0502 265.091 59.2462C264.904 59.4328 264.811 59.6802 264.811 59.9882C264.811 60.3335 264.932 60.6042 265.175 60.8002C265.427 60.9868 265.767 61.0802 266.197 61.0802Z" fill="#626884"/>
<path d="M271.544 61.9482V54.5282H272.72V61.9482H271.544ZM271.516 53.3662V51.9942H272.748V53.3662H271.516Z" fill="#626884"/>
<path d="M276.142 61.9482C275.712 61.9482 275.362 61.8362 275.092 61.6122C274.821 61.3882 274.686 61.0335 274.686 60.5482V52.0082H275.862V60.4502C275.862 60.5995 275.899 60.7162 275.974 60.8002C276.058 60.8748 276.174 60.9122 276.324 60.9122H276.968V61.9482H276.142Z" fill="#626884"/>
<path d="M280.798 61.9482L284.382 52.0082H286.006L289.59 61.9482H288.274L287.28 59.1202H283.108L282.114 61.9482H280.798ZM283.514 57.9442H286.874L285.194 53.0582L283.514 57.9442Z" fill="#626884"/>
<path d="M293.501 62.1162C292.811 62.1162 292.209 61.9575 291.695 61.6402C291.191 61.3228 290.799 60.8748 290.519 60.2962C290.239 59.7082 290.099 59.0222 290.099 58.2382C290.099 57.4542 290.239 56.7728 290.519 56.1942C290.799 55.6155 291.191 55.1675 291.695 54.8502C292.209 54.5235 292.811 54.3602 293.501 54.3602C294.071 54.3602 294.575 54.4628 295.013 54.6682C295.461 54.8642 295.825 55.1535 296.105 55.5362C296.385 55.9188 296.567 56.3855 296.651 56.9362L295.419 57.0202C295.335 56.5255 295.121 56.1475 294.775 55.8862C294.43 55.6155 294.005 55.4802 293.501 55.4802C292.82 55.4802 292.288 55.7275 291.905 56.2222C291.523 56.7075 291.331 57.3795 291.331 58.2382C291.331 59.0968 291.523 59.7735 291.905 60.2682C292.288 60.7535 292.82 60.9962 293.501 60.9962C294.005 60.9962 294.43 60.8562 294.775 60.5762C295.121 60.2962 295.335 59.8762 295.419 59.3162L296.651 59.4002C296.567 59.9508 296.385 60.4315 296.105 60.8422C295.825 61.2435 295.461 61.5562 295.013 61.7802C294.575 62.0042 294.071 62.1162 293.501 62.1162Z" fill="#626884"/>
<path d="M300.867 62.1162C300.177 62.1162 299.575 61.9575 299.061 61.6402C298.557 61.3228 298.165 60.8748 297.885 60.2962C297.605 59.7082 297.465 59.0222 297.465 58.2382C297.465 57.4542 297.605 56.7728 297.885 56.1942C298.165 55.6155 298.557 55.1675 299.061 54.8502C299.575 54.5235 300.177 54.3602 300.867 54.3602C301.437 54.3602 301.941 54.4628 302.379 54.6682C302.827 54.8642 303.191 55.1535 303.471 55.5362C303.751 55.9188 303.933 56.3855 304.017 56.9362L302.785 57.0202C302.701 56.5255 302.487 56.1475 302.141 55.8862C301.796 55.6155 301.371 55.4802 300.867 55.4802C300.186 55.4802 299.654 55.7275 299.271 56.2222C298.889 56.7075 298.697 57.3795 298.697 58.2382C298.697 59.0968 298.889 59.7735 299.271 60.2682C299.654 60.7535 300.186 60.9962 300.867 60.9962C301.371 60.9962 301.796 60.8562 302.141 60.5762C302.487 60.2962 302.701 59.8762 302.785 59.3162L304.017 59.4002C303.933 59.9508 303.751 60.4315 303.471 60.8422C303.191 61.2435 302.827 61.5562 302.379 61.7802C301.941 62.0042 301.437 62.1162 300.867 62.1162Z" fill="#626884"/>
<path d="M308.233 62.1162C307.552 62.1162 306.954 61.9575 306.441 61.6402C305.928 61.3228 305.531 60.8748 305.251 60.2962C304.971 59.7082 304.831 59.0222 304.831 58.2382C304.831 57.4448 304.971 56.7588 305.251 56.1802C305.531 55.6015 305.928 55.1535 306.441 54.8362C306.954 54.5188 307.552 54.3602 308.233 54.3602C308.914 54.3602 309.507 54.5188 310.011 54.8362C310.525 55.1535 310.921 55.6015 311.201 56.1802C311.481 56.7588 311.621 57.4448 311.621 58.2382C311.621 59.0222 311.481 59.7082 311.201 60.2962C310.921 60.8748 310.525 61.3228 310.011 61.6402C309.507 61.9575 308.914 62.1162 308.233 62.1162ZM308.233 60.9962C308.914 60.9962 309.442 60.7535 309.815 60.2682C310.198 59.7735 310.389 59.0968 310.389 58.2382C310.389 57.3795 310.198 56.7075 309.815 56.2222C309.442 55.7275 308.914 55.4802 308.233 55.4802C307.552 55.4802 307.02 55.7275 306.637 56.2222C306.255 56.7075 306.063 57.3795 306.063 58.2382C306.063 59.0968 306.255 59.7735 306.637 60.2682C307.02 60.7535 307.552 60.9962 308.233 60.9962Z" fill="#626884"/>
<path d="M315.52 62.1162C314.783 62.1162 314.19 61.8688 313.742 61.3742C313.303 60.8702 313.084 60.1795 313.084 59.3022V54.5282H314.26V58.9802C314.26 59.6988 314.386 60.2308 314.638 60.5762C314.899 60.9122 315.296 61.0802 315.828 61.0802C316.416 61.0802 316.878 60.8935 317.214 60.5202C317.55 60.1375 317.718 59.6148 317.718 58.9522V54.5282H318.894V61.9482H317.774V60.1142L317.956 60.2122C317.807 60.8188 317.522 61.2902 317.102 61.6262C316.682 61.9528 316.155 62.1162 315.52 62.1162Z" fill="#626884"/>
<path d="M320.997 61.9482V54.5282H322.075L322.117 56.4182L321.977 56.2922C322.07 55.8535 322.233 55.4942 322.467 55.2142C322.7 54.9248 322.98 54.7102 323.307 54.5702C323.643 54.4302 324.002 54.3602 324.385 54.3602C324.954 54.3602 325.421 54.4862 325.785 54.7382C326.158 54.9902 326.433 55.3308 326.611 55.7602C326.797 56.1802 326.891 56.6515 326.891 57.1742V61.9482H325.715V57.5102C325.715 57.0528 325.659 56.6702 325.547 56.3622C325.444 56.0448 325.276 55.8068 325.043 55.6482C324.809 55.4802 324.506 55.3962 324.133 55.3962C323.563 55.3962 323.092 55.5782 322.719 55.9422C322.355 56.2968 322.173 56.8195 322.173 57.5102V61.9482H320.997Z" fill="#626884"/>
<path d="M331.147 61.9482C330.475 61.9482 329.975 61.7942 329.649 61.4862C329.331 61.1782 329.173 60.6975 329.173 60.0442V52.7922H330.349V60.0162C330.349 60.3522 330.423 60.5855 330.573 60.7162C330.722 60.8468 330.951 60.9122 331.259 60.9122H332.323V61.9482H331.147ZM328.081 55.5642V54.5282H332.323V55.5642H328.081Z" fill="#626884"/>
<rect x="16" y="112" width="368" height="32" rx="5" fill="#065AC7"/>
<path d="M155.51 132.893V122.953H159.276C159.976 122.953 160.578 123.074 161.082 123.317C161.586 123.56 161.973 123.91 162.244 124.367C162.524 124.815 162.664 125.347 162.664 125.963C162.664 126.411 162.556 126.812 162.342 127.167C162.136 127.512 161.87 127.788 161.544 127.993C161.217 128.198 160.876 128.31 160.522 128.329L160.438 128.203C161.044 128.203 161.52 128.343 161.866 128.623C162.22 128.903 162.426 129.351 162.482 129.967L162.762 132.893H161.544L161.292 130.093C161.254 129.682 161.105 129.379 160.844 129.183C160.592 128.987 160.176 128.889 159.598 128.889H156.714V132.893H155.51ZM156.714 127.713H159.43C160.036 127.713 160.517 127.559 160.872 127.251C161.226 126.943 161.404 126.504 161.404 125.935C161.404 125.356 161.222 124.913 160.858 124.605C160.494 124.288 159.966 124.129 159.276 124.129H156.714V127.713Z" fill="white"/>
<path d="M166.907 133.061C166.17 133.061 165.577 132.814 165.129 132.319C164.691 131.815 164.471 131.124 164.471 130.247V125.473H165.647V129.925C165.647 130.644 165.773 131.176 166.025 131.521C166.287 131.857 166.683 132.025 167.215 132.025C167.803 132.025 168.265 131.838 168.601 131.465C168.937 131.082 169.105 130.56 169.105 129.897V125.473H170.281V132.893H169.161V131.059L169.343 131.157C169.194 131.764 168.909 132.235 168.489 132.571C168.069 132.898 167.542 133.061 166.907 133.061Z" fill="white"/>
<path d="M172.384 132.893V125.473H173.462L173.504 127.363L173.364 127.237C173.457 126.798 173.621 126.439 173.854 126.159C174.087 125.87 174.367 125.655 174.694 125.515C175.03 125.375 175.389 125.305 175.772 125.305C176.341 125.305 176.808 125.431 177.172 125.683C177.545 125.935 177.821 126.276 177.998 126.705C178.185 127.125 178.278 127.596 178.278 128.119V132.893H177.102V128.455C177.102 127.998 177.046 127.615 176.934 127.307C176.831 126.99 176.663 126.752 176.43 126.593C176.197 126.425 175.893 126.341 175.52 126.341C174.951 126.341 174.479 126.523 174.106 126.887C173.742 127.242 173.56 127.764 173.56 128.455V132.893H172.384Z" fill="white"/>
<path d="M185.881 132.893V124.129H182.787V122.953H190.179V124.129H187.085V132.893H185.881Z" fill="white"/>
<path d="M193.1 133.061C192.4 133.061 191.794 132.902 191.28 132.585C190.776 132.268 190.384 131.82 190.104 131.241C189.834 130.653 189.698 129.967 189.698 129.183C189.698 128.399 189.834 127.718 190.104 127.139C190.384 126.56 190.772 126.112 191.266 125.795C191.77 125.468 192.363 125.305 193.044 125.305C193.688 125.305 194.258 125.459 194.752 125.767C195.247 126.066 195.63 126.504 195.9 127.083C196.18 127.662 196.32 128.366 196.32 129.197V129.547H190.93C190.977 130.34 191.187 130.938 191.56 131.339C191.943 131.74 192.456 131.941 193.1 131.941C193.586 131.941 193.982 131.829 194.29 131.605C194.608 131.372 194.827 131.068 194.948 130.695L196.208 130.793C196.012 131.456 195.639 132.002 195.088 132.431C194.547 132.851 193.884 133.061 193.1 133.061ZM190.93 128.511H195.032C194.976 127.792 194.766 127.265 194.402 126.929C194.048 126.593 193.595 126.425 193.044 126.425C192.475 126.425 192.004 126.602 191.63 126.957C191.266 127.302 191.033 127.82 190.93 128.511Z" fill="white"/>
<path d="M200.475 133.061C199.813 133.061 199.248 132.954 198.781 132.739C198.324 132.524 197.965 132.23 197.703 131.857C197.451 131.474 197.307 131.04 197.269 130.555L198.501 130.471C198.576 130.919 198.767 131.278 199.075 131.549C199.383 131.81 199.85 131.941 200.475 131.941C200.979 131.941 201.381 131.862 201.679 131.703C201.987 131.535 202.141 131.269 202.141 130.905C202.141 130.709 202.095 130.546 202.001 130.415C201.908 130.284 201.726 130.172 201.455 130.079C201.185 129.976 200.783 129.878 200.251 129.785C199.542 129.654 198.982 129.496 198.571 129.309C198.17 129.113 197.881 128.875 197.703 128.595C197.535 128.306 197.451 127.965 197.451 127.573C197.451 126.91 197.694 126.369 198.179 125.949C198.665 125.52 199.355 125.305 200.251 125.305C200.858 125.305 201.367 125.417 201.777 125.641C202.197 125.856 202.524 126.145 202.757 126.509C203 126.864 203.159 127.256 203.233 127.685L202.001 127.769C201.945 127.508 201.843 127.279 201.693 127.083C201.544 126.878 201.348 126.719 201.105 126.607C200.863 126.486 200.573 126.425 200.237 126.425C199.705 126.425 199.313 126.528 199.061 126.733C198.809 126.938 198.683 127.2 198.683 127.517C198.683 127.76 198.739 127.96 198.851 128.119C198.973 128.268 199.164 128.394 199.425 128.497C199.687 128.59 200.037 128.674 200.475 128.749C201.231 128.88 201.819 129.038 202.239 129.225C202.659 129.412 202.953 129.64 203.121 129.911C203.289 130.182 203.373 130.513 203.373 130.905C203.373 131.362 203.243 131.754 202.981 132.081C202.729 132.398 202.384 132.641 201.945 132.809C201.516 132.977 201.026 133.061 200.475 133.061Z" fill="white"/>
<path d="M207.267 132.893C206.595 132.893 206.096 132.739 205.769 132.431C205.452 132.123 205.293 131.642 205.293 130.989V123.737H206.469V130.961C206.469 131.297 206.544 131.53 206.693 131.661C206.843 131.792 207.071 131.857 207.379 131.857H208.443V132.893H207.267ZM204.201 126.509V125.473H208.443V126.509H204.201Z" fill="white"/>
<path d="M212.414 132.893L215.998 122.953H217.622L221.206 132.893H219.89L218.896 130.065H214.724L213.73 132.893H212.414ZM215.13 128.889H218.49L216.81 124.003L215.13 128.889Z" fill="white"/>
<path d="M224.628 133.061C223.89 133.061 223.298 132.814 222.85 132.319C222.411 131.815 222.192 131.124 222.192 130.247V125.473H223.368V129.925C223.368 130.644 223.494 131.176 223.746 131.521C224.007 131.857 224.404 132.025 224.936 132.025C225.524 132.025 225.986 131.838 226.322 131.465C226.658 131.082 226.826 130.56 226.826 129.897V125.473H228.002V132.893H226.882V131.059L227.064 131.157C226.914 131.764 226.63 132.235 226.21 132.571C225.79 132.898 225.262 133.061 224.628 133.061Z" fill="white"/>
<path d="M232.6 133.061C231.956 133.061 231.396 132.902 230.92 132.585C230.453 132.268 230.094 131.82 229.842 131.241C229.59 130.662 229.464 129.976 229.464 129.183C229.464 128.39 229.59 127.704 229.842 127.125C230.094 126.546 230.453 126.098 230.92 125.781C231.396 125.464 231.956 125.305 232.6 125.305C233.094 125.305 233.547 125.412 233.958 125.627C234.368 125.832 234.676 126.126 234.882 126.509V122.953H236.058V132.893H234.994L234.952 131.773C234.746 132.174 234.434 132.492 234.014 132.725C233.594 132.949 233.122 133.061 232.6 133.061ZM232.838 131.941C233.276 131.941 233.645 131.829 233.944 131.605C234.252 131.381 234.485 131.064 234.644 130.653C234.802 130.233 234.882 129.743 234.882 129.183C234.882 128.604 234.802 128.11 234.644 127.699C234.485 127.288 234.252 126.976 233.944 126.761C233.645 126.537 233.276 126.425 232.838 126.425C232.184 126.425 231.662 126.672 231.27 127.167C230.887 127.652 230.696 128.324 230.696 129.183C230.696 130.032 230.887 130.704 231.27 131.199C231.662 131.694 232.184 131.941 232.838 131.941Z" fill="white"/>
<path d="M237.881 132.893V125.473H239.057V132.893H237.881ZM237.853 124.311V122.939H239.085V124.311H237.853Z" fill="white"/>
<path d="M243.314 132.893C242.642 132.893 242.143 132.739 241.816 132.431C241.499 132.123 241.34 131.642 241.34 130.989V123.737H242.516V130.961C242.516 131.297 242.591 131.53 242.74 131.661C242.889 131.792 243.118 131.857 243.426 131.857H244.49V132.893H243.314ZM240.248 126.509V125.473H244.49V126.509H240.248Z" fill="white"/>
</svg>
