<svg width="390" height="260" viewBox="0 0 390 260" fill="none" xmlns="http://www.w3.org/2000/svg">
<path d="M8.66602 0.75H381.999C386.003 0.75 389.249 3.99594 389.249 8V252C389.249 256.004 386.003 259.25 381.999 259.25H8.66603C4.66196 259.25 1.41602 256.004 1.41602 252V8C1.41602 3.99594 4.66195 0.75 8.66602 0.75Z" fill="white"/>
<path d="M8.66602 0.75H381.999C386.003 0.75 389.249 3.99594 389.249 8V252C389.249 256.004 386.003 259.25 381.999 259.25H8.66603C4.66196 259.25 1.41602 256.004 1.41602 252V8C1.41602 3.99594 4.66195 0.75 8.66602 0.75Z" stroke="#F0F2F7" stroke-width="1.5"/>
<path d="M17.6562 32.5519V21.1919H21.4323C23.2456 21.1919 24.6376 21.6879 25.6083 22.6799C26.5896 23.6612 27.0803 25.0639 27.0803 26.8879C27.0803 28.7012 26.6003 30.0985 25.6403 31.0799C24.6803 32.0612 23.3096 32.5519 21.5283 32.5519H17.6562ZM19.7362 30.7439H21.4323C22.6163 30.7439 23.4963 30.4239 24.0723 29.7839C24.6483 29.1439 24.9363 28.1785 24.9363 26.8879C24.9363 25.5759 24.6483 24.5999 24.0723 23.9599C23.4963 23.3199 22.6163 22.9999 21.4323 22.9999H19.7362V30.7439Z" fill="#00022A"/>
<path d="M32.5635 32.7439C31.7102 32.7439 30.9688 32.5625 30.3395 32.1999C29.7102 31.8265 29.2248 31.3039 28.8835 30.6319C28.5422 29.9599 28.3715 29.1759 28.3715 28.2799C28.3715 27.3839 28.5422 26.6052 28.8835 25.9439C29.2248 25.2719 29.7048 24.7492 30.3235 24.3759C30.9528 24.0025 31.6835 23.8159 32.5155 23.8159C33.3262 23.8159 34.0355 23.9972 34.6435 24.3599C35.2622 24.7225 35.7368 25.2452 36.0675 25.9279C36.3982 26.6105 36.5635 27.4319 36.5635 28.3919V28.8559H30.4995C30.5422 29.6025 30.7448 30.1679 31.1075 30.5519C31.4808 30.9252 31.9715 31.1119 32.5795 31.1119C33.0382 31.1119 33.4168 31.0105 33.7155 30.8079C34.0248 30.5945 34.2382 30.3012 34.3555 29.9279L36.4515 30.0559C36.2168 30.8879 35.7528 31.5439 35.0595 32.0239C34.3768 32.5039 33.5448 32.7439 32.5635 32.7439ZM30.4995 27.4799H34.4515C34.4088 26.7865 34.2115 26.2745 33.8595 25.9439C33.5075 25.6025 33.0595 25.4319 32.5155 25.4319C31.9715 25.4319 31.5182 25.6079 31.1555 25.9599C30.8035 26.3119 30.5848 26.8185 30.4995 27.4799Z" fill="#00022A"/>
<path d="M40.1305 32.5519C39.5118 32.5519 39.0158 32.3919 38.6425 32.0719C38.2692 31.7519 38.0825 31.2399 38.0825 30.5359V21.1919H40.1305V30.3279C40.1305 30.5412 40.1838 30.7012 40.2905 30.8079C40.4078 30.9145 40.5678 30.9679 40.7705 30.9679H41.3945V32.5519H40.1305Z" fill="#00022A"/>
<path d="M42.5475 32.5519V24.0079H44.5955V32.5519H42.5475ZM42.5155 22.8719V21.0479H44.6435V22.8719H42.5155Z" fill="#00022A"/>
<path d="M48.8641 32.5519L45.7441 24.0079H47.9041L50.0801 30.4879L52.2561 24.0079H54.4161L51.2961 32.5519H48.8641Z" fill="#00022A"/>
<path d="M58.9548 32.7439C58.1014 32.7439 57.3601 32.5625 56.7308 32.1999C56.1014 31.8265 55.6161 31.3039 55.2747 30.6319C54.9334 29.9599 54.7628 29.1759 54.7628 28.2799C54.7628 27.3839 54.9334 26.6052 55.2747 25.9439C55.6161 25.2719 56.0961 24.7492 56.7148 24.3759C57.3441 24.0025 58.0747 23.8159 58.9067 23.8159C59.7174 23.8159 60.4268 23.9972 61.0348 24.3599C61.6534 24.7225 62.1281 25.2452 62.4588 25.9279C62.7894 26.6105 62.9548 27.4319 62.9548 28.3919V28.8559H56.8908C56.9334 29.6025 57.1361 30.1679 57.4988 30.5519C57.8721 30.9252 58.3628 31.1119 58.9708 31.1119C59.4294 31.1119 59.8081 31.0105 60.1068 30.8079C60.4161 30.5945 60.6294 30.3012 60.7467 29.9279L62.8428 30.0559C62.6081 30.8879 62.1441 31.5439 61.4508 32.0239C60.7681 32.5039 59.9361 32.7439 58.9548 32.7439ZM56.8908 27.4799H60.8428C60.8001 26.7865 60.6028 26.2745 60.2508 25.9439C59.8988 25.6025 59.4507 25.4319 58.9067 25.4319C58.3627 25.4319 57.9094 25.6079 57.5467 25.9599C57.1947 26.3119 56.9761 26.8185 56.8908 27.4799Z" fill="#00022A"/>
<path d="M64.3956 32.5519V24.0079H66.3156L66.3956 26.3759L66.2196 26.3439C66.3476 25.5225 66.5876 24.9305 66.9396 24.5679C67.3023 24.1945 67.793 24.0079 68.4116 24.0079H69.1956V25.7679H68.3956C67.9583 25.7679 67.5956 25.8319 67.3076 25.9599C67.0196 26.0879 66.801 26.2905 66.6516 26.5679C66.513 26.8345 66.4436 27.1865 66.4436 27.6239V32.5519H64.3956Z" fill="#00022A"/>
<path d="M72.6844 32.7439C71.7884 32.7439 71.0684 32.5412 70.5244 32.1359C69.9804 31.7199 69.7084 31.1439 69.7084 30.4079C69.7084 29.6719 69.9377 29.0959 70.3964 28.6799C70.855 28.2639 71.5537 27.9652 72.4924 27.7839L75.3244 27.2239C75.3244 26.6159 75.1857 26.1625 74.9084 25.8639C74.631 25.5545 74.2204 25.3999 73.6764 25.3999C73.1857 25.3999 72.7964 25.5172 72.5084 25.7519C72.231 25.9759 72.039 26.3012 71.9324 26.7279L69.8524 26.6319C70.023 25.7252 70.439 25.0319 71.1004 24.5519C71.7617 24.0612 72.6204 23.8159 73.6764 23.8159C74.8924 23.8159 75.8097 24.1252 76.4284 24.7439C77.0577 25.3519 77.3724 26.2265 77.3724 27.3679V30.4719C77.3724 30.6959 77.4097 30.8505 77.4844 30.9359C77.5697 31.0212 77.6924 31.0639 77.8524 31.0639H78.1244V32.5519C78.0604 32.5732 77.9537 32.5892 77.8044 32.5999C77.6657 32.6105 77.5217 32.6159 77.3724 32.6159C77.0204 32.6159 76.7057 32.5625 76.4284 32.4559C76.151 32.3385 75.9377 32.1412 75.7884 31.8639C75.639 31.5759 75.5644 31.1865 75.5644 30.6959L75.7404 30.8239C75.655 31.1972 75.4684 31.5332 75.1804 31.8319C74.903 32.1199 74.551 32.3439 74.1244 32.5039C73.6977 32.6639 73.2177 32.7439 72.6844 32.7439ZM73.1004 31.2559C73.559 31.2559 73.9537 31.1652 74.2844 30.9839C74.615 30.8025 74.871 30.5519 75.0524 30.2319C75.2337 29.9119 75.3244 29.5332 75.3244 29.0959V28.6159L73.1164 29.0639C72.6577 29.1599 72.327 29.3039 72.1244 29.4959C71.9324 29.6772 71.8364 29.9172 71.8364 30.2159C71.8364 30.5465 71.943 30.8025 72.1564 30.9839C72.3804 31.1652 72.695 31.2559 73.1004 31.2559Z" fill="#00022A"/>
<path d="M83.7926 32.7439C83.1953 32.7439 82.6726 32.6159 82.2246 32.3599C81.7873 32.1039 81.446 31.7465 81.2006 31.2879L81.1526 32.5519H79.2006V21.1919H81.2486V25.2239C81.4833 24.8292 81.8193 24.4985 82.2566 24.2319C82.694 23.9545 83.206 23.8159 83.7926 23.8159C84.5286 23.8159 85.1633 24.0025 85.6966 24.3759C86.2406 24.7385 86.6566 25.2559 86.9446 25.9279C87.2433 26.5892 87.3926 27.3732 87.3926 28.2799C87.3926 29.1865 87.2433 29.9759 86.9446 30.6479C86.6566 31.3092 86.2406 31.8265 85.6966 32.1999C85.1633 32.5625 84.5286 32.7439 83.7926 32.7439ZM83.3286 31.0799C83.9153 31.0799 84.3846 30.8345 84.7366 30.3439C85.0886 29.8425 85.2646 29.1545 85.2646 28.2799C85.2646 27.3945 85.0886 26.7065 84.7366 26.2159C84.3953 25.7252 83.9313 25.4799 83.3446 25.4799C82.9073 25.4799 82.5286 25.5919 82.2086 25.8159C81.8993 26.0292 81.6593 26.3439 81.4886 26.7599C81.3286 27.1759 81.2486 27.6825 81.2486 28.2799C81.2486 28.8559 81.3286 29.3572 81.4886 29.7839C81.6593 30.1999 81.8993 30.5199 82.2086 30.7439C82.518 30.9679 82.8913 31.0799 83.3286 31.0799Z" fill="#00022A"/>
<path d="M88.8219 32.5519V24.0079H90.8699V32.5519H88.8219ZM88.7899 22.8719V21.0479H90.9179V22.8719H88.7899Z" fill="#00022A"/>
<path d="M94.8974 32.5519C94.2787 32.5519 93.7827 32.3919 93.4094 32.0719C93.036 31.7519 92.8494 31.2399 92.8494 30.5359V21.1919H94.8974V30.3279C94.8974 30.5412 94.9507 30.7012 95.0574 30.8079C95.1747 30.9145 95.3347 30.9679 95.5374 30.9679H96.1614V32.5519H94.8974Z" fill="#00022A"/>
<path d="M97.3144 32.5519V24.0079H99.3624V32.5519H97.3144ZM97.2824 22.8719V21.0479H99.4104V22.8719H97.2824Z" fill="#00022A"/>
<path d="M104.344 32.5519C103.491 32.5519 102.861 32.3545 102.456 31.9599C102.061 31.5652 101.864 30.9465 101.864 30.1039V22.0079H103.912V29.9119C103.912 30.3065 103.997 30.5839 104.168 30.7439C104.339 30.8932 104.605 30.9679 104.968 30.9679H106.168V32.5519H104.344ZM100.52 25.5919V24.0079H106.168V25.5919H100.52Z" fill="#00022A"/>
<path d="M108.009 34.9519V33.3679H109.097C109.374 33.3679 109.577 33.3252 109.705 33.2399C109.843 33.1545 109.95 33.0105 110.025 32.8079L110.265 32.2159H109.673L106.617 24.0079H108.745L110.889 30.2959L112.937 24.0079H115.065L111.721 33.4479C111.529 33.9812 111.257 34.3652 110.905 34.5999C110.563 34.8345 110.083 34.9519 109.465 34.9519H108.009Z" fill="#00022A"/>
<path d="M124.579 32.7439C123.982 32.7439 123.459 32.6159 123.011 32.3599C122.574 32.1039 122.232 31.7465 121.987 31.2879L121.939 32.5519H119.987V21.1919H122.035V25.2239C122.27 24.8292 122.606 24.4985 123.043 24.2319C123.48 23.9545 123.992 23.8159 124.579 23.8159C125.315 23.8159 125.95 24.0025 126.483 24.3759C127.027 24.7385 127.443 25.2559 127.731 25.9279C128.03 26.5892 128.179 27.3732 128.179 28.2799C128.179 29.1865 128.03 29.9759 127.731 30.6479C127.443 31.3092 127.027 31.8265 126.483 32.1999C125.95 32.5625 125.315 32.7439 124.579 32.7439ZM124.115 31.0799C124.702 31.0799 125.171 30.8345 125.523 30.3439C125.875 29.8425 126.051 29.1545 126.051 28.2799C126.051 27.3945 125.875 26.7065 125.523 26.2159C125.182 25.7252 124.718 25.4799 124.131 25.4799C123.694 25.4799 123.315 25.5919 122.995 25.8159C122.686 26.0292 122.446 26.3439 122.275 26.7599C122.115 27.1759 122.035 27.6825 122.035 28.2799C122.035 28.8559 122.115 29.3572 122.275 29.7839C122.446 30.1999 122.686 30.5199 122.995 30.7439C123.304 30.9679 123.678 31.0799 124.115 31.0799Z" fill="#00022A"/>
<path d="M129.919 34.9519V33.3679H131.007C131.285 33.3679 131.487 33.3252 131.615 33.2399C131.754 33.1545 131.861 33.0105 131.935 32.8079L132.175 32.2159H131.583L128.527 24.0079H130.655L132.799 30.2959L134.847 24.0079H136.975L133.631 33.4479C133.439 33.9812 133.167 34.3652 132.815 34.5999C132.474 34.8345 131.994 34.9519 131.375 34.9519H129.919Z" fill="#00022A"/>
<path d="M142.058 32.5519V21.1919H146.458C147.791 21.1919 148.831 21.5119 149.577 22.1519C150.324 22.7919 150.698 23.6772 150.698 24.8079C150.698 25.5652 150.527 26.2212 150.186 26.7759C149.844 27.3199 149.359 27.7359 148.73 28.0239C148.1 28.3119 147.343 28.4559 146.458 28.4559H144.138V32.5519H142.058ZM144.138 26.6479H146.361C147.065 26.6479 147.604 26.4932 147.978 26.1839C148.362 25.8745 148.553 25.4159 148.553 24.8079C148.553 24.2105 148.362 23.7625 147.978 23.4639C147.604 23.1545 147.065 22.9999 146.361 22.9999H144.138V26.6479Z" fill="#00022A"/>
<path d="M152.253 32.5519V24.0079H154.173L154.253 26.3759L154.077 26.3439C154.205 25.5225 154.445 24.9305 154.797 24.5679C155.16 24.1945 155.65 24.0079 156.269 24.0079H157.053V25.7679H156.253C155.816 25.7679 155.453 25.8319 155.165 25.9599C154.877 26.0879 154.658 26.2905 154.509 26.5679C154.37 26.8345 154.301 27.1865 154.301 27.6239V32.5519H152.253Z" fill="#00022A"/>
<path d="M161.711 32.7439C160.869 32.7439 160.127 32.5625 159.487 32.1999C158.858 31.8265 158.367 31.3039 158.015 30.6319C157.674 29.9599 157.503 29.1759 157.503 28.2799C157.503 27.3732 157.674 26.5892 158.015 25.9279C158.367 25.2559 158.858 24.7385 159.487 24.3759C160.127 24.0025 160.869 23.8159 161.711 23.8159C162.554 23.8159 163.29 24.0025 163.919 24.3759C164.549 24.7385 165.034 25.2559 165.375 25.9279C165.727 26.5892 165.903 27.3732 165.903 28.2799C165.903 29.1759 165.727 29.9599 165.375 30.6319C165.034 31.3039 164.549 31.8265 163.919 32.1999C163.29 32.5625 162.554 32.7439 161.711 32.7439ZM161.711 31.0799C162.373 31.0799 162.879 30.8345 163.231 30.3439C163.594 29.8532 163.775 29.1652 163.775 28.2799C163.775 27.4052 163.594 26.7225 163.231 26.2319C162.879 25.7305 162.373 25.4799 161.711 25.4799C161.05 25.4799 160.538 25.7305 160.175 26.2319C159.813 26.7225 159.631 27.4052 159.631 28.2799C159.631 29.1652 159.813 29.8532 160.175 30.3439C160.538 30.8345 161.05 31.0799 161.711 31.0799Z" fill="#00022A"/>
<path d="M169.363 32.5519L166.243 24.0079H168.403L170.579 30.4879L172.755 24.0079H174.915L171.795 32.5519H169.363Z" fill="#00022A"/>
<path d="M176.054 32.5519V24.0079H178.102V32.5519H176.054ZM176.022 22.8719V21.0479H178.15V22.8719H176.022Z" fill="#00022A"/>
<path d="M183.075 32.7439C182.35 32.7439 181.72 32.5625 181.187 32.1999C180.664 31.8372 180.259 31.3199 179.971 30.6479C179.683 29.9759 179.539 29.1865 179.539 28.2799C179.539 27.3732 179.683 26.5839 179.971 25.9119C180.259 25.2399 180.67 24.7225 181.203 24.3599C181.736 23.9972 182.36 23.8159 183.075 23.8159C183.672 23.8159 184.195 23.9385 184.643 24.1839C185.102 24.4292 185.448 24.7759 185.683 25.2239V21.1919H187.731V32.5519H185.779L185.731 31.2879C185.496 31.7465 185.144 32.1039 184.675 32.3599C184.206 32.6159 183.672 32.7439 183.075 32.7439ZM183.699 31.0799C184.126 31.0799 184.483 30.9732 184.771 30.7599C185.07 30.5465 185.294 30.2319 185.443 29.8159C185.603 29.3892 185.683 28.8772 185.683 28.2799C185.683 27.6719 185.603 27.1599 185.443 26.7439C185.294 26.3279 185.07 26.0132 184.771 25.7999C184.483 25.5865 184.126 25.4799 183.699 25.4799C183.08 25.4799 182.584 25.7305 182.211 26.2319C181.848 26.7225 181.667 27.4052 181.667 28.2799C181.667 29.1332 181.848 29.8159 182.211 30.3279C182.584 30.8292 183.08 31.0799 183.699 31.0799Z" fill="#00022A"/>
<path d="M193.352 32.7439C192.499 32.7439 191.758 32.5625 191.128 32.1999C190.499 31.8265 190.014 31.3039 189.672 30.6319C189.331 29.9599 189.16 29.1759 189.16 28.2799C189.16 27.3839 189.331 26.6052 189.672 25.9439C190.014 25.2719 190.494 24.7492 191.112 24.3759C191.742 24.0025 192.472 23.8159 193.304 23.8159C194.115 23.8159 194.824 23.9972 195.432 24.3599C196.051 24.7225 196.526 25.2452 196.856 25.9279C197.187 26.6105 197.352 27.4319 197.352 28.3919V28.8559H191.288C191.331 29.6025 191.534 30.1679 191.896 30.5519C192.27 30.9252 192.76 31.1119 193.368 31.1119C193.827 31.1119 194.206 31.0105 194.504 30.8079C194.814 30.5945 195.027 30.3012 195.144 29.9279L197.24 30.0559C197.006 30.8879 196.542 31.5439 195.848 32.0239C195.166 32.5039 194.334 32.7439 193.352 32.7439ZM191.288 27.4799H195.24C195.198 26.7865 195 26.2745 194.648 25.9439C194.296 25.6025 193.848 25.4319 193.304 25.4319C192.76 25.4319 192.307 25.6079 191.944 25.9599C191.592 26.3119 191.374 26.8185 191.288 27.4799Z" fill="#00022A"/>
<path d="M198.793 32.5519V24.0079H200.713L200.793 26.3759L200.617 26.3439C200.745 25.5225 200.985 24.9305 201.337 24.5679C201.7 24.1945 202.19 24.0079 202.809 24.0079H203.593V25.7679H202.793C202.356 25.7679 201.993 25.8319 201.705 25.9599C201.417 26.0879 201.198 26.2905 201.049 26.5679C200.91 26.8345 200.841 27.1865 200.841 27.6239V32.5519H198.793Z" fill="#00022A"/>
<path d="M208.011 32.7439C207.169 32.7439 206.459 32.6212 205.883 32.3759C205.318 32.1305 204.881 31.7892 204.571 31.3519C204.262 30.9145 204.086 30.4185 204.043 29.8639L206.139 29.7679C206.214 30.2159 206.401 30.5625 206.699 30.8079C206.998 31.0532 207.441 31.1759 208.027 31.1759C208.507 31.1759 208.881 31.1012 209.147 30.9519C209.425 30.7919 209.563 30.5465 209.563 30.2159C209.563 30.0239 209.515 29.8639 209.419 29.7359C209.323 29.6079 209.142 29.4959 208.875 29.3999C208.609 29.3039 208.214 29.2079 207.691 29.1119C206.817 28.9625 206.129 28.7812 205.627 28.5679C205.126 28.3439 204.769 28.0665 204.555 27.7359C204.353 27.4052 204.251 26.9945 204.251 26.5039C204.251 25.7039 204.555 25.0585 205.163 24.5679C205.782 24.0665 206.683 23.8159 207.867 23.8159C208.635 23.8159 209.281 23.9439 209.803 24.1999C210.326 24.4452 210.731 24.7865 211.019 25.2239C211.318 25.6505 211.505 26.1412 211.579 26.6959L209.515 26.7919C209.462 26.5039 209.366 26.2532 209.227 26.0399C209.089 25.8265 208.902 25.6665 208.667 25.5599C208.433 25.4425 208.155 25.3839 207.835 25.3839C207.355 25.3839 206.993 25.4799 206.747 25.6719C206.502 25.8639 206.379 26.1199 206.379 26.4399C206.379 26.6639 206.433 26.8505 206.539 26.9999C206.657 27.1492 206.843 27.2719 207.099 27.3679C207.355 27.4532 207.697 27.5332 208.123 27.6079C209.019 27.7465 209.723 27.9279 210.235 28.1519C210.758 28.3652 211.126 28.6425 211.339 28.9839C211.563 29.3145 211.675 29.7145 211.675 30.1839C211.675 30.7279 211.521 31.1919 211.211 31.5759C210.913 31.9599 210.486 32.2532 209.931 32.4559C209.387 32.6479 208.747 32.7439 208.011 32.7439Z" fill="#00022A"/>
<path d="M21.811 70.1722C20.8777 70.1722 20.0797 69.9482 19.417 69.5002C18.7544 69.0522 18.2457 68.4408 17.891 67.6662C17.5457 66.8822 17.373 65.9908 17.373 64.9922C17.373 63.9935 17.5504 63.1022 17.905 62.3182C18.2597 61.5342 18.7684 60.9182 19.431 60.4702C20.103 60.0128 20.9057 59.7842 21.839 59.7842C22.6324 59.7842 23.2997 59.9288 23.841 60.2182C24.3917 60.5075 24.8257 60.8995 25.143 61.3942C25.4697 61.8888 25.6937 62.4442 25.815 63.0602L24.555 63.1442C24.4337 62.5002 24.163 61.9775 23.743 61.5762C23.323 61.1655 22.6884 60.9602 21.839 60.9602C21.083 60.9602 20.467 61.1468 19.991 61.5202C19.5244 61.8935 19.179 62.3882 18.955 63.0042C18.7404 63.6108 18.633 64.2735 18.633 64.9922C18.633 65.7482 18.745 66.4295 18.969 67.0362C19.193 67.6335 19.543 68.1095 20.019 68.4642C20.495 68.8188 21.1017 68.9962 21.839 68.9962C22.427 68.9962 22.9357 68.8655 23.365 68.6042C23.7944 68.3335 24.1257 67.9742 24.359 67.5262C24.5924 67.0782 24.7137 66.5928 24.723 66.0702H21.867V64.9222H25.843V69.9482H24.947L24.863 67.6522L25.031 67.8482C24.919 68.2962 24.7044 68.6975 24.387 69.0522C24.0697 69.3975 23.687 69.6728 23.239 69.8782C22.8004 70.0742 22.3244 70.1722 21.811 70.1722Z" fill="#1D1E38"/>
<path d="M30.5605 70.1162C29.8792 70.1162 29.2818 69.9575 28.7685 69.6402C28.2552 69.3228 27.8585 68.8748 27.5785 68.2962C27.2985 67.7082 27.1585 67.0222 27.1585 66.2382C27.1585 65.4448 27.2985 64.7588 27.5785 64.1802C27.8585 63.6015 28.2552 63.1535 28.7685 62.8362C29.2818 62.5188 29.8792 62.3602 30.5605 62.3602C31.2418 62.3602 31.8345 62.5188 32.3385 62.8362C32.8518 63.1535 33.2485 63.6015 33.5285 64.1802C33.8085 64.7588 33.9485 65.4448 33.9485 66.2382C33.9485 67.0222 33.8085 67.7082 33.5285 68.2962C33.2485 68.8748 32.8518 69.3228 32.3385 69.6402C31.8345 69.9575 31.2418 70.1162 30.5605 70.1162ZM30.5605 68.9962C31.2418 68.9962 31.7692 68.7535 32.1425 68.2682C32.5252 67.7735 32.7165 67.0968 32.7165 66.2382C32.7165 65.3795 32.5252 64.7075 32.1425 64.2222C31.7692 63.7275 31.2418 63.4802 30.5605 63.4802C29.8792 63.4802 29.3472 63.7275 28.9645 64.2222C28.5818 64.7075 28.3905 65.3795 28.3905 66.2382C28.3905 67.0968 28.5818 67.7735 28.9645 68.2682C29.3472 68.7535 29.8792 68.9962 30.5605 68.9962Z" fill="#1D1E38"/>
<path d="M38.3092 70.1162C37.6278 70.1162 37.0305 69.9575 36.5172 69.6402C36.0038 69.3228 35.6072 68.8748 35.3272 68.2962C35.0472 67.7082 34.9072 67.0222 34.9072 66.2382C34.9072 65.4448 35.0472 64.7588 35.3272 64.1802C35.6072 63.6015 36.0038 63.1535 36.5172 62.8362C37.0305 62.5188 37.6278 62.3602 38.3092 62.3602C38.9905 62.3602 39.5832 62.5188 40.0872 62.8362C40.6005 63.1535 40.9972 63.6015 41.2772 64.1802C41.5572 64.7588 41.6972 65.4448 41.6972 66.2382C41.6972 67.0222 41.5572 67.7082 41.2772 68.2962C40.9972 68.8748 40.6005 69.3228 40.0872 69.6402C39.5832 69.9575 38.9905 70.1162 38.3092 70.1162ZM38.3092 68.9962C38.9905 68.9962 39.5178 68.7535 39.8912 68.2682C40.2738 67.7735 40.4652 67.0968 40.4652 66.2382C40.4652 65.3795 40.2738 64.7075 39.8912 64.2222C39.5178 63.7275 38.9905 63.4802 38.3092 63.4802C37.6278 63.4802 37.0958 63.7275 36.7132 64.2222C36.3305 64.7075 36.1392 65.3795 36.1392 66.2382C36.1392 67.0968 36.3305 67.7735 36.7132 68.2682C37.0958 68.7535 37.6278 68.9962 38.3092 68.9962Z" fill="#1D1E38"/>
<path d="M45.9738 72.2162C45.4418 72.2162 44.9612 72.1275 44.5318 71.9502C44.1025 71.7728 43.7432 71.5208 43.4538 71.1942C43.1645 70.8675 42.9685 70.4895 42.8658 70.0602L44.0978 69.9762C44.2098 70.3215 44.4058 70.5922 44.6858 70.7882C44.9752 70.9935 45.4045 71.0962 45.9738 71.0962C46.6458 71.0962 47.1592 70.9608 47.5138 70.6902C47.8778 70.4195 48.0598 70.0135 48.0598 69.4722V68.2682C47.8825 68.6602 47.5978 68.9728 47.2058 69.2062C46.8138 69.4395 46.3752 69.5562 45.8898 69.5562C45.2645 69.5562 44.7045 69.4022 44.2098 69.0942C43.7245 68.7862 43.3418 68.3615 43.0618 67.8202C42.7912 67.2788 42.6558 66.6582 42.6558 65.9582C42.6558 65.2488 42.7912 64.6282 43.0618 64.0962C43.3325 63.5548 43.7058 63.1302 44.1818 62.8222C44.6672 62.5142 45.2178 62.3602 45.8338 62.3602C46.3565 62.3602 46.8232 62.4815 47.2338 62.7242C47.6538 62.9668 47.9478 63.2935 48.1158 63.7042V62.5282H49.2358V69.4442C49.2358 70.0228 49.1052 70.5175 48.8438 70.9282C48.5825 71.3482 48.2092 71.6655 47.7238 71.8802C47.2385 72.1042 46.6552 72.2162 45.9738 72.2162ZM45.9458 68.4362C46.5805 68.4362 47.0892 68.2168 47.4718 67.7782C47.8545 67.3302 48.0505 66.7235 48.0598 65.9582C48.0692 65.4448 47.9852 65.0062 47.8078 64.6422C47.6398 64.2688 47.3925 63.9842 47.0658 63.7882C46.7485 63.5828 46.3752 63.4802 45.9458 63.4802C45.2925 63.4802 44.7838 63.7042 44.4198 64.1522C44.0652 64.5908 43.8878 65.1928 43.8878 65.9582C43.8878 66.7235 44.0698 67.3302 44.4338 67.7782C44.8072 68.2168 45.3112 68.4362 45.9458 68.4362Z" fill="#1D1E38"/>
<path d="M52.7883 69.9482C52.359 69.9482 52.009 69.8362 51.7383 69.6122C51.4677 69.3882 51.3323 69.0335 51.3323 68.5482V60.0082H52.5083V68.4502C52.5083 68.5995 52.5457 68.7162 52.6203 68.8002C52.7043 68.8748 52.821 68.9122 52.9703 68.9122H53.6143V69.9482H52.7883Z" fill="#1D1E38"/>
<path d="M57.7407 70.1162C57.0407 70.1162 56.4341 69.9575 55.9207 69.6402C55.4167 69.3228 55.0247 68.8748 54.7447 68.2962C54.4741 67.7082 54.3387 67.0222 54.3387 66.2382C54.3387 65.4542 54.4741 64.7728 54.7447 64.1942C55.0247 63.6155 55.4121 63.1675 55.9067 62.8502C56.4107 62.5235 57.0034 62.3602 57.6847 62.3602C58.3287 62.3602 58.8981 62.5142 59.3927 62.8222C59.8874 63.1208 60.2701 63.5595 60.5407 64.1382C60.8207 64.7168 60.9607 65.4215 60.9607 66.2522V66.6022H55.5707C55.6174 67.3955 55.8274 67.9928 56.2007 68.3942C56.5834 68.7955 57.0967 68.9962 57.7407 68.9962C58.2261 68.9962 58.6227 68.8842 58.9307 68.6602C59.2481 68.4268 59.4674 68.1235 59.5887 67.7502L60.8487 67.8482C60.6527 68.5108 60.2794 69.0568 59.7287 69.4862C59.1874 69.9062 58.5247 70.1162 57.7407 70.1162ZM55.5707 65.5662H59.6727C59.6167 64.8475 59.4067 64.3202 59.0427 63.9842C58.6881 63.6482 58.2354 63.4802 57.6847 63.4802C57.1154 63.4802 56.6441 63.6575 56.2707 64.0122C55.9067 64.3575 55.6734 64.8755 55.5707 65.5662Z" fill="#1D1E38"/>
<path d="M16.666 84C16.666 81.7909 18.4569 80 20.666 80H143.666C145.875 80 147.666 81.7909 147.666 84V84C147.666 86.2091 145.875 88 143.666 88H20.666C18.4569 88 16.666 86.2091 16.666 84V84Z" fill="#529BFB"/>
<path d="M16.666 94C16.666 91.7909 18.4569 90 20.666 90H245.666C247.875 90 249.666 91.7909 249.666 94V94C249.666 96.2091 247.875 98 245.666 98H20.666C18.4569 98 16.666 96.2091 16.666 94V94Z" fill="#00CC66"/>
<path d="M17.7676 136.893V126.953H19.4476L22.6256 135.577L25.7896 126.953H27.4696V136.893H26.2656V129.193L23.4236 136.893H21.8136L18.9716 129.193V136.893H17.7676Z" fill="#1D1E38"/>
<path d="M29.4635 136.893V129.473H30.6395V136.893H29.4635ZM29.4355 128.311V126.939H30.6675V128.311H29.4355Z" fill="#1D1E38"/>
<path d="M35.5027 137.061C34.8121 137.061 34.2101 136.902 33.6967 136.585C33.1927 136.268 32.8007 135.82 32.5207 135.241C32.2407 134.653 32.1007 133.967 32.1007 133.183C32.1007 132.399 32.2407 131.718 32.5207 131.139C32.8007 130.56 33.1927 130.112 33.6967 129.795C34.2101 129.468 34.8121 129.305 35.5027 129.305C36.0721 129.305 36.5761 129.408 37.0147 129.613C37.4627 129.809 37.8267 130.098 38.1067 130.481C38.3867 130.864 38.5687 131.33 38.6527 131.881L37.4207 131.965C37.3367 131.47 37.1221 131.092 36.7767 130.831C36.4314 130.56 36.0067 130.425 35.5027 130.425C34.8214 130.425 34.2894 130.672 33.9067 131.167C33.5241 131.652 33.3327 132.324 33.3327 133.183C33.3327 134.042 33.5241 134.718 33.9067 135.213C34.2894 135.698 34.8214 135.941 35.5027 135.941C36.0067 135.941 36.4314 135.801 36.7767 135.521C37.1221 135.241 37.3367 134.821 37.4207 134.261L38.6527 134.345C38.5687 134.896 38.3867 135.376 38.1067 135.787C37.8267 136.188 37.4627 136.501 37.0147 136.725C36.5761 136.949 36.0721 137.061 35.5027 137.061Z" fill="#1D1E38"/>
<path d="M39.9706 136.893V129.473H41.0066L41.0626 131.349L40.9506 131.307C41.0439 130.672 41.2446 130.21 41.5526 129.921C41.8699 129.622 42.2899 129.473 42.8126 129.473H43.5406V130.593H42.8266C42.4533 130.593 42.1406 130.663 41.8886 130.803C41.6459 130.934 41.4593 131.134 41.3286 131.405C41.2073 131.666 41.1466 132.002 41.1466 132.413V136.893H39.9706Z" fill="#1D1E38"/>
<path d="M47.4727 137.061C46.7914 137.061 46.1941 136.902 45.6807 136.585C45.1674 136.268 44.7707 135.82 44.4907 135.241C44.2107 134.653 44.0707 133.967 44.0707 133.183C44.0707 132.39 44.2107 131.704 44.4907 131.125C44.7707 130.546 45.1674 130.098 45.6807 129.781C46.1941 129.464 46.7914 129.305 47.4727 129.305C48.1541 129.305 48.7467 129.464 49.2507 129.781C49.7641 130.098 50.1607 130.546 50.4407 131.125C50.7207 131.704 50.8607 132.39 50.8607 133.183C50.8607 133.967 50.7207 134.653 50.4407 135.241C50.1607 135.82 49.7641 136.268 49.2507 136.585C48.7467 136.902 48.1541 137.061 47.4727 137.061ZM47.4727 135.941C48.1541 135.941 48.6814 135.698 49.0547 135.213C49.4374 134.718 49.6287 134.042 49.6287 133.183C49.6287 132.324 49.4374 131.652 49.0547 131.167C48.6814 130.672 48.1541 130.425 47.4727 130.425C46.7914 130.425 46.2594 130.672 45.8767 131.167C45.4941 131.652 45.3027 132.324 45.3027 133.183C45.3027 134.042 45.4941 134.718 45.8767 135.213C46.2594 135.698 46.7914 135.941 47.4727 135.941Z" fill="#1D1E38"/>
<path d="M55.0254 137.061C54.3627 137.061 53.7981 136.954 53.3314 136.739C52.8741 136.524 52.5147 136.23 52.2534 135.857C52.0014 135.474 51.8567 135.04 51.8194 134.555L53.0514 134.471C53.1261 134.919 53.3174 135.278 53.6254 135.549C53.9334 135.81 54.4001 135.941 55.0254 135.941C55.5294 135.941 55.9307 135.862 56.2294 135.703C56.5374 135.535 56.6914 135.269 56.6914 134.905C56.6914 134.709 56.6447 134.546 56.5514 134.415C56.4581 134.284 56.2761 134.172 56.0054 134.079C55.7347 133.976 55.3334 133.878 54.8014 133.785C54.0921 133.654 53.5321 133.496 53.1214 133.309C52.7201 133.113 52.4307 132.875 52.2534 132.595C52.0854 132.306 52.0014 131.965 52.0014 131.573C52.0014 130.91 52.2441 130.369 52.7294 129.949C53.2147 129.52 53.9054 129.305 54.8014 129.305C55.4081 129.305 55.9167 129.417 56.3274 129.641C56.7474 129.856 57.0741 130.145 57.3074 130.509C57.5501 130.864 57.7087 131.256 57.7834 131.685L56.5514 131.769C56.4954 131.508 56.3927 131.279 56.2434 131.083C56.0941 130.878 55.8981 130.719 55.6554 130.607C55.4127 130.486 55.1234 130.425 54.7874 130.425C54.2554 130.425 53.8634 130.528 53.6114 130.733C53.3594 130.938 53.2334 131.2 53.2334 131.517C53.2334 131.76 53.2894 131.96 53.4014 132.119C53.5227 132.268 53.7141 132.394 53.9754 132.497C54.2367 132.59 54.5867 132.674 55.0254 132.749C55.7814 132.88 56.3694 133.038 56.7894 133.225C57.2094 133.412 57.5034 133.64 57.6714 133.911C57.8394 134.182 57.9234 134.513 57.9234 134.905C57.9234 135.362 57.7927 135.754 57.5314 136.081C57.2794 136.398 56.9341 136.641 56.4954 136.809C56.0661 136.977 55.5761 137.061 55.0254 137.061Z" fill="#1D1E38"/>
<path d="M62.2865 137.061C61.6052 137.061 61.0078 136.902 60.4945 136.585C59.9812 136.268 59.5845 135.82 59.3045 135.241C59.0245 134.653 58.8845 133.967 58.8845 133.183C58.8845 132.39 59.0245 131.704 59.3045 131.125C59.5845 130.546 59.9812 130.098 60.4945 129.781C61.0078 129.464 61.6052 129.305 62.2865 129.305C62.9678 129.305 63.5605 129.464 64.0645 129.781C64.5778 130.098 64.9745 130.546 65.2545 131.125C65.5345 131.704 65.6745 132.39 65.6745 133.183C65.6745 133.967 65.5345 134.653 65.2545 135.241C64.9745 135.82 64.5778 136.268 64.0645 136.585C63.5605 136.902 62.9678 137.061 62.2865 137.061ZM62.2865 135.941C62.9678 135.941 63.4952 135.698 63.8685 135.213C64.2512 134.718 64.4425 134.042 64.4425 133.183C64.4425 132.324 64.2512 131.652 63.8685 131.167C63.4952 130.672 62.9678 130.425 62.2865 130.425C61.6052 130.425 61.0731 130.672 60.6905 131.167C60.3078 131.652 60.1165 132.324 60.1165 133.183C60.1165 134.042 60.3078 134.718 60.6905 135.213C61.0731 135.698 61.6052 135.941 62.2865 135.941Z" fill="#1D1E38"/>
<path d="M67.578 136.893V128.801C67.578 128.25 67.7367 127.807 68.054 127.471C68.3714 127.126 68.866 126.953 69.538 126.953H70.714V127.989H69.622C69.3327 127.989 69.1134 128.068 68.964 128.227C68.824 128.386 68.754 128.605 68.754 128.885V136.893H67.578ZM66.57 130.509V129.473H70.616V130.509H66.57Z" fill="#1D1E38"/>
<path d="M74.3889 136.893C73.7169 136.893 73.2176 136.739 72.8909 136.431C72.5736 136.123 72.4149 135.642 72.4149 134.989V127.737H73.5909V134.961C73.5909 135.297 73.6656 135.53 73.8149 135.661C73.9643 135.792 74.1929 135.857 74.5009 135.857H75.5649V136.893H74.3889ZM71.3229 130.509V129.473H75.5649V130.509H71.3229Z" fill="#1D1E38"/>
<path d="M16.666 150C16.666 147.791 18.4569 146 20.666 146H274.666C276.875 146 278.666 147.791 278.666 150V150C278.666 152.209 276.875 154 274.666 154H20.666C18.4569 154 16.666 152.209 16.666 150V150Z" fill="#529BFB"/>
<path d="M16.666 160C16.666 157.791 18.4569 156 20.666 156H181.666C183.875 156 185.666 157.791 185.666 160V160C185.666 162.209 183.875 164 181.666 164H20.666C18.4569 164 16.666 162.209 16.666 160V160Z" fill="#00CC66"/>
<path d="M22.0907 203.194C21.148 203.194 20.336 202.989 19.6547 202.578C18.9827 202.158 18.4647 201.561 18.1007 200.786C17.7367 200.011 17.5547 199.087 17.5547 198.014C17.5547 196.941 17.7367 196.017 18.1007 195.242C18.4647 194.458 18.9827 193.856 19.6547 193.436C20.336 193.016 21.148 192.806 22.0907 192.806C23.0427 192.806 23.8547 193.016 24.5267 193.436C25.208 193.856 25.7307 194.458 26.0947 195.242C26.4587 196.017 26.6407 196.941 26.6407 198.014C26.6407 199.087 26.4587 200.011 26.0947 200.786C25.7307 201.561 25.208 202.158 24.5267 202.578C23.8547 202.989 23.0427 203.194 22.0907 203.194ZM22.0907 202.018C22.7814 202.018 23.3694 201.859 23.8547 201.542C24.3494 201.225 24.7274 200.767 24.9887 200.17C25.25 199.573 25.3807 198.854 25.3807 198.014C25.3807 197.174 25.25 196.455 24.9887 195.858C24.7274 195.251 24.3494 194.789 23.8547 194.472C23.3694 194.145 22.7814 193.982 22.0907 193.982C21.4094 193.982 20.8214 194.145 20.3267 194.472C19.8414 194.789 19.468 195.251 19.2067 195.858C18.9454 196.455 18.8147 197.174 18.8147 198.014C18.8147 198.854 18.9454 199.573 19.2067 200.17C19.468 200.767 19.8414 201.225 20.3267 201.542C20.8214 201.859 21.4094 202.018 22.0907 202.018Z" fill="#1D1E38"/>
<path d="M30.6285 202.97C29.9565 202.97 29.4572 202.816 29.1305 202.508C28.8132 202.2 28.6545 201.719 28.6545 201.066V193.814H29.8305V201.038C29.8305 201.374 29.9052 201.607 30.0545 201.738C30.2038 201.869 30.4325 201.934 30.7405 201.934H31.8045V202.97H30.6285ZM27.5625 196.586V195.55H31.8045V196.586H27.5625Z" fill="#1D1E38"/>
<path d="M33.1729 202.97V193.03H34.3489V197.188L34.2089 197.16C34.3022 196.749 34.4609 196.413 34.6849 196.152C34.9089 195.891 35.1842 195.699 35.5109 195.578C35.8376 195.447 36.1969 195.382 36.5889 195.382C37.1209 195.382 37.5689 195.503 37.9329 195.746C38.3062 195.979 38.5862 196.311 38.7729 196.74C38.9689 197.16 39.0669 197.645 39.0669 198.196V202.97H37.8909V198.532C37.8909 197.813 37.7602 197.281 37.4989 196.936C37.2469 196.591 36.8596 196.418 36.3369 196.418C35.7396 196.418 35.2589 196.6 34.8949 196.964C34.5309 197.328 34.3489 197.855 34.3489 198.546V202.97H33.1729Z" fill="#1D1E38"/>
<path d="M43.9016 203.138C43.2016 203.138 42.5949 202.979 42.0816 202.662C41.5776 202.345 41.1856 201.897 40.9056 201.318C40.6349 200.73 40.4996 200.044 40.4996 199.26C40.4996 198.476 40.6349 197.795 40.9056 197.216C41.1856 196.637 41.5729 196.189 42.0676 195.872C42.5716 195.545 43.1643 195.382 43.8456 195.382C44.4896 195.382 45.0589 195.536 45.5536 195.844C46.0483 196.143 46.4309 196.581 46.7016 197.16C46.9816 197.739 47.1216 198.443 47.1216 199.274V199.624H41.7316C41.7783 200.417 41.9883 201.015 42.3616 201.416C42.7443 201.817 43.2576 202.018 43.9016 202.018C44.3869 202.018 44.7836 201.906 45.0916 201.682C45.4089 201.449 45.6283 201.145 45.7496 200.772L47.0096 200.87C46.8136 201.533 46.4403 202.079 45.8896 202.508C45.3483 202.928 44.6856 203.138 43.9016 203.138ZM41.7316 198.588H45.8336C45.7776 197.869 45.5676 197.342 45.2036 197.006C44.8489 196.67 44.3963 196.502 43.8456 196.502C43.2763 196.502 42.8049 196.679 42.4316 197.034C42.0676 197.379 41.8343 197.897 41.7316 198.588Z" fill="#1D1E38"/>
<path d="M48.5745 202.97V195.55H49.6105L49.6665 197.426L49.5545 197.384C49.6479 196.749 49.8485 196.287 50.1565 195.998C50.4739 195.699 50.8939 195.55 51.4165 195.55H52.1445V196.67H51.4305C51.0572 196.67 50.7445 196.74 50.4925 196.88C50.2499 197.011 50.0632 197.211 49.9325 197.482C49.8112 197.743 49.7505 198.079 49.7505 198.49V202.97H48.5745Z" fill="#1D1E38"/>
<path d="M55.8807 203.138C55.218 203.138 54.6533 203.031 54.1867 202.816C53.7293 202.601 53.37 202.307 53.1087 201.934C52.8567 201.551 52.712 201.117 52.6747 200.632L53.9067 200.548C53.9813 200.996 54.1727 201.355 54.4807 201.626C54.7887 201.887 55.2553 202.018 55.8807 202.018C56.3847 202.018 56.786 201.939 57.0847 201.78C57.3927 201.612 57.5467 201.346 57.5467 200.982C57.5467 200.786 57.5 200.623 57.4067 200.492C57.3133 200.361 57.1313 200.249 56.8607 200.156C56.59 200.053 56.1887 199.955 55.6567 199.862C54.9473 199.731 54.3873 199.573 53.9767 199.386C53.5753 199.19 53.286 198.952 53.1087 198.672C52.9407 198.383 52.8567 198.042 52.8567 197.65C52.8567 196.987 53.0993 196.446 53.5847 196.026C54.07 195.597 54.7607 195.382 55.6567 195.382C56.2633 195.382 56.772 195.494 57.1827 195.718C57.6027 195.933 57.9293 196.222 58.1627 196.586C58.4053 196.941 58.564 197.333 58.6387 197.762L57.4067 197.846C57.3507 197.585 57.248 197.356 57.0987 197.16C56.9493 196.955 56.7533 196.796 56.5107 196.684C56.268 196.563 55.9787 196.502 55.6427 196.502C55.1107 196.502 54.7187 196.605 54.4667 196.81C54.2147 197.015 54.0887 197.277 54.0887 197.594C54.0887 197.837 54.1447 198.037 54.2567 198.196C54.378 198.345 54.5693 198.471 54.8307 198.574C55.092 198.667 55.442 198.751 55.8807 198.826C56.6367 198.957 57.2247 199.115 57.6447 199.302C58.0647 199.489 58.3587 199.717 58.5267 199.988C58.6947 200.259 58.7787 200.59 58.7787 200.982C58.7787 201.439 58.648 201.831 58.3867 202.158C58.1347 202.475 57.7893 202.718 57.3507 202.886C56.9213 203.054 56.4313 203.138 55.8807 203.138Z" fill="#1D1E38"/>
<path d="M16.666 216C16.666 213.791 18.4569 212 20.666 212H274.666C276.875 212 278.666 213.791 278.666 216V216C278.666 218.209 276.875 220 274.666 220H20.666C18.4569 220 16.666 218.209 16.666 216V216Z" fill="#529BFB"/>
<path d="M16.666 226C16.666 223.791 18.4569 222 20.666 222H181.666C183.875 222 185.666 223.791 185.666 226V226C185.666 228.209 183.875 230 181.666 230H20.666C18.4569 230 16.666 228.209 16.666 226V226Z" fill="#00CC66"/>
</svg>
