<svg width="176" height="160" viewBox="0 0 176 160" fill="none" xmlns="http://www.w3.org/2000/svg">
<path d="M8 0.75H168C172.004 0.75 175.25 3.99594 175.25 8V152C175.25 156.004 172.004 159.25 168 159.25H8C3.99594 159.25 0.75 156.004 0.75 152V8C0.75 3.99594 3.99594 0.75 8 0.75Z" fill="white"/>
<path d="M8 0.75H168C172.004 0.75 175.25 3.99594 175.25 8V152C175.25 156.004 172.004 159.25 168 159.25H8C3.99594 159.25 0.75 156.004 0.75 152V8C0.75 3.99594 3.99594 0.75 8 0.75Z" stroke="#F0F2F7" stroke-width="1.5"/>
<path d="M78.2486 75.8719C76.3286 75.8719 74.6539 75.3919 73.2246 74.4319C71.8166 73.4719 70.7286 72.1066 69.9606 70.3359C69.1926 68.5653 68.8086 66.4639 68.8086 64.0319C68.8086 61.5999 69.1926 59.4986 69.9606 57.7279C70.7286 55.9359 71.8166 54.5599 73.2246 53.5999C74.6539 52.6186 76.3286 52.1279 78.2486 52.1279C80.2113 52.1279 81.8966 52.6186 83.3046 53.5999C84.7126 54.5599 85.8006 55.9253 86.5686 57.6959C87.3366 59.4666 87.7206 61.5786 87.7206 64.0319C87.7206 66.4639 87.3366 68.5653 86.5686 70.3359C85.8006 72.1066 84.7126 73.4719 83.3046 74.4319C81.8966 75.3919 80.2113 75.8719 78.2486 75.8719ZM78.2486 72.2559C79.9126 72.2559 81.1926 71.5626 82.0886 70.1759C82.9846 68.7679 83.4326 66.7199 83.4326 64.0319C83.4326 62.2399 83.2299 60.7253 82.8246 59.4879C82.4193 58.2506 81.8326 57.3226 81.0646 56.7039C80.3179 56.0639 79.3793 55.7439 78.2486 55.7439C77.1606 55.7439 76.2326 56.0639 75.4646 56.7039C74.6966 57.3226 74.1099 58.2506 73.7046 59.4879C73.2993 60.7253 73.0966 62.2399 73.0966 64.0319C73.0966 66.7199 73.5446 68.7679 74.4406 70.1759C75.3366 71.5626 76.6059 72.2559 78.2486 72.2559Z" fill="#F43B5C"/>
<path d="M98.7133 75.8719C96.836 75.8719 95.2573 75.4666 93.9773 74.6559C92.6973 73.8453 91.7267 72.6613 91.0653 71.1039C90.4253 69.5466 90.1053 67.6799 90.1053 65.5039C90.1053 63.6053 90.2867 61.8453 90.6493 60.2239C91.012 58.6026 91.5667 57.1946 92.3133 55.9999C93.0813 54.7839 94.052 53.8346 95.2253 53.1519C96.42 52.4693 97.8493 52.1279 99.5133 52.1279C101.647 52.1279 103.332 52.6506 104.569 53.6959C105.807 54.7413 106.639 56.1386 107.065 57.8879L103.129 58.2079C102.873 57.4186 102.468 56.8106 101.913 56.3839C101.38 55.9359 100.569 55.7119 99.4813 55.7119C97.86 55.7119 96.58 56.4053 95.6413 57.7919C94.724 59.1786 94.2333 61.3226 94.1693 64.2239L93.5293 64.0959C93.7427 63.4346 94.116 62.8159 94.6493 62.2399C95.204 61.6639 95.8867 61.2053 96.6973 60.8639C97.508 60.5013 98.4573 60.3199 99.5453 60.3199C101.081 60.3199 102.415 60.6293 103.545 61.2479C104.697 61.8666 105.593 62.7519 106.233 63.9039C106.873 65.0346 107.193 66.3573 107.193 67.8719C107.193 69.5359 106.831 70.9759 106.105 72.1919C105.38 73.3866 104.377 74.3039 103.097 74.9439C101.839 75.5626 100.377 75.8719 98.7133 75.8719ZM98.7133 72.3839C99.972 72.3839 100.996 71.9893 101.785 71.1999C102.596 70.3893 103.001 69.2799 103.001 67.8719C103.001 66.9973 102.82 66.2293 102.457 65.5679C102.116 64.9066 101.636 64.4053 101.017 64.0639C100.42 63.7013 99.7053 63.5199 98.8733 63.5199C97.9987 63.5199 97.22 63.7013 96.5373 64.0639C95.876 64.4053 95.3427 64.9066 94.9373 65.5679C94.5533 66.2293 94.3613 66.9973 94.3613 67.8719C94.3613 68.7679 94.532 69.5573 94.8733 70.2399C95.236 70.9013 95.748 71.4239 96.4093 71.8079C97.0707 72.1919 97.8387 72.3839 98.7133 72.3839Z" fill="#F43B5C"/>
<path d="M76.2997 111.648C75.6437 111.648 75.0717 111.524 74.5837 111.276C74.0957 111.028 73.7077 110.688 73.4197 110.256C73.1397 109.816 72.9757 109.308 72.9277 108.732L74.0077 108.66C74.0637 109.084 74.1877 109.444 74.3797 109.74C74.5717 110.036 74.8277 110.26 75.1477 110.412C75.4757 110.564 75.8677 110.64 76.3237 110.64C76.7237 110.64 77.0637 110.588 77.3437 110.484C77.6237 110.38 77.8357 110.228 77.9797 110.028C78.1317 109.828 78.2077 109.584 78.2077 109.296C78.2077 109.032 78.1437 108.8 78.0157 108.6C77.8957 108.392 77.6597 108.204 77.3077 108.036C76.9637 107.86 76.4517 107.688 75.7717 107.52C75.1157 107.352 74.5917 107.168 74.1997 106.968C73.8157 106.768 73.5357 106.524 73.3597 106.236C73.1917 105.948 73.1077 105.592 73.1077 105.168C73.1077 104.688 73.2197 104.268 73.4437 103.908C73.6757 103.54 74.0037 103.256 74.4277 103.056C74.8517 102.848 75.3557 102.744 75.9397 102.744C76.5637 102.744 77.0997 102.864 77.5477 103.104C77.9957 103.336 78.3517 103.656 78.6157 104.064C78.8797 104.472 79.0437 104.936 79.1077 105.456L78.0277 105.528C77.9797 105.184 77.8677 104.88 77.6917 104.616C77.5237 104.344 77.2917 104.132 76.9957 103.98C76.6997 103.828 76.3397 103.752 75.9157 103.752C75.3877 103.752 74.9677 103.88 74.6557 104.136C74.3437 104.384 74.1877 104.712 74.1877 105.12C74.1877 105.384 74.2477 105.604 74.3677 105.78C74.4957 105.948 74.7197 106.1 75.0397 106.236C75.3597 106.364 75.8197 106.504 76.4197 106.656C77.1317 106.832 77.6957 107.044 78.1117 107.292C78.5357 107.532 78.8357 107.812 79.0117 108.132C79.1957 108.452 79.2877 108.816 79.2877 109.224C79.2877 109.72 79.1597 110.152 78.9037 110.52C78.6477 110.88 78.2957 111.16 77.8477 111.36C77.3997 111.552 76.8837 111.648 76.2997 111.648Z" fill="#626884"/>
<path d="M80.8435 113.256V105.096H81.7795L81.8035 106.464L81.6595 106.392C81.8195 105.92 82.0835 105.564 82.4515 105.324C82.8275 105.076 83.2595 104.952 83.7475 104.952C84.3795 104.952 84.8955 105.108 85.2955 105.42C85.7035 105.732 86.0035 106.14 86.1955 106.644C86.3955 107.148 86.4955 107.692 86.4955 108.276C86.4955 108.86 86.3955 109.404 86.1955 109.908C86.0035 110.412 85.7035 110.82 85.2955 111.132C84.8955 111.444 84.3795 111.6 83.7475 111.6C83.4195 111.6 83.1115 111.544 82.8235 111.432C82.5435 111.32 82.3035 111.164 82.1035 110.964C81.9115 110.764 81.7795 110.528 81.7075 110.256L81.8515 110.088V113.256H80.8435ZM83.6515 110.64C84.2035 110.64 84.6395 110.432 84.9595 110.016C85.2795 109.6 85.4395 109.02 85.4395 108.276C85.4395 107.532 85.2795 106.952 84.9595 106.536C84.6395 106.12 84.2035 105.912 83.6515 105.912C83.2835 105.912 82.9635 106 82.6915 106.176C82.4275 106.352 82.2195 106.616 82.0675 106.968C81.9235 107.32 81.8515 107.756 81.8515 108.276C81.8515 108.796 81.9235 109.232 82.0675 109.584C82.2115 109.936 82.4195 110.2 82.6915 110.376C82.9635 110.552 83.2835 110.64 83.6515 110.64Z" fill="#626884"/>
<path d="M89.6831 111.6C89.0271 111.6 88.5031 111.448 88.1111 111.144C87.7271 110.84 87.5351 110.416 87.5351 109.872C87.5351 109.328 87.6951 108.9 88.0151 108.588C88.3351 108.276 88.8431 108.056 89.5391 107.928L91.7951 107.508C91.7951 106.972 91.6671 106.572 91.4111 106.308C91.1631 106.044 90.7871 105.912 90.2831 105.912C89.8431 105.912 89.4951 106.012 89.2391 106.212C88.9831 106.404 88.8071 106.684 88.7111 107.052L87.6431 106.968C87.7631 106.368 88.0511 105.884 88.5071 105.516C88.9711 105.14 89.5631 104.952 90.2831 104.952C91.0991 104.952 91.7231 105.184 92.1551 105.648C92.5871 106.104 92.8031 106.736 92.8031 107.544V110.172C92.8031 110.316 92.8271 110.42 92.8751 110.484C92.9311 110.54 93.0191 110.568 93.1391 110.568H93.3911V111.456C93.3591 111.464 93.3071 111.468 93.2351 111.468C93.1631 111.476 93.0871 111.48 93.0071 111.48C92.7191 111.48 92.4831 111.436 92.2991 111.348C92.1231 111.252 91.9951 111.108 91.9151 110.916C91.8351 110.716 91.7951 110.456 91.7951 110.136L91.9151 110.16C91.8591 110.432 91.7231 110.68 91.5071 110.904C91.2911 111.12 91.0231 111.292 90.7031 111.42C90.3831 111.54 90.0431 111.6 89.6831 111.6ZM89.7791 110.712C90.2031 110.712 90.5631 110.632 90.8591 110.472C91.1631 110.304 91.3951 110.08 91.5551 109.8C91.7151 109.512 91.7951 109.192 91.7951 108.84V108.384L89.7311 108.768C89.2991 108.848 88.9991 108.972 88.8311 109.14C88.6711 109.3 88.5911 109.512 88.5911 109.776C88.5911 110.072 88.6951 110.304 88.9031 110.472C89.1191 110.632 89.4111 110.712 89.7791 110.712Z" fill="#626884"/>
<path d="M94.4696 111.456V105.096H95.3936L95.4296 106.704L95.2856 106.656C95.3576 106.304 95.4816 106.004 95.6576 105.756C95.8416 105.5 96.0656 105.304 96.3296 105.168C96.5936 105.024 96.8856 104.952 97.2056 104.952C97.7576 104.952 98.2056 105.104 98.5496 105.408C98.9016 105.712 99.1216 106.136 99.2096 106.68L99.0176 106.668C99.0816 106.3 99.1976 105.992 99.3656 105.744C99.5416 105.488 99.7656 105.292 100.038 105.156C100.31 105.02 100.622 104.952 100.974 104.952C101.43 104.952 101.814 105.048 102.126 105.24C102.438 105.424 102.674 105.696 102.834 106.056C102.994 106.416 103.074 106.852 103.074 107.364V111.456H102.066V107.58C102.066 107.004 101.954 106.572 101.73 106.284C101.506 105.988 101.174 105.84 100.734 105.84C100.438 105.84 100.178 105.912 99.9536 106.056C99.7376 106.2 99.5696 106.408 99.4496 106.68C99.3296 106.944 99.2696 107.268 99.2696 107.652V111.456H98.2616V107.652C98.2616 107.084 98.1616 106.64 97.9616 106.32C97.7616 106 97.4256 105.84 96.9536 105.84C96.6576 105.84 96.3976 105.912 96.1736 106.056C95.9576 106.2 95.7856 106.408 95.6576 106.68C95.5376 106.952 95.4776 107.276 95.4776 107.652V111.456H94.4696Z" fill="#626884"/>
</svg>
