<svg width="400" height="160" viewBox="0 0 400 160" fill="none" xmlns="http://www.w3.org/2000/svg">
<path d="M8 0.75H392C396.004 0.75 399.25 3.99593 399.25 8V152C399.25 156.004 396.004 159.25 392 159.25H7.99999C3.99593 159.25 0.75 156.004 0.75 152V8C0.75 3.99594 3.99594 0.75 8 0.75Z" fill="white"/>
<path d="M8 0.75H392C396.004 0.75 399.25 3.99593 399.25 8V152C399.25 156.004 396.004 159.25 392 159.25H7.99999C3.99593 159.25 0.75 156.004 0.75 152V8C0.75 3.99594 3.99594 0.75 8 0.75Z" stroke="#F0F2F7" stroke-width="1.5"/>
<path d="M16 32.4561V21.0961H18.08V32.4561H16Z" fill="#00022A"/>
<path d="M20.4456 32.4561V23.9121H22.3016L22.3816 26.3121L22.1416 26.2161C22.227 25.6188 22.403 25.1388 22.6696 24.7761C22.9363 24.4135 23.2616 24.1468 23.6456 23.9761C24.0296 23.8055 24.451 23.7201 24.9096 23.7201C25.539 23.7201 26.067 23.8588 26.4936 24.1361C26.931 24.4135 27.2616 24.7975 27.4856 25.2881C27.7096 25.7681 27.8216 26.3281 27.8216 26.9681V32.4561H25.7736V27.6241C25.7736 27.1441 25.7256 26.7388 25.6296 26.4081C25.5336 26.0775 25.3736 25.8268 25.1496 25.6561C24.9363 25.4748 24.6483 25.3841 24.2856 25.3841C23.7416 25.3841 23.3043 25.5761 22.9736 25.9601C22.6536 26.3441 22.4936 26.8988 22.4936 27.6241V32.4561H20.4456Z" fill="#00022A"/>
<path d="M32.7253 32.4561C31.8719 32.4561 31.2426 32.2588 30.8373 31.8641C30.4426 31.4695 30.2453 30.8508 30.2453 30.0081V21.9121H32.2933V29.8161C32.2933 30.2108 32.3786 30.4881 32.5492 30.6481C32.7199 30.7975 32.9866 30.8721 33.3493 30.8721H34.5493V32.4561H32.7253ZM28.9012 25.4961V23.9121H34.5493V25.4961H28.9012Z" fill="#00022A"/>
<path d="M39.4466 32.6481C38.5933 32.6481 37.852 32.4668 37.2226 32.1041C36.5933 31.7308 36.108 31.2081 35.7666 30.5361C35.4253 29.8641 35.2546 29.0801 35.2546 28.1841C35.2546 27.2881 35.4253 26.5095 35.7666 25.8481C36.108 25.1761 36.588 24.6535 37.2066 24.2801C37.836 23.9068 38.5666 23.7201 39.3986 23.7201C40.2093 23.7201 40.9186 23.9015 41.5266 24.2641C42.1453 24.6268 42.62 25.1495 42.9506 25.8321C43.2813 26.5148 43.4466 27.3361 43.4466 28.2961V28.7601H37.3826C37.4253 29.5068 37.628 30.0721 37.9906 30.4561C38.364 30.8295 38.8546 31.0161 39.4626 31.0161C39.9213 31.0161 40.3 30.9148 40.5986 30.7121C40.908 30.4988 41.1213 30.2055 41.2386 29.8321L43.3346 29.9601C43.1 30.7921 42.636 31.4481 41.9426 31.9281C41.26 32.4081 40.428 32.6481 39.4466 32.6481ZM37.3826 27.3841H41.3346C41.292 26.6908 41.0946 26.1788 40.7426 25.8481C40.3906 25.5068 39.9426 25.3361 39.3986 25.3361C38.8546 25.3361 38.4013 25.5121 38.0386 25.8641C37.6866 26.2161 37.468 26.7228 37.3826 27.3841Z" fill="#00022A"/>
<path d="M48.5355 35.0481C47.7888 35.0481 47.1488 34.9468 46.6155 34.7441C46.0822 34.5415 45.6502 34.2535 45.3195 33.8801C44.9995 33.5175 44.7755 33.0961 44.6475 32.6161L46.7595 32.4721C46.8662 32.7921 47.0475 33.0428 47.3035 33.2241C47.5702 33.4055 47.9808 33.4961 48.5355 33.4961C49.1648 33.4961 49.6502 33.3521 49.9915 33.0641C50.3328 32.7868 50.5035 32.3495 50.5035 31.7521V30.6641C50.3008 31.0801 49.9755 31.4161 49.5275 31.6721C49.0795 31.9175 48.5782 32.0401 48.0235 32.0401C47.3195 32.0401 46.6902 31.8695 46.1355 31.5281C45.5915 31.1761 45.1648 30.6908 44.8555 30.0721C44.5462 29.4428 44.3915 28.7175 44.3915 27.8961C44.3915 27.0748 44.5408 26.3548 44.8395 25.7361C45.1488 25.1068 45.5755 24.6161 46.1195 24.2641C46.6635 23.9015 47.2875 23.7201 47.9915 23.7201C48.6102 23.7201 49.1435 23.8588 49.5915 24.1361C50.0395 24.4135 50.3648 24.7815 50.5675 25.2401V23.9121H52.5675V31.7041C52.5675 32.4295 52.3968 33.0428 52.0555 33.5441C51.7248 34.0455 51.2555 34.4188 50.6475 34.6641C50.0502 34.9201 49.3462 35.0481 48.5355 35.0481ZM48.5035 30.4401C49.1115 30.4401 49.5968 30.2161 49.9595 29.7681C50.3222 29.3095 50.5088 28.6801 50.5195 27.8801C50.5302 27.3468 50.4502 26.8935 50.2795 26.5201C50.1195 26.1361 49.8848 25.8428 49.5755 25.6401C49.2768 25.4268 48.9195 25.3201 48.5035 25.3201C47.8742 25.3201 47.3835 25.5548 47.0315 26.0241C46.6902 26.4828 46.5195 27.1015 46.5195 27.8801C46.5195 28.6588 46.6955 29.2828 47.0475 29.7521C47.4102 30.2108 47.8955 30.4401 48.5035 30.4401Z" fill="#00022A"/>
<path d="M54.6494 32.4561V23.9121H56.5694L56.6494 26.2801L56.4734 26.2481C56.6014 25.4268 56.8414 24.8348 57.1934 24.4721C57.556 24.0988 58.0467 23.9121 58.6654 23.9121H59.4494V25.6721H58.6494C58.212 25.6721 57.8494 25.7361 57.5614 25.8641C57.2734 25.9921 57.0547 26.1948 56.9054 26.4721C56.7667 26.7388 56.6974 27.0908 56.6974 27.5281V32.4561H54.6494Z" fill="#00022A"/>
<path d="M62.9381 32.6481C62.0421 32.6481 61.3221 32.4455 60.7781 32.0401C60.2341 31.6241 59.9621 31.0481 59.9621 30.3121C59.9621 29.5761 60.1915 29.0001 60.6501 28.5841C61.1088 28.1681 61.8075 27.8695 62.7461 27.6881L65.5781 27.1281C65.5781 26.5201 65.4395 26.0668 65.1621 25.7681C64.8848 25.4588 64.4741 25.3041 63.9301 25.3041C63.4395 25.3041 63.0501 25.4215 62.7621 25.6561C62.4848 25.8801 62.2928 26.2055 62.1861 26.6321L60.1061 26.5361C60.2768 25.6295 60.6928 24.9361 61.3541 24.4561C62.0155 23.9655 62.8741 23.7201 63.9301 23.7201C65.1461 23.7201 66.0635 24.0295 66.6821 24.6481C67.3115 25.2561 67.6261 26.1308 67.6261 27.2721V30.3761C67.6261 30.6001 67.6635 30.7548 67.7381 30.8401C67.8235 30.9255 67.9461 30.9681 68.1061 30.9681H68.3781V32.4561C68.3141 32.4775 68.2075 32.4935 68.0581 32.5041C67.9195 32.5148 67.7755 32.5201 67.6261 32.5201C67.2741 32.5201 66.9595 32.4668 66.6821 32.3601C66.4048 32.2428 66.1915 32.0455 66.0421 31.7681C65.8928 31.4801 65.8181 31.0908 65.8181 30.6001L65.9941 30.7281C65.9088 31.1015 65.7221 31.4375 65.4341 31.7361C65.1568 32.0241 64.8048 32.2481 64.3781 32.4081C63.9515 32.5681 63.4715 32.6481 62.9381 32.6481ZM63.3541 31.1601C63.8128 31.1601 64.2075 31.0695 64.5381 30.8881C64.8688 30.7068 65.1248 30.4561 65.3061 30.1361C65.4875 29.8161 65.5781 29.4375 65.5781 29.0001V28.5201L63.3701 28.9681C62.9115 29.0641 62.5808 29.2081 62.3781 29.4001C62.1861 29.5815 62.0901 29.8215 62.0901 30.1201C62.0901 30.4508 62.1968 30.7068 62.4101 30.8881C62.6341 31.0695 62.9488 31.1601 63.3541 31.1601Z" fill="#00022A"/>
<path d="M72.5346 32.4561C71.6813 32.4561 71.052 32.2588 70.6466 31.8641C70.252 31.4695 70.0546 30.8508 70.0546 30.0081V21.9121H72.1026V29.8161C72.1026 30.2108 72.188 30.4881 72.3586 30.6481C72.5293 30.7975 72.796 30.8721 73.1586 30.8721H74.3586V32.4561H72.5346ZM68.7106 25.4961V23.9121H74.3586V25.4961H68.7106Z" fill="#00022A"/>
<path d="M75.7006 32.4561V23.9121H77.7486V32.4561H75.7006ZM75.6686 22.7761V20.9521H77.7966V22.7761H75.6686Z" fill="#00022A"/>
<path d="M83.3932 32.6481C82.5506 32.6481 81.8093 32.4668 81.1693 32.1041C80.5399 31.7308 80.0493 31.2081 79.6973 30.5361C79.3559 29.8641 79.1853 29.0801 79.1853 28.1841C79.1853 27.2775 79.3559 26.4935 79.6973 25.8321C80.0493 25.1601 80.5399 24.6428 81.1693 24.2801C81.8093 23.9068 82.5506 23.7201 83.3932 23.7201C84.2359 23.7201 84.9719 23.9068 85.6012 24.2801C86.2306 24.6428 86.7159 25.1601 87.0573 25.8321C87.4093 26.4935 87.5853 27.2775 87.5853 28.1841C87.5853 29.0801 87.4093 29.8641 87.0573 30.5361C86.7159 31.2081 86.2306 31.7308 85.6012 32.1041C84.9719 32.4668 84.2359 32.6481 83.3932 32.6481ZM83.3932 30.9841C84.0546 30.9841 84.5613 30.7388 84.9133 30.2481C85.2759 29.7575 85.4573 29.0695 85.4573 28.1841C85.4573 27.3095 85.2759 26.6268 84.9133 26.1361C84.5613 25.6348 84.0546 25.3841 83.3932 25.3841C82.7319 25.3841 82.2199 25.6348 81.8573 26.1361C81.4946 26.6268 81.3132 27.3095 81.3132 28.1841C81.3132 29.0695 81.4946 29.7575 81.8573 30.2481C82.2199 30.7388 82.7319 30.9841 83.3932 30.9841Z" fill="#00022A"/>
<path d="M89.0056 32.4561V23.9121H90.8616L90.9416 26.3121L90.7016 26.2161C90.787 25.6188 90.963 25.1388 91.2296 24.7761C91.4963 24.4135 91.8216 24.1468 92.2056 23.9761C92.5896 23.8055 93.011 23.7201 93.4696 23.7201C94.099 23.7201 94.627 23.8588 95.0536 24.1361C95.491 24.4135 95.8216 24.7975 96.0456 25.2881C96.2696 25.7681 96.3816 26.3281 96.3816 26.9681V32.4561H94.3336V27.6241C94.3336 27.1441 94.2856 26.7388 94.1896 26.4081C94.0936 26.0775 93.9336 25.8268 93.7096 25.6561C93.4963 25.4748 93.2083 25.3841 92.8456 25.3841C92.3016 25.3841 91.8643 25.5761 91.5336 25.9601C91.2136 26.3441 91.0536 26.8988 91.0536 27.6241V32.4561H89.0056Z" fill="#00022A"/>
<path d="M101.724 32.6481C100.881 32.6481 100.172 32.5255 99.5959 32.2801C99.0305 32.0348 98.5932 31.6935 98.2839 31.2561C97.9745 30.8188 97.7985 30.3228 97.7559 29.7681L99.8519 29.6721C99.9265 30.1201 100.113 30.4668 100.412 30.7121C100.711 30.9575 101.153 31.0801 101.74 31.0801C102.22 31.0801 102.593 31.0055 102.86 30.8561C103.137 30.6961 103.276 30.4508 103.276 30.1201C103.276 29.9281 103.228 29.7681 103.132 29.6401C103.036 29.5121 102.855 29.4001 102.588 29.3041C102.321 29.2081 101.927 29.1121 101.404 29.0161C100.529 28.8668 99.8412 28.6855 99.3399 28.4721C98.8385 28.2481 98.4812 27.9708 98.2679 27.6401C98.0652 27.3095 97.9639 26.8988 97.9639 26.4081C97.9639 25.6081 98.2679 24.9628 98.8759 24.4721C99.4945 23.9708 100.396 23.7201 101.58 23.7201C102.348 23.7201 102.993 23.8481 103.516 24.1041C104.039 24.3495 104.444 24.6908 104.732 25.1281C105.031 25.5548 105.217 26.0455 105.292 26.6001L103.228 26.6961C103.175 26.4081 103.079 26.1575 102.94 25.9441C102.801 25.7308 102.615 25.5708 102.38 25.4641C102.145 25.3468 101.868 25.2881 101.548 25.2881C101.068 25.2881 100.705 25.3841 100.46 25.5761C100.215 25.7681 100.092 26.0241 100.092 26.3441C100.092 26.5681 100.145 26.7548 100.252 26.9041C100.369 27.0535 100.556 27.1761 100.812 27.2721C101.068 27.3575 101.409 27.4375 101.836 27.5121C102.732 27.6508 103.436 27.8321 103.948 28.0561C104.471 28.2695 104.839 28.5468 105.052 28.8881C105.276 29.2188 105.388 29.6188 105.388 30.0881C105.388 30.6321 105.233 31.0961 104.924 31.4801C104.625 31.8641 104.199 32.1575 103.644 32.3601C103.1 32.5521 102.46 32.6481 101.724 32.6481Z" fill="#00022A"/>
<path d="M19.094 61.8432V53.0792H16V51.9032H23.392V53.0792H20.298V61.8432H19.094Z" fill="#626884"/>
<path d="M26.3135 62.0112C25.6322 62.0112 25.0348 61.8525 24.5215 61.5352C24.0082 61.2178 23.6115 60.7698 23.3315 60.1912C23.0515 59.6032 22.9115 58.9172 22.9115 58.1332C22.9115 57.3398 23.0515 56.6538 23.3315 56.0752C23.6115 55.4965 24.0082 55.0485 24.5215 54.7312C25.0348 54.4138 25.6322 54.2552 26.3135 54.2552C26.9948 54.2552 27.5875 54.4138 28.0915 54.7312C28.6048 55.0485 29.0015 55.4965 29.2815 56.0752C29.5615 56.6538 29.7015 57.3398 29.7015 58.1332C29.7015 58.9172 29.5615 59.6032 29.2815 60.1912C29.0015 60.7698 28.6048 61.2178 28.0915 61.5352C27.5875 61.8525 26.9948 62.0112 26.3135 62.0112ZM26.3135 60.8912C26.9948 60.8912 27.5222 60.6485 27.8955 60.1632C28.2782 59.6685 28.4695 58.9918 28.4695 58.1332C28.4695 57.2745 28.2782 56.6025 27.8955 56.1172C27.5222 55.6225 26.9948 55.3752 26.3135 55.3752C25.6322 55.3752 25.1002 55.6225 24.7175 56.1172C24.3348 56.6025 24.1435 57.2745 24.1435 58.1332C24.1435 58.9918 24.3348 59.6685 24.7175 60.1632C25.1002 60.6485 25.6322 60.8912 26.3135 60.8912Z" fill="#626884"/>
<path d="M37.3629 62.0112C36.7002 62.0112 36.1356 61.9038 35.6689 61.6892C35.2116 61.4745 34.8522 61.1805 34.5909 60.8072C34.3389 60.4245 34.1942 59.9905 34.1569 59.5052L35.3889 59.4212C35.4636 59.8692 35.6549 60.2285 35.9629 60.4992C36.2709 60.7605 36.7376 60.8912 37.3629 60.8912C37.8669 60.8912 38.2682 60.8118 38.5669 60.6532C38.8749 60.4852 39.0289 60.2192 39.0289 59.8552C39.0289 59.6592 38.9822 59.4958 38.8889 59.3652C38.7956 59.2345 38.6136 59.1225 38.3429 59.0292C38.0722 58.9265 37.6709 58.8285 37.1389 58.7352C36.4296 58.6045 35.8696 58.4458 35.4589 58.2592C35.0576 58.0632 34.7682 57.8252 34.5909 57.5452C34.4229 57.2558 34.3389 56.9152 34.3389 56.5232C34.3389 55.8605 34.5816 55.3192 35.0669 54.8992C35.5522 54.4698 36.2429 54.2552 37.1389 54.2552C37.7456 54.2552 38.2542 54.3672 38.6649 54.5912C39.0849 54.8058 39.4116 55.0952 39.6449 55.4592C39.8876 55.8138 40.0462 56.2058 40.1209 56.6352L38.8889 56.7192C38.8329 56.4578 38.7302 56.2292 38.5809 56.0332C38.4316 55.8278 38.2356 55.6692 37.9929 55.5572C37.7502 55.4358 37.4609 55.3752 37.1249 55.3752C36.5929 55.3752 36.2009 55.4778 35.9489 55.6832C35.6969 55.8885 35.5709 56.1498 35.5709 56.4672C35.5709 56.7098 35.6269 56.9105 35.7389 57.0692C35.8602 57.2185 36.0516 57.3445 36.3129 57.4472C36.5742 57.5405 36.9242 57.6245 37.3629 57.6992C38.1189 57.8298 38.7069 57.9885 39.1269 58.1752C39.5469 58.3618 39.8409 58.5905 40.0089 58.8612C40.1769 59.1318 40.2609 59.4632 40.2609 59.8552C40.2609 60.3125 40.1302 60.7045 39.8689 61.0312C39.6169 61.3485 39.2716 61.5912 38.8329 61.7592C38.4036 61.9272 37.9136 62.0112 37.3629 62.0112Z" fill="#626884"/>
<path d="M44.1549 61.8432C43.4829 61.8432 42.9835 61.6892 42.6569 61.3812C42.3395 61.0732 42.1809 60.5925 42.1809 59.9392V52.6872H43.3569V59.9112C43.3569 60.2472 43.4315 60.4805 43.5809 60.6112C43.7302 60.7418 43.9589 60.8072 44.2669 60.8072H45.3309V61.8432H44.1549ZM41.0889 55.4592V54.4232H45.3309V55.4592H41.0889Z" fill="#626884"/>
<path d="M48.6466 62.0112C47.8812 62.0112 47.2699 61.8338 46.8126 61.4792C46.3646 61.1245 46.1406 60.6298 46.1406 59.9952C46.1406 59.3605 46.3272 58.8612 46.7006 58.4972C47.0739 58.1332 47.6666 57.8765 48.4786 57.7272L51.1106 57.2372C51.1106 56.6118 50.9612 56.1452 50.6626 55.8372C50.3732 55.5292 49.9346 55.3752 49.3466 55.3752C48.8332 55.3752 48.4272 55.4918 48.1286 55.7252C47.8299 55.9492 47.6246 56.2758 47.5126 56.7052L46.2666 56.6072C46.4066 55.9072 46.7426 55.3425 47.2746 54.9132C47.8159 54.4745 48.5066 54.2552 49.3466 54.2552C50.2986 54.2552 51.0266 54.5258 51.5306 55.0672C52.0346 55.5992 52.2866 56.3365 52.2866 57.2792V60.3452C52.2866 60.5132 52.3146 60.6345 52.3706 60.7092C52.4359 60.7745 52.5386 60.8072 52.6786 60.8072H52.9726V61.8432C52.9352 61.8525 52.8746 61.8572 52.7906 61.8572C52.7066 61.8665 52.6179 61.8712 52.5246 61.8712C52.1886 61.8712 51.9132 61.8198 51.6986 61.7172C51.4932 61.6052 51.3439 61.4372 51.2506 61.2132C51.1572 60.9798 51.1106 60.6765 51.1106 60.3032L51.2506 60.3312C51.1852 60.6485 51.0266 60.9378 50.7746 61.1992C50.5226 61.4512 50.2099 61.6518 49.8366 61.8012C49.4632 61.9412 49.0666 62.0112 48.6466 62.0112ZM48.7586 60.9752C49.2532 60.9752 49.6732 60.8818 50.0186 60.6952C50.3732 60.4992 50.6439 60.2378 50.8306 59.9112C51.0172 59.5752 51.1106 59.2018 51.1106 58.7912V58.2592L48.7026 58.7072C48.1986 58.8005 47.8486 58.9452 47.6526 59.1412C47.4659 59.3278 47.3726 59.5752 47.3726 59.8832C47.3726 60.2285 47.4939 60.4992 47.7366 60.6952C47.9886 60.8818 48.3292 60.9752 48.7586 60.9752Z" fill="#626884"/>
<path d="M54.1608 61.8432V54.4232H55.1968L55.2528 56.2992L55.1408 56.2572C55.2342 55.6225 55.4348 55.1605 55.7428 54.8712C56.0602 54.5725 56.4802 54.4232 57.0028 54.4232H57.7308V55.5432H57.0168C56.6435 55.5432 56.3308 55.6132 56.0788 55.7532C55.8362 55.8838 55.6495 56.0845 55.5188 56.3552C55.3975 56.6165 55.3368 56.9525 55.3368 57.3632V61.8432H54.1608Z" fill="#626884"/>
<path d="M61.3442 61.8432C60.6722 61.8432 60.1729 61.6892 59.8463 61.3812C59.5289 61.0732 59.3703 60.5925 59.3703 59.9392V52.6872H60.5462V59.9112C60.5462 60.2472 60.6209 60.4805 60.7703 60.6112C60.9196 60.7418 61.1482 60.8072 61.4562 60.8072H62.5203V61.8432H61.3442ZM58.2783 55.4592V54.4232H62.5203V55.4592H58.2783Z" fill="#626884"/>
<path d="M69.3327 62.0112C68.5673 62.0112 67.956 61.8338 67.4987 61.4792C67.0507 61.1245 66.8267 60.6298 66.8267 59.9952C66.8267 59.3605 67.0133 58.8612 67.3867 58.4972C67.76 58.1332 68.3527 57.8765 69.1647 57.7272L71.7967 57.2372C71.7967 56.6118 71.6473 56.1452 71.3487 55.8372C71.0593 55.5292 70.6207 55.3752 70.0327 55.3752C69.5193 55.3752 69.1133 55.4918 68.8147 55.7252C68.516 55.9492 68.3107 56.2758 68.1987 56.7052L66.9527 56.6072C67.0927 55.9072 67.4287 55.3425 67.9607 54.9132C68.502 54.4745 69.1927 54.2552 70.0327 54.2552C70.9847 54.2552 71.7127 54.5258 72.2167 55.0672C72.7207 55.5992 72.9727 56.3365 72.9727 57.2792V60.3452C72.9727 60.5132 73.0007 60.6345 73.0567 60.7092C73.122 60.7745 73.2247 60.8072 73.3647 60.8072H73.6587V61.8432C73.6213 61.8525 73.5607 61.8572 73.4767 61.8572C73.3927 61.8665 73.304 61.8712 73.2107 61.8712C72.8747 61.8712 72.5993 61.8198 72.3847 61.7172C72.1793 61.6052 72.03 61.4372 71.9367 61.2132C71.8433 60.9798 71.7967 60.6765 71.7967 60.3032L71.9367 60.3312C71.8713 60.6485 71.7127 60.9378 71.4607 61.1992C71.2087 61.4512 70.896 61.6518 70.5227 61.8012C70.1493 61.9412 69.7527 62.0112 69.3327 62.0112ZM69.4447 60.9752C69.9393 60.9752 70.3593 60.8818 70.7047 60.6952C71.0593 60.4992 71.33 60.2378 71.5167 59.9112C71.7033 59.5752 71.7967 59.2018 71.7967 58.7912V58.2592L69.3887 58.7072C68.8847 58.8005 68.5347 58.9452 68.3387 59.1412C68.152 59.3278 68.0587 59.5752 68.0587 59.8832C68.0587 60.2285 68.18 60.4992 68.4227 60.6952C68.6747 60.8818 69.0153 60.9752 69.4447 60.9752Z" fill="#626884"/>
<path d="M77.2009 62.0112C76.4636 62.0112 75.8709 61.7638 75.4229 61.2692C74.9842 60.7652 74.7649 60.0745 74.7649 59.1972V54.4232H75.9409V58.8752C75.9409 59.5938 76.0669 60.1258 76.3189 60.4712C76.5802 60.8072 76.9769 60.9752 77.5089 60.9752C78.0969 60.9752 78.5589 60.7885 78.8949 60.4152C79.2309 60.0325 79.3989 59.5098 79.3989 58.8472V54.4232H80.5749V61.8432H79.4549V60.0092L79.6369 60.1072C79.4876 60.7138 79.2029 61.1852 78.7829 61.5212C78.3629 61.8478 77.8356 62.0112 77.2009 62.0112Z" fill="#626884"/>
<path d="M84.9971 61.8432C84.3251 61.8432 83.8258 61.6892 83.4991 61.3812C83.1818 61.0732 83.0231 60.5925 83.0231 59.9392V52.6872H84.1991V59.9112C84.1991 60.2472 84.2738 60.4805 84.4231 60.6112C84.5725 60.7418 84.8011 60.8072 85.1091 60.8072H86.1731V61.8432H84.9971ZM81.9311 55.4592V54.4232H86.1731V55.4592H81.9311Z" fill="#626884"/>
<path d="M90.3028 62.0112C89.6215 62.0112 89.0241 61.8525 88.5108 61.5352C87.9975 61.2178 87.6008 60.7698 87.3208 60.1912C87.0408 59.6032 86.9008 58.9172 86.9008 58.1332C86.9008 57.3398 87.0408 56.6538 87.3208 56.0752C87.6008 55.4965 87.9975 55.0485 88.5108 54.7312C89.0241 54.4138 89.6215 54.2552 90.3028 54.2552C90.9841 54.2552 91.5768 54.4138 92.0808 54.7312C92.5941 55.0485 92.9908 55.4965 93.2708 56.0752C93.5508 56.6538 93.6908 57.3398 93.6908 58.1332C93.6908 58.9172 93.5508 59.6032 93.2708 60.1912C92.9908 60.7698 92.5941 61.2178 92.0808 61.5352C91.5768 61.8525 90.9841 62.0112 90.3028 62.0112ZM90.3028 60.8912C90.9841 60.8912 91.5115 60.6485 91.8848 60.1632C92.2675 59.6685 92.4588 58.9918 92.4588 58.1332C92.4588 57.2745 92.2675 56.6025 91.8848 56.1172C91.5115 55.6225 90.9841 55.3752 90.3028 55.3752C89.6215 55.3752 89.0895 55.6225 88.7068 56.1172C88.3241 56.6025 88.1328 57.2745 88.1328 58.1332C88.1328 58.9918 88.3241 59.6685 88.7068 60.1632C89.0895 60.6485 89.6215 60.8912 90.3028 60.8912Z" fill="#626884"/>
<path d="M95.1535 61.8432V54.4232H96.2315L96.2735 56.2992L96.1055 56.2432C96.1895 55.8325 96.3341 55.4825 96.5395 55.1932C96.7541 54.8945 97.0155 54.6658 97.3235 54.5072C97.6315 54.3392 97.9721 54.2552 98.3455 54.2552C98.9895 54.2552 99.5121 54.4325 99.9135 54.7872C100.324 55.1418 100.581 55.6365 100.683 56.2712L100.459 56.2572C100.534 55.8278 100.669 55.4685 100.865 55.1792C101.071 54.8805 101.332 54.6518 101.649 54.4932C101.967 54.3345 102.331 54.2552 102.741 54.2552C103.273 54.2552 103.721 54.3672 104.085 54.5912C104.449 54.8058 104.725 55.1232 104.911 55.5432C105.098 55.9632 105.191 56.4718 105.191 57.0692V61.8432H104.015V57.3212C104.015 56.6492 103.885 56.1452 103.623 55.8092C103.362 55.4638 102.975 55.2912 102.461 55.2912C102.116 55.2912 101.813 55.3752 101.551 55.5432C101.299 55.7112 101.103 55.9538 100.963 56.2712C100.823 56.5792 100.753 56.9572 100.753 57.4052V61.8432H99.5775V57.4052C99.5775 56.7425 99.4608 56.2245 99.2275 55.8512C98.9942 55.4778 98.6021 55.2912 98.0515 55.2912C97.7061 55.2912 97.4028 55.3752 97.1415 55.5432C96.8895 55.7112 96.6888 55.9538 96.5395 56.2712C96.3995 56.5885 96.3295 56.9665 96.3295 57.4052V61.8432H95.1535Z" fill="#626884"/>
<path d="M109.156 62.0112C108.391 62.0112 107.779 61.8338 107.322 61.4792C106.874 61.1245 106.65 60.6298 106.65 59.9952C106.65 59.3605 106.837 58.8612 107.21 58.4972C107.583 58.1332 108.176 57.8765 108.988 57.7272L111.62 57.2372C111.62 56.6118 111.471 56.1452 111.172 55.8372C110.883 55.5292 110.444 55.3752 109.856 55.3752C109.343 55.3752 108.937 55.4918 108.638 55.7252C108.339 55.9492 108.134 56.2758 108.022 56.7052L106.776 56.6072C106.916 55.9072 107.252 55.3425 107.784 54.9132C108.325 54.4745 109.016 54.2552 109.856 54.2552C110.808 54.2552 111.536 54.5258 112.04 55.0672C112.544 55.5992 112.796 56.3365 112.796 57.2792V60.3452C112.796 60.5132 112.824 60.6345 112.88 60.7092C112.945 60.7745 113.048 60.8072 113.188 60.8072H113.482V61.8432C113.445 61.8525 113.384 61.8572 113.3 61.8572C113.216 61.8665 113.127 61.8712 113.034 61.8712C112.698 61.8712 112.423 61.8198 112.208 61.7172C112.003 61.6052 111.853 61.4372 111.76 61.2132C111.667 60.9798 111.62 60.6765 111.62 60.3032L111.76 60.3312C111.695 60.6485 111.536 60.9378 111.284 61.1992C111.032 61.4512 110.719 61.6518 110.346 61.8012C109.973 61.9412 109.576 62.0112 109.156 62.0112ZM109.268 60.9752C109.763 60.9752 110.183 60.8818 110.528 60.6952C110.883 60.4992 111.153 60.2378 111.34 59.9112C111.527 59.5752 111.62 59.2018 111.62 58.7912V58.2592L109.212 58.7072C108.708 58.8005 108.358 58.9452 108.162 59.1412C107.975 59.3278 107.882 59.5752 107.882 59.8832C107.882 60.2285 108.003 60.4992 108.246 60.6952C108.498 60.8818 108.839 60.9752 109.268 60.9752Z" fill="#626884"/>
<path d="M117.017 61.8432C116.345 61.8432 115.846 61.6892 115.519 61.3812C115.202 61.0732 115.043 60.5925 115.043 59.9392V52.6872H116.219V59.9112C116.219 60.2472 116.294 60.4805 116.443 60.6112C116.593 60.7418 116.821 60.8072 117.129 60.8072H118.193V61.8432H117.017ZM113.951 55.4592V54.4232H118.193V55.4592H113.951Z" fill="#626884"/>
<path d="M119.562 61.8432V54.4232H120.738V61.8432H119.562ZM119.534 53.2612V51.8892H120.766V53.2612H119.534Z" fill="#626884"/>
<path d="M125.601 62.0112C124.91 62.0112 124.308 61.8525 123.795 61.5352C123.291 61.2178 122.899 60.7698 122.619 60.1912C122.339 59.6032 122.199 58.9172 122.199 58.1332C122.199 57.3492 122.339 56.6678 122.619 56.0892C122.899 55.5105 123.291 55.0625 123.795 54.7452C124.308 54.4185 124.91 54.2552 125.601 54.2552C126.17 54.2552 126.674 54.3578 127.113 54.5632C127.561 54.7592 127.925 55.0485 128.205 55.4312C128.485 55.8138 128.667 56.2805 128.751 56.8312L127.519 56.9152C127.435 56.4205 127.22 56.0425 126.875 55.7812C126.53 55.5105 126.105 55.3752 125.601 55.3752C124.92 55.3752 124.388 55.6225 124.005 56.1172C123.622 56.6025 123.431 57.2745 123.431 58.1332C123.431 58.9918 123.622 59.6685 124.005 60.1632C124.388 60.6485 124.92 60.8912 125.601 60.8912C126.105 60.8912 126.53 60.7512 126.875 60.4712C127.22 60.1912 127.435 59.7712 127.519 59.2112L128.751 59.2952C128.667 59.8458 128.485 60.3265 128.205 60.7372C127.925 61.1385 127.561 61.4512 127.113 61.6752C126.674 61.8992 126.17 62.0112 125.601 62.0112Z" fill="#626884"/>
<path d="M132.262 62.0112C131.497 62.0112 130.885 61.8338 130.428 61.4792C129.98 61.1245 129.756 60.6298 129.756 59.9952C129.756 59.3605 129.943 58.8612 130.316 58.4972C130.689 58.1332 131.282 57.8765 132.094 57.7272L134.726 57.2372C134.726 56.6118 134.577 56.1452 134.278 55.8372C133.989 55.5292 133.55 55.3752 132.962 55.3752C132.449 55.3752 132.043 55.4918 131.744 55.7252C131.445 55.9492 131.24 56.2758 131.128 56.7052L129.882 56.6072C130.022 55.9072 130.358 55.3425 130.89 54.9132C131.431 54.4745 132.122 54.2552 132.962 54.2552C133.914 54.2552 134.642 54.5258 135.146 55.0672C135.65 55.5992 135.902 56.3365 135.902 57.2792V60.3452C135.902 60.5132 135.93 60.6345 135.986 60.7092C136.051 60.7745 136.154 60.8072 136.294 60.8072H136.588V61.8432C136.551 61.8525 136.49 61.8572 136.406 61.8572C136.322 61.8665 136.233 61.8712 136.14 61.8712C135.804 61.8712 135.529 61.8198 135.314 61.7172C135.109 61.6052 134.959 61.4372 134.866 61.2132C134.773 60.9798 134.726 60.6765 134.726 60.3032L134.866 60.3312C134.801 60.6485 134.642 60.9378 134.39 61.1992C134.138 61.4512 133.825 61.6518 133.452 61.8012C133.079 61.9412 132.682 62.0112 132.262 62.0112ZM132.374 60.9752C132.869 60.9752 133.289 60.8818 133.634 60.6952C133.989 60.4992 134.259 60.2378 134.446 59.9112C134.633 59.5752 134.726 59.2018 134.726 58.7912V58.2592L132.318 58.7072C131.814 58.8005 131.464 58.9452 131.268 59.1412C131.081 59.3278 130.988 59.5752 130.988 59.8832C130.988 60.2285 131.109 60.4992 131.352 60.6952C131.604 60.8818 131.945 60.9752 132.374 60.9752Z" fill="#626884"/>
<path d="M139.15 61.8432C138.721 61.8432 138.371 61.7312 138.1 61.5072C137.83 61.2832 137.694 60.9285 137.694 60.4432V51.9032H138.87V60.3452C138.87 60.4945 138.908 60.6112 138.982 60.6952C139.066 60.7698 139.183 60.8072 139.332 60.8072H139.976V61.8432H139.15Z" fill="#626884"/>
<path d="M142.606 61.8432C142.177 61.8432 141.827 61.7312 141.556 61.5072C141.285 61.2832 141.15 60.9285 141.15 60.4432V51.9032H142.326V60.3452C142.326 60.4945 142.363 60.6112 142.438 60.6952C142.522 60.7698 142.639 60.8072 142.788 60.8072H143.432V61.8432H142.606Z" fill="#626884"/>
<path d="M144.723 63.9432V62.9072H145.577C145.838 62.9072 146.029 62.8652 146.151 62.7812C146.281 62.7065 146.379 62.5805 146.445 62.4032L146.711 61.7032H146.305L143.589 54.4232H144.877L147.089 60.6112L149.203 54.4232H150.491L147.481 62.7812C147.341 63.1825 147.131 63.4765 146.851 63.6632C146.571 63.8498 146.183 63.9432 145.689 63.9432H144.723Z" fill="#626884"/>
<path d="M157.142 62.0112C156.377 62.0112 155.766 61.8338 155.308 61.4792C154.86 61.1245 154.636 60.6298 154.636 59.9952C154.636 59.3605 154.823 58.8612 155.196 58.4972C155.57 58.1332 156.162 57.8765 156.974 57.7272L159.606 57.2372C159.606 56.6118 159.457 56.1452 159.158 55.8372C158.869 55.5292 158.43 55.3752 157.842 55.3752C157.329 55.3752 156.923 55.4918 156.624 55.7252C156.326 55.9492 156.12 56.2758 156.008 56.7052L154.762 56.6072C154.902 55.9072 155.238 55.3425 155.77 54.9132C156.312 54.4745 157.002 54.2552 157.842 54.2552C158.794 54.2552 159.522 54.5258 160.026 55.0672C160.53 55.5992 160.782 56.3365 160.782 57.2792V60.3452C160.782 60.5132 160.81 60.6345 160.866 60.7092C160.932 60.7745 161.034 60.8072 161.174 60.8072H161.468V61.8432C161.431 61.8525 161.37 61.8572 161.286 61.8572C161.202 61.8665 161.114 61.8712 161.02 61.8712C160.684 61.8712 160.409 61.8198 160.194 61.7172C159.989 61.6052 159.84 61.4372 159.746 61.2132C159.653 60.9798 159.606 60.6765 159.606 60.3032L159.746 60.3312C159.681 60.6485 159.522 60.9378 159.27 61.1992C159.018 61.4512 158.706 61.6518 158.332 61.8012C157.959 61.9412 157.562 62.0112 157.142 62.0112ZM157.254 60.9752C157.749 60.9752 158.169 60.8818 158.514 60.6952C158.869 60.4992 159.14 60.2378 159.326 59.9112C159.513 59.5752 159.606 59.2018 159.606 58.7912V58.2592L157.198 58.7072C156.694 58.8005 156.344 58.9452 156.148 59.1412C155.962 59.3278 155.868 59.5752 155.868 59.8832C155.868 60.2285 155.99 60.4992 156.232 60.6952C156.484 60.8818 156.825 60.9752 157.254 60.9752Z" fill="#626884"/>
<path d="M165.01 62.0112C164.273 62.0112 163.68 61.7638 163.232 61.2692C162.794 60.7652 162.574 60.0745 162.574 59.1972V54.4232H163.75V58.8752C163.75 59.5938 163.876 60.1258 164.128 60.4712C164.39 60.8072 164.786 60.9752 165.318 60.9752C165.906 60.9752 166.368 60.7885 166.704 60.4152C167.04 60.0325 167.208 59.5098 167.208 58.8472V54.4232H168.384V61.8432H167.264V60.0092L167.446 60.1072C167.297 60.7138 167.012 61.1852 166.592 61.5212C166.172 61.8478 165.645 62.0112 165.01 62.0112Z" fill="#626884"/>
<path d="M172.982 62.0112C172.338 62.0112 171.778 61.8525 171.302 61.5352C170.836 61.2178 170.476 60.7698 170.224 60.1912C169.972 59.6125 169.846 58.9265 169.846 58.1332C169.846 57.3398 169.972 56.6538 170.224 56.0752C170.476 55.4965 170.836 55.0485 171.302 54.7312C171.778 54.4138 172.338 54.2552 172.982 54.2552C173.477 54.2552 173.93 54.3625 174.34 54.5772C174.751 54.7825 175.059 55.0765 175.264 55.4592V51.9032H176.44V61.8432H175.376L175.334 60.7232C175.129 61.1245 174.816 61.4418 174.396 61.6752C173.976 61.8992 173.505 62.0112 172.982 62.0112ZM173.22 60.8912C173.659 60.8912 174.028 60.7792 174.326 60.5552C174.634 60.3312 174.868 60.0138 175.026 59.6032C175.185 59.1832 175.264 58.6932 175.264 58.1332C175.264 57.5545 175.185 57.0598 175.026 56.6492C174.868 56.2385 174.634 55.9258 174.326 55.7112C174.028 55.4872 173.659 55.3752 173.22 55.3752C172.567 55.3752 172.044 55.6225 171.652 56.1172C171.27 56.6025 171.078 57.2745 171.078 58.1332C171.078 58.9825 171.27 59.6545 171.652 60.1492C172.044 60.6438 172.567 60.8912 173.22 60.8912Z" fill="#626884"/>
<path d="M178.263 61.8432V54.4232H179.439V61.8432H178.263ZM178.235 53.2612V51.8892H179.467V53.2612H178.235Z" fill="#626884"/>
<path d="M183.697 61.8432C183.025 61.8432 182.525 61.6892 182.199 61.3812C181.881 61.0732 181.723 60.5925 181.723 59.9392V52.6872H182.899V59.9112C182.899 60.2472 182.973 60.4805 183.123 60.6112C183.272 60.7418 183.501 60.8072 183.809 60.8072H184.873V61.8432H183.697ZM180.631 55.4592V54.4232H184.873V55.4592H180.631Z" fill="#626884"/>
<path d="M186.241 61.8432V54.4232H187.417V61.8432H186.241ZM186.213 53.2612V51.8892H187.445V53.2612H186.213Z" fill="#626884"/>
<path d="M189.656 61.8432V54.4232H190.734L190.776 56.3132L190.636 56.1872C190.729 55.7485 190.892 55.3892 191.126 55.1092C191.359 54.8198 191.639 54.6052 191.966 54.4652C192.302 54.3252 192.661 54.2552 193.044 54.2552C193.613 54.2552 194.08 54.3812 194.444 54.6332C194.817 54.8852 195.092 55.2258 195.27 55.6552C195.456 56.0752 195.55 56.5465 195.55 57.0692V61.8432H194.374V57.4052C194.374 56.9478 194.318 56.5652 194.206 56.2572C194.103 55.9398 193.935 55.7018 193.702 55.5432C193.468 55.3752 193.165 55.2912 192.792 55.2912C192.222 55.2912 191.751 55.4732 191.378 55.8372C191.014 56.1918 190.832 56.7145 190.832 57.4052V61.8432H189.656Z" fill="#626884"/>
<path d="M200.3 64.1112C199.768 64.1112 199.288 64.0225 198.858 63.8452C198.429 63.6678 198.07 63.4158 197.78 63.0892C197.491 62.7625 197.295 62.3845 197.192 61.9552L198.424 61.8712C198.536 62.2165 198.732 62.4872 199.012 62.6832C199.302 62.8885 199.731 62.9912 200.3 62.9912C200.972 62.9912 201.486 62.8558 201.84 62.5852C202.204 62.3145 202.386 61.9085 202.386 61.3672V60.1632C202.209 60.5552 201.924 60.8678 201.532 61.1012C201.14 61.3345 200.702 61.4512 200.216 61.4512C199.591 61.4512 199.031 61.2972 198.536 60.9892C198.051 60.6812 197.668 60.2565 197.388 59.7152C197.118 59.1738 196.982 58.5532 196.982 57.8532C196.982 57.1438 197.118 56.5232 197.388 55.9912C197.659 55.4498 198.032 55.0252 198.508 54.7172C198.994 54.4092 199.544 54.2552 200.16 54.2552C200.683 54.2552 201.15 54.3765 201.56 54.6192C201.98 54.8618 202.274 55.1885 202.442 55.5992V54.4232H203.562V61.3392C203.562 61.9178 203.432 62.4125 203.17 62.8232C202.909 63.2432 202.536 63.5605 202.05 63.7752C201.565 63.9992 200.982 64.1112 200.3 64.1112ZM200.272 60.3312C200.907 60.3312 201.416 60.1118 201.798 59.6732C202.181 59.2252 202.377 58.6185 202.386 57.8532C202.396 57.3398 202.312 56.9012 202.134 56.5372C201.966 56.1638 201.719 55.8792 201.392 55.6832C201.075 55.4778 200.702 55.3752 200.272 55.3752C199.619 55.3752 199.11 55.5992 198.746 56.0472C198.392 56.4858 198.214 57.0878 198.214 57.8532C198.214 58.6185 198.396 59.2252 198.76 59.6732C199.134 60.1118 199.638 60.3312 200.272 60.3312Z" fill="#626884"/>
<path d="M209.341 63.9432V62.9072H210.195C210.456 62.9072 210.648 62.8652 210.769 62.7812C210.9 62.7065 210.998 62.5805 211.063 62.4032L211.329 61.7032H210.923L208.207 54.4232H209.495L211.707 60.6112L213.821 54.4232H215.109L212.099 62.7812C211.959 63.1825 211.749 63.4765 211.469 63.6632C211.189 63.8498 210.802 63.9432 210.307 63.9432H209.341Z" fill="#626884"/>
<path d="M218.927 62.0112C218.246 62.0112 217.649 61.8525 217.135 61.5352C216.622 61.2178 216.225 60.7698 215.945 60.1912C215.665 59.6032 215.525 58.9172 215.525 58.1332C215.525 57.3398 215.665 56.6538 215.945 56.0752C216.225 55.4965 216.622 55.0485 217.135 54.7312C217.649 54.4138 218.246 54.2552 218.927 54.2552C219.609 54.2552 220.201 54.4138 220.705 54.7312C221.219 55.0485 221.615 55.4965 221.895 56.0752C222.175 56.6538 222.315 57.3398 222.315 58.1332C222.315 58.9172 222.175 59.6032 221.895 60.1912C221.615 60.7698 221.219 61.2178 220.705 61.5352C220.201 61.8525 219.609 62.0112 218.927 62.0112ZM218.927 60.8912C219.609 60.8912 220.136 60.6485 220.509 60.1632C220.892 59.6685 221.083 58.9918 221.083 58.1332C221.083 57.2745 220.892 56.6025 220.509 56.1172C220.136 55.6225 219.609 55.3752 218.927 55.3752C218.246 55.3752 217.714 55.6225 217.331 56.1172C216.949 56.6025 216.757 57.2745 216.757 58.1332C216.757 58.9918 216.949 59.6685 217.331 60.1632C217.714 60.6485 218.246 60.8912 218.927 60.8912Z" fill="#626884"/>
<path d="M226.214 62.0112C225.477 62.0112 224.884 61.7638 224.436 61.2692C223.997 60.7652 223.778 60.0745 223.778 59.1972V54.4232H224.954V58.8752C224.954 59.5938 225.08 60.1258 225.332 60.4712C225.593 60.8072 225.99 60.9752 226.522 60.9752C227.11 60.9752 227.572 60.7885 227.908 60.4152C228.244 60.0325 228.412 59.5098 228.412 58.8472V54.4232H229.588V61.8432H228.468V60.0092L228.65 60.1072C228.501 60.7138 228.216 61.1852 227.796 61.5212C227.376 61.8478 226.849 62.0112 226.214 62.0112Z" fill="#626884"/>
<path d="M231.691 61.8432V54.4232H232.727L232.783 56.2992L232.671 56.2572C232.764 55.6225 232.965 55.1605 233.273 54.8712C233.59 54.5725 234.01 54.4232 234.533 54.4232H235.261V55.5432H234.547C234.173 55.5432 233.861 55.6132 233.609 55.7532C233.366 55.8838 233.179 56.0845 233.049 56.3552C232.927 56.6165 232.867 56.9525 232.867 57.3632V61.8432H231.691Z" fill="#626884"/>
<path d="M243.113 62.0112C242.423 62.0112 241.821 61.8525 241.307 61.5352C240.803 61.2178 240.411 60.7698 240.131 60.1912C239.851 59.6032 239.711 58.9172 239.711 58.1332C239.711 57.3492 239.851 56.6678 240.131 56.0892C240.411 55.5105 240.803 55.0625 241.307 54.7452C241.821 54.4185 242.423 54.2552 243.113 54.2552C243.683 54.2552 244.187 54.3578 244.625 54.5632C245.073 54.7592 245.437 55.0485 245.717 55.4312C245.997 55.8138 246.179 56.2805 246.263 56.8312L245.031 56.9152C244.947 56.4205 244.733 56.0425 244.387 55.7812C244.042 55.5105 243.617 55.3752 243.113 55.3752C242.432 55.3752 241.9 55.6225 241.517 56.1172C241.135 56.6025 240.943 57.2745 240.943 58.1332C240.943 58.9918 241.135 59.6685 241.517 60.1632C241.9 60.6485 242.432 60.8912 243.113 60.8912C243.617 60.8912 244.042 60.7512 244.387 60.4712C244.733 60.1912 244.947 59.7712 245.031 59.2112L246.263 59.2952C246.179 59.8458 245.997 60.3265 245.717 60.7372C245.437 61.1385 245.073 61.4512 244.625 61.6752C244.187 61.8992 243.683 62.0112 243.113 62.0112Z" fill="#626884"/>
<path d="M249.775 62.0112C249.009 62.0112 248.398 61.8338 247.941 61.4792C247.493 61.1245 247.269 60.6298 247.269 59.9952C247.269 59.3605 247.455 58.8612 247.829 58.4972C248.202 58.1332 248.795 57.8765 249.607 57.7272L252.239 57.2372C252.239 56.6118 252.089 56.1452 251.791 55.8372C251.501 55.5292 251.063 55.3752 250.475 55.3752C249.961 55.3752 249.555 55.4918 249.257 55.7252C248.958 55.9492 248.753 56.2758 248.641 56.7052L247.395 56.6072C247.535 55.9072 247.871 55.3425 248.403 54.9132C248.944 54.4745 249.635 54.2552 250.475 54.2552C251.427 54.2552 252.155 54.5258 252.659 55.0672C253.163 55.5992 253.415 56.3365 253.415 57.2792V60.3452C253.415 60.5132 253.443 60.6345 253.499 60.7092C253.564 60.7745 253.667 60.8072 253.807 60.8072H254.101V61.8432C254.063 61.8525 254.003 61.8572 253.919 61.8572C253.835 61.8665 253.746 61.8712 253.653 61.8712C253.317 61.8712 253.041 61.8198 252.827 61.7172C252.621 61.6052 252.472 61.4372 252.379 61.2132C252.285 60.9798 252.239 60.6765 252.239 60.3032L252.379 60.3312C252.313 60.6485 252.155 60.9378 251.903 61.1992C251.651 61.4512 251.338 61.6518 250.965 61.8012C250.591 61.9412 250.195 62.0112 249.775 62.0112ZM249.887 60.9752C250.381 60.9752 250.801 60.8818 251.147 60.6952C251.501 60.4992 251.772 60.2378 251.959 59.9112C252.145 59.5752 252.239 59.2018 252.239 58.7912V58.2592L249.831 58.7072C249.327 58.8005 248.977 58.9452 248.781 59.1412C248.594 59.3278 248.501 59.5752 248.501 59.8832C248.501 60.2285 248.622 60.4992 248.865 60.6952C249.117 60.8818 249.457 60.9752 249.887 60.9752Z" fill="#626884"/>
<path d="M255.289 61.8432V54.4232H256.367L256.409 56.2992L256.241 56.2432C256.325 55.8325 256.47 55.4825 256.675 55.1932C256.89 54.8945 257.151 54.6658 257.459 54.5072C257.767 54.3392 258.108 54.2552 258.481 54.2552C259.125 54.2552 259.648 54.4325 260.049 54.7872C260.46 55.1418 260.716 55.6365 260.819 56.2712L260.595 56.2572C260.67 55.8278 260.805 55.4685 261.001 55.1792C261.206 54.8805 261.468 54.6518 261.785 54.4932C262.102 54.3345 262.466 54.2552 262.877 54.2552C263.409 54.2552 263.857 54.3672 264.221 54.5912C264.585 54.8058 264.86 55.1232 265.047 55.5432C265.234 55.9632 265.327 56.4718 265.327 57.0692V61.8432H264.151V57.3212C264.151 56.6492 264.02 56.1452 263.759 55.8092C263.498 55.4638 263.11 55.2912 262.597 55.2912C262.252 55.2912 261.948 55.3752 261.687 55.5432C261.435 55.7112 261.239 55.9538 261.099 56.2712C260.959 56.5792 260.889 56.9572 260.889 57.4052V61.8432H259.713V57.4052C259.713 56.7425 259.596 56.2245 259.363 55.8512C259.13 55.4778 258.738 55.2912 258.187 55.2912C257.842 55.2912 257.538 55.3752 257.277 55.5432C257.025 55.7112 256.824 55.9538 256.675 56.2712C256.535 56.5885 256.465 56.9665 256.465 57.4052V61.8432H255.289Z" fill="#626884"/>
<path d="M267.153 63.9432V54.4232H268.245L268.273 56.0192L268.105 55.9352C268.291 55.3845 268.599 54.9692 269.029 54.6892C269.467 54.3998 269.971 54.2552 270.541 54.2552C271.278 54.2552 271.88 54.4372 272.347 54.8012C272.823 55.1652 273.173 55.6412 273.397 56.2292C273.63 56.8172 273.747 57.4518 273.747 58.1332C273.747 58.8145 273.63 59.4492 273.397 60.0372C273.173 60.6252 272.823 61.1012 272.347 61.4652C271.88 61.8292 271.278 62.0112 270.541 62.0112C270.158 62.0112 269.799 61.9458 269.463 61.8152C269.136 61.6845 268.856 61.5025 268.623 61.2692C268.399 61.0358 268.245 60.7605 268.161 60.4432L268.329 60.2472V63.9432H267.153ZM270.429 60.8912C271.073 60.8912 271.581 60.6485 271.955 60.1632C272.328 59.6778 272.515 59.0012 272.515 58.1332C272.515 57.2652 272.328 56.5885 271.955 56.1032C271.581 55.6178 271.073 55.3752 270.429 55.3752C269.999 55.3752 269.626 55.4778 269.309 55.6832C269.001 55.8885 268.758 56.1965 268.581 56.6072C268.413 57.0178 268.329 57.5265 268.329 58.1332C268.329 58.7398 268.413 59.2485 268.581 59.6592C268.749 60.0698 268.991 60.3778 269.309 60.5832C269.626 60.7885 269.999 60.8912 270.429 60.8912Z" fill="#626884"/>
<path d="M277.396 62.0112C276.63 62.0112 276.019 61.8338 275.562 61.4792C275.114 61.1245 274.89 60.6298 274.89 59.9952C274.89 59.3605 275.076 58.8612 275.45 58.4972C275.823 58.1332 276.416 57.8765 277.228 57.7272L279.86 57.2372C279.86 56.6118 279.71 56.1452 279.412 55.8372C279.122 55.5292 278.684 55.3752 278.096 55.3752C277.582 55.3752 277.176 55.4918 276.878 55.7252C276.579 55.9492 276.374 56.2758 276.262 56.7052L275.016 56.6072C275.156 55.9072 275.492 55.3425 276.024 54.9132C276.565 54.4745 277.256 54.2552 278.096 54.2552C279.048 54.2552 279.776 54.5258 280.28 55.0672C280.784 55.5992 281.036 56.3365 281.036 57.2792V60.3452C281.036 60.5132 281.064 60.6345 281.12 60.7092C281.185 60.7745 281.288 60.8072 281.428 60.8072H281.722V61.8432C281.684 61.8525 281.624 61.8572 281.54 61.8572C281.456 61.8665 281.367 61.8712 281.274 61.8712C280.938 61.8712 280.662 61.8198 280.448 61.7172C280.242 61.6052 280.093 61.4372 280 61.2132C279.906 60.9798 279.86 60.6765 279.86 60.3032L280 60.3312C279.934 60.6485 279.776 60.9378 279.524 61.1992C279.272 61.4512 278.959 61.6518 278.586 61.8012C278.212 61.9412 277.816 62.0112 277.396 62.0112ZM277.508 60.9752C278.002 60.9752 278.422 60.8818 278.768 60.6952C279.122 60.4992 279.393 60.2378 279.58 59.9112C279.766 59.5752 279.86 59.2018 279.86 58.7912V58.2592L277.452 58.7072C276.948 58.8005 276.598 58.9452 276.402 59.1412C276.215 59.3278 276.122 59.5752 276.122 59.8832C276.122 60.2285 276.243 60.4992 276.486 60.6952C276.738 60.8818 277.078 60.9752 277.508 60.9752Z" fill="#626884"/>
<path d="M282.855 61.8432V54.4232H284.031V61.8432H282.855ZM282.827 53.2612V51.8892H284.059V53.2612H282.827Z" fill="#626884"/>
<path d="M288.81 64.1112C288.278 64.1112 287.798 64.0225 287.368 63.8452C286.939 63.6678 286.58 63.4158 286.29 63.0892C286.001 62.7625 285.805 62.3845 285.702 61.9552L286.934 61.8712C287.046 62.2165 287.242 62.4872 287.522 62.6832C287.812 62.8885 288.241 62.9912 288.81 62.9912C289.482 62.9912 289.996 62.8558 290.35 62.5852C290.714 62.3145 290.896 61.9085 290.896 61.3672V60.1632C290.719 60.5552 290.434 60.8678 290.042 61.1012C289.65 61.3345 289.212 61.4512 288.726 61.4512C288.101 61.4512 287.541 61.2972 287.046 60.9892C286.561 60.6812 286.178 60.2565 285.898 59.7152C285.628 59.1738 285.492 58.5532 285.492 57.8532C285.492 57.1438 285.628 56.5232 285.898 55.9912C286.169 55.4498 286.542 55.0252 287.018 54.7172C287.504 54.4092 288.054 54.2552 288.67 54.2552C289.193 54.2552 289.66 54.3765 290.07 54.6192C290.49 54.8618 290.784 55.1885 290.952 55.5992V54.4232H292.072V61.3392C292.072 61.9178 291.942 62.4125 291.68 62.8232C291.419 63.2432 291.046 63.5605 290.56 63.7752C290.075 63.9992 289.492 64.1112 288.81 64.1112ZM288.782 60.3312C289.417 60.3312 289.926 60.1118 290.308 59.6732C290.691 59.2252 290.887 58.6185 290.896 57.8532C290.906 57.3398 290.822 56.9012 290.644 56.5372C290.476 56.1638 290.229 55.8792 289.902 55.6832C289.585 55.4778 289.212 55.3752 288.782 55.3752C288.129 55.3752 287.62 55.5992 287.256 56.0472C286.902 56.4858 286.724 57.0878 286.724 57.8532C286.724 58.6185 286.906 59.2252 287.27 59.6732C287.644 60.1118 288.148 60.3312 288.782 60.3312Z" fill="#626884"/>
<path d="M294.169 61.8432V54.4232H295.247L295.289 56.3132L295.149 56.1872C295.242 55.7485 295.406 55.3892 295.639 55.1092C295.872 54.8198 296.152 54.6052 296.479 54.4652C296.815 54.3252 297.174 54.2552 297.557 54.2552C298.126 54.2552 298.593 54.3812 298.957 54.6332C299.33 54.8852 299.606 55.2258 299.783 55.6552C299.97 56.0752 300.063 56.5465 300.063 57.0692V61.8432H298.887V57.4052C298.887 56.9478 298.831 56.5652 298.719 56.2572C298.616 55.9398 298.448 55.7018 298.215 55.5432C297.982 55.3752 297.678 55.2912 297.305 55.2912C296.736 55.2912 296.264 55.4732 295.891 55.8372C295.527 56.1918 295.345 56.7145 295.345 57.4052V61.8432H294.169Z" fill="#626884"/>
<path d="M304.702 62.0112C304.039 62.0112 303.474 61.9038 303.008 61.6892C302.55 61.4745 302.191 61.1805 301.93 60.8072C301.678 60.4245 301.533 59.9905 301.496 59.5052L302.728 59.4212C302.802 59.8692 302.994 60.2285 303.302 60.4992C303.61 60.7605 304.076 60.8912 304.702 60.8912C305.206 60.8912 305.607 60.8118 305.906 60.6532C306.214 60.4852 306.368 60.2192 306.368 59.8552C306.368 59.6592 306.321 59.4958 306.228 59.3652C306.134 59.2345 305.952 59.1225 305.682 59.0292C305.411 58.9265 305.01 58.8285 304.478 58.7352C303.768 58.6045 303.208 58.4458 302.798 58.2592C302.396 58.0632 302.107 57.8252 301.93 57.5452C301.762 57.2558 301.678 56.9152 301.678 56.5232C301.678 55.8605 301.92 55.3192 302.406 54.8992C302.891 54.4698 303.582 54.2552 304.478 54.2552C305.084 54.2552 305.593 54.3672 306.004 54.5912C306.424 54.8058 306.75 55.0952 306.984 55.4592C307.226 55.8138 307.385 56.2058 307.46 56.6352L306.228 56.7192C306.172 56.4578 306.069 56.2292 305.92 56.0332C305.77 55.8278 305.574 55.6692 305.332 55.5572C305.089 55.4358 304.8 55.3752 304.464 55.3752C303.932 55.3752 303.54 55.4778 303.288 55.6832C303.036 55.8885 302.91 56.1498 302.91 56.4672C302.91 56.7098 302.966 56.9105 303.078 57.0692C303.199 57.2185 303.39 57.3445 303.652 57.4472C303.913 57.5405 304.263 57.6245 304.702 57.6992C305.458 57.8298 306.046 57.9885 306.466 58.1752C306.886 58.3618 307.18 58.5905 307.348 58.8612C307.516 59.1318 307.6 59.4632 307.6 59.8552C307.6 60.3125 307.469 60.7045 307.208 61.0312C306.956 61.3485 306.61 61.5912 306.172 61.7592C305.742 61.9272 305.252 62.0112 304.702 62.0112Z" fill="#626884"/>
<path d="M308.739 64.0272L309.411 61.8432H308.697V60.2612H310.279V61.6472L309.439 64.0272H308.739Z" fill="#626884"/>
<path d="M315.238 61.8432V54.4232H316.414V61.8432H315.238ZM315.21 53.2612V51.8892H316.442V53.2612H315.21Z" fill="#626884"/>
<path d="M318.653 61.8432V54.4232H319.731L319.773 56.3132L319.633 56.1872C319.726 55.7485 319.889 55.3892 320.123 55.1092C320.356 54.8198 320.636 54.6052 320.963 54.4652C321.299 54.3252 321.658 54.2552 322.041 54.2552C322.61 54.2552 323.077 54.3812 323.441 54.6332C323.814 54.8852 324.089 55.2258 324.267 55.6552C324.453 56.0752 324.547 56.5465 324.547 57.0692V61.8432H323.371V57.4052C323.371 56.9478 323.315 56.5652 323.203 56.2572C323.1 55.9398 322.932 55.7018 322.699 55.5432C322.465 55.3752 322.162 55.2912 321.789 55.2912C321.219 55.2912 320.748 55.4732 320.375 55.8372C320.011 56.1918 319.829 56.7145 319.829 57.4052V61.8432H318.653Z" fill="#626884"/>
<path d="M328.803 61.8432C328.131 61.8432 327.631 61.6892 327.305 61.3812C326.987 61.0732 326.829 60.5925 326.829 59.9392V52.6872H328.005V59.9112C328.005 60.2472 328.079 60.4805 328.229 60.6112C328.378 60.7418 328.607 60.8072 328.915 60.8072H329.979V61.8432H328.803ZM325.737 55.4592V54.4232H329.979V55.4592H325.737Z" fill="#626884"/>
<path d="M334.108 62.0112C333.408 62.0112 332.802 61.8525 332.288 61.5352C331.784 61.2178 331.392 60.7698 331.112 60.1912C330.842 59.6032 330.706 58.9172 330.706 58.1332C330.706 57.3492 330.842 56.6678 331.112 56.0892C331.392 55.5105 331.78 55.0625 332.274 54.7452C332.778 54.4185 333.371 54.2552 334.052 54.2552C334.696 54.2552 335.266 54.4092 335.76 54.7172C336.255 55.0158 336.638 55.4545 336.908 56.0332C337.188 56.6118 337.328 57.3165 337.328 58.1472V58.4972H331.938C331.985 59.2905 332.195 59.8878 332.568 60.2892C332.951 60.6905 333.464 60.8912 334.108 60.8912C334.594 60.8912 334.99 60.7792 335.298 60.5552C335.616 60.3218 335.835 60.0185 335.956 59.6452L337.216 59.7432C337.02 60.4058 336.647 60.9518 336.096 61.3812C335.555 61.8012 334.892 62.0112 334.108 62.0112ZM331.938 57.4612H336.04C335.984 56.7425 335.774 56.2152 335.41 55.8792C335.056 55.5432 334.603 55.3752 334.052 55.3752C333.483 55.3752 333.012 55.5525 332.638 55.9072C332.274 56.2525 332.041 56.7705 331.938 57.4612Z" fill="#626884"/>
<path d="M341.595 64.1112C341.063 64.1112 340.583 64.0225 340.153 63.8452C339.724 63.6678 339.365 63.4158 339.075 63.0892C338.786 62.7625 338.59 62.3845 338.487 61.9552L339.719 61.8712C339.831 62.2165 340.027 62.4872 340.307 62.6832C340.597 62.8885 341.026 62.9912 341.595 62.9912C342.267 62.9912 342.781 62.8558 343.135 62.5852C343.499 62.3145 343.681 61.9085 343.681 61.3672V60.1632C343.504 60.5552 343.219 60.8678 342.827 61.1012C342.435 61.3345 341.997 61.4512 341.511 61.4512C340.886 61.4512 340.326 61.2972 339.831 60.9892C339.346 60.6812 338.963 60.2565 338.683 59.7152C338.413 59.1738 338.277 58.5532 338.277 57.8532C338.277 57.1438 338.413 56.5232 338.683 55.9912C338.954 55.4498 339.327 55.0252 339.803 54.7172C340.289 54.4092 340.839 54.2552 341.455 54.2552C341.978 54.2552 342.445 54.3765 342.855 54.6192C343.275 54.8618 343.569 55.1885 343.737 55.5992V54.4232H344.857V61.3392C344.857 61.9178 344.727 62.4125 344.465 62.8232C344.204 63.2432 343.831 63.5605 343.345 63.7752C342.86 63.9992 342.277 64.1112 341.595 64.1112ZM341.567 60.3312C342.202 60.3312 342.711 60.1118 343.093 59.6732C343.476 59.2252 343.672 58.6185 343.681 57.8532C343.691 57.3398 343.607 56.9012 343.429 56.5372C343.261 56.1638 343.014 55.8792 342.687 55.6832C342.37 55.4778 341.997 55.3752 341.567 55.3752C340.914 55.3752 340.405 55.5992 340.041 56.0472C339.687 56.4858 339.509 57.0878 339.509 57.8532C339.509 58.6185 339.691 59.2252 340.055 59.6732C340.429 60.1118 340.933 60.3312 341.567 60.3312Z" fill="#626884"/>
<path d="M346.954 61.8432V54.4232H347.99L348.046 56.2992L347.934 56.2572C348.027 55.6225 348.228 55.1605 348.536 54.8712C348.853 54.5725 349.273 54.4232 349.796 54.4232H350.524V55.5432H349.81C349.437 55.5432 349.124 55.6132 348.872 55.7532C348.629 55.8838 348.443 56.0845 348.312 56.3552C348.191 56.6165 348.13 56.9525 348.13 57.3632V61.8432H346.954Z" fill="#626884"/>
<path d="M353.56 62.0112C352.795 62.0112 352.183 61.8338 351.726 61.4792C351.278 61.1245 351.054 60.6298 351.054 59.9952C351.054 59.3605 351.241 58.8612 351.614 58.4972C351.987 58.1332 352.58 57.8765 353.392 57.7272L356.024 57.2372C356.024 56.6118 355.875 56.1452 355.576 55.8372C355.287 55.5292 354.848 55.3752 354.26 55.3752C353.747 55.3752 353.341 55.4918 353.042 55.7252C352.743 55.9492 352.538 56.2758 352.426 56.7052L351.18 56.6072C351.32 55.9072 351.656 55.3425 352.188 54.9132C352.729 54.4745 353.42 54.2552 354.26 54.2552C355.212 54.2552 355.94 54.5258 356.444 55.0672C356.948 55.5992 357.2 56.3365 357.2 57.2792V60.3452C357.2 60.5132 357.228 60.6345 357.284 60.7092C357.349 60.7745 357.452 60.8072 357.592 60.8072H357.886V61.8432C357.849 61.8525 357.788 61.8572 357.704 61.8572C357.62 61.8665 357.531 61.8712 357.438 61.8712C357.102 61.8712 356.827 61.8198 356.612 61.7172C356.407 61.6052 356.257 61.4372 356.164 61.2132C356.071 60.9798 356.024 60.6765 356.024 60.3032L356.164 60.3312C356.099 60.6485 355.94 60.9378 355.688 61.1992C355.436 61.4512 355.123 61.6518 354.75 61.8012C354.377 61.9412 353.98 62.0112 353.56 62.0112ZM353.672 60.9752C354.167 60.9752 354.587 60.8818 354.932 60.6952C355.287 60.4992 355.557 60.2378 355.744 59.9112C355.931 59.5752 356.024 59.2018 356.024 58.7912V58.2592L353.616 58.7072C353.112 58.8005 352.762 58.9452 352.566 59.1412C352.379 59.3278 352.286 59.5752 352.286 59.8832C352.286 60.2285 352.407 60.4992 352.65 60.6952C352.902 60.8818 353.243 60.9752 353.672 60.9752Z" fill="#626884"/>
<path d="M361.421 61.8432C360.749 61.8432 360.25 61.6892 359.923 61.3812C359.606 61.0732 359.447 60.5925 359.447 59.9392V52.6872H360.623V59.9112C360.623 60.2472 360.698 60.4805 360.847 60.6112C360.996 60.7418 361.225 60.8072 361.533 60.8072H362.597V61.8432H361.421ZM358.355 55.4592V54.4232H362.597V55.4592H358.355Z" fill="#626884"/>
<path d="M366.727 62.0112C366.027 62.0112 365.42 61.8525 364.907 61.5352C364.403 61.2178 364.011 60.7698 363.731 60.1912C363.46 59.6032 363.325 58.9172 363.325 58.1332C363.325 57.3492 363.46 56.6678 363.731 56.0892C364.011 55.5105 364.398 55.0625 364.893 54.7452C365.397 54.4185 365.989 54.2552 366.671 54.2552C367.315 54.2552 367.884 54.4092 368.379 54.7172C368.873 55.0158 369.256 55.4545 369.527 56.0332C369.807 56.6118 369.947 57.3165 369.947 58.1472V58.4972H364.557C364.603 59.2905 364.813 59.8878 365.187 60.2892C365.569 60.6905 366.083 60.8912 366.727 60.8912C367.212 60.8912 367.609 60.7792 367.917 60.5552C368.234 60.3218 368.453 60.0185 368.575 59.6452L369.835 59.7432C369.639 60.4058 369.265 60.9518 368.715 61.3812C368.173 61.8012 367.511 62.0112 366.727 62.0112ZM364.557 57.4612H368.659C368.603 56.7425 368.393 56.2152 368.029 55.8792C367.674 55.5432 367.221 55.3752 366.671 55.3752C366.101 55.3752 365.63 55.5525 365.257 55.9072C364.893 56.2525 364.659 56.7705 364.557 57.4612Z" fill="#626884"/>
<path d="M17.274 83.9432V82.9072H18.128C18.3893 82.9072 18.5807 82.8652 18.702 82.7812C18.8327 82.7065 18.9307 82.5805 18.996 82.4032L19.262 81.7032H18.856L16.14 74.4232H17.428L19.64 80.6112L21.754 74.4232H23.042L20.032 82.7812C19.892 83.1825 19.682 83.4765 19.402 83.6632C19.122 83.8498 18.7347 83.9432 18.24 83.9432H17.274Z" fill="#626884"/>
<path d="M26.8604 82.0112C26.1791 82.0112 25.5817 81.8525 25.0684 81.5352C24.5551 81.2178 24.1584 80.7698 23.8784 80.1912C23.5984 79.6032 23.4584 78.9172 23.4584 78.1332C23.4584 77.3398 23.5984 76.6538 23.8784 76.0752C24.1584 75.4965 24.5551 75.0485 25.0684 74.7312C25.5817 74.4138 26.1791 74.2552 26.8604 74.2552C27.5417 74.2552 28.1344 74.4138 28.6384 74.7312C29.1517 75.0485 29.5484 75.4965 29.8284 76.0752C30.1084 76.6538 30.2484 77.3398 30.2484 78.1332C30.2484 78.9172 30.1084 79.6032 29.8284 80.1912C29.5484 80.7698 29.1517 81.2178 28.6384 81.5352C28.1344 81.8525 27.5417 82.0112 26.8604 82.0112ZM26.8604 80.8912C27.5417 80.8912 28.0691 80.6485 28.4424 80.1632C28.8251 79.6685 29.0164 78.9918 29.0164 78.1332C29.0164 77.2745 28.8251 76.6025 28.4424 76.1172C28.0691 75.6225 27.5417 75.3752 26.8604 75.3752C26.1791 75.3752 25.6471 75.6225 25.2644 76.1172C24.8817 76.6025 24.6904 77.2745 24.6904 78.1332C24.6904 78.9918 24.8817 79.6685 25.2644 80.1632C25.6471 80.6485 26.1791 80.8912 26.8604 80.8912Z" fill="#626884"/>
<path d="M34.1471 82.0112C33.4097 82.0112 32.8171 81.7638 32.3691 81.2692C31.9304 80.7652 31.7111 80.0745 31.7111 79.1972V74.4232H32.8871V78.8752C32.8871 79.5938 33.0131 80.1258 33.2651 80.4712C33.5264 80.8072 33.9231 80.9752 34.4551 80.9752C35.0431 80.9752 35.5051 80.7885 35.8411 80.4152C36.1771 80.0325 36.3451 79.5098 36.3451 78.8472V74.4232H37.5211V81.8432H36.4011V80.0092L36.5831 80.1072C36.4337 80.7138 36.1491 81.1852 35.7291 81.5212C35.3091 81.8478 34.7817 82.0112 34.1471 82.0112Z" fill="#626884"/>
<path d="M39.6238 81.8432V74.4232H40.6598L40.7158 76.2992L40.6038 76.2572C40.6971 75.6225 40.8978 75.1605 41.2058 74.8712C41.5231 74.5725 41.9431 74.4232 42.4658 74.4232H43.1938V75.5432H42.4798C42.1065 75.5432 41.7938 75.6132 41.5418 75.7532C41.2991 75.8838 41.1125 76.0845 40.9818 76.3552C40.8605 76.6165 40.7998 76.9525 40.7998 77.3632V81.8432H39.6238Z" fill="#626884"/>
<path d="M51.0465 82.0112C50.3558 82.0112 49.7538 81.8525 49.2405 81.5352C48.7365 81.2178 48.3445 80.7698 48.0645 80.1912C47.7845 79.6032 47.6445 78.9172 47.6445 78.1332C47.6445 77.3492 47.7845 76.6678 48.0645 76.0892C48.3445 75.5105 48.7365 75.0625 49.2405 74.7452C49.7538 74.4185 50.3558 74.2552 51.0465 74.2552C51.6158 74.2552 52.1198 74.3578 52.5585 74.5632C53.0065 74.7592 53.3705 75.0485 53.6505 75.4312C53.9305 75.8138 54.1125 76.2805 54.1965 76.8312L52.9645 76.9152C52.8805 76.4205 52.6658 76.0425 52.3205 75.7812C51.9752 75.5105 51.5505 75.3752 51.0465 75.3752C50.3651 75.3752 49.8332 75.6225 49.4505 76.1172C49.0678 76.6025 48.8765 77.2745 48.8765 78.1332C48.8765 78.9918 49.0678 79.6685 49.4505 80.1632C49.8332 80.6485 50.3651 80.8912 51.0465 80.8912C51.5505 80.8912 51.9752 80.7512 52.3205 80.4712C52.6658 80.1912 52.8805 79.7712 52.9645 79.2112L54.1965 79.2952C54.1125 79.8458 53.9305 80.3265 53.6505 80.7372C53.3705 81.1385 53.0065 81.4512 52.5585 81.6752C52.1198 81.8992 51.6158 82.0112 51.0465 82.0112Z" fill="#626884"/>
<path d="M57.7077 82.0112C56.9424 82.0112 56.3311 81.8338 55.8737 81.4792C55.4257 81.1245 55.2018 80.6298 55.2018 79.9952C55.2018 79.3605 55.3884 78.8612 55.7617 78.4972C56.1351 78.1332 56.7277 77.8765 57.5397 77.7272L60.1717 77.2372C60.1717 76.6118 60.0224 76.1452 59.7238 75.8372C59.4344 75.5292 58.9957 75.3752 58.4077 75.3752C57.8944 75.3752 57.4884 75.4918 57.1898 75.7252C56.8911 75.9492 56.6857 76.2758 56.5737 76.7052L55.3278 76.6072C55.4678 75.9072 55.8038 75.3425 56.3358 74.9132C56.8771 74.4745 57.5677 74.2552 58.4077 74.2552C59.3597 74.2552 60.0878 74.5258 60.5918 75.0672C61.0958 75.5992 61.3478 76.3365 61.3478 77.2792V80.3452C61.3478 80.5132 61.3758 80.6345 61.4318 80.7092C61.4971 80.7745 61.5997 80.8072 61.7397 80.8072H62.0337V81.8432C61.9964 81.8525 61.9357 81.8572 61.8517 81.8572C61.7677 81.8665 61.6791 81.8712 61.5858 81.8712C61.2498 81.8712 60.9744 81.8198 60.7598 81.7172C60.5544 81.6052 60.4051 81.4372 60.3117 81.2132C60.2184 80.9798 60.1717 80.6765 60.1717 80.3032L60.3117 80.3312C60.2464 80.6485 60.0878 80.9378 59.8358 81.1992C59.5838 81.4512 59.2711 81.6518 58.8978 81.8012C58.5244 81.9412 58.1277 82.0112 57.7077 82.0112ZM57.8198 80.9752C58.3144 80.9752 58.7344 80.8818 59.0798 80.6952C59.4344 80.4992 59.7051 80.2378 59.8918 79.9112C60.0784 79.5752 60.1717 79.2018 60.1717 78.7912V78.2592L57.7637 78.7072C57.2597 78.8005 56.9097 78.9452 56.7137 79.1412C56.5271 79.3278 56.4338 79.5752 56.4338 79.8832C56.4338 80.2285 56.5551 80.4992 56.7977 80.6952C57.0497 80.8818 57.3904 80.9752 57.8198 80.9752Z" fill="#626884"/>
<path d="M63.222 81.8432V74.4232H64.3L64.342 76.2992L64.174 76.2432C64.258 75.8325 64.4027 75.4825 64.608 75.1932C64.8227 74.8945 65.084 74.6658 65.392 74.5072C65.7 74.3392 66.0407 74.2552 66.414 74.2552C67.058 74.2552 67.5807 74.4325 67.982 74.7872C68.3927 75.1418 68.6493 75.6365 68.752 76.2712L68.528 76.2572C68.6027 75.8278 68.738 75.4685 68.934 75.1792C69.1393 74.8805 69.4007 74.6518 69.718 74.4932C70.0353 74.3345 70.3993 74.2552 70.81 74.2552C71.342 74.2552 71.79 74.3672 72.154 74.5912C72.518 74.8058 72.7933 75.1232 72.98 75.5432C73.1667 75.9632 73.26 76.4718 73.26 77.0692V81.8432H72.084V77.3212C72.084 76.6492 71.9533 76.1452 71.692 75.8092C71.4307 75.4638 71.0433 75.2912 70.53 75.2912C70.1847 75.2912 69.8813 75.3752 69.62 75.5432C69.368 75.7112 69.172 75.9538 69.032 76.2712C68.892 76.5792 68.822 76.9572 68.822 77.4052V81.8432H67.646V77.4052C67.646 76.7425 67.5293 76.2245 67.296 75.8512C67.0627 75.4778 66.6707 75.2912 66.12 75.2912C65.7747 75.2912 65.4713 75.3752 65.21 75.5432C64.958 75.7112 64.7573 75.9538 64.608 76.2712C64.468 76.5885 64.398 76.9665 64.398 77.4052V81.8432H63.222Z" fill="#626884"/>
<path d="M75.0859 83.9432V74.4232H76.1779L76.2059 76.0192L76.0379 75.9352C76.2246 75.3845 76.5326 74.9692 76.9619 74.6892C77.4006 74.3998 77.9046 74.2552 78.4739 74.2552C79.2112 74.2552 79.8132 74.4372 80.2799 74.8012C80.7559 75.1652 81.1059 75.6412 81.3299 76.2292C81.5632 76.8172 81.6799 77.4518 81.6799 78.1332C81.6799 78.8145 81.5632 79.4492 81.3299 80.0372C81.1059 80.6252 80.7559 81.1012 80.2799 81.4652C79.8132 81.8292 79.2112 82.0112 78.4739 82.0112C78.0912 82.0112 77.7319 81.9458 77.3959 81.8152C77.0692 81.6845 76.7892 81.5025 76.5559 81.2692C76.3319 81.0358 76.1779 80.7605 76.0939 80.4432L76.2619 80.2472V83.9432H75.0859ZM78.3619 80.8912C79.0059 80.8912 79.5146 80.6485 79.8879 80.1632C80.2612 79.6778 80.4479 79.0012 80.4479 78.1332C80.4479 77.2652 80.2612 76.5885 79.8879 76.1032C79.5146 75.6178 79.0059 75.3752 78.3619 75.3752C77.9326 75.3752 77.5592 75.4778 77.2419 75.6832C76.9339 75.8885 76.6912 76.1965 76.5139 76.6072C76.3459 77.0178 76.2619 77.5265 76.2619 78.1332C76.2619 78.7398 76.3459 79.2485 76.5139 79.6592C76.6819 80.0698 76.9246 80.3778 77.2419 80.5832C77.5592 80.7885 77.9326 80.8912 78.3619 80.8912Z" fill="#626884"/>
<path d="M85.3288 82.0112C84.5634 82.0112 83.9521 81.8338 83.4948 81.4792C83.0468 81.1245 82.8228 80.6298 82.8228 79.9952C82.8228 79.3605 83.0094 78.8612 83.3828 78.4972C83.7561 78.1332 84.3488 77.8765 85.1608 77.7272L87.7928 77.2372C87.7928 76.6118 87.6434 76.1452 87.3448 75.8372C87.0554 75.5292 86.6168 75.3752 86.0288 75.3752C85.5154 75.3752 85.1094 75.4918 84.8108 75.7252C84.5121 75.9492 84.3068 76.2758 84.1948 76.7052L82.9488 76.6072C83.0888 75.9072 83.4248 75.3425 83.9568 74.9132C84.4981 74.4745 85.1888 74.2552 86.0288 74.2552C86.9808 74.2552 87.7088 74.5258 88.2128 75.0672C88.7168 75.5992 88.9688 76.3365 88.9688 77.2792V80.3452C88.9688 80.5132 88.9968 80.6345 89.0528 80.7092C89.1181 80.7745 89.2208 80.8072 89.3608 80.8072H89.6548V81.8432C89.6174 81.8525 89.5568 81.8572 89.4728 81.8572C89.3888 81.8665 89.3001 81.8712 89.2068 81.8712C88.8708 81.8712 88.5954 81.8198 88.3808 81.7172C88.1754 81.6052 88.0261 81.4372 87.9328 81.2132C87.8394 80.9798 87.7928 80.6765 87.7928 80.3032L87.9328 80.3312C87.8674 80.6485 87.7088 80.9378 87.4568 81.1992C87.2048 81.4512 86.8921 81.6518 86.5188 81.8012C86.1454 81.9412 85.7488 82.0112 85.3288 82.0112ZM85.4408 80.9752C85.9354 80.9752 86.3554 80.8818 86.7008 80.6952C87.0554 80.4992 87.3261 80.2378 87.5128 79.9112C87.6994 79.5752 87.7928 79.2018 87.7928 78.7912V78.2592L85.3848 78.7072C84.8808 78.8005 84.5308 78.9452 84.3348 79.1412C84.1481 79.3278 84.0548 79.5752 84.0548 79.8832C84.0548 80.2285 84.1761 80.4992 84.4188 80.6952C84.6708 80.8818 85.0114 80.9752 85.4408 80.9752Z" fill="#626884"/>
<path d="M90.7883 81.8432V74.4232H91.9643V81.8432H90.7883ZM90.7603 73.2612V71.8892H91.9923V73.2612H90.7603Z" fill="#626884"/>
<path d="M96.7436 84.1112C96.2116 84.1112 95.7309 84.0225 95.3016 83.8452C94.8722 83.6678 94.5129 83.4158 94.2236 83.0892C93.9342 82.7625 93.7382 82.3845 93.6356 81.9552L94.8676 81.8712C94.9796 82.2165 95.1756 82.4872 95.4556 82.6832C95.7449 82.8885 96.1742 82.9912 96.7436 82.9912C97.4156 82.9912 97.9289 82.8558 98.2836 82.5852C98.6476 82.3145 98.8296 81.9085 98.8296 81.3672V80.1632C98.6522 80.5552 98.3676 80.8678 97.9756 81.1012C97.5836 81.3345 97.1449 81.4512 96.6596 81.4512C96.0342 81.4512 95.4742 81.2972 94.9796 80.9892C94.4942 80.6812 94.1116 80.2565 93.8316 79.7152C93.5609 79.1738 93.4256 78.5532 93.4256 77.8532C93.4256 77.1438 93.5609 76.5232 93.8316 75.9912C94.1022 75.4498 94.4756 75.0252 94.9516 74.7172C95.4369 74.4092 95.9876 74.2552 96.6036 74.2552C97.1262 74.2552 97.5929 74.3765 98.0036 74.6192C98.4236 74.8618 98.7176 75.1885 98.8856 75.5992V74.4232H100.006V81.3392C100.006 81.9178 99.8749 82.4125 99.6136 82.8232C99.3522 83.2432 98.9789 83.5605 98.4936 83.7752C98.0082 83.9992 97.4249 84.1112 96.7436 84.1112ZM96.7156 80.3312C97.3502 80.3312 97.8589 80.1118 98.2416 79.6732C98.6242 79.2252 98.8202 78.6185 98.8296 77.8532C98.8389 77.3398 98.7549 76.9012 98.5776 76.5372C98.4096 76.1638 98.1622 75.8792 97.8356 75.6832C97.5182 75.4778 97.1449 75.3752 96.7156 75.3752C96.0622 75.3752 95.5536 75.5992 95.1896 76.0472C94.8349 76.4858 94.6576 77.0878 94.6576 77.8532C94.6576 78.6185 94.8396 79.2252 95.2036 79.6732C95.5769 80.1118 96.0809 80.3312 96.7156 80.3312Z" fill="#626884"/>
<path d="M102.102 81.8432V74.4232H103.18L103.222 76.3132L103.082 76.1872C103.175 75.7485 103.339 75.3892 103.572 75.1092C103.805 74.8198 104.085 74.6052 104.412 74.4652C104.748 74.3252 105.107 74.2552 105.49 74.2552C106.059 74.2552 106.526 74.3812 106.89 74.6332C107.263 74.8852 107.539 75.2258 107.716 75.6552C107.903 76.0752 107.996 76.5465 107.996 77.0692V81.8432H106.82V77.4052C106.82 76.9478 106.764 76.5652 106.652 76.2572C106.549 75.9398 106.381 75.7018 106.148 75.5432C105.915 75.3752 105.611 75.2912 105.238 75.2912C104.669 75.2912 104.197 75.4732 103.824 75.8372C103.46 76.1918 103.278 76.7145 103.278 77.4052V81.8432H102.102Z" fill="#626884"/>
<path d="M116.173 81.8432C115.501 81.8432 115.002 81.6892 114.675 81.3812C114.358 81.0732 114.199 80.5925 114.199 79.9392V72.6872H115.375V79.9112C115.375 80.2472 115.45 80.4805 115.599 80.6112C115.748 80.7418 115.977 80.8072 116.285 80.8072H117.349V81.8432H116.173ZM113.107 75.4592V74.4232H117.349V75.4592H113.107Z" fill="#626884"/>
<path d="M121.479 82.0112C120.797 82.0112 120.2 81.8525 119.687 81.5352C119.173 81.2178 118.777 80.7698 118.497 80.1912C118.217 79.6032 118.077 78.9172 118.077 78.1332C118.077 77.3398 118.217 76.6538 118.497 76.0752C118.777 75.4965 119.173 75.0485 119.687 74.7312C120.2 74.4138 120.797 74.2552 121.479 74.2552C122.16 74.2552 122.753 74.4138 123.257 74.7312C123.77 75.0485 124.167 75.4965 124.447 76.0752C124.727 76.6538 124.867 77.3398 124.867 78.1332C124.867 78.9172 124.727 79.6032 124.447 80.1912C124.167 80.7698 123.77 81.2178 123.257 81.5352C122.753 81.8525 122.16 82.0112 121.479 82.0112ZM121.479 80.8912C122.16 80.8912 122.687 80.6485 123.061 80.1632C123.443 79.6685 123.635 78.9918 123.635 78.1332C123.635 77.2745 123.443 76.6025 123.061 76.1172C122.687 75.6225 122.16 75.3752 121.479 75.3752C120.797 75.3752 120.265 75.6225 119.883 76.1172C119.5 76.6025 119.309 77.2745 119.309 78.1332C119.309 78.9918 119.5 79.6685 119.883 80.1632C120.265 80.6485 120.797 80.8912 121.479 80.8912Z" fill="#626884"/>
<path d="M129.227 82.0112C128.546 82.0112 127.949 81.8525 127.435 81.5352C126.922 81.2178 126.525 80.7698 126.245 80.1912C125.965 79.6032 125.825 78.9172 125.825 78.1332C125.825 77.3398 125.965 76.6538 126.245 76.0752C126.525 75.4965 126.922 75.0485 127.435 74.7312C127.949 74.4138 128.546 74.2552 129.227 74.2552C129.909 74.2552 130.501 74.4138 131.005 74.7312C131.519 75.0485 131.915 75.4965 132.195 76.0752C132.475 76.6538 132.615 77.3398 132.615 78.1332C132.615 78.9172 132.475 79.6032 132.195 80.1912C131.915 80.7698 131.519 81.2178 131.005 81.5352C130.501 81.8525 129.909 82.0112 129.227 82.0112ZM129.227 80.8912C129.909 80.8912 130.436 80.6485 130.809 80.1632C131.192 79.6685 131.383 78.9918 131.383 78.1332C131.383 77.2745 131.192 76.6025 130.809 76.1172C130.436 75.6225 129.909 75.3752 129.227 75.3752C128.546 75.3752 128.014 75.6225 127.631 76.1172C127.249 76.6025 127.057 77.2745 127.057 78.1332C127.057 78.9918 127.249 79.6685 127.631 80.1632C128.014 80.6485 128.546 80.8912 129.227 80.8912Z" fill="#626884"/>
<path d="M135.602 81.8432C135.173 81.8432 134.823 81.7312 134.552 81.5072C134.282 81.2832 134.146 80.9285 134.146 80.4432V71.9032H135.322V80.3452C135.322 80.4945 135.36 80.6112 135.434 80.6952C135.518 80.7698 135.635 80.8072 135.784 80.8072H136.428V81.8432H135.602Z" fill="#626884"/>
<path d="M137.508 81.8432V80.2612H139.09V81.8432H137.508Z" fill="#626884"/>
<rect x="16" y="112" width="368" height="32" rx="5" fill="#065AC7"/>
<path d="M153.643 132.172C152.878 132.172 152.21 132.028 151.641 131.738C151.072 131.449 150.619 131.052 150.283 130.548C149.956 130.035 149.765 129.442 149.709 128.77L150.969 128.686C151.034 129.181 151.179 129.601 151.403 129.946C151.627 130.292 151.926 130.553 152.299 130.73C152.682 130.908 153.139 130.996 153.671 130.996C154.138 130.996 154.534 130.936 154.861 130.814C155.188 130.693 155.435 130.516 155.603 130.282C155.78 130.049 155.869 129.764 155.869 129.428C155.869 129.12 155.794 128.85 155.645 128.616C155.505 128.374 155.23 128.154 154.819 127.958C154.418 127.753 153.82 127.552 153.027 127.356C152.262 127.16 151.65 126.946 151.193 126.712C150.745 126.479 150.418 126.194 150.213 125.858C150.017 125.522 149.919 125.107 149.919 124.612C149.919 124.052 150.05 123.562 150.311 123.142C150.582 122.713 150.964 122.382 151.459 122.148C151.954 121.906 152.542 121.784 153.223 121.784C153.951 121.784 154.576 121.924 155.099 122.204C155.622 122.475 156.037 122.848 156.345 123.324C156.653 123.8 156.844 124.342 156.919 124.948L155.659 125.032C155.603 124.631 155.472 124.276 155.267 123.968C155.071 123.651 154.8 123.404 154.455 123.226C154.11 123.049 153.69 122.96 153.195 122.96C152.579 122.96 152.089 123.11 151.725 123.408C151.361 123.698 151.179 124.08 151.179 124.556C151.179 124.864 151.249 125.121 151.389 125.326C151.538 125.522 151.8 125.7 152.173 125.858C152.546 126.008 153.083 126.171 153.783 126.348C154.614 126.554 155.272 126.801 155.757 127.09C156.252 127.37 156.602 127.697 156.807 128.07C157.022 128.444 157.129 128.868 157.129 129.344C157.129 129.923 156.98 130.427 156.681 130.856C156.382 131.276 155.972 131.603 155.449 131.836C154.926 132.06 154.324 132.172 153.643 132.172Z" fill="white"/>
<path d="M161.248 131.948C160.576 131.948 160.077 131.794 159.75 131.486C159.433 131.178 159.274 130.698 159.274 130.044V122.792H160.45V130.016C160.45 130.352 160.525 130.586 160.674 130.716C160.824 130.847 161.052 130.912 161.36 130.912H162.424V131.948H161.248ZM158.182 125.564V124.528H162.424V125.564H158.182Z" fill="white"/>
<path d="M165.74 132.116C164.975 132.116 164.363 131.939 163.906 131.584C163.458 131.23 163.234 130.735 163.234 130.1C163.234 129.466 163.421 128.966 163.794 128.602C164.167 128.238 164.76 127.982 165.572 127.832L168.204 127.342C168.204 126.717 168.055 126.25 167.756 125.942C167.467 125.634 167.028 125.48 166.44 125.48C165.927 125.48 165.521 125.597 165.222 125.83C164.923 126.054 164.718 126.381 164.606 126.81L163.36 126.712C163.5 126.012 163.836 125.448 164.368 125.018C164.909 124.58 165.6 124.36 166.44 124.36C167.392 124.36 168.12 124.631 168.624 125.172C169.128 125.704 169.38 126.442 169.38 127.384V130.45C169.38 130.618 169.408 130.74 169.464 130.814C169.529 130.88 169.632 130.912 169.772 130.912H170.066V131.948C170.029 131.958 169.968 131.962 169.884 131.962C169.8 131.972 169.711 131.976 169.618 131.976C169.282 131.976 169.007 131.925 168.792 131.822C168.587 131.71 168.437 131.542 168.344 131.318C168.251 131.085 168.204 130.782 168.204 130.408L168.344 130.436C168.279 130.754 168.12 131.043 167.868 131.304C167.616 131.556 167.303 131.757 166.93 131.906C166.557 132.046 166.16 132.116 165.74 132.116ZM165.852 131.08C166.347 131.08 166.767 130.987 167.112 130.8C167.467 130.604 167.737 130.343 167.924 130.016C168.111 129.68 168.204 129.307 168.204 128.896V128.364L165.796 128.812C165.292 128.906 164.942 129.05 164.746 129.246C164.559 129.433 164.466 129.68 164.466 129.988C164.466 130.334 164.587 130.604 164.83 130.8C165.082 130.987 165.423 131.08 165.852 131.08Z" fill="white"/>
<path d="M171.254 131.948V124.528H172.29L172.346 126.404L172.234 126.362C172.328 125.728 172.528 125.266 172.836 124.976C173.154 124.678 173.574 124.528 174.096 124.528H174.824V125.648H174.11C173.737 125.648 173.424 125.718 173.172 125.858C172.93 125.989 172.743 126.19 172.612 126.46C172.491 126.722 172.43 127.058 172.43 127.468V131.948H171.254Z" fill="white"/>
<path d="M178.438 131.948C177.766 131.948 177.266 131.794 176.94 131.486C176.622 131.178 176.464 130.698 176.464 130.044V122.792H177.64V130.016C177.64 130.352 177.714 130.586 177.864 130.716C178.013 130.847 178.242 130.912 178.55 130.912H179.614V131.948H178.438ZM175.372 125.564V124.528H179.614V125.564H175.372Z" fill="white"/>
<path d="M184.592 131.948V122.008H185.796V131.948H184.592Z" fill="white"/>
<path d="M188.194 131.948V124.528H189.272L189.314 126.418L189.174 126.292C189.268 125.854 189.431 125.494 189.664 125.214C189.898 124.925 190.178 124.71 190.504 124.57C190.84 124.43 191.2 124.36 191.582 124.36C192.152 124.36 192.618 124.486 192.982 124.738C193.356 124.99 193.631 125.331 193.808 125.76C193.995 126.18 194.088 126.652 194.088 127.174V131.948H192.912V127.51C192.912 127.053 192.856 126.67 192.744 126.362C192.642 126.045 192.474 125.807 192.24 125.648C192.007 125.48 191.704 125.396 191.33 125.396C190.761 125.396 190.29 125.578 189.916 125.942C189.552 126.297 189.37 126.82 189.37 127.51V131.948H188.194Z" fill="white"/>
<path d="M198.344 131.948C197.672 131.948 197.173 131.794 196.846 131.486C196.529 131.178 196.37 130.698 196.37 130.044V122.792H197.546V130.016C197.546 130.352 197.621 130.586 197.77 130.716C197.92 130.847 198.148 130.912 198.456 130.912H199.52V131.948H198.344ZM195.278 125.564V124.528H199.52V125.564H195.278Z" fill="white"/>
<path d="M203.65 132.116C202.95 132.116 202.343 131.958 201.83 131.64C201.326 131.323 200.934 130.875 200.654 130.296C200.383 129.708 200.248 129.022 200.248 128.238C200.248 127.454 200.383 126.773 200.654 126.194C200.934 125.616 201.321 125.168 201.816 124.85C202.32 124.524 202.913 124.36 203.594 124.36C204.238 124.36 204.807 124.514 205.302 124.822C205.797 125.121 206.179 125.56 206.45 126.138C206.73 126.717 206.87 127.422 206.87 128.252V128.602H201.48C201.527 129.396 201.737 129.993 202.11 130.394C202.493 130.796 203.006 130.996 203.65 130.996C204.135 130.996 204.532 130.884 204.84 130.66C205.157 130.427 205.377 130.124 205.498 129.75L206.758 129.848C206.562 130.511 206.189 131.057 205.638 131.486C205.097 131.906 204.434 132.116 203.65 132.116ZM201.48 127.566H205.582C205.526 126.848 205.316 126.32 204.952 125.984C204.597 125.648 204.145 125.48 203.594 125.48C203.025 125.48 202.553 125.658 202.18 126.012C201.816 126.358 201.583 126.876 201.48 127.566Z" fill="white"/>
<path d="M211.137 134.216C210.605 134.216 210.124 134.128 209.695 133.95C209.266 133.773 208.906 133.521 208.617 133.194C208.328 132.868 208.132 132.49 208.029 132.06L209.261 131.976C209.373 132.322 209.569 132.592 209.849 132.788C210.138 132.994 210.568 133.096 211.137 133.096C211.809 133.096 212.322 132.961 212.677 132.69C213.041 132.42 213.223 132.014 213.223 131.472V130.268C213.046 130.66 212.761 130.973 212.369 131.206C211.977 131.44 211.538 131.556 211.053 131.556C210.428 131.556 209.868 131.402 209.373 131.094C208.888 130.786 208.505 130.362 208.225 129.82C207.954 129.279 207.819 128.658 207.819 127.958C207.819 127.249 207.954 126.628 208.225 126.096C208.496 125.555 208.869 125.13 209.345 124.822C209.83 124.514 210.381 124.36 210.997 124.36C211.52 124.36 211.986 124.482 212.397 124.724C212.817 124.967 213.111 125.294 213.279 125.704V124.528H214.399V131.444C214.399 132.023 214.268 132.518 214.007 132.928C213.746 133.348 213.372 133.666 212.887 133.88C212.402 134.104 211.818 134.216 211.137 134.216ZM211.109 130.436C211.744 130.436 212.252 130.217 212.635 129.778C213.018 129.33 213.214 128.724 213.223 127.958C213.232 127.445 213.148 127.006 212.971 126.642C212.803 126.269 212.556 125.984 212.229 125.788C211.912 125.583 211.538 125.48 211.109 125.48C210.456 125.48 209.947 125.704 209.583 126.152C209.228 126.591 209.051 127.193 209.051 127.958C209.051 128.724 209.233 129.33 209.597 129.778C209.97 130.217 210.474 130.436 211.109 130.436Z" fill="white"/>
<path d="M216.496 131.948V124.528H217.532L217.588 126.404L217.476 126.362C217.569 125.728 217.77 125.266 218.078 124.976C218.395 124.678 218.815 124.528 219.338 124.528H220.066V125.648H219.352C218.978 125.648 218.666 125.718 218.414 125.858C218.171 125.989 217.984 126.19 217.854 126.46C217.732 126.722 217.672 127.058 217.672 127.468V131.948H216.496Z" fill="white"/>
<path d="M223.102 132.116C222.336 132.116 221.725 131.939 221.268 131.584C220.82 131.23 220.596 130.735 220.596 130.1C220.596 129.466 220.782 128.966 221.156 128.602C221.529 128.238 222.122 127.982 222.934 127.832L225.566 127.342C225.566 126.717 225.416 126.25 225.118 125.942C224.828 125.634 224.39 125.48 223.802 125.48C223.288 125.48 222.882 125.597 222.584 125.83C222.285 126.054 222.08 126.381 221.968 126.81L220.722 126.712C220.862 126.012 221.198 125.448 221.73 125.018C222.271 124.58 222.962 124.36 223.802 124.36C224.754 124.36 225.482 124.631 225.986 125.172C226.49 125.704 226.742 126.442 226.742 127.384V130.45C226.742 130.618 226.77 130.74 226.826 130.814C226.891 130.88 226.994 130.912 227.134 130.912H227.428V131.948C227.39 131.958 227.33 131.962 227.246 131.962C227.162 131.972 227.073 131.976 226.98 131.976C226.644 131.976 226.368 131.925 226.154 131.822C225.948 131.71 225.799 131.542 225.706 131.318C225.612 131.085 225.566 130.782 225.566 130.408L225.706 130.436C225.64 130.754 225.482 131.043 225.23 131.304C224.978 131.556 224.665 131.757 224.292 131.906C223.918 132.046 223.522 132.116 223.102 132.116ZM223.214 131.08C223.708 131.08 224.128 130.987 224.474 130.8C224.828 130.604 225.099 130.343 225.286 130.016C225.472 129.68 225.566 129.307 225.566 128.896V128.364L223.158 128.812C222.654 128.906 222.304 129.05 222.108 129.246C221.921 129.433 221.828 129.68 221.828 129.988C221.828 130.334 221.949 130.604 222.192 130.8C222.444 130.987 222.784 131.08 223.214 131.08Z" fill="white"/>
<path d="M230.963 131.948C230.291 131.948 229.791 131.794 229.465 131.486C229.147 131.178 228.989 130.698 228.989 130.044V122.792H230.165V130.016C230.165 130.352 230.239 130.586 230.389 130.716C230.538 130.847 230.767 130.912 231.075 130.912H232.139V131.948H230.963ZM227.897 125.564V124.528H232.139V125.564H227.897Z" fill="white"/>
<path d="M233.507 131.948V124.528H234.683V131.948H233.507ZM233.479 123.366V121.994H234.711V123.366H233.479Z" fill="white"/>
<path d="M239.546 132.116C238.865 132.116 238.268 131.958 237.754 131.64C237.241 131.323 236.844 130.875 236.564 130.296C236.284 129.708 236.144 129.022 236.144 128.238C236.144 127.445 236.284 126.759 236.564 126.18C236.844 125.602 237.241 125.154 237.754 124.836C238.268 124.519 238.865 124.36 239.546 124.36C240.228 124.36 240.82 124.519 241.324 124.836C241.838 125.154 242.234 125.602 242.514 126.18C242.794 126.759 242.934 127.445 242.934 128.238C242.934 129.022 242.794 129.708 242.514 130.296C242.234 130.875 241.838 131.323 241.324 131.64C240.82 131.958 240.228 132.116 239.546 132.116ZM239.546 130.996C240.228 130.996 240.755 130.754 241.128 130.268C241.511 129.774 241.702 129.097 241.702 128.238C241.702 127.38 241.511 126.708 241.128 126.222C240.755 125.728 240.228 125.48 239.546 125.48C238.865 125.48 238.333 125.728 237.95 126.222C237.568 126.708 237.376 127.38 237.376 128.238C237.376 129.097 237.568 129.774 237.95 130.268C238.333 130.754 238.865 130.996 239.546 130.996Z" fill="white"/>
<path d="M244.397 131.948V124.528H245.475L245.517 126.418L245.377 126.292C245.47 125.854 245.634 125.494 245.867 125.214C246.1 124.925 246.38 124.71 246.707 124.57C247.043 124.43 247.402 124.36 247.785 124.36C248.354 124.36 248.821 124.486 249.185 124.738C249.558 124.99 249.834 125.331 250.011 125.76C250.198 126.18 250.291 126.652 250.291 127.174V131.948H249.115V127.51C249.115 127.053 249.059 126.67 248.947 126.362C248.844 126.045 248.676 125.807 248.443 125.648C248.21 125.48 247.906 125.396 247.533 125.396C246.964 125.396 246.492 125.578 246.119 125.942C245.755 126.297 245.573 126.82 245.573 127.51V131.948H244.397Z" fill="white"/>
</svg>
