<svg width="795" height="260" viewBox="0 0 795 260" fill="none" xmlns="http://www.w3.org/2000/svg">
<path d="M8 0.75H786.667C790.671 0.75 793.917 3.99593 793.917 8V252C793.917 256.004 790.671 259.25 786.667 259.25H7.99999C3.99593 259.25 0.75 256.004 0.75 252V8C0.75 3.99594 3.99594 0.75 8 0.75Z" fill="white"/>
<path d="M8 0.75H786.667C790.671 0.75 793.917 3.99593 793.917 8V252C793.917 256.004 790.671 259.25 786.667 259.25H7.99999C3.99593 259.25 0.75 256.004 0.75 252V8C0.75 3.99594 3.99594 0.75 8 0.75Z" stroke="#F0F2F7" stroke-width="1.5"/>
<path d="M20.72 32.8642C19.7813 32.8642 18.9707 32.6989 18.288 32.3682C17.6053 32.0375 17.0667 31.5789 16.672 30.9922C16.288 30.3949 16.064 29.7015 16 28.9122L18.112 28.7842C18.176 29.2749 18.3147 29.6909 18.528 30.0322C18.752 30.3735 19.0453 30.6349 19.408 30.8162C19.7813 30.9869 20.2293 31.0722 20.752 31.0722C21.2 31.0722 21.5787 31.0189 21.888 30.9122C22.208 30.7949 22.448 30.6295 22.608 30.4162C22.7787 30.1922 22.864 29.9202 22.864 29.6002C22.864 29.3122 22.7947 29.0562 22.656 28.8322C22.5173 28.5975 22.2507 28.3895 21.856 28.2082C21.4613 28.0162 20.8747 27.8295 20.096 27.6482C19.1573 27.4349 18.4053 27.1949 17.84 26.9282C17.2747 26.6509 16.864 26.3095 16.608 25.9042C16.352 25.4882 16.224 24.9709 16.224 24.3522C16.224 23.6909 16.3893 23.1095 16.72 22.6082C17.0507 22.0962 17.52 21.7015 18.128 21.4242C18.736 21.1362 19.4667 20.9922 20.32 20.9922C21.2267 20.9922 21.9947 21.1575 22.624 21.4882C23.2533 21.8082 23.7493 22.2509 24.112 22.8162C24.4747 23.3815 24.6987 24.0322 24.784 24.7682L22.688 24.8642C22.6347 24.4482 22.5067 24.0855 22.304 23.7762C22.112 23.4669 21.8453 23.2269 21.504 23.0562C21.1733 22.8749 20.768 22.7842 20.288 22.7842C19.6907 22.7842 19.216 22.9229 18.864 23.2002C18.5227 23.4669 18.352 23.8242 18.352 24.2722C18.352 24.5815 18.4213 24.8375 18.56 25.0402C18.7093 25.2429 18.9707 25.4189 19.344 25.5682C19.7173 25.7069 20.24 25.8562 20.912 26.0162C21.9253 26.2295 22.7307 26.5015 23.328 26.8322C23.9253 27.1629 24.352 27.5469 24.608 27.9842C24.864 28.4215 24.992 28.9229 24.992 29.4882C24.992 30.1815 24.816 30.7842 24.464 31.2962C24.112 31.7975 23.616 32.1869 22.976 32.4642C22.336 32.7309 21.584 32.8642 20.72 32.8642Z" fill="#00022A"/>
<path d="M26.7995 35.0082V24.0642H28.7675L28.8155 25.8882L28.6075 25.7922C28.8208 25.1629 29.1675 24.6882 29.6475 24.3682C30.1382 24.0375 30.7088 23.8722 31.3595 23.8722C32.1702 23.8722 32.8422 24.0749 33.3755 24.4802C33.9195 24.8855 34.3248 25.4242 34.5915 26.0962C34.8582 26.7682 34.9915 27.5149 34.9915 28.3362C34.9915 29.1575 34.8528 29.9042 34.5755 30.5762C34.3088 31.2482 33.9035 31.7869 33.3595 32.1922C32.8262 32.5975 32.1542 32.8002 31.3435 32.8002C30.9168 32.8002 30.5168 32.7255 30.1435 32.5762C29.7808 32.4269 29.4662 32.2135 29.1995 31.9362C28.9435 31.6589 28.7622 31.3335 28.6555 30.9602L28.8475 30.8002V35.0082H26.7995ZM30.8635 31.1362C31.4822 31.1362 31.9675 30.8909 32.3195 30.4002C32.6822 29.8989 32.8635 29.2109 32.8635 28.3362C32.8635 27.4615 32.6822 26.7789 32.3195 26.2882C31.9675 25.7869 31.4822 25.5362 30.8635 25.5362C30.4475 25.5362 30.0902 25.6429 29.7915 25.8562C29.4928 26.0589 29.2582 26.3682 29.0875 26.7842C28.9275 27.2002 28.8475 27.7175 28.8475 28.3362C28.8475 28.9549 28.9275 29.4722 29.0875 29.8882C29.2475 30.3042 29.4768 30.6189 29.7755 30.8322C30.0848 31.0349 30.4475 31.1362 30.8635 31.1362Z" fill="#00022A"/>
<path d="M39.0258 32.8002C38.1298 32.8002 37.4097 32.5975 36.8657 32.1922C36.3217 31.7762 36.0497 31.2002 36.0497 30.4642C36.0497 29.7282 36.2791 29.1522 36.7378 28.7362C37.1964 28.3202 37.8951 28.0215 38.8337 27.8402L41.6658 27.2802C41.6658 26.6722 41.5271 26.2189 41.2498 25.9202C40.9724 25.6109 40.5618 25.4562 40.0177 25.4562C39.5271 25.4562 39.1378 25.5735 38.8498 25.8082C38.5724 26.0322 38.3804 26.3575 38.2738 26.7842L36.1938 26.6882C36.3644 25.7815 36.7804 25.0882 37.4417 24.6082C38.1031 24.1175 38.9617 23.8722 40.0177 23.8722C41.2337 23.8722 42.1511 24.1815 42.7698 24.8002C43.3991 25.4082 43.7138 26.2829 43.7138 27.4242V30.5282C43.7138 30.7522 43.7511 30.9069 43.8258 30.9922C43.9111 31.0775 44.0338 31.1202 44.1938 31.1202H44.4657V32.6082C44.4017 32.6295 44.2951 32.6455 44.1458 32.6562C44.0071 32.6669 43.8631 32.6722 43.7138 32.6722C43.3618 32.6722 43.0471 32.6189 42.7698 32.5122C42.4924 32.3949 42.2791 32.1975 42.1298 31.9202C41.9804 31.6322 41.9058 31.2429 41.9058 30.7522L42.0818 30.8802C41.9964 31.2535 41.8098 31.5895 41.5218 31.8882C41.2444 32.1762 40.8924 32.4002 40.4658 32.5602C40.0391 32.7202 39.5591 32.8002 39.0258 32.8002ZM39.4417 31.3122C39.9004 31.3122 40.2951 31.2215 40.6258 31.0402C40.9564 30.8589 41.2124 30.6082 41.3938 30.2882C41.5751 29.9682 41.6658 29.5895 41.6658 29.1522V28.6722L39.4578 29.1202C38.9991 29.2162 38.6684 29.3602 38.4657 29.5522C38.2737 29.7335 38.1777 29.9735 38.1777 30.2722C38.1777 30.6029 38.2844 30.8589 38.4977 31.0402C38.7217 31.2215 39.0364 31.3122 39.4417 31.3122Z" fill="#00022A"/>
<path d="M45.6357 32.6082V24.0642H47.4918L47.5557 26.1602L47.3638 26.0642C47.4598 25.6055 47.6251 25.2162 47.8598 24.8962C48.1051 24.5655 48.3984 24.3149 48.7397 24.1442C49.0918 23.9629 49.4758 23.8722 49.8918 23.8722C50.6171 23.8722 51.2037 24.0802 51.6517 24.4962C52.0997 24.9015 52.3824 25.4615 52.4998 26.1762H52.2278C52.3238 25.6749 52.4891 25.2589 52.7238 24.9282C52.9584 24.5869 53.2518 24.3255 53.6038 24.1442C53.9664 23.9629 54.3718 23.8722 54.8198 23.8722C55.4064 23.8722 55.9131 24.0002 56.3398 24.2562C56.7664 24.5015 57.0918 24.8642 57.3158 25.3442C57.5504 25.8242 57.6678 26.4162 57.6678 27.1202V32.6082H55.6198V27.6482C55.6198 26.9442 55.4971 26.4162 55.2518 26.0642C55.0171 25.7122 54.6544 25.5362 54.1637 25.5362C53.8331 25.5362 53.5504 25.6215 53.3158 25.7922C53.0811 25.9629 52.8998 26.2135 52.7718 26.5442C52.6544 26.8642 52.5957 27.2535 52.5957 27.7122V32.6082H50.6917V27.7122C50.6917 27.0082 50.5851 26.4695 50.3717 26.0962C50.1584 25.7229 49.7904 25.5362 49.2677 25.5362C48.9371 25.5362 48.6544 25.6215 48.4198 25.7922C48.1958 25.9629 48.0144 26.2135 47.8758 26.5442C47.7478 26.8642 47.6838 27.2535 47.6838 27.7122V32.6082H45.6357Z" fill="#00022A"/>
<path d="M65.8746 32.6082L62.8346 21.2482H65.0266L67.1066 29.7282L69.2026 21.2482H71.1386L73.2346 29.7282L75.2986 21.2482H77.5066L74.4666 32.6082H72.1626L70.1786 24.8322L68.1946 32.6082H65.8746Z" fill="#00022A"/>
<path d="M80.667 32.8002C79.771 32.8002 79.051 32.5975 78.507 32.1922C77.963 31.7762 77.691 31.2002 77.691 30.4642C77.691 29.7282 77.9203 29.1522 78.379 28.7362C78.8377 28.3202 79.5363 28.0215 80.475 27.8402L83.307 27.2802C83.307 26.6722 83.1683 26.2189 82.891 25.9202C82.6137 25.6109 82.203 25.4562 81.659 25.4562C81.1683 25.4562 80.779 25.5735 80.491 25.8082C80.2137 26.0322 80.0217 26.3575 79.915 26.7842L77.835 26.6882C78.0057 25.7815 78.4217 25.0882 79.083 24.6082C79.7443 24.1175 80.603 23.8722 81.659 23.8722C82.875 23.8722 83.7923 24.1815 84.411 24.8002C85.0403 25.4082 85.355 26.2829 85.355 27.4242V30.5282C85.355 30.7522 85.3923 30.9069 85.467 30.9922C85.5523 31.0775 85.675 31.1202 85.835 31.1202H86.107V32.6082C86.043 32.6295 85.9363 32.6455 85.787 32.6562C85.6483 32.6669 85.5043 32.6722 85.355 32.6722C85.003 32.6722 84.6883 32.6189 84.411 32.5122C84.1337 32.3949 83.9203 32.1975 83.771 31.9202C83.6217 31.6322 83.547 31.2429 83.547 30.7522L83.723 30.8802C83.6377 31.2535 83.451 31.5895 83.163 31.8882C82.8857 32.1762 82.5337 32.4002 82.107 32.5602C81.6803 32.7202 81.2003 32.8002 80.667 32.8002ZM81.083 31.3122C81.5417 31.3122 81.9363 31.2215 82.267 31.0402C82.5977 30.8589 82.8537 30.6082 83.035 30.2882C83.2163 29.9682 83.307 29.5895 83.307 29.1522V28.6722L81.099 29.1202C80.6403 29.2162 80.3097 29.3602 80.107 29.5522C79.915 29.7335 79.819 29.9735 79.819 30.2722C79.819 30.6029 79.9257 30.8589 80.139 31.0402C80.363 31.2215 80.6777 31.3122 81.083 31.3122Z" fill="#00022A"/>
<path d="M90.2635 32.6082C89.4102 32.6082 88.7808 32.4109 88.3755 32.0162C87.9808 31.6215 87.7835 31.0029 87.7835 30.1602V22.0642H89.8315V29.9682C89.8315 30.3629 89.9168 30.6402 90.0875 30.8002C90.2582 30.9495 90.5248 31.0242 90.8875 31.0242H92.0875V32.6082H90.2635ZM86.4395 25.6482V24.0642H92.0875V25.6482H86.4395Z" fill="#00022A"/>
<path d="M97.0009 32.8002C96.1475 32.8002 95.4062 32.6189 94.7769 32.2562C94.1475 31.8829 93.6569 31.3602 93.3049 30.6882C92.9635 30.0162 92.7929 29.2322 92.7929 28.3362C92.7929 27.4402 92.9635 26.6615 93.3049 26.0002C93.6569 25.3282 94.1475 24.8055 94.7769 24.4322C95.4062 24.0589 96.1475 23.8722 97.0009 23.8722C97.7262 23.8722 98.3715 24.0002 98.9369 24.2562C99.5022 24.5122 99.9609 24.8802 100.313 25.3602C100.676 25.8295 100.9 26.4055 100.985 27.0882L98.8729 27.2002C98.7875 26.6562 98.5742 26.2455 98.2329 25.9682C97.9022 25.6802 97.4915 25.5362 97.0009 25.5362C96.3395 25.5362 95.8275 25.7869 95.4649 26.2882C95.1022 26.7789 94.9209 27.4615 94.9209 28.3362C94.9209 29.2215 95.1022 29.9095 95.4649 30.4002C95.8275 30.8909 96.3395 31.1362 97.0009 31.1362C97.5022 31.1362 97.9182 30.9922 98.2489 30.7042C98.5902 30.4162 98.7982 29.9682 98.8729 29.3602L100.985 29.4562C100.9 30.1389 100.681 30.7309 100.329 31.2322C99.9769 31.7335 99.5182 32.1229 98.9529 32.4002C98.3875 32.6669 97.7369 32.8002 97.0009 32.8002Z" fill="#00022A"/>
<path d="M102.254 32.6082V21.2482H104.302V26.0162H104.046C104.131 25.5255 104.302 25.1255 104.558 24.8162C104.814 24.4962 105.129 24.2615 105.502 24.1122C105.875 23.9522 106.286 23.8722 106.734 23.8722C107.363 23.8722 107.891 24.0109 108.318 24.2882C108.755 24.5549 109.081 24.9335 109.294 25.4242C109.518 25.9149 109.63 26.4802 109.63 27.1202V32.6082H107.582V27.6162C107.582 26.9229 107.465 26.4055 107.23 26.0642C106.995 25.7122 106.627 25.5362 106.126 25.5362C105.571 25.5362 105.129 25.7175 104.798 26.0802C104.467 26.4429 104.302 26.9709 104.302 27.6642V32.6082H102.254Z" fill="#00022A"/>
<path d="M119.772 32.8642C118.834 32.8642 118.023 32.6989 117.34 32.3682C116.658 32.0375 116.119 31.5789 115.724 30.9922C115.34 30.3949 115.116 29.7015 115.052 28.9122L117.164 28.7842C117.228 29.2749 117.367 29.6909 117.58 30.0322C117.804 30.3735 118.098 30.6349 118.46 30.8162C118.834 30.9869 119.282 31.0722 119.804 31.0722C120.252 31.0722 120.631 31.0189 120.94 30.9122C121.26 30.7949 121.5 30.6295 121.66 30.4162C121.831 30.1922 121.916 29.9202 121.916 29.6002C121.916 29.3122 121.847 29.0562 121.708 28.8322C121.57 28.5975 121.303 28.3895 120.909 28.2082C120.514 28.0162 119.927 27.8295 119.148 27.6482C118.21 27.4349 117.458 27.1949 116.893 26.9282C116.327 26.6509 115.916 26.3095 115.66 25.9042C115.404 25.4882 115.276 24.9709 115.276 24.3522C115.276 23.6909 115.442 23.1095 115.772 22.6082C116.103 22.0962 116.572 21.7015 117.18 21.4242C117.788 21.1362 118.519 20.9922 119.372 20.9922C120.279 20.9922 121.047 21.1575 121.676 21.4882C122.306 21.8082 122.802 22.2509 123.164 22.8162C123.527 23.3815 123.751 24.0322 123.837 24.7682L121.741 24.8642C121.687 24.4482 121.559 24.0855 121.356 23.7762C121.164 23.4669 120.898 23.2269 120.556 23.0562C120.226 22.8749 119.821 22.7842 119.34 22.7842C118.743 22.7842 118.268 22.9229 117.916 23.2002C117.575 23.4669 117.404 23.8242 117.404 24.2722C117.404 24.5815 117.474 24.8375 117.612 25.0402C117.762 25.2429 118.023 25.4189 118.396 25.5682C118.77 25.7069 119.293 25.8562 119.965 26.0162C120.978 26.2295 121.783 26.5015 122.381 26.8322C122.978 27.1629 123.404 27.5469 123.66 27.9842C123.916 28.4215 124.044 28.9229 124.044 29.4882C124.044 30.1815 123.868 30.7842 123.516 31.2962C123.164 31.7975 122.668 32.1869 122.028 32.4642C121.388 32.7309 120.636 32.8642 119.772 32.8642Z" fill="#00022A"/>
<path d="M128.917 32.6082C128.063 32.6082 127.434 32.4109 127.029 32.0162C126.634 31.6215 126.437 31.0029 126.437 30.1602V22.0642H128.485V29.9682C128.485 30.3629 128.57 30.6402 128.741 30.8002C128.911 30.9495 129.178 31.0242 129.541 31.0242H130.741V32.6082H128.917ZM125.093 25.6482V24.0642H130.741V25.6482H125.093Z" fill="#00022A"/>
<path d="M134.516 32.8002C133.62 32.8002 132.9 32.5975 132.356 32.1922C131.812 31.7762 131.54 31.2002 131.54 30.4642C131.54 29.7282 131.769 29.1522 132.228 28.7362C132.686 28.3202 133.385 28.0215 134.324 27.8402L137.156 27.2802C137.156 26.6722 137.017 26.2189 136.74 25.9202C136.462 25.6109 136.052 25.4562 135.508 25.4562C135.017 25.4562 134.628 25.5735 134.34 25.8082C134.062 26.0322 133.87 26.3575 133.764 26.7842L131.684 26.6882C131.854 25.7815 132.27 25.0882 132.932 24.6082C133.593 24.1175 134.452 23.8722 135.508 23.8722C136.724 23.8722 137.641 24.1815 138.26 24.8002C138.889 25.4082 139.204 26.2829 139.204 27.4242V30.5282C139.204 30.7522 139.241 30.9069 139.316 30.9922C139.401 31.0775 139.524 31.1202 139.684 31.1202H139.956V32.6082C139.892 32.6295 139.785 32.6455 139.636 32.6562C139.497 32.6669 139.353 32.6722 139.204 32.6722C138.852 32.6722 138.537 32.6189 138.26 32.5122C137.982 32.3949 137.769 32.1975 137.62 31.9202C137.47 31.6322 137.396 31.2429 137.396 30.7522L137.572 30.8802C137.486 31.2535 137.3 31.5895 137.012 31.8882C136.734 32.1762 136.382 32.4002 135.956 32.5602C135.529 32.7202 135.049 32.8002 134.516 32.8002ZM134.932 31.3122C135.39 31.3122 135.785 31.2215 136.116 31.0402C136.446 30.8589 136.702 30.6082 136.884 30.2882C137.065 29.9682 137.156 29.5895 137.156 29.1522V28.6722L134.948 29.1202C134.489 29.2162 134.158 29.3602 133.956 29.5522C133.764 29.7335 133.668 29.9735 133.668 30.2722C133.668 30.6029 133.774 30.8589 133.988 31.0402C134.212 31.2215 134.526 31.3122 134.932 31.3122Z" fill="#00022A"/>
<path d="M144.112 32.6082C143.259 32.6082 142.63 32.4109 142.224 32.0162C141.83 31.6215 141.632 31.0029 141.632 30.1602V22.0642H143.68V29.9682C143.68 30.3629 143.766 30.6402 143.936 30.8002C144.107 30.9495 144.374 31.0242 144.736 31.0242H145.936V32.6082H144.112ZM140.288 25.6482V24.0642H145.936V25.6482H140.288Z" fill="#00022A"/>
<path d="M150.126 32.8002C149.262 32.8002 148.574 32.5175 148.062 31.9522C147.56 31.3762 147.31 30.5815 147.31 29.5682V24.0642H149.358V29.0562C149.358 29.7709 149.475 30.2989 149.71 30.6402C149.955 30.9709 150.323 31.1362 150.814 31.1362C151.368 31.1362 151.795 30.9549 152.094 30.5922C152.403 30.2189 152.558 29.6802 152.558 28.9762V24.0642H154.605V32.6082H152.734L152.686 30.2562L152.942 30.3362C152.814 31.1469 152.51 31.7602 152.03 32.1762C151.55 32.5922 150.915 32.8002 150.126 32.8002Z" fill="#00022A"/>
<path d="M160.012 32.8002C159.169 32.8002 158.46 32.6775 157.884 32.4322C157.319 32.1869 156.881 31.8455 156.572 31.4082C156.263 30.9709 156.087 30.4749 156.044 29.9202L158.14 29.8242C158.215 30.2722 158.401 30.6189 158.7 30.8642C158.999 31.1095 159.441 31.2322 160.028 31.2322C160.508 31.2322 160.881 31.1575 161.148 31.0082C161.425 30.8482 161.564 30.6029 161.564 30.2722C161.564 30.0802 161.516 29.9202 161.42 29.7922C161.324 29.6642 161.143 29.5522 160.876 29.4562C160.609 29.3602 160.215 29.2642 159.692 29.1682C158.817 29.0189 158.129 28.8375 157.628 28.6242C157.127 28.4002 156.769 28.1229 156.556 27.7922C156.353 27.4615 156.252 27.0509 156.252 26.5602C156.252 25.7602 156.556 25.1149 157.164 24.6242C157.783 24.1229 158.684 23.8722 159.868 23.8722C160.636 23.8722 161.281 24.0002 161.804 24.2562C162.327 24.5015 162.732 24.8429 163.02 25.2802C163.319 25.7069 163.505 26.1975 163.58 26.7522L161.516 26.8482C161.463 26.5602 161.367 26.3095 161.228 26.0962C161.089 25.8829 160.903 25.7229 160.668 25.6162C160.433 25.4989 160.156 25.4402 159.836 25.4402C159.356 25.4402 158.993 25.5362 158.748 25.7282C158.503 25.9202 158.38 26.1762 158.38 26.4962C158.38 26.7202 158.433 26.9069 158.54 27.0562C158.657 27.2055 158.844 27.3282 159.1 27.4242C159.356 27.5095 159.697 27.5895 160.124 27.6642C161.02 27.8029 161.724 27.9842 162.236 28.2082C162.759 28.4215 163.127 28.6989 163.34 29.0402C163.564 29.3709 163.676 29.7709 163.676 30.2402C163.676 30.7842 163.521 31.2482 163.212 31.6322C162.913 32.0162 162.487 32.3095 161.932 32.5122C161.388 32.7042 160.748 32.8002 160.012 32.8002Z" fill="#00022A"/>
<rect x="682.666" y="16" width="96" height="24" rx="12" stroke="#E6E6EF"/>
<rect x="694.666" y="24" width="8" height="8" rx="4" fill="#065AC7" fill-opacity="0.5"/>
<path d="M710.647 31.6481C709.991 31.6481 709.419 31.5241 708.931 31.2761C708.443 31.0281 708.055 30.6881 707.767 30.2561C707.487 29.8161 707.323 29.3081 707.275 28.7321L708.355 28.6601C708.411 29.0841 708.535 29.4441 708.727 29.7401C708.919 30.0361 709.175 30.2601 709.495 30.4121C709.823 30.5641 710.215 30.6401 710.671 30.6401C711.071 30.6401 711.411 30.5881 711.691 30.4841C711.971 30.3801 712.183 30.2281 712.327 30.0281C712.479 29.8281 712.555 29.5841 712.555 29.2961C712.555 29.0321 712.491 28.8001 712.363 28.6001C712.243 28.3921 712.007 28.2041 711.655 28.0361C711.311 27.8601 710.799 27.6881 710.119 27.5201C709.463 27.3521 708.939 27.1681 708.547 26.9681C708.163 26.7681 707.883 26.5241 707.707 26.2361C707.539 25.9481 707.455 25.5921 707.455 25.1681C707.455 24.6881 707.567 24.2681 707.791 23.9081C708.023 23.5401 708.351 23.2561 708.775 23.0561C709.199 22.8481 709.703 22.7441 710.287 22.7441C710.911 22.7441 711.447 22.8641 711.895 23.1041C712.343 23.3361 712.699 23.6561 712.963 24.0641C713.227 24.4721 713.391 24.9361 713.455 25.4561L712.375 25.5281C712.327 25.1841 712.215 24.8801 712.039 24.6161C711.871 24.3441 711.639 24.1321 711.343 23.9801C711.047 23.8281 710.687 23.7521 710.263 23.7521C709.735 23.7521 709.315 23.8801 709.003 24.1361C708.691 24.3841 708.535 24.7121 708.535 25.1201C708.535 25.3841 708.595 25.6041 708.715 25.7801C708.843 25.9481 709.067 26.1001 709.387 26.2361C709.707 26.3641 710.167 26.5041 710.767 26.6561C711.479 26.8321 712.043 27.0441 712.459 27.2921C712.883 27.5321 713.183 27.8121 713.359 28.1321C713.543 28.4521 713.635 28.8161 713.635 29.2241C713.635 29.7201 713.507 30.1521 713.251 30.5201C712.995 30.8801 712.643 31.1601 712.195 31.3601C711.747 31.5521 711.231 31.6481 710.647 31.6481Z" fill="#626884"/>
<path d="M715.191 33.2561V25.0961H716.127L716.151 26.4641L716.007 26.3921C716.167 25.9201 716.431 25.5641 716.799 25.3241C717.175 25.0761 717.607 24.9521 718.095 24.9521C718.727 24.9521 719.243 25.1081 719.643 25.4201C720.051 25.7321 720.351 26.1401 720.543 26.6441C720.743 27.1481 720.843 27.6921 720.843 28.2761C720.843 28.8601 720.743 29.4041 720.543 29.9081C720.351 30.4121 720.051 30.8201 719.643 31.1321C719.243 31.4441 718.727 31.6001 718.095 31.6001C717.767 31.6001 717.459 31.5441 717.171 31.4321C716.891 31.3201 716.651 31.1641 716.451 30.9641C716.259 30.7641 716.127 30.5281 716.055 30.2561L716.199 30.0881V33.2561H715.191ZM717.999 30.6401C718.551 30.6401 718.987 30.4321 719.307 30.0161C719.627 29.6001 719.787 29.0201 719.787 28.2761C719.787 27.5321 719.627 26.9521 719.307 26.5361C718.987 26.1201 718.551 25.9121 717.999 25.9121C717.631 25.9121 717.311 26.0001 717.039 26.1761C716.775 26.3521 716.567 26.6161 716.415 26.9681C716.271 27.3201 716.199 27.7561 716.199 28.2761C716.199 28.7961 716.271 29.2321 716.415 29.5841C716.559 29.9361 716.767 30.2001 717.039 30.3761C717.311 30.5521 717.631 30.6401 717.999 30.6401Z" fill="#626884"/>
<path d="M724.031 31.6001C723.375 31.6001 722.851 31.4481 722.459 31.1441C722.075 30.8401 721.883 30.4161 721.883 29.8721C721.883 29.3281 722.043 28.9001 722.363 28.5881C722.683 28.2761 723.191 28.0561 723.887 27.9281L726.143 27.5081C726.143 26.9721 726.015 26.5721 725.759 26.3081C725.511 26.0441 725.135 25.9121 724.631 25.9121C724.191 25.9121 723.843 26.0121 723.587 26.2121C723.331 26.4041 723.155 26.6841 723.059 27.0521L721.991 26.9681C722.111 26.3681 722.399 25.8841 722.855 25.5161C723.319 25.1401 723.911 24.9521 724.631 24.9521C725.447 24.9521 726.071 25.1841 726.503 25.6481C726.935 26.1041 727.151 26.7361 727.151 27.5441V30.1721C727.151 30.3161 727.175 30.4201 727.223 30.4841C727.279 30.5401 727.367 30.5681 727.487 30.5681H727.739V31.4561C727.707 31.4641 727.655 31.4681 727.583 31.4681C727.511 31.4761 727.435 31.4801 727.355 31.4801C727.067 31.4801 726.831 31.4361 726.647 31.3481C726.471 31.2521 726.343 31.1081 726.263 30.9161C726.183 30.7161 726.143 30.4561 726.143 30.1361L726.263 30.1601C726.207 30.4321 726.071 30.6801 725.855 30.9041C725.639 31.1201 725.371 31.2921 725.051 31.4201C724.731 31.5401 724.391 31.6001 724.031 31.6001ZM724.127 30.7121C724.551 30.7121 724.911 30.6321 725.207 30.4721C725.511 30.3041 725.743 30.0801 725.903 29.8001C726.063 29.5121 726.143 29.1921 726.143 28.8401V28.3841L724.079 28.7681C723.647 28.8481 723.347 28.9721 723.179 29.1401C723.019 29.3001 722.939 29.5121 722.939 29.7761C722.939 30.0721 723.043 30.3041 723.251 30.4721C723.467 30.6321 723.759 30.7121 724.127 30.7121Z" fill="#626884"/>
<path d="M728.817 31.4561V25.0961H729.741L729.777 26.7041L729.633 26.6561C729.705 26.3041 729.829 26.0041 730.005 25.7561C730.189 25.5001 730.413 25.3041 730.677 25.1681C730.941 25.0241 731.233 24.9521 731.553 24.9521C732.105 24.9521 732.553 25.1041 732.897 25.4081C733.249 25.7121 733.469 26.1361 733.557 26.6801L733.365 26.6681C733.429 26.3001 733.545 25.9921 733.713 25.7441C733.889 25.4881 734.113 25.2921 734.385 25.1561C734.657 25.0201 734.969 24.9521 735.321 24.9521C735.777 24.9521 736.161 25.0481 736.473 25.2401C736.785 25.4241 737.021 25.6961 737.181 26.0561C737.341 26.4161 737.421 26.8521 737.421 27.3641V31.4561H736.413V27.5801C736.413 27.0041 736.301 26.5721 736.077 26.2841C735.853 25.9881 735.521 25.8401 735.081 25.8401C734.785 25.8401 734.525 25.9121 734.301 26.0561C734.085 26.2001 733.917 26.4081 733.797 26.6801C733.677 26.9441 733.617 27.2681 733.617 27.6521V31.4561H732.609V27.6521C732.609 27.0841 732.509 26.6401 732.309 26.3201C732.109 26.0001 731.773 25.8401 731.301 25.8401C731.005 25.8401 730.745 25.9121 730.521 26.0561C730.305 26.2001 730.133 26.4081 730.005 26.6801C729.885 26.9521 729.825 27.2761 729.825 27.6521V31.4561H728.817Z" fill="#626884"/>
<path d="M742.365 31.4561V22.9361H745.593C746.193 22.9361 746.709 23.0401 747.141 23.2481C747.573 23.4561 747.905 23.7561 748.137 24.1481C748.377 24.5321 748.497 24.9881 748.497 25.5161C748.497 25.9001 748.405 26.2441 748.221 26.5481C748.045 26.8441 747.817 27.0801 747.537 27.2561C747.257 27.4321 746.965 27.5281 746.661 27.5441L746.589 27.4361C747.109 27.4361 747.517 27.5561 747.813 27.7961C748.117 28.0361 748.293 28.4201 748.341 28.9481L748.581 31.4561H747.537L747.321 29.0561C747.289 28.7041 747.161 28.4441 746.937 28.2761C746.721 28.1081 746.365 28.0241 745.869 28.0241H743.397V31.4561H742.365ZM743.397 27.0161H745.725C746.245 27.0161 746.657 26.8841 746.961 26.6201C747.265 26.3561 747.417 25.9801 747.417 25.4921C747.417 24.9961 747.261 24.6161 746.949 24.3521C746.637 24.0801 746.185 23.9441 745.593 23.9441H743.397V27.0161Z" fill="#626884"/>
<path d="M751.892 31.6001C751.236 31.6001 750.712 31.4481 750.32 31.1441C749.936 30.8401 749.744 30.4161 749.744 29.8721C749.744 29.3281 749.904 28.9001 750.224 28.5881C750.544 28.2761 751.052 28.0561 751.748 27.9281L754.004 27.5081C754.004 26.9721 753.876 26.5721 753.62 26.3081C753.372 26.0441 752.996 25.9121 752.492 25.9121C752.052 25.9121 751.704 26.0121 751.448 26.2121C751.192 26.4041 751.016 26.6841 750.92 27.0521L749.852 26.9681C749.972 26.3681 750.26 25.8841 750.716 25.5161C751.18 25.1401 751.772 24.9521 752.492 24.9521C753.308 24.9521 753.932 25.1841 754.364 25.6481C754.796 26.1041 755.012 26.7361 755.012 27.5441V30.1721C755.012 30.3161 755.036 30.4201 755.084 30.4841C755.14 30.5401 755.228 30.5681 755.348 30.5681H755.6V31.4561C755.568 31.4641 755.516 31.4681 755.444 31.4681C755.372 31.4761 755.296 31.4801 755.216 31.4801C754.928 31.4801 754.692 31.4361 754.508 31.3481C754.332 31.2521 754.204 31.1081 754.124 30.9161C754.044 30.7161 754.004 30.4561 754.004 30.1361L754.124 30.1601C754.068 30.4321 753.932 30.6801 753.716 30.9041C753.5 31.1201 753.232 31.2921 752.912 31.4201C752.592 31.5401 752.252 31.6001 751.892 31.6001ZM751.988 30.7121C752.412 30.7121 752.772 30.6321 753.068 30.4721C753.372 30.3041 753.604 30.0801 753.764 29.8001C753.924 29.5121 754.004 29.1921 754.004 28.8401V28.3841L751.94 28.7681C751.508 28.8481 751.208 28.9721 751.04 29.1401C750.88 29.3001 750.8 29.5121 750.8 29.7761C750.8 30.0721 750.904 30.3041 751.112 30.4721C751.328 30.6321 751.62 30.7121 751.988 30.7121Z" fill="#626884"/>
<path d="M758.69 31.4561C758.114 31.4561 757.686 31.3241 757.406 31.0601C757.134 30.7961 756.998 30.3841 756.998 29.8241V23.6081H758.006V29.8001C758.006 30.0881 758.07 30.2881 758.198 30.4001C758.326 30.5121 758.522 30.5681 758.786 30.5681H759.698V31.4561H758.69ZM756.062 25.9841V25.0961H759.698V25.9841H756.062Z" fill="#626884"/>
<path d="M763.298 31.6001C762.698 31.6001 762.178 31.4641 761.738 31.1921C761.306 30.9201 760.97 30.5361 760.73 30.0401C760.498 29.5361 760.382 28.9481 760.382 28.2761C760.382 27.6041 760.498 27.0201 760.73 26.5241C760.97 26.0281 761.302 25.6441 761.726 25.3721C762.158 25.0921 762.666 24.9521 763.25 24.9521C763.802 24.9521 764.29 25.0841 764.714 25.3481C765.138 25.6041 765.466 25.9801 765.698 26.4761C765.938 26.9721 766.058 27.5761 766.058 28.2881V28.5881H761.438C761.478 29.2681 761.658 29.7801 761.978 30.1241C762.306 30.4681 762.746 30.6401 763.298 30.6401C763.714 30.6401 764.054 30.5441 764.318 30.3521C764.59 30.1521 764.778 29.8921 764.882 29.5721L765.962 29.6561C765.794 30.2241 765.474 30.6921 765.002 31.0601C764.538 31.4201 763.97 31.6001 763.298 31.6001ZM761.438 27.7001H764.954C764.906 27.0841 764.726 26.6321 764.414 26.3441C764.11 26.0561 763.722 25.9121 763.25 25.9121C762.762 25.9121 762.358 26.0641 762.038 26.3681C761.726 26.6641 761.526 27.1081 761.438 27.7001Z" fill="#626884"/>
<path d="M19.776 76.2599V69.9479H18V69.0599H18.72C19.032 69.0599 19.28 69.0199 19.464 68.9399C19.656 68.8599 19.792 68.7239 19.872 68.5319C19.952 68.3399 19.992 68.0759 19.992 67.7399H20.808V76.2599H19.776Z" fill="#626884"/>
<path d="M25.9203 76.4519C25.2323 76.4519 24.6363 76.2719 24.1323 75.9119C23.6283 75.5519 23.2363 75.0399 22.9563 74.3759C22.6843 73.7119 22.5483 72.9239 22.5483 72.0119C22.5483 71.0999 22.6843 70.3119 22.9563 69.6479C23.2363 68.9759 23.6283 68.4599 24.1323 68.0999C24.6363 67.7319 25.2323 67.5479 25.9203 67.5479C26.6163 67.5479 27.2163 67.7319 27.7203 68.0999C28.2243 68.4599 28.6123 68.9719 28.8843 69.6359C29.1643 70.2999 29.3043 71.0919 29.3043 72.0119C29.3043 72.9239 29.1643 73.7119 28.8843 74.3759C28.6123 75.0399 28.2243 75.5519 27.7203 75.9119C27.2163 76.2719 26.6163 76.4519 25.9203 76.4519ZM25.9203 75.4439C26.6563 75.4439 27.2243 75.1479 27.6243 74.5559C28.0243 73.9559 28.2243 73.1079 28.2243 72.0119C28.2243 71.2759 28.1323 70.6519 27.9483 70.1399C27.7723 69.6199 27.5123 69.2279 27.1683 68.9639C26.8323 68.6919 26.4163 68.5559 25.9203 68.5559C25.4323 68.5559 25.0163 68.6919 24.6723 68.9639C24.3363 69.2279 24.0763 69.6199 23.8923 70.1399C23.7163 70.6519 23.6283 71.2759 23.6283 72.0119C23.6283 73.1079 23.8283 73.9559 24.2283 74.5559C24.6283 75.1479 25.1923 75.4439 25.9203 75.4439Z" fill="#626884"/>
<path d="M33.8173 76.4519C33.1293 76.4519 32.5333 76.2719 32.0293 75.9119C31.5253 75.5519 31.1333 75.0399 30.8533 74.3759C30.5813 73.7119 30.4453 72.9239 30.4453 72.0119C30.4453 71.0999 30.5813 70.3119 30.8533 69.6479C31.1333 68.9759 31.5253 68.4599 32.0293 68.0999C32.5333 67.7319 33.1293 67.5479 33.8173 67.5479C34.5133 67.5479 35.1133 67.7319 35.6173 68.0999C36.1213 68.4599 36.5093 68.9719 36.7813 69.6359C37.0613 70.2999 37.2013 71.0919 37.2013 72.0119C37.2013 72.9239 37.0613 73.7119 36.7813 74.3759C36.5093 75.0399 36.1213 75.5519 35.6173 75.9119C35.1133 76.2719 34.5133 76.4519 33.8173 76.4519ZM33.8173 75.4439C34.5533 75.4439 35.1213 75.1479 35.5213 74.5559C35.9213 73.9559 36.1213 73.1079 36.1213 72.0119C36.1213 71.2759 36.0293 70.6519 35.8453 70.1399C35.6693 69.6199 35.4093 69.2279 35.0653 68.9639C34.7293 68.6919 34.3133 68.5559 33.8173 68.5559C33.3293 68.5559 32.9133 68.6919 32.5693 68.9639C32.2333 69.2279 31.9733 69.6199 31.7893 70.1399C31.6133 70.6519 31.5253 71.2759 31.5253 72.0119C31.5253 73.1079 31.7253 73.9559 32.1253 74.5559C32.5253 75.1479 33.0893 75.4439 33.8173 75.4439Z" fill="#626884"/>
<path d="M26.3237 113.914C26.3237 113.034 26.4437 112.158 26.6837 111.286C26.9237 110.406 27.2677 109.554 27.7157 108.73C28.1717 107.906 28.7157 107.13 29.3477 106.402H24.4277V105.394H30.4757V106.33C29.7637 107.146 29.1757 107.954 28.7117 108.754C28.2557 109.546 27.9197 110.366 27.7037 111.214C27.4877 112.054 27.3797 112.954 27.3797 113.914H26.3237Z" fill="#626884"/>
<path d="M34.1647 114.106C33.5647 114.106 33.0447 114.006 32.6047 113.806C32.1727 113.606 31.8287 113.326 31.5727 112.966C31.3247 112.606 31.1807 112.19 31.1407 111.718L32.2207 111.646C32.2847 112.126 32.4887 112.49 32.8327 112.738C33.1847 112.978 33.6287 113.098 34.1647 113.098C34.7647 113.098 35.2407 112.93 35.5927 112.594C35.9447 112.25 36.1207 111.778 36.1207 111.178C36.1207 110.778 36.0407 110.434 35.8807 110.146C35.7287 109.85 35.5047 109.622 35.2087 109.462C34.9127 109.302 34.5567 109.222 34.1407 109.222C33.7487 109.222 33.3927 109.306 33.0727 109.474C32.7527 109.642 32.5247 109.878 32.3887 110.182H31.2847L31.8487 105.394H36.6247V106.402H32.7967L32.4127 109.546L32.2207 109.354C32.3487 109.106 32.5167 108.902 32.7247 108.742C32.9407 108.574 33.1847 108.45 33.4567 108.37C33.7367 108.282 34.0287 108.238 34.3327 108.238C34.9007 108.238 35.4007 108.366 35.8327 108.622C36.2647 108.87 36.6007 109.218 36.8407 109.666C37.0807 110.106 37.2007 110.61 37.2007 111.178C37.2007 111.746 37.0727 112.254 36.8167 112.702C36.5607 113.142 36.2047 113.486 35.7487 113.734C35.2927 113.982 34.7647 114.106 34.1647 114.106Z" fill="#626884"/>
<path d="M26.1373 151.952C25.5373 151.952 25.0173 151.852 24.5773 151.652C24.1453 151.452 23.8013 151.172 23.5453 150.812C23.2973 150.452 23.1533 150.036 23.1133 149.564L24.1933 149.492C24.2573 149.972 24.4613 150.336 24.8053 150.584C25.1573 150.824 25.6013 150.944 26.1373 150.944C26.7373 150.944 27.2133 150.776 27.5653 150.44C27.9173 150.096 28.0933 149.624 28.0933 149.024C28.0933 148.624 28.0133 148.28 27.8533 147.992C27.7013 147.696 27.4773 147.468 27.1813 147.308C26.8853 147.148 26.5293 147.068 26.1133 147.068C25.7213 147.068 25.3653 147.152 25.0453 147.32C24.7253 147.488 24.4973 147.724 24.3613 148.028H23.2573L23.8213 143.24H28.5973V144.248H24.7693L24.3853 147.392L24.1933 147.2C24.3213 146.952 24.4893 146.748 24.6973 146.588C24.9133 146.42 25.1573 146.296 25.4293 146.216C25.7093 146.128 26.0013 146.084 26.3053 146.084C26.8733 146.084 27.3733 146.212 27.8053 146.468C28.2373 146.716 28.5733 147.064 28.8133 147.512C29.0533 147.952 29.1733 148.456 29.1733 149.024C29.1733 149.592 29.0453 150.1 28.7893 150.548C28.5333 150.988 28.1773 151.332 27.7213 151.58C27.2653 151.828 26.7373 151.952 26.1373 151.952Z" fill="#626884"/>
<path d="M33.817 151.952C33.129 151.952 32.533 151.772 32.029 151.412C31.525 151.052 31.133 150.54 30.853 149.876C30.581 149.212 30.445 148.424 30.445 147.512C30.445 146.6 30.581 145.812 30.853 145.148C31.133 144.476 31.525 143.96 32.029 143.6C32.533 143.232 33.129 143.048 33.817 143.048C34.513 143.048 35.113 143.232 35.617 143.6C36.121 143.96 36.509 144.472 36.781 145.136C37.061 145.8 37.201 146.592 37.201 147.512C37.201 148.424 37.061 149.212 36.781 149.876C36.509 150.54 36.121 151.052 35.617 151.412C35.113 151.772 34.513 151.952 33.817 151.952ZM33.817 150.944C34.553 150.944 35.121 150.648 35.521 150.056C35.921 149.456 36.121 148.608 36.121 147.512C36.121 146.776 36.029 146.152 35.845 145.64C35.669 145.12 35.409 144.728 35.065 144.464C34.729 144.192 34.313 144.056 33.817 144.056C33.329 144.056 32.913 144.192 32.569 144.464C32.233 144.728 31.973 145.12 31.789 145.64C31.613 146.152 31.525 146.776 31.525 147.512C31.525 148.608 31.725 149.456 32.125 150.056C32.525 150.648 33.089 150.944 33.817 150.944Z" fill="#626884"/>
<path d="M23.7715 189.51C23.7715 188.91 23.8635 188.37 24.0475 187.89C24.2395 187.402 24.5715 186.938 25.0435 186.498C25.5235 186.058 26.1875 185.614 27.0355 185.166C27.4275 184.958 27.7435 184.766 27.9835 184.59C28.2235 184.414 28.3995 184.226 28.5115 184.026C28.6235 183.826 28.6795 183.582 28.6795 183.294C28.6795 182.998 28.6155 182.742 28.4875 182.526C28.3595 182.302 28.1675 182.126 27.9115 181.998C27.6635 181.87 27.3515 181.806 26.9755 181.806C26.3755 181.806 25.8995 181.962 25.5475 182.274C25.2035 182.586 24.9875 183.03 24.8995 183.606L23.8195 183.534C23.9155 182.702 24.2355 182.038 24.7795 181.542C25.3235 181.046 26.0555 180.798 26.9755 180.798C27.5595 180.798 28.0595 180.902 28.4755 181.11C28.8915 181.318 29.2075 181.61 29.4235 181.986C29.6475 182.354 29.7595 182.782 29.7595 183.27C29.7595 183.702 29.6875 184.078 29.5435 184.398C29.3995 184.71 29.1555 185.002 28.8115 185.274C28.4755 185.546 28.0115 185.838 27.4195 186.15C26.6515 186.558 26.0675 186.97 25.6675 187.386C25.2755 187.802 25.0675 188.174 25.0435 188.502H29.7595V189.51H23.7715Z" fill="#626884"/>
<path d="M34.1652 189.702C33.5652 189.702 33.0452 189.602 32.6052 189.402C32.1732 189.202 31.8292 188.922 31.5732 188.562C31.3252 188.202 31.1812 187.786 31.1412 187.314L32.2212 187.242C32.2852 187.722 32.4892 188.086 32.8332 188.334C33.1852 188.574 33.6292 188.694 34.1652 188.694C34.7652 188.694 35.2412 188.526 35.5932 188.19C35.9452 187.846 36.1212 187.374 36.1212 186.774C36.1212 186.374 36.0412 186.03 35.8812 185.742C35.7292 185.446 35.5052 185.218 35.2092 185.058C34.9132 184.898 34.5572 184.818 34.1412 184.818C33.7492 184.818 33.3932 184.902 33.0732 185.07C32.7532 185.238 32.5252 185.474 32.3892 185.778H31.2852L31.8492 180.99H36.6252V181.998H32.7972L32.4132 185.142L32.2212 184.95C32.3492 184.702 32.5172 184.498 32.7252 184.338C32.9412 184.17 33.1852 184.046 33.4572 183.966C33.7372 183.878 34.0292 183.834 34.3332 183.834C34.9012 183.834 35.4012 183.962 35.8332 184.218C36.2652 184.466 36.6012 184.814 36.8412 185.262C37.0812 185.702 37.2012 186.206 37.2012 186.774C37.2012 187.342 37.0732 187.85 36.8172 188.298C36.5612 188.738 36.2052 189.082 35.7492 189.33C35.2932 189.578 34.7652 189.702 34.1652 189.702Z" fill="#626884"/>
<path d="M27.5947 227.452C26.9067 227.452 26.3107 227.272 25.8067 226.912C25.3027 226.552 24.9107 226.04 24.6307 225.376C24.3587 224.712 24.2227 223.924 24.2227 223.012C24.2227 222.1 24.3587 221.312 24.6307 220.648C24.9107 219.976 25.3027 219.46 25.8067 219.1C26.3107 218.732 26.9067 218.548 27.5947 218.548C28.2907 218.548 28.8907 218.732 29.3947 219.1C29.8987 219.46 30.2867 219.972 30.5587 220.636C30.8387 221.3 30.9787 222.092 30.9787 223.012C30.9787 223.924 30.8387 224.712 30.5587 225.376C30.2867 226.04 29.8987 226.552 29.3947 226.912C28.8907 227.272 28.2907 227.452 27.5947 227.452ZM27.5947 226.444C28.3307 226.444 28.8987 226.148 29.2987 225.556C29.6987 224.956 29.8987 224.108 29.8987 223.012C29.8987 222.276 29.8067 221.652 29.6227 221.14C29.4467 220.62 29.1867 220.228 28.8427 219.964C28.5067 219.692 28.0907 219.556 27.5947 219.556C27.1067 219.556 26.6907 219.692 26.3467 219.964C26.0107 220.228 25.7507 220.62 25.5667 221.14C25.3907 221.652 25.3027 222.276 25.3027 223.012C25.3027 224.108 25.5027 224.956 25.9027 225.556C26.3027 226.148 26.8667 226.444 27.5947 226.444Z" fill="#626884"/>
<rect x="48.2508" y="64.159" width="0.318065" height="164.19" stroke="#E6E6EF" stroke-width="0.318065" stroke-miterlimit="3.86874" stroke-linejoin="round" stroke-dasharray="4 4"/>
<rect x="777.529" y="69.0006" width="0.375307" height="159.277" stroke="#E6E6EF" stroke-width="0.375307" stroke-dasharray="4 4"/>
<path d="M49.776 240.356V234.044H48V233.156H48.72C49.032 233.156 49.28 233.116 49.464 233.036C49.656 232.956 49.792 232.82 49.872 232.628C49.952 232.436 49.992 232.172 49.992 231.836H50.808V240.356H49.776Z" fill="#626884"/>
<path d="M52.4763 237.332V236.384H56.4483V237.332H52.4763Z" fill="#626884"/>
<path d="M58.9373 240.356V234.044H57.1613V233.156H57.8813C58.1933 233.156 58.4412 233.116 58.6252 233.036C58.8172 232.956 58.9532 232.82 59.0332 232.628C59.1132 232.436 59.1533 232.172 59.1533 231.836H59.9693V240.356H58.9373Z" fill="#626884"/>
<path d="M61.8295 240.356C61.8295 239.756 61.9215 239.216 62.1055 238.736C62.2975 238.248 62.6295 237.784 63.1015 237.344C63.5815 236.904 64.2455 236.46 65.0935 236.012C65.4855 235.804 65.8015 235.612 66.0415 235.436C66.2815 235.26 66.4575 235.072 66.5695 234.872C66.6815 234.672 66.7375 234.428 66.7375 234.14C66.7375 233.844 66.6735 233.588 66.5455 233.372C66.4175 233.148 66.2255 232.972 65.9695 232.844C65.7215 232.716 65.4095 232.652 65.0335 232.652C64.4335 232.652 63.9575 232.808 63.6055 233.12C63.2615 233.432 63.0455 233.876 62.9575 234.452L61.8775 234.38C61.9735 233.548 62.2935 232.884 62.8375 232.388C63.3815 231.892 64.1135 231.644 65.0335 231.644C65.6175 231.644 66.1175 231.748 66.5335 231.956C66.9495 232.164 67.2655 232.456 67.4815 232.832C67.7055 233.2 67.8175 233.628 67.8175 234.116C67.8175 234.548 67.7455 234.924 67.6015 235.244C67.4575 235.556 67.2135 235.848 66.8695 236.12C66.5335 236.392 66.0695 236.684 65.4775 236.996C64.7095 237.404 64.1255 237.816 63.7255 238.232C63.3335 238.648 63.1255 239.02 63.1015 239.348H67.8175V240.356H61.8295Z" fill="#626884"/>
<path d="M68.6439 237.332V236.384H72.6159V237.332H68.6439Z" fill="#626884"/>
<path d="M73.8033 240.356C73.8033 239.756 73.8953 239.216 74.0793 238.736C74.2713 238.248 74.6033 237.784 75.0753 237.344C75.5553 236.904 76.2193 236.46 77.0673 236.012C77.4593 235.804 77.7753 235.612 78.0153 235.436C78.2553 235.26 78.4313 235.072 78.5433 234.872C78.6553 234.672 78.7113 234.428 78.7113 234.14C78.7113 233.844 78.6473 233.588 78.5193 233.372C78.3913 233.148 78.1993 232.972 77.9433 232.844C77.6953 232.716 77.3833 232.652 77.0073 232.652C76.4073 232.652 75.9313 232.808 75.5793 233.12C75.2353 233.432 75.0193 233.876 74.9313 234.452L73.8513 234.38C73.9473 233.548 74.2673 232.884 74.8113 232.388C75.3553 231.892 76.0873 231.644 77.0073 231.644C77.5913 231.644 78.0913 231.748 78.5073 231.956C78.9233 232.164 79.2393 232.456 79.4553 232.832C79.6793 233.2 79.7913 233.628 79.7913 234.116C79.7913 234.548 79.7193 234.924 79.5753 235.244C79.4313 235.556 79.1873 235.848 78.8433 236.12C78.5073 236.392 78.0433 236.684 77.4513 236.996C76.6833 237.404 76.0993 237.816 75.6993 238.232C75.3073 238.648 75.0993 239.02 75.0753 239.348H79.7913V240.356H73.8033Z" fill="#626884"/>
<path d="M84.8403 240.356V238.508H80.5083V237.572L84.7683 231.836H85.8723V237.5H86.9283V238.508H85.8723V240.356H84.8403ZM81.7563 237.5H84.8403V233.42L81.7563 237.5Z" fill="#626884"/>
<path d="M159.576 240.452C158.632 240.452 157.904 240.232 157.392 239.792C156.88 239.344 156.604 238.768 156.564 238.064L157.632 237.992C157.68 238.512 157.88 238.884 158.232 239.108C158.592 239.332 159.04 239.444 159.576 239.444C159.944 239.444 160.284 239.396 160.596 239.3C160.908 239.196 161.16 239.032 161.352 238.808C161.544 238.576 161.64 238.268 161.64 237.884C161.64 237.316 161.452 236.9 161.076 236.636C160.7 236.372 160.204 236.24 159.588 236.24H158.916V235.232H159.588C160.092 235.232 160.508 235.132 160.836 234.932C161.172 234.732 161.34 234.388 161.34 233.9C161.34 233.46 161.196 233.128 160.908 232.904C160.628 232.672 160.204 232.556 159.636 232.556C159.076 232.556 158.652 232.664 158.364 232.88C158.084 233.096 157.916 233.392 157.86 233.768L156.78 233.696C156.86 233.056 157.144 232.54 157.632 232.148C158.12 231.748 158.788 231.548 159.636 231.548C160.212 231.548 160.708 231.644 161.124 231.836C161.54 232.02 161.86 232.284 162.084 232.628C162.308 232.972 162.42 233.38 162.42 233.852C162.42 234.38 162.252 234.808 161.916 235.136C161.588 235.456 161.1 235.676 160.452 235.796V235.58C161.148 235.66 161.7 235.908 162.108 236.324C162.516 236.74 162.72 237.26 162.72 237.884C162.72 238.428 162.584 238.892 162.312 239.276C162.048 239.66 161.68 239.952 161.208 240.152C160.736 240.352 160.192 240.452 159.576 240.452Z" fill="#626884"/>
<path d="M167.236 240.452C166.548 240.452 165.952 240.272 165.448 239.912C164.944 239.552 164.552 239.04 164.272 238.376C164 237.712 163.864 236.924 163.864 236.012C163.864 235.1 164 234.312 164.272 233.648C164.552 232.976 164.944 232.46 165.448 232.1C165.952 231.732 166.548 231.548 167.236 231.548C167.932 231.548 168.532 231.732 169.036 232.1C169.54 232.46 169.928 232.972 170.2 233.636C170.48 234.3 170.62 235.092 170.62 236.012C170.62 236.924 170.48 237.712 170.2 238.376C169.928 239.04 169.54 239.552 169.036 239.912C168.532 240.272 167.932 240.452 167.236 240.452ZM167.236 239.444C167.972 239.444 168.54 239.148 168.94 238.556C169.34 237.956 169.54 237.108 169.54 236.012C169.54 235.276 169.448 234.652 169.264 234.14C169.088 233.62 168.828 233.228 168.484 232.964C168.148 232.692 167.732 232.556 167.236 232.556C166.748 232.556 166.332 232.692 165.988 232.964C165.652 233.228 165.392 233.62 165.208 234.14C165.032 234.652 164.944 235.276 164.944 236.012C164.944 237.108 165.144 237.956 165.544 238.556C165.944 239.148 166.508 239.444 167.236 239.444Z" fill="#626884"/>
<path d="M171.689 237.236V236.288H175.661V237.236H171.689Z" fill="#626884"/>
<path d="M178.15 240.26V233.948H176.374V233.06H177.094C177.406 233.06 177.654 233.02 177.838 232.94C178.03 232.86 178.166 232.724 178.246 232.532C178.326 232.34 178.366 232.076 178.366 231.74H179.182V240.26H178.15Z" fill="#626884"/>
<path d="M182.215 240.26V233.948H180.439V233.06H181.159C181.471 233.06 181.719 233.02 181.903 232.94C182.095 232.86 182.231 232.724 182.311 232.532C182.391 232.34 182.431 232.076 182.431 231.74H183.247V240.26H182.215Z" fill="#626884"/>
<path d="M184.915 237.236V236.288H188.887V237.236H184.915Z" fill="#626884"/>
<path d="M190.074 240.26C190.074 239.66 190.166 239.12 190.35 238.64C190.542 238.152 190.874 237.688 191.346 237.248C191.826 236.808 192.49 236.364 193.338 235.916C193.73 235.708 194.046 235.516 194.286 235.34C194.526 235.164 194.702 234.976 194.814 234.776C194.926 234.576 194.982 234.332 194.982 234.044C194.982 233.748 194.918 233.492 194.79 233.276C194.662 233.052 194.47 232.876 194.214 232.748C193.966 232.62 193.654 232.556 193.278 232.556C192.678 232.556 192.202 232.712 191.85 233.024C191.506 233.336 191.29 233.78 191.202 234.356L190.122 234.284C190.218 233.452 190.538 232.788 191.082 232.292C191.626 231.796 192.358 231.548 193.278 231.548C193.862 231.548 194.362 231.652 194.778 231.86C195.194 232.068 195.51 232.36 195.726 232.736C195.95 233.104 196.062 233.532 196.062 234.02C196.062 234.452 195.99 234.828 195.846 235.148C195.702 235.46 195.458 235.752 195.114 236.024C194.778 236.296 194.314 236.588 193.722 236.9C192.954 237.308 192.37 237.72 191.97 238.136C191.578 238.552 191.37 238.924 191.346 239.252H196.062V240.26H190.074Z" fill="#626884"/>
<path d="M201.111 240.26V238.412H196.779V237.476L201.039 231.74H202.143V237.404H203.199V238.412H202.143V240.26H201.111ZM198.027 237.404H201.111V233.324L198.027 237.404Z" fill="#626884"/>
<path d="M272.838 240.26C272.838 239.66 272.93 239.12 273.114 238.64C273.306 238.152 273.638 237.688 274.11 237.248C274.59 236.808 275.254 236.364 276.102 235.916C276.494 235.708 276.81 235.516 277.05 235.34C277.29 235.164 277.466 234.976 277.578 234.776C277.69 234.576 277.746 234.332 277.746 234.044C277.746 233.748 277.682 233.492 277.554 233.276C277.426 233.052 277.234 232.876 276.978 232.748C276.73 232.62 276.418 232.556 276.042 232.556C275.442 232.556 274.966 232.712 274.614 233.024C274.27 233.336 274.054 233.78 273.966 234.356L272.886 234.284C272.982 233.452 273.302 232.788 273.846 232.292C274.39 231.796 275.122 231.548 276.042 231.548C276.626 231.548 277.126 231.652 277.542 231.86C277.958 232.068 278.274 232.36 278.49 232.736C278.714 233.104 278.826 233.532 278.826 234.02C278.826 234.452 278.754 234.828 278.61 235.148C278.466 235.46 278.222 235.752 277.878 236.024C277.542 236.296 277.078 236.588 276.486 236.9C275.718 237.308 275.134 237.72 274.734 238.136C274.342 238.552 274.134 238.924 274.11 239.252H278.826V240.26H272.838Z" fill="#626884"/>
<path d="M282.944 240.452C282.24 240.452 281.664 240.28 281.216 239.936C280.776 239.584 280.476 239.144 280.316 238.616L281.408 238.532C281.504 238.82 281.68 239.044 281.936 239.204C282.192 239.364 282.528 239.444 282.944 239.444C283.656 239.444 284.2 239.16 284.576 238.592C284.96 238.016 285.156 237.092 285.164 235.82L285.416 235.868C285.216 236.404 284.908 236.82 284.492 237.116C284.076 237.404 283.592 237.548 283.04 237.548C282.488 237.548 282 237.424 281.576 237.176C281.152 236.928 280.816 236.58 280.568 236.132C280.328 235.684 280.208 235.164 280.208 234.572C280.208 233.948 280.336 233.412 280.592 232.964C280.848 232.508 281.196 232.16 281.636 231.92C282.084 231.672 282.596 231.548 283.172 231.548C283.884 231.548 284.464 231.712 284.912 232.04C285.368 232.368 285.704 232.828 285.92 233.42C286.136 234.004 286.244 234.696 286.244 235.496C286.244 236.208 286.188 236.868 286.076 237.476C285.964 238.076 285.78 238.6 285.524 239.048C285.268 239.488 284.928 239.832 284.504 240.08C284.088 240.328 283.568 240.452 282.944 240.452ZM283.112 236.528C283.504 236.528 283.848 236.452 284.144 236.3C284.44 236.148 284.672 235.928 284.84 235.64C285.016 235.352 285.104 235.004 285.104 234.596C285.104 234.204 285.024 233.856 284.864 233.552C284.712 233.24 284.492 232.996 284.204 232.82C283.916 232.644 283.572 232.556 283.172 232.556C282.78 232.556 282.444 232.644 282.164 232.82C281.884 232.988 281.668 233.224 281.516 233.528C281.364 233.832 281.288 234.18 281.288 234.572C281.288 234.972 281.364 235.32 281.516 235.616C281.676 235.904 281.892 236.128 282.164 236.288C282.436 236.448 282.752 236.528 283.112 236.528Z" fill="#626884"/>
<path d="M287.444 237.236V236.288H291.416V237.236H287.444Z" fill="#626884"/>
<path d="M293.905 240.26V233.948H292.129V233.06H292.849C293.161 233.06 293.409 233.02 293.593 232.94C293.785 232.86 293.921 232.724 294.001 232.532C294.081 232.34 294.121 232.076 294.121 231.74H294.937V240.26H293.905Z" fill="#626884"/>
<path d="M297.97 240.26V233.948H296.194V233.06H296.914C297.226 233.06 297.474 233.02 297.658 232.94C297.85 232.86 297.986 232.724 298.066 232.532C298.146 232.34 298.186 232.076 298.186 231.74H299.002V240.26H297.97Z" fill="#626884"/>
<path d="M300.67 237.236V236.288H304.642V237.236H300.67Z" fill="#626884"/>
<path d="M305.829 240.26C305.829 239.66 305.921 239.12 306.105 238.64C306.297 238.152 306.629 237.688 307.101 237.248C307.581 236.808 308.245 236.364 309.093 235.916C309.485 235.708 309.801 235.516 310.041 235.34C310.281 235.164 310.457 234.976 310.569 234.776C310.681 234.576 310.737 234.332 310.737 234.044C310.737 233.748 310.673 233.492 310.545 233.276C310.417 233.052 310.225 232.876 309.969 232.748C309.721 232.62 309.409 232.556 309.033 232.556C308.433 232.556 307.957 232.712 307.605 233.024C307.261 233.336 307.045 233.78 306.957 234.356L305.877 234.284C305.973 233.452 306.293 232.788 306.837 232.292C307.381 231.796 308.113 231.548 309.033 231.548C309.617 231.548 310.117 231.652 310.533 231.86C310.949 232.068 311.265 232.36 311.481 232.736C311.705 233.104 311.817 233.532 311.817 234.02C311.817 234.452 311.745 234.828 311.601 235.148C311.457 235.46 311.213 235.752 310.869 236.024C310.533 236.296 310.069 236.588 309.477 236.9C308.709 237.308 308.125 237.72 307.725 238.136C307.333 238.552 307.125 238.924 307.101 239.252H311.817V240.26H305.829Z" fill="#626884"/>
<path d="M316.866 240.26V238.412H312.534V237.476L316.794 231.74H317.898V237.404H318.954V238.412H317.898V240.26H316.866ZM313.782 237.404H316.866V233.324L313.782 237.404Z" fill="#626884"/>
<path d="M388.59 240.26C388.59 239.66 388.682 239.12 388.866 238.64C389.058 238.152 389.39 237.688 389.862 237.248C390.342 236.808 391.006 236.364 391.854 235.916C392.246 235.708 392.562 235.516 392.802 235.34C393.042 235.164 393.218 234.976 393.33 234.776C393.442 234.576 393.498 234.332 393.498 234.044C393.498 233.748 393.434 233.492 393.306 233.276C393.178 233.052 392.986 232.876 392.73 232.748C392.482 232.62 392.17 232.556 391.794 232.556C391.194 232.556 390.718 232.712 390.366 233.024C390.022 233.336 389.806 233.78 389.718 234.356L388.638 234.284C388.734 233.452 389.054 232.788 389.598 232.292C390.142 231.796 390.874 231.548 391.794 231.548C392.378 231.548 392.878 231.652 393.294 231.86C393.71 232.068 394.026 232.36 394.242 232.736C394.466 233.104 394.578 233.532 394.578 234.02C394.578 234.452 394.506 234.828 394.362 235.148C394.218 235.46 393.974 235.752 393.63 236.024C393.294 236.296 392.83 236.588 392.238 236.9C391.47 237.308 390.886 237.72 390.486 238.136C390.094 238.552 389.886 238.924 389.862 239.252H394.578V240.26H388.59Z" fill="#626884"/>
<path d="M398.864 240.452C398.256 240.452 397.712 240.356 397.232 240.164C396.76 239.972 396.388 239.688 396.116 239.312C395.852 238.936 395.72 238.472 395.72 237.92C395.72 237.304 395.904 236.796 396.272 236.396C396.64 235.988 397.128 235.712 397.736 235.568L397.76 235.808C397.272 235.672 396.876 235.452 396.572 235.148C396.276 234.836 396.128 234.416 396.128 233.888C396.128 233.44 396.24 233.04 396.464 232.688C396.696 232.336 397.016 232.06 397.424 231.86C397.832 231.652 398.312 231.548 398.864 231.548C399.416 231.548 399.896 231.652 400.304 231.86C400.72 232.06 401.04 232.336 401.264 232.688C401.488 233.04 401.6 233.44 401.6 233.888C401.6 234.416 401.452 234.836 401.156 235.148C400.86 235.452 400.464 235.672 399.968 235.808L399.992 235.568C400.608 235.712 401.096 235.988 401.456 236.396C401.824 236.796 402.008 237.304 402.008 237.92C402.008 238.472 401.872 238.936 401.6 239.312C401.336 239.688 400.968 239.972 400.496 240.164C400.024 240.356 399.48 240.452 398.864 240.452ZM398.864 239.444C399.496 239.444 399.996 239.316 400.364 239.06C400.74 238.796 400.928 238.396 400.928 237.86C400.928 237.364 400.76 236.968 400.424 236.672C400.096 236.368 399.576 236.216 398.864 236.216C398.16 236.216 397.64 236.368 397.304 236.672C396.968 236.968 396.8 237.364 396.8 237.86C396.8 238.396 396.984 238.796 397.352 239.06C397.728 239.316 398.232 239.444 398.864 239.444ZM398.864 235.256C399.392 235.256 399.8 235.144 400.088 234.92C400.376 234.688 400.52 234.344 400.52 233.888C400.52 233.48 400.38 233.156 400.1 232.916C399.82 232.676 399.408 232.556 398.864 232.556C398.328 232.556 397.916 232.676 397.628 232.916C397.348 233.156 397.208 233.48 397.208 233.888C397.208 234.344 397.352 234.688 397.64 234.92C397.928 235.144 398.336 235.256 398.864 235.256Z" fill="#626884"/>
<path d="M402.95 237.236V236.288H406.922V237.236H402.95Z" fill="#626884"/>
<path d="M409.411 240.26V233.948H407.635V233.06H408.355C408.667 233.06 408.915 233.02 409.099 232.94C409.291 232.86 409.427 232.724 409.507 232.532C409.587 232.34 409.627 232.076 409.627 231.74H410.443V240.26H409.411Z" fill="#626884"/>
<path d="M413.476 240.26V233.948H411.7V233.06H412.42C412.732 233.06 412.98 233.02 413.164 232.94C413.356 232.86 413.492 232.724 413.572 232.532C413.652 232.34 413.692 232.076 413.692 231.74H414.508V240.26H413.476Z" fill="#626884"/>
<path d="M416.176 237.236V236.288H420.148V237.236H416.176Z" fill="#626884"/>
<path d="M421.335 240.26C421.335 239.66 421.427 239.12 421.611 238.64C421.803 238.152 422.135 237.688 422.607 237.248C423.087 236.808 423.751 236.364 424.599 235.916C424.991 235.708 425.307 235.516 425.547 235.34C425.787 235.164 425.963 234.976 426.075 234.776C426.187 234.576 426.243 234.332 426.243 234.044C426.243 233.748 426.179 233.492 426.051 233.276C425.923 233.052 425.731 232.876 425.475 232.748C425.227 232.62 424.915 232.556 424.539 232.556C423.939 232.556 423.463 232.712 423.111 233.024C422.767 233.336 422.551 233.78 422.463 234.356L421.383 234.284C421.479 233.452 421.799 232.788 422.343 232.292C422.887 231.796 423.619 231.548 424.539 231.548C425.123 231.548 425.623 231.652 426.039 231.86C426.455 232.068 426.771 232.36 426.987 232.736C427.211 233.104 427.323 233.532 427.323 234.02C427.323 234.452 427.251 234.828 427.107 235.148C426.963 235.46 426.719 235.752 426.375 236.024C426.039 236.296 425.575 236.588 424.983 236.9C424.215 237.308 423.631 237.72 423.231 238.136C422.839 238.552 422.631 238.924 422.607 239.252H427.323V240.26H421.335Z" fill="#626884"/>
<path d="M432.372 240.26V238.412H428.04V237.476L432.3 231.74H433.404V237.404H434.46V238.412H433.404V240.26H432.372ZM429.288 237.404H432.372V233.324L429.288 237.404Z" fill="#626884"/>
<path d="M504.098 240.356C504.098 239.756 504.19 239.216 504.374 238.736C504.566 238.248 504.898 237.784 505.37 237.344C505.85 236.904 506.514 236.46 507.362 236.012C507.754 235.804 508.07 235.612 508.31 235.436C508.55 235.26 508.726 235.072 508.838 234.872C508.95 234.672 509.006 234.428 509.006 234.14C509.006 233.844 508.942 233.588 508.814 233.372C508.686 233.148 508.494 232.972 508.238 232.844C507.99 232.716 507.678 232.652 507.302 232.652C506.702 232.652 506.226 232.808 505.874 233.12C505.53 233.432 505.314 233.876 505.226 234.452L504.146 234.38C504.242 233.548 504.562 232.884 505.106 232.388C505.65 231.892 506.382 231.644 507.302 231.644C507.886 231.644 508.386 231.748 508.802 231.956C509.218 232.164 509.534 232.456 509.75 232.832C509.974 233.2 510.086 233.628 510.086 234.116C510.086 234.548 510.014 234.924 509.87 235.244C509.726 235.556 509.482 235.848 509.138 236.12C508.802 236.392 508.338 236.684 507.746 236.996C506.978 237.404 506.394 237.816 505.994 238.232C505.602 238.648 505.394 239.02 505.37 239.348H510.086V240.356H504.098Z" fill="#626884"/>
<path d="M512.708 240.356C512.708 239.476 512.828 238.6 513.068 237.728C513.308 236.848 513.652 235.996 514.1 235.172C514.556 234.348 515.1 233.572 515.732 232.844H510.812V231.836H516.86V232.772C516.148 233.588 515.56 234.396 515.096 235.196C514.64 235.988 514.304 236.808 514.088 237.656C513.872 238.496 513.764 239.396 513.764 240.356H512.708Z" fill="#626884"/>
<path d="M516.852 237.332V236.384H520.824V237.332H516.852Z" fill="#626884"/>
<path d="M523.313 240.356V234.044H521.537V233.156H522.257C522.569 233.156 522.817 233.116 523.001 233.036C523.193 232.956 523.329 232.82 523.409 232.628C523.489 232.436 523.529 232.172 523.529 231.836H524.345V240.356H523.313Z" fill="#626884"/>
<path d="M527.378 240.356V234.044H525.602V233.156H526.322C526.634 233.156 526.882 233.116 527.066 233.036C527.258 232.956 527.394 232.82 527.474 232.628C527.554 232.436 527.594 232.172 527.594 231.836H528.41V240.356H527.378Z" fill="#626884"/>
<path d="M530.078 237.332V236.384H534.05V237.332H530.078Z" fill="#626884"/>
<path d="M535.238 240.356C535.238 239.756 535.33 239.216 535.514 238.736C535.706 238.248 536.038 237.784 536.51 237.344C536.99 236.904 537.654 236.46 538.502 236.012C538.894 235.804 539.21 235.612 539.45 235.436C539.69 235.26 539.866 235.072 539.978 234.872C540.09 234.672 540.146 234.428 540.146 234.14C540.146 233.844 540.082 233.588 539.954 233.372C539.826 233.148 539.634 232.972 539.378 232.844C539.13 232.716 538.818 232.652 538.442 232.652C537.842 232.652 537.366 232.808 537.014 233.12C536.67 233.432 536.454 233.876 536.366 234.452L535.286 234.38C535.382 233.548 535.702 232.884 536.246 232.388C536.79 231.892 537.522 231.644 538.442 231.644C539.026 231.644 539.526 231.748 539.942 231.956C540.358 232.164 540.674 232.456 540.89 232.832C541.114 233.2 541.226 233.628 541.226 234.116C541.226 234.548 541.154 234.924 541.01 235.244C540.866 235.556 540.622 235.848 540.278 236.12C539.942 236.392 539.478 236.684 538.886 236.996C538.118 237.404 537.534 237.816 537.134 238.232C536.742 238.648 536.534 239.02 536.51 239.348H541.226V240.356H535.238Z" fill="#626884"/>
<path d="M546.275 240.356V238.508H541.943V237.572L546.203 231.836H547.307V237.5H548.363V238.508H547.307V240.356H546.275ZM543.191 237.5H546.275V233.42L543.191 237.5Z" fill="#626884"/>
<path d="M618 240.26C618 239.66 618.092 239.12 618.276 238.64C618.468 238.152 618.8 237.688 619.272 237.248C619.752 236.808 620.416 236.364 621.264 235.916C621.656 235.708 621.972 235.516 622.212 235.34C622.452 235.164 622.628 234.976 622.74 234.776C622.852 234.576 622.908 234.332 622.908 234.044C622.908 233.748 622.844 233.492 622.716 233.276C622.588 233.052 622.396 232.876 622.14 232.748C621.892 232.62 621.58 232.556 621.204 232.556C620.604 232.556 620.128 232.712 619.776 233.024C619.432 233.336 619.216 233.78 619.128 234.356L618.048 234.284C618.144 233.452 618.464 232.788 619.008 232.292C619.552 231.796 620.284 231.548 621.204 231.548C621.788 231.548 622.288 231.652 622.704 231.86C623.12 232.068 623.436 232.36 623.652 232.736C623.876 233.104 623.988 233.532 623.988 234.02C623.988 234.452 623.916 234.828 623.772 235.148C623.628 235.46 623.384 235.752 623.04 236.024C622.704 236.296 622.24 236.588 621.648 236.9C620.88 237.308 620.296 237.72 619.896 238.136C619.504 238.552 619.296 238.924 619.272 239.252H623.988V240.26H618Z" fill="#626884"/>
<path d="M628.276 240.452C627.636 240.452 627.088 240.308 626.632 240.02C626.184 239.724 625.841 239.292 625.601 238.724C625.369 238.156 625.253 237.468 625.253 236.66C625.253 235.956 625.308 235.296 625.42 234.68C625.54 234.064 625.728 233.524 625.984 233.06C626.248 232.588 626.593 232.22 627.017 231.956C627.449 231.684 627.981 231.548 628.613 231.548C629.373 231.548 629.961 231.736 630.377 232.112C630.793 232.48 631.085 232.964 631.253 233.564L630.173 233.66C630.077 233.324 629.909 233.056 629.669 232.856C629.437 232.656 629.085 232.556 628.613 232.556C627.909 232.556 627.352 232.856 626.944 233.456C626.544 234.056 626.333 234.964 626.309 236.18L626.092 236.132C626.18 235.844 626.332 235.58 626.549 235.34C626.773 235.092 627.044 234.896 627.365 234.752C627.692 234.6 628.061 234.524 628.469 234.524C629.029 234.524 629.52 234.644 629.944 234.884C630.368 235.124 630.697 235.464 630.929 235.904C631.169 236.336 631.288 236.844 631.288 237.428C631.288 238.052 631.161 238.592 630.905 239.048C630.648 239.496 630.293 239.844 629.837 240.092C629.388 240.332 628.868 240.452 628.276 240.452ZM628.3 239.444C628.86 239.444 629.317 239.268 629.669 238.916C630.029 238.556 630.208 238.06 630.208 237.428C630.208 237.036 630.133 236.696 629.981 236.408C629.829 236.12 629.617 235.9 629.345 235.748C629.073 235.588 628.757 235.508 628.397 235.508C628.013 235.508 627.669 235.588 627.365 235.748C627.061 235.9 626.82 236.12 626.644 236.408C626.468 236.696 626.38 237.036 626.38 237.428C626.38 237.82 626.457 238.168 626.609 238.472C626.769 238.776 626.993 239.016 627.281 239.192C627.569 239.36 627.908 239.444 628.3 239.444Z" fill="#626884"/>
<path d="M632.489 237.236V236.288H636.461V237.236H632.489Z" fill="#626884"/>
<path d="M638.95 240.26V233.948H637.174V233.06H637.894C638.206 233.06 638.454 233.02 638.638 232.94C638.83 232.86 638.966 232.724 639.046 232.532C639.126 232.34 639.166 232.076 639.166 231.74H639.982V240.26H638.95Z" fill="#626884"/>
<path d="M643.015 240.26V233.948H641.239V233.06H641.959C642.271 233.06 642.519 233.02 642.703 232.94C642.895 232.86 643.031 232.724 643.111 232.532C643.191 232.34 643.231 232.076 643.231 231.74H644.047V240.26H643.015Z" fill="#626884"/>
<path d="M645.715 237.236V236.288H649.687V237.236H645.715Z" fill="#626884"/>
<path d="M650.874 240.26C650.874 239.66 650.966 239.12 651.15 238.64C651.342 238.152 651.674 237.688 652.146 237.248C652.626 236.808 653.29 236.364 654.138 235.916C654.53 235.708 654.846 235.516 655.086 235.34C655.326 235.164 655.502 234.976 655.614 234.776C655.726 234.576 655.782 234.332 655.782 234.044C655.782 233.748 655.718 233.492 655.59 233.276C655.462 233.052 655.27 232.876 655.014 232.748C654.766 232.62 654.454 232.556 654.078 232.556C653.478 232.556 653.002 232.712 652.65 233.024C652.306 233.336 652.09 233.78 652.002 234.356L650.922 234.284C651.018 233.452 651.338 232.788 651.882 232.292C652.426 231.796 653.158 231.548 654.078 231.548C654.662 231.548 655.162 231.652 655.578 231.86C655.994 232.068 656.31 232.36 656.526 232.736C656.75 233.104 656.862 233.532 656.862 234.02C656.862 234.452 656.79 234.828 656.646 235.148C656.502 235.46 656.258 235.752 655.914 236.024C655.578 236.296 655.114 236.588 654.522 236.9C653.754 237.308 653.17 237.72 652.77 238.136C652.378 238.552 652.17 238.924 652.146 239.252H656.862V240.26H650.874Z" fill="#626884"/>
<path d="M661.911 240.26V238.412H657.579V237.476L661.839 231.74H662.943V237.404H663.999V238.412H662.943V240.26H661.911ZM658.827 237.404H661.911V233.324L658.827 237.404Z" fill="#626884"/>
<path d="M730.859 240.26C730.859 239.66 730.951 239.12 731.135 238.64C731.327 238.152 731.659 237.688 732.131 237.248C732.611 236.808 733.275 236.364 734.123 235.916C734.515 235.708 734.831 235.516 735.071 235.34C735.311 235.164 735.487 234.976 735.599 234.776C735.711 234.576 735.767 234.332 735.767 234.044C735.767 233.748 735.703 233.492 735.575 233.276C735.447 233.052 735.255 232.876 734.999 232.748C734.751 232.62 734.439 232.556 734.063 232.556C733.463 232.556 732.987 232.712 732.635 233.024C732.291 233.336 732.075 233.78 731.987 234.356L730.907 234.284C731.003 233.452 731.323 232.788 731.867 232.292C732.411 231.796 733.143 231.548 734.063 231.548C734.647 231.548 735.147 231.652 735.563 231.86C735.979 232.068 736.295 232.36 736.511 232.736C736.735 233.104 736.847 233.532 736.847 234.02C736.847 234.452 736.775 234.828 736.631 235.148C736.487 235.46 736.243 235.752 735.899 236.024C735.563 236.296 735.099 236.588 734.507 236.9C733.739 237.308 733.155 237.72 732.755 238.136C732.363 238.552 732.155 238.924 732.131 239.252H736.847V240.26H730.859Z" fill="#626884"/>
<path d="M741.253 240.452C740.653 240.452 740.133 240.352 739.693 240.152C739.261 239.952 738.917 239.672 738.661 239.312C738.413 238.952 738.269 238.536 738.229 238.064L739.309 237.992C739.373 238.472 739.577 238.836 739.921 239.084C740.273 239.324 740.717 239.444 741.253 239.444C741.853 239.444 742.329 239.276 742.681 238.94C743.033 238.596 743.209 238.124 743.209 237.524C743.209 237.124 743.129 236.78 742.969 236.492C742.817 236.196 742.593 235.968 742.297 235.808C742.001 235.648 741.645 235.568 741.229 235.568C740.837 235.568 740.481 235.652 740.161 235.82C739.841 235.988 739.613 236.224 739.477 236.528H738.373L738.937 231.74H743.713V232.748H739.885L739.501 235.892L739.309 235.7C739.437 235.452 739.605 235.248 739.813 235.088C740.029 234.92 740.273 234.796 740.545 234.716C740.825 234.628 741.117 234.584 741.421 234.584C741.989 234.584 742.489 234.712 742.921 234.968C743.353 235.216 743.689 235.564 743.929 236.012C744.169 236.452 744.289 236.956 744.289 237.524C744.289 238.092 744.161 238.6 743.905 239.048C743.649 239.488 743.293 239.832 742.837 240.08C742.381 240.328 741.853 240.452 741.253 240.452Z" fill="#626884"/>
<path d="M745.489 237.236V236.288H749.461V237.236H745.489Z" fill="#626884"/>
<path d="M751.95 240.26V233.948H750.174V233.06H750.894C751.206 233.06 751.454 233.02 751.638 232.94C751.83 232.86 751.966 232.724 752.046 232.532C752.126 232.34 752.166 232.076 752.166 231.74H752.982V240.26H751.95Z" fill="#626884"/>
<path d="M756.015 240.26V233.948H754.239V233.06H754.959C755.271 233.06 755.519 233.02 755.703 232.94C755.895 232.86 756.031 232.724 756.111 232.532C756.191 232.34 756.231 232.076 756.231 231.74H757.047V240.26H756.015Z" fill="#626884"/>
<path d="M758.715 237.236V236.288H762.687V237.236H758.715Z" fill="#626884"/>
<path d="M763.874 240.26C763.874 239.66 763.966 239.12 764.15 238.64C764.342 238.152 764.674 237.688 765.146 237.248C765.626 236.808 766.29 236.364 767.138 235.916C767.53 235.708 767.846 235.516 768.086 235.34C768.326 235.164 768.502 234.976 768.614 234.776C768.726 234.576 768.782 234.332 768.782 234.044C768.782 233.748 768.718 233.492 768.59 233.276C768.462 233.052 768.27 232.876 768.014 232.748C767.766 232.62 767.454 232.556 767.078 232.556C766.478 232.556 766.002 232.712 765.65 233.024C765.306 233.336 765.09 233.78 765.002 234.356L763.922 234.284C764.018 233.452 764.338 232.788 764.882 232.292C765.426 231.796 766.158 231.548 767.078 231.548C767.662 231.548 768.162 231.652 768.578 231.86C768.994 232.068 769.31 232.36 769.526 232.736C769.75 233.104 769.862 233.532 769.862 234.02C769.862 234.452 769.79 234.828 769.646 235.148C769.502 235.46 769.258 235.752 768.914 236.024C768.578 236.296 768.114 236.588 767.522 236.9C766.754 237.308 766.17 237.72 765.77 238.136C765.378 238.552 765.17 238.924 765.146 239.252H769.862V240.26H763.874Z" fill="#626884"/>
<path d="M774.911 240.26V238.412H770.579V237.476L774.839 231.74H775.943V237.404H776.999V238.412H775.943V240.26H774.911ZM771.827 237.404H774.911V233.324L771.827 237.404Z" fill="#626884"/>
<path d="M49.0391 197.829H55.1301V224.749H49.0391V197.829Z" fill="#065AC7" fill-opacity="0.5"/>
<path d="M58.1758 213.981H64.2668V224.749H58.1758V213.981Z" fill="#065AC7" fill-opacity="0.5"/>
<path d="M67.3125 203.982H73.4035V224.749H67.3125V203.982Z" fill="#065AC7" fill-opacity="0.5"/>
<path d="M76.4492 180.908H82.5403V224.749H76.4492V180.908Z" fill="#065AC7" fill-opacity="0.5"/>
<path d="M85.5859 162.449H91.677V224.748H85.5859V162.449Z" fill="#065AC7" fill-opacity="0.5"/>
<path d="M94.7227 213.211H100.814V224.748H94.7227V213.211Z" fill="#065AC7" fill-opacity="0.5"/>
<path d="M103.861 179.37H109.952V224.748H103.861V179.37Z" fill="#065AC7" fill-opacity="0.5"/>
<path d="M112.998 135.529H119.089V224.749H112.998V135.529Z" fill="#065AC7" fill-opacity="0.5"/>
<path d="M122.135 200.136H128.226V224.748H122.135V200.136Z" fill="#065AC7" fill-opacity="0.5"/>
<path d="M131.271 153.988H137.363V224.748H131.271V153.988Z" fill="#065AC7" fill-opacity="0.5"/>
<path d="M140.691 104.639H146.669V224.749H140.691V104.639Z" fill="#065AC7" fill-opacity="0.5"/>
<path d="M149.545 132.453H155.636V224.748H149.545V132.453Z" fill="#065AC7" fill-opacity="0.5"/>
<path d="M158.682 200.136H164.773V224.748H158.682V200.136Z" fill="#065AC7" fill-opacity="0.5"/>
<path d="M167.818 135.529H173.909V224.749H167.818V135.529Z" fill="#065AC7" fill-opacity="0.5"/>
<path d="M176.955 187.061H183.046V224.749H176.955V187.061Z" fill="#065AC7" fill-opacity="0.5"/>
<path d="M186.092 153.988H192.183V224.748H186.092V153.988Z" fill="#065AC7" fill-opacity="0.5"/>
<path d="M195.229 176.293H201.32V224.749H195.229V176.293Z" fill="#065AC7" fill-opacity="0.5"/>
<path d="M204.367 194.752H210.458V224.749H204.367V194.752Z" fill="#065AC7" fill-opacity="0.5"/>
<path d="M213.748 106.445H219.725V224.749H213.748V106.445Z" fill="#065AC7" fill-opacity="0.5"/>
<path d="M222.641 148.604H228.732V224.749H222.641V148.604Z" fill="#065AC7" fill-opacity="0.5"/>
<path d="M231.777 123.223H237.868V224.749H231.777V123.223Z" fill="#065AC7" fill-opacity="0.5"/>
<path d="M240.914 150.143H247.005V224.749H240.914V150.143Z" fill="#065AC7" fill-opacity="0.5"/>
<path d="M250.275 116.379H256.253V224.749H250.275V116.379Z" fill="#065AC7" fill-opacity="0.5"/>
<path d="M259.188 138.606H265.279V224.749H259.188V138.606Z" fill="#065AC7" fill-opacity="0.5"/>
<path d="M268.324 113.994H274.415V224.749H268.324V113.994Z" fill="#065AC7" fill-opacity="0.5"/>
<path d="M277.461 190.138H283.552V224.749H277.461V190.138Z" fill="#065AC7" fill-opacity="0.5"/>
<path d="M286.598 208.597H292.689V224.748H286.598V208.597Z" fill="#065AC7" fill-opacity="0.5"/>
<path d="M295.438 127.216H302.079V224.749H295.438V127.216Z" fill="#065AC7" fill-opacity="0.5"/>
<path d="M304.873 156.296H310.964V224.749H304.873V156.296Z" fill="#065AC7" fill-opacity="0.5"/>
<path d="M314.01 193.214H320.101V224.749H314.01V193.214Z" fill="#065AC7" fill-opacity="0.5"/>
<path d="M323.146 150.143H329.238V224.749H323.146V150.143Z" fill="#065AC7" fill-opacity="0.5"/>
<path d="M332.283 132.453H338.374V224.748H332.283V132.453Z" fill="#065AC7" fill-opacity="0.5"/>
<path d="M341.42 169.371H347.511V224.749H341.42V169.371Z" fill="#065AC7" fill-opacity="0.5"/>
<path d="M350.562 113.669H356.54V224.749H350.562V113.669Z" fill="#065AC7" fill-opacity="0.5"/>
<path d="M359.693 187.061H365.784V224.749H359.693V187.061Z" fill="#065AC7" fill-opacity="0.5"/>
<path d="M368.83 135.529H374.921V224.749H368.83V135.529Z" fill="#065AC7" fill-opacity="0.5"/>
<path d="M377.967 153.988H384.058V224.748H377.967V153.988Z" fill="#065AC7" fill-opacity="0.5"/>
<path d="M387.104 123.223H393.195V224.749H387.104V123.223Z" fill="#065AC7" fill-opacity="0.5"/>
<path d="M396.24 203.982H402.331V224.749H396.24V203.982Z" fill="#065AC7" fill-opacity="0.5"/>
<path d="M405.379 169.371H411.47V224.749H405.379V169.371Z" fill="#065AC7" fill-opacity="0.5"/>
<path d="M414.32 127.216H420.297V224.749H414.32V127.216Z" fill="#065AC7" fill-opacity="0.5"/>
<path d="M423.652 193.214H429.743V224.749H423.652V193.214Z" fill="#065AC7" fill-opacity="0.5"/>
<path d="M432.916 104.639H438.893V224.749H432.916V104.639Z" fill="#065AC7" fill-opacity="0.5"/>
<path d="M441.926 146.297H448.017V224.749H441.926V146.297Z" fill="#065AC7" fill-opacity="0.5"/>
<path d="M451.062 113.994H457.154V224.749H451.062V113.994Z" fill="#065AC7" fill-opacity="0.5"/>
<path d="M460.199 159.373H466.29V224.749H460.199V159.373Z" fill="#065AC7" fill-opacity="0.5"/>
<path d="M469.336 197.829H475.427V224.749H469.336V197.829Z" fill="#065AC7" fill-opacity="0.5"/>
<path d="M478.473 180.908H484.564V224.749H478.473V180.908Z" fill="#065AC7" fill-opacity="0.5"/>
<path d="M487.609 203.982H493.7V224.749H487.609V203.982Z" fill="#065AC7" fill-opacity="0.5"/>
<path d="M496.746 187.061H502.837V224.749H496.746V187.061Z" fill="#065AC7" fill-opacity="0.5"/>
<path d="M505.885 135.529H511.976V224.749H505.885V135.529Z" fill="#065AC7" fill-opacity="0.5"/>
<path d="M515.021 165.525H521.113V224.749H515.021V165.525Z" fill="#065AC7" fill-opacity="0.5"/>
<path d="M524.158 180.908H530.249V224.749H524.158V180.908Z" fill="#065AC7" fill-opacity="0.5"/>
<path d="M533.295 150.143H539.386V224.749H533.295V150.143Z" fill="#065AC7" fill-opacity="0.5"/>
<path d="M542.432 197.829H548.523V224.749H542.432V197.829Z" fill="#065AC7" fill-opacity="0.5"/>
<path d="M551.568 221.672H557.659V224.748H551.568V221.672Z" fill="#065AC7" fill-opacity="0.5"/>
<path d="M560.705 221.672H566.796V224.748H560.705V221.672Z" fill="#065AC7" fill-opacity="0.5"/>
<path d="M569.842 165.525H575.933V224.749H569.842V165.525Z" fill="#065AC7" fill-opacity="0.5"/>
<path d="M578.979 138.606H585.07V224.749H578.979V138.606Z" fill="#065AC7" fill-opacity="0.5"/>
<path d="M588.115 180.908H594.206V224.749H588.115V180.908Z" fill="#065AC7" fill-opacity="0.5"/>
<path d="M597.252 146.297H603.343V224.749H597.252V146.297Z" fill="#065AC7" fill-opacity="0.5"/>
<path d="M606.391 197.829H612.482V224.749H606.391V197.829Z" fill="#065AC7" fill-opacity="0.5"/>
<path d="M615.527 153.988H621.618V224.748H615.527V153.988Z" fill="#065AC7" fill-opacity="0.5"/>
<path d="M624.664 184.754H630.755V224.749H624.664V184.754Z" fill="#065AC7" fill-opacity="0.5"/>
<path d="M633.801 169.371H639.892V224.749H633.801V169.371Z" fill="#065AC7" fill-opacity="0.5"/>
<path d="M642.938 148.604H649.029V224.749H642.938V148.604Z" fill="#065AC7" fill-opacity="0.5"/>
<path d="M652.074 179.37H658.165V224.748H652.074V179.37Z" fill="#065AC7" fill-opacity="0.5"/>
<path d="M661.211 220.134H667.302V224.749H661.211V220.134Z" fill="#065AC7" fill-opacity="0.5"/>
<path d="M670.348 220.134H676.439V224.749H670.348V220.134Z" fill="#065AC7" fill-opacity="0.5"/>
<path d="M679.484 125.531H685.575V224.749H679.484V125.531Z" fill="#065AC7" fill-opacity="0.5"/>
<path d="M688.621 167.063H694.712V224.748H688.621V167.063Z" fill="#065AC7" fill-opacity="0.5"/>
<path d="M697.758 180.908H703.849V224.749H697.758V180.908Z" fill="#065AC7" fill-opacity="0.5"/>
<path d="M706.895 203.982H712.986V224.749H706.895V203.982Z" fill="#065AC7" fill-opacity="0.5"/>
<path d="M716.033 187.061H722.124V224.749H716.033V187.061Z" fill="#065AC7" fill-opacity="0.5"/>
<path d="M725.17 153.988H731.261V224.748H725.17V153.988Z" fill="#065AC7" fill-opacity="0.5"/>
<path d="M734.307 165.525H740.398V224.749H734.307V165.525Z" fill="#065AC7" fill-opacity="0.5"/>
<path d="M743.738 116.379H749.715V224.749H743.738V116.379Z" fill="#065AC7" fill-opacity="0.5"/>
<path d="M752.371 100.124H758.348V224.749H752.371V100.124Z" fill="#065AC7" fill-opacity="0.5"/>
<path d="M761.717 138.606H767.808V224.749H761.717V138.606Z" fill="#065AC7" fill-opacity="0.5"/>
<path d="M770.854 170.909H776.945V224.748H770.854V170.909Z" fill="#065AC7" fill-opacity="0.5"/>
</svg>
