<svg width="208" height="56" viewBox="0 0 208 56" fill="none" xmlns="http://www.w3.org/2000/svg">
<mask id="path-1-inside-1_405_3827" fill="white">
<path d="M0 0H208V56H0V0Z"/>
</mask>
<path d="M208 55H0V57H208V55Z" fill="#E6E6EF" mask="url(#path-1-inside-1_405_3827)"/>
<path fill-rule="evenodd" clip-rule="evenodd" d="M17 20L26.5 28L36.5 20H17ZM16 21V34.5L24 27.5L16 21ZM25 28.5L17 35.5H36.5L28.5 28.5L26.5 30L25 28.5ZM37.5 34.5V21L29.5 27.5L37.5 34.5Z" fill="#05429B"/>
<path d="M45.1286 34.0708C44.1964 34.0708 43.3704 33.8702 42.6506 33.469C41.9426 33.0678 41.3821 32.5132 40.9691 31.8052C40.5679 31.0972 40.3673 30.2889 40.3673 29.3803C40.3673 28.4599 40.5561 27.6516 40.9337 26.9554C41.3231 26.2474 41.8541 25.6928 42.5267 25.2916C43.1993 24.8904 43.9545 24.6898 44.7923 24.6898C45.6301 24.6898 46.3794 24.8845 47.0402 25.2739C47.7128 25.6633 48.2379 26.212 48.6155 26.92C49.0049 27.6162 49.1996 28.4245 49.1996 29.3449C49.1996 29.3803 49.1937 29.4216 49.1819 29.4688C49.1819 29.5042 49.1819 29.5455 49.1819 29.5927H41.0222V28.9024H48.704L48.35 29.2387C48.3618 28.5189 48.2084 27.8758 47.8898 27.3094C47.583 26.7312 47.1641 26.2828 46.6331 25.9642C46.1021 25.6338 45.4885 25.4686 44.7923 25.4686C44.1079 25.4686 43.4943 25.6338 42.9515 25.9642C42.4205 26.2828 42.0016 26.7312 41.6948 27.3094C41.388 27.8758 41.2346 28.5248 41.2346 29.2564V29.4157C41.2346 30.1709 41.3998 30.8435 41.7302 31.4335C42.0724 32.0117 42.5385 32.466 43.1285 32.7964C43.7185 33.115 44.3911 33.2743 45.1463 33.2743C45.7363 33.2743 46.285 33.1681 46.7924 32.9557C47.3116 32.7433 47.7482 32.4188 48.1022 31.9822L48.6155 32.5663C48.2143 33.0619 47.7069 33.4395 47.0933 33.6991C46.4915 33.9469 45.8366 34.0708 45.1286 34.0708ZM63.2654 24.6898C64.0088 24.6898 64.6519 24.8373 65.1947 25.1323C65.7493 25.4155 66.18 25.8521 66.4868 26.4421C66.7936 27.0203 66.947 27.7401 66.947 28.6015V34H66.062V28.6723C66.062 27.6339 65.8083 26.8433 65.3009 26.3005C64.7935 25.7577 64.0855 25.4863 63.1769 25.4863C62.4807 25.4863 61.8789 25.6338 61.3715 25.9288C60.8641 26.2238 60.4747 26.6368 60.2033 27.1678C59.9319 27.6988 59.7962 28.336 59.7962 29.0794V34H58.9112V28.6723C58.9112 27.6339 58.6575 26.8433 58.1501 26.3005C57.6427 25.7577 56.9347 25.4863 56.0261 25.4863C55.3299 25.4863 54.7281 25.6338 54.2207 25.9288C53.7133 26.2238 53.3239 26.6368 53.0525 27.1678C52.7811 27.6988 52.6454 28.336 52.6454 29.0794V34H51.7604V24.7606H52.61V27.3094L52.4861 27.0262C52.7575 26.3064 53.2118 25.74 53.849 25.327C54.4862 24.9022 55.2532 24.6898 56.15 24.6898C57.0704 24.6898 57.8433 24.9258 58.4687 25.3978C59.1059 25.858 59.5071 26.5483 59.6723 27.4687L59.3714 27.3448C59.6192 26.5542 60.0853 25.917 60.7697 25.4332C61.4541 24.9376 62.286 24.6898 63.2654 24.6898ZM76.2476 34V31.8937L76.2122 31.5751V28.1059C76.2122 27.2445 75.9762 26.5896 75.5042 26.1412C75.044 25.6928 74.3655 25.4686 73.4687 25.4686C72.8315 25.4686 72.2356 25.5807 71.681 25.8049C71.1382 26.0173 70.6721 26.2946 70.2827 26.6368L69.8402 25.9996C70.3004 25.5866 70.855 25.268 71.504 25.0438C72.153 24.8078 72.8315 24.6898 73.5395 24.6898C74.6841 24.6898 75.5632 24.9789 76.1768 25.5571C76.7904 26.1353 77.0972 26.9967 77.0972 28.1413V34H76.2476ZM72.92 34.0708C72.2356 34.0708 71.6397 33.9646 71.1323 33.7522C70.6367 33.528 70.2532 33.2153 69.9818 32.8141C69.7222 32.4129 69.5924 31.9527 69.5924 31.4335C69.5924 30.9615 69.6986 30.5367 69.911 30.1591C70.1352 29.7697 70.501 29.457 71.0084 29.221C71.5158 28.9732 72.1943 28.8493 73.0439 28.8493H76.4423V29.5396H73.0616C72.1058 29.5396 71.4332 29.7166 71.0438 30.0706C70.6662 30.4246 70.4774 30.8671 70.4774 31.3981C70.4774 31.9881 70.7016 32.4601 71.15 32.8141C71.5984 33.1681 72.2297 33.3451 73.0439 33.3451C73.8227 33.3451 74.4776 33.1681 75.0086 32.8141C75.5514 32.4601 75.9526 31.9468 76.2122 31.2742L76.46 31.876C76.2122 32.5486 75.7874 33.0855 75.1856 33.4867C74.5956 33.8761 73.8404 34.0708 72.92 34.0708ZM80.5665 34V24.7606H81.4515V34H80.5665ZM81.009 22.5127C80.8084 22.5127 80.6373 22.4419 80.4957 22.3003C80.3541 22.1587 80.2833 21.9935 80.2833 21.8047C80.2833 21.6041 80.3541 21.433 80.4957 21.2914C80.6373 21.1498 80.8084 21.079 81.009 21.079C81.2214 21.079 81.3925 21.1498 81.5223 21.2914C81.6639 21.4212 81.7347 21.5864 81.7347 21.787C81.7347 21.9876 81.6639 22.1587 81.5223 22.3003C81.3925 22.4419 81.2214 22.5127 81.009 22.5127ZM85.0046 34V20.8666H85.8896V34H85.0046Z" fill="#05429B"/>
<path d="M88.4115 34L93.987 21.61H96.2526L101.846 34H99.4386L94.6419 22.8313H95.5623L90.7833 34H88.4115ZM90.978 31.1326L91.5975 29.3272H98.2881L98.9076 31.1326H90.978ZM107.036 34.1239C106.234 34.1239 105.526 33.9764 104.912 33.6814C104.299 33.3746 103.821 32.9144 103.479 32.3008C103.137 31.6754 102.965 30.8907 102.965 29.9467V24.5482H105.178V29.6458C105.178 30.4954 105.367 31.1326 105.744 31.5574C106.134 31.9704 106.682 32.1769 107.39 32.1769C107.91 32.1769 108.358 32.0707 108.736 31.8583C109.125 31.6459 109.426 31.3273 109.638 30.9025C109.863 30.4777 109.975 29.9526 109.975 29.3272V24.5482H112.187V34H110.081V31.4512L110.453 32.23C110.134 32.8436 109.668 33.3156 109.054 33.646C108.441 33.9646 107.768 34.1239 107.036 34.1239ZM119.084 34.1239C118.176 34.1239 117.356 33.9233 116.624 33.5221C115.904 33.1091 115.338 32.5427 114.925 31.8229C114.512 31.1031 114.305 30.2535 114.305 29.2741C114.305 28.2947 114.512 27.4451 114.925 26.7253C115.338 26.0055 115.904 25.445 116.624 25.0438C117.356 24.6426 118.176 24.442 119.084 24.442C119.875 24.442 120.583 24.619 121.208 24.973C121.834 25.3152 122.329 25.8403 122.695 26.5483C123.061 27.2563 123.244 28.1649 123.244 29.2741C123.244 30.3715 123.067 31.2801 122.713 31.9999C122.359 32.7079 121.869 33.2389 121.244 33.5929C120.618 33.9469 119.898 34.1239 119.084 34.1239ZM119.35 32.23C119.881 32.23 120.353 32.112 120.766 31.876C121.191 31.64 121.527 31.2978 121.775 30.8494C122.034 30.401 122.164 29.8759 122.164 29.2741C122.164 28.6605 122.034 28.1354 121.775 27.6988C121.527 27.2504 121.191 26.9082 120.766 26.6722C120.353 26.4362 119.881 26.3182 119.35 26.3182C118.819 26.3182 118.341 26.4362 117.916 26.6722C117.503 26.9082 117.167 27.2504 116.907 27.6988C116.659 28.1354 116.535 28.6605 116.535 29.2741C116.535 29.8759 116.659 30.401 116.907 30.8494C117.167 31.2978 117.503 31.64 117.916 31.876C118.341 32.112 118.819 32.23 119.35 32.23ZM122.217 34V31.7698L122.306 29.2564L122.129 26.743V20.8666H124.323V34H122.217ZM127.235 34V24.5482H129.448V34H127.235ZM128.351 22.9906C127.938 22.9906 127.595 22.8608 127.324 22.6012C127.064 22.3416 126.935 22.0289 126.935 21.6631C126.935 21.2855 127.064 20.9728 127.324 20.725C127.595 20.4654 127.938 20.3356 128.351 20.3356C128.764 20.3356 129.1 20.4595 129.359 20.7073C129.631 20.9433 129.767 21.2442 129.767 21.61C129.767 21.9994 129.637 22.3298 129.377 22.6012C129.118 22.8608 128.775 22.9906 128.351 22.9906ZM135.91 34.1239C134.871 34.1239 134.069 33.8584 133.502 33.3274C132.936 32.7846 132.653 31.9881 132.653 30.9379V22.4596H134.865V30.8848C134.865 31.3332 134.977 31.6813 135.202 31.9291C135.438 32.1769 135.762 32.3008 136.175 32.3008C136.671 32.3008 137.084 32.171 137.414 31.9114L138.034 33.4867C137.774 33.6991 137.455 33.8584 137.078 33.9646C136.7 34.0708 136.311 34.1239 135.91 34.1239ZM131.095 26.389V24.619H137.396V26.389H131.095Z" fill="#C10828"/>
<rect x="176" y="20" width="16" height="16" rx="3" fill="#E6E6EF"/>
<g clip-path="url(#clip0_405_3827)">
<path fill-rule="evenodd" clip-rule="evenodd" d="M181.838 28.4122C181.728 28.3028 181.667 28.1545 181.667 27.9998C181.667 27.8451 181.728 27.6968 181.838 27.5874L185.138 24.2875C185.192 24.2317 185.256 24.1873 185.327 24.1567C185.398 24.1262 185.475 24.1101 185.552 24.1094C185.63 24.1087 185.706 24.1235 185.778 24.1528C185.85 24.1821 185.915 24.2255 185.97 24.2802C186.025 24.335 186.068 24.4001 186.097 24.4718C186.127 24.5435 186.141 24.6203 186.141 24.6978C186.14 24.7752 186.124 24.8518 186.093 24.9229C186.063 24.9941 186.018 25.0585 185.963 25.1123L183.075 27.9998L185.963 30.8873C186.069 30.9973 186.128 31.1447 186.126 31.2976C186.125 31.4506 186.064 31.5969 185.955 31.705C185.847 31.8132 185.701 31.8745 185.548 31.8759C185.395 31.8772 185.248 31.8184 185.138 31.7121L181.838 28.4122Z" fill="#00022A"/>
</g>
<defs>
<clipPath id="clip0_405_3827">
<rect width="14" height="14" fill="white" transform="matrix(0 1 -1 0 191 21)"/>
</clipPath>
</defs>
</svg>
