<svg width="600" height="24" viewBox="0 0 600 24" fill="none" xmlns="http://www.w3.org/2000/svg">
<path d="M0 17.5841V6.22412H3.776C5.58933 6.22412 6.98133 6.72012 7.952 7.71212C8.93333 8.69345 9.424 10.0961 9.424 11.9201C9.424 13.7335 8.944 15.1308 7.984 16.1121C7.024 17.0935 5.65333 17.5841 3.872 17.5841H0ZM2.08 15.7761H3.776C4.96 15.7761 5.84 15.4561 6.416 14.8161C6.992 14.1761 7.28 13.2108 7.28 11.9201C7.28 10.6081 6.992 9.63212 6.416 8.99212C5.84 8.35212 4.96 8.03212 3.776 8.03212H2.08V15.7761Z" fill="#00022A"/>
<path d="M13.6287 17.7761C12.7327 17.7761 12.0127 17.5735 11.4688 17.1681C10.9247 16.7521 10.6528 16.1761 10.6528 15.4401C10.6528 14.7041 10.8821 14.1281 11.3407 13.7121C11.7994 13.2961 12.4981 12.9975 13.4368 12.8161L16.2688 12.2561C16.2688 11.6481 16.1301 11.1948 15.8528 10.8961C15.5754 10.5868 15.1648 10.4321 14.6208 10.4321C14.1301 10.4321 13.7408 10.5495 13.4528 10.7841C13.1754 11.0081 12.9834 11.3335 12.8767 11.7601L10.7968 11.6641C10.9674 10.7575 11.3834 10.0641 12.0448 9.58412C12.7061 9.09345 13.5648 8.84812 14.6208 8.84812C15.8368 8.84812 16.7541 9.15745 17.3728 9.77612C18.0021 10.3841 18.3167 11.2588 18.3167 12.4001V15.5041C18.3167 15.7281 18.3541 15.8828 18.4288 15.9681C18.5141 16.0535 18.6368 16.0961 18.7968 16.0961H19.0688V17.5841C19.0048 17.6055 18.8981 17.6215 18.7488 17.6321C18.6101 17.6428 18.4661 17.6481 18.3167 17.6481C17.9647 17.6481 17.6501 17.5948 17.3728 17.4881C17.0954 17.3708 16.8821 17.1735 16.7327 16.8961C16.5834 16.6081 16.5088 16.2188 16.5088 15.7281L16.6847 15.8561C16.5994 16.2295 16.4128 16.5655 16.1248 16.8641C15.8474 17.1521 15.4954 17.3761 15.0688 17.5361C14.6421 17.6961 14.1621 17.7761 13.6287 17.7761ZM14.0448 16.2881C14.5034 16.2881 14.8981 16.1975 15.2288 16.0161C15.5594 15.8348 15.8154 15.5841 15.9968 15.2641C16.1781 14.9441 16.2688 14.5655 16.2688 14.1281V13.6481L14.0608 14.0961C13.6021 14.1921 13.2714 14.3361 13.0688 14.5281C12.8768 14.7095 12.7808 14.9495 12.7808 15.2481C12.7808 15.5788 12.8874 15.8348 13.1007 16.0161C13.3248 16.1975 13.6394 16.2881 14.0448 16.2881Z" fill="#00022A"/>
<path d="M23.617 17.7761C22.7743 17.7761 22.065 17.6535 21.489 17.4081C20.9237 17.1628 20.4863 16.8215 20.177 16.3841C19.8677 15.9468 19.6917 15.4508 19.649 14.8961L21.745 14.8001C21.8197 15.2481 22.0063 15.5948 22.305 15.8401C22.6037 16.0855 23.0463 16.2081 23.633 16.2081C24.113 16.2081 24.4863 16.1335 24.753 15.9841C25.0303 15.8241 25.169 15.5788 25.169 15.2481C25.169 15.0561 25.121 14.8961 25.025 14.7681C24.929 14.6401 24.7477 14.5281 24.481 14.4321C24.2143 14.3361 23.8197 14.2401 23.297 14.1441C22.4223 13.9948 21.7343 13.8135 21.233 13.6001C20.7317 13.3761 20.3743 13.0988 20.161 12.7681C19.9583 12.4375 19.857 12.0268 19.857 11.5361C19.857 10.7361 20.161 10.0908 20.769 9.60012C21.3877 9.09879 22.289 8.84812 23.473 8.84812C24.241 8.84812 24.8863 8.97612 25.409 9.23212C25.9317 9.47745 26.337 9.81879 26.625 10.2561C26.9237 10.6828 27.1103 11.1735 27.185 11.7281L25.121 11.8241C25.0677 11.5361 24.9717 11.2855 24.833 11.0721C24.6943 10.8588 24.5077 10.6988 24.273 10.5921C24.0383 10.4748 23.761 10.4161 23.441 10.4161C22.961 10.4161 22.5983 10.5121 22.353 10.7041C22.1077 10.8961 21.985 11.1521 21.985 11.4721C21.985 11.6961 22.0383 11.8828 22.145 12.0321C22.2623 12.1815 22.449 12.3041 22.705 12.4001C22.961 12.4855 23.3023 12.5655 23.729 12.6401C24.625 12.7788 25.329 12.9601 25.841 13.1841C26.3637 13.3975 26.7317 13.6748 26.945 14.0161C27.169 14.3468 27.281 14.7468 27.281 15.2161C27.281 15.7601 27.1263 16.2241 26.817 16.6081C26.5183 16.9921 26.0917 17.2855 25.537 17.4881C24.993 17.6801 24.353 17.7761 23.617 17.7761Z" fill="#00022A"/>
<path d="M28.7194 17.5841V6.22412H30.7674V10.9921H30.5114C30.5967 10.5015 30.7674 10.1015 31.0234 9.79212C31.2794 9.47212 31.594 9.23745 31.9674 9.08812C32.3407 8.92812 32.7514 8.84812 33.1994 8.84812C33.8287 8.84812 34.3567 8.98679 34.7834 9.26412C35.2207 9.53079 35.546 9.90945 35.7594 10.4001C35.9834 10.8908 36.0954 11.4561 36.0954 12.0961V17.5841H34.0474V12.5921C34.0474 11.8988 33.93 11.3815 33.6954 11.0401C33.4607 10.6881 33.0927 10.5121 32.5914 10.5121C32.0367 10.5121 31.594 10.6935 31.2634 11.0561C30.9327 11.4188 30.7674 11.9468 30.7674 12.6401V17.5841H28.7194Z" fill="#00022A"/>
<path d="M42.6201 17.7761C42.0228 17.7761 41.5001 17.6481 41.0521 17.3921C40.6148 17.1361 40.2735 16.7788 40.0281 16.3201L39.9801 17.5841H38.0281V6.22412H40.0761V10.2561C40.3108 9.86145 40.6468 9.53079 41.0841 9.26412C41.5215 8.98679 42.0335 8.84812 42.6201 8.84812C43.3561 8.84812 43.9908 9.03479 44.5241 9.40812C45.0681 9.77079 45.4841 10.2881 45.7721 10.9601C46.0708 11.6215 46.2201 12.4055 46.2201 13.3121C46.2201 14.2188 46.0708 15.0081 45.7721 15.6801C45.4841 16.3415 45.0681 16.8588 44.5241 17.2321C43.9908 17.5948 43.3561 17.7761 42.6201 17.7761ZM42.1561 16.1121C42.7428 16.1121 43.2121 15.8668 43.5641 15.3761C43.9161 14.8748 44.0921 14.1868 44.0921 13.3121C44.0921 12.4268 43.9161 11.7388 43.5641 11.2481C43.2228 10.7575 42.7588 10.5121 42.1721 10.5121C41.7348 10.5121 41.3561 10.6241 41.0361 10.8481C40.7268 11.0615 40.4868 11.3761 40.3161 11.7921C40.1561 12.2081 40.0761 12.7148 40.0761 13.3121C40.0761 13.8881 40.1561 14.3895 40.3161 14.8161C40.4868 15.2321 40.7268 15.5521 41.0361 15.7761C41.3455 16.0001 41.7188 16.1121 42.1561 16.1121Z" fill="#00022A"/>
<path d="M51.3614 17.7761C50.5187 17.7761 49.7774 17.5948 49.1374 17.2321C48.508 16.8588 48.0174 16.3361 47.6654 15.6641C47.324 14.9921 47.1534 14.2081 47.1534 13.3121C47.1534 12.4055 47.324 11.6215 47.6654 10.9601C48.0174 10.2881 48.508 9.77079 49.1374 9.40812C49.7774 9.03479 50.5187 8.84812 51.3614 8.84812C52.204 8.84812 52.94 9.03479 53.5694 9.40812C54.1987 9.77079 54.684 10.2881 55.0254 10.9601C55.3774 11.6215 55.5534 12.4055 55.5534 13.3121C55.5534 14.2081 55.3774 14.9921 55.0254 15.6641C54.684 16.3361 54.1987 16.8588 53.5694 17.2321C52.94 17.5948 52.204 17.7761 51.3614 17.7761ZM51.3614 16.1121C52.0227 16.1121 52.5294 15.8668 52.8814 15.3761C53.244 14.8855 53.4254 14.1975 53.4254 13.3121C53.4254 12.4375 53.244 11.7548 52.8814 11.2641C52.5294 10.7628 52.0227 10.5121 51.3614 10.5121C50.7 10.5121 50.188 10.7628 49.8254 11.2641C49.4627 11.7548 49.2814 12.4375 49.2814 13.3121C49.2814 14.1975 49.4627 14.8855 49.8254 15.3761C50.188 15.8668 50.7 16.1121 51.3614 16.1121Z" fill="#00022A"/>
<path d="M59.5788 17.7761C58.6828 17.7761 57.9628 17.5735 57.4188 17.1681C56.8748 16.7521 56.6028 16.1761 56.6028 15.4401C56.6028 14.7041 56.8321 14.1281 57.2908 13.7121C57.7494 13.2961 58.4481 12.9975 59.3867 12.8161L62.2188 12.2561C62.2188 11.6481 62.0801 11.1948 61.8027 10.8961C61.5254 10.5868 61.1148 10.4321 60.5708 10.4321C60.0801 10.4321 59.6908 10.5495 59.4028 10.7841C59.1254 11.0081 58.9334 11.3335 58.8268 11.7601L56.7467 11.6641C56.9174 10.7575 57.3334 10.0641 57.9948 9.58412C58.6561 9.09345 59.5148 8.84812 60.5708 8.84812C61.7868 8.84812 62.7041 9.15745 63.3228 9.77612C63.9521 10.3841 64.2668 11.2588 64.2668 12.4001V15.5041C64.2668 15.7281 64.3041 15.8828 64.3788 15.9681C64.4641 16.0535 64.5868 16.0961 64.7467 16.0961H65.0188V17.5841C64.9548 17.6055 64.8481 17.6215 64.6988 17.6321C64.5601 17.6428 64.4161 17.6481 64.2668 17.6481C63.9148 17.6481 63.6001 17.5948 63.3228 17.4881C63.0454 17.3708 62.8321 17.1735 62.6828 16.8961C62.5334 16.6081 62.4588 16.2188 62.4588 15.7281L62.6348 15.8561C62.5494 16.2295 62.3628 16.5655 62.0748 16.8641C61.7974 17.1521 61.4454 17.3761 61.0188 17.5361C60.5921 17.6961 60.1121 17.7761 59.5788 17.7761ZM59.9948 16.2881C60.4534 16.2881 60.8481 16.1975 61.1788 16.0161C61.5094 15.8348 61.7654 15.5841 61.9468 15.2641C62.1281 14.9441 62.2188 14.5655 62.2188 14.1281V13.6481L60.0107 14.0961C59.5521 14.1921 59.2214 14.3361 59.0187 14.5281C58.8267 14.7095 58.7308 14.9495 58.7308 15.2481C58.7308 15.5788 58.8374 15.8348 59.0508 16.0161C59.2748 16.1975 59.5894 16.2881 59.9948 16.2881Z" fill="#00022A"/>
<path d="M66.1887 17.5841V9.04012H68.1087L68.1887 11.4081L68.0127 11.3761C68.1407 10.5548 68.3807 9.96279 68.7327 9.60012C69.0954 9.22679 69.5861 9.04012 70.2048 9.04012H70.9887V10.8001H70.1888C69.7514 10.8001 69.3887 10.8641 69.1007 10.9921C68.8127 11.1201 68.5941 11.3228 68.4447 11.6001C68.3061 11.8668 68.2367 12.2188 68.2367 12.6561V17.5841H66.1887Z" fill="#00022A"/>
<path d="M74.975 17.7761C74.2497 17.7761 73.6203 17.5948 73.087 17.2321C72.5643 16.8695 72.159 16.3521 71.871 15.6801C71.583 15.0081 71.439 14.2188 71.439 13.3121C71.439 12.4055 71.583 11.6161 71.871 10.9441C72.159 10.2721 72.5697 9.75479 73.103 9.39212C73.6363 9.02945 74.2603 8.84812 74.975 8.84812C75.5723 8.84812 76.095 8.97079 76.543 9.21612C77.0017 9.46146 77.3483 9.80812 77.583 10.2561V6.22412H79.631V17.5841H77.679L77.631 16.3201C77.3963 16.7788 77.0443 17.1361 76.575 17.3921C76.1057 17.6481 75.5723 17.7761 74.975 17.7761ZM75.599 16.1121C76.0257 16.1121 76.383 16.0055 76.671 15.7921C76.9697 15.5788 77.1937 15.2641 77.343 14.8481C77.503 14.4215 77.583 13.9095 77.583 13.3121C77.583 12.7041 77.503 12.1921 77.343 11.7761C77.1937 11.3601 76.9697 11.0455 76.671 10.8321C76.383 10.6188 76.0257 10.5121 75.599 10.5121C74.9803 10.5121 74.4843 10.7628 74.111 11.2641C73.7483 11.7548 73.567 12.4375 73.567 13.3121C73.567 14.1655 73.7483 14.8481 74.111 15.3601C74.4843 15.8615 74.9803 16.1121 75.599 16.1121Z" fill="#00022A"/>
</svg>
