<svg width="364" height="56" viewBox="0 0 364 56" fill="none" xmlns="http://www.w3.org/2000/svg">
<mask id="path-1-inside-1_405_3885" fill="white">
<path d="M0 0H363.631V56H0V0Z"/>
</mask>
<path d="M0 0H363.631V56H0V0Z" fill="white"/>
<path d="M363.631 0H364.631V-1H363.631V0ZM363.631 56V57H364.631V56H363.631ZM0 1H363.631V-1H0V1ZM362.631 0V56H364.631V0H362.631ZM363.631 55H0V57H363.631V55Z" fill="#E6E6EF" mask="url(#path-1-inside-1_405_3885)"/>
<path d="M16 33.5841V22.2241H19.776C21.5893 22.2241 22.9813 22.7201 23.952 23.7121C24.9333 24.6935 25.424 26.0961 25.424 27.9201C25.424 29.7335 24.944 31.1308 23.984 32.1121C23.024 33.0935 21.6533 33.5841 19.872 33.5841H16ZM18.08 31.7761H19.776C20.96 31.7761 21.84 31.4561 22.416 30.8161C22.992 30.1761 23.28 29.2108 23.28 27.9201C23.28 26.6081 22.992 25.6321 22.416 24.9921C21.84 24.3521 20.96 24.0321 19.776 24.0321H18.08V31.7761Z" fill="#00022A"/>
<path d="M29.6287 33.7761C28.7327 33.7761 28.0127 33.5735 27.4688 33.1681C26.9247 32.7521 26.6528 32.1761 26.6528 31.4401C26.6528 30.7041 26.8821 30.1281 27.3407 29.7121C27.7994 29.2961 28.4981 28.9975 29.4368 28.8161L32.2688 28.2561C32.2688 27.6481 32.1301 27.1948 31.8528 26.8961C31.5754 26.5868 31.1648 26.4321 30.6208 26.4321C30.1301 26.4321 29.7408 26.5495 29.4528 26.7841C29.1754 27.0081 28.9834 27.3335 28.8767 27.7601L26.7968 27.6641C26.9674 26.7575 27.3834 26.0641 28.0448 25.5841C28.7061 25.0935 29.5648 24.8481 30.6208 24.8481C31.8368 24.8481 32.7541 25.1575 33.3728 25.7761C34.0021 26.3841 34.3167 27.2588 34.3167 28.4001V31.5041C34.3167 31.7281 34.3541 31.8828 34.4288 31.9681C34.5141 32.0535 34.6368 32.0961 34.7968 32.0961H35.0688V33.5841C35.0048 33.6055 34.8981 33.6215 34.7488 33.6321C34.6101 33.6428 34.4661 33.6481 34.3167 33.6481C33.9647 33.6481 33.6501 33.5948 33.3728 33.4881C33.0954 33.3708 32.8821 33.1735 32.7327 32.8961C32.5834 32.6081 32.5088 32.2188 32.5088 31.7281L32.6847 31.8561C32.5994 32.2295 32.4128 32.5655 32.1248 32.8641C31.8474 33.1521 31.4954 33.3761 31.0688 33.5361C30.6421 33.6961 30.1621 33.7761 29.6287 33.7761ZM30.0448 32.2881C30.5034 32.2881 30.8981 32.1975 31.2288 32.0161C31.5594 31.8348 31.8154 31.5841 31.9968 31.2641C32.1781 30.9441 32.2688 30.5655 32.2688 30.1281V29.6481L30.0608 30.0961C29.6021 30.1921 29.2714 30.3361 29.0688 30.5281C28.8768 30.7095 28.7808 30.9495 28.7808 31.2481C28.7808 31.5788 28.8874 31.8348 29.1007 32.0161C29.3248 32.1975 29.6394 32.2881 30.0448 32.2881Z" fill="#00022A"/>
<path d="M39.617 33.7761C38.7743 33.7761 38.065 33.6535 37.489 33.4081C36.9237 33.1628 36.4863 32.8215 36.177 32.3841C35.8677 31.9468 35.6917 31.4508 35.649 30.8961L37.745 30.8001C37.8197 31.2481 38.0063 31.5948 38.305 31.8401C38.6037 32.0855 39.0463 32.2081 39.633 32.2081C40.113 32.2081 40.4863 32.1335 40.753 31.9841C41.0303 31.8241 41.169 31.5788 41.169 31.2481C41.169 31.0561 41.121 30.8961 41.025 30.7681C40.929 30.6401 40.7477 30.5281 40.481 30.4321C40.2143 30.3361 39.8197 30.2401 39.297 30.1441C38.4223 29.9948 37.7343 29.8135 37.233 29.6001C36.7317 29.3761 36.3743 29.0988 36.161 28.7681C35.9583 28.4375 35.857 28.0268 35.857 27.5361C35.857 26.7361 36.161 26.0908 36.769 25.6001C37.3877 25.0988 38.289 24.8481 39.473 24.8481C40.241 24.8481 40.8863 24.9761 41.409 25.2321C41.9317 25.4775 42.337 25.8188 42.625 26.2561C42.9237 26.6828 43.1103 27.1735 43.185 27.7281L41.121 27.8241C41.0677 27.5361 40.9717 27.2855 40.833 27.0721C40.6943 26.8588 40.5077 26.6988 40.273 26.5921C40.0383 26.4748 39.761 26.4161 39.441 26.4161C38.961 26.4161 38.5983 26.5121 38.353 26.7041C38.1077 26.8961 37.985 27.1521 37.985 27.4721C37.985 27.6961 38.0383 27.8828 38.145 28.0321C38.2623 28.1815 38.449 28.3041 38.705 28.4001C38.961 28.4855 39.3023 28.5655 39.729 28.6401C40.625 28.7788 41.329 28.9601 41.841 29.1841C42.3637 29.3975 42.7317 29.6748 42.945 30.0161C43.169 30.3468 43.281 30.7468 43.281 31.2161C43.281 31.7601 43.1263 32.2241 42.817 32.6081C42.5183 32.9921 42.0917 33.2855 41.537 33.4881C40.993 33.6801 40.353 33.7761 39.617 33.7761Z" fill="#00022A"/>
<path d="M44.7194 33.5841V22.2241H46.7674V26.9921H46.5114C46.5967 26.5015 46.7674 26.1015 47.0234 25.7921C47.2794 25.4721 47.594 25.2375 47.9674 25.0881C48.3407 24.9281 48.7514 24.8481 49.1994 24.8481C49.8287 24.8481 50.3567 24.9868 50.7834 25.2641C51.2207 25.5308 51.546 25.9095 51.7594 26.4001C51.9834 26.8908 52.0954 27.4561 52.0954 28.0961V33.5841H50.0474V28.5921C50.0474 27.8988 49.93 27.3815 49.6954 27.0401C49.4607 26.6881 49.0927 26.5121 48.5914 26.5121C48.0367 26.5121 47.594 26.6935 47.2634 27.0561C46.9327 27.4188 46.7674 27.9468 46.7674 28.6401V33.5841H44.7194Z" fill="#00022A"/>
<path d="M58.6201 33.7761C58.0228 33.7761 57.5001 33.6481 57.0521 33.3921C56.6148 33.1361 56.2735 32.7788 56.0281 32.3201L55.9801 33.5841H54.0281V22.2241H56.0761V26.2561C56.3108 25.8615 56.6468 25.5308 57.0841 25.2641C57.5215 24.9868 58.0335 24.8481 58.6201 24.8481C59.3561 24.8481 59.9908 25.0348 60.5241 25.4081C61.0681 25.7708 61.4841 26.2881 61.7721 26.9601C62.0708 27.6215 62.2201 28.4055 62.2201 29.3121C62.2201 30.2188 62.0708 31.0081 61.7721 31.6801C61.4841 32.3415 61.0681 32.8588 60.5241 33.2321C59.9908 33.5948 59.3561 33.7761 58.6201 33.7761ZM58.1561 32.1121C58.7428 32.1121 59.2121 31.8668 59.5641 31.3761C59.9161 30.8748 60.0921 30.1868 60.0921 29.3121C60.0921 28.4268 59.9161 27.7388 59.5641 27.2481C59.2228 26.7575 58.7588 26.5121 58.1721 26.5121C57.7348 26.5121 57.3561 26.6241 57.0361 26.8481C56.7268 27.0615 56.4868 27.3761 56.3161 27.7921C56.1561 28.2081 56.0761 28.7148 56.0761 29.3121C56.0761 29.8881 56.1561 30.3895 56.3161 30.8161C56.4868 31.2321 56.7268 31.5521 57.0361 31.7761C57.3455 32.0001 57.7188 32.1121 58.1561 32.1121Z" fill="#00022A"/>
<path d="M67.3614 33.7761C66.5187 33.7761 65.7774 33.5948 65.1374 33.2321C64.508 32.8588 64.0174 32.3361 63.6654 31.6641C63.324 30.9921 63.1534 30.2081 63.1534 29.3121C63.1534 28.4055 63.324 27.6215 63.6654 26.9601C64.0174 26.2881 64.508 25.7708 65.1374 25.4081C65.7774 25.0348 66.5187 24.8481 67.3614 24.8481C68.204 24.8481 68.94 25.0348 69.5694 25.4081C70.1987 25.7708 70.684 26.2881 71.0254 26.9601C71.3774 27.6215 71.5534 28.4055 71.5534 29.3121C71.5534 30.2081 71.3774 30.9921 71.0254 31.6641C70.684 32.3361 70.1987 32.8588 69.5694 33.2321C68.94 33.5948 68.204 33.7761 67.3614 33.7761ZM67.3614 32.1121C68.0227 32.1121 68.5294 31.8668 68.8814 31.3761C69.244 30.8855 69.4254 30.1975 69.4254 29.3121C69.4254 28.4375 69.244 27.7548 68.8814 27.2641C68.5294 26.7628 68.0227 26.5121 67.3614 26.5121C66.7 26.5121 66.188 26.7628 65.8254 27.2641C65.4627 27.7548 65.2814 28.4375 65.2814 29.3121C65.2814 30.1975 65.4627 30.8855 65.8254 31.3761C66.188 31.8668 66.7 32.1121 67.3614 32.1121Z" fill="#00022A"/>
<path d="M75.5788 33.7761C74.6828 33.7761 73.9628 33.5735 73.4188 33.1681C72.8748 32.7521 72.6028 32.1761 72.6028 31.4401C72.6028 30.7041 72.8321 30.1281 73.2908 29.7121C73.7494 29.2961 74.4481 28.9975 75.3867 28.8161L78.2188 28.2561C78.2188 27.6481 78.0801 27.1948 77.8027 26.8961C77.5254 26.5868 77.1148 26.4321 76.5708 26.4321C76.0801 26.4321 75.6908 26.5495 75.4028 26.7841C75.1254 27.0081 74.9334 27.3335 74.8268 27.7601L72.7467 27.6641C72.9174 26.7575 73.3334 26.0641 73.9948 25.5841C74.6561 25.0935 75.5148 24.8481 76.5708 24.8481C77.7868 24.8481 78.7041 25.1575 79.3228 25.7761C79.9521 26.3841 80.2668 27.2588 80.2668 28.4001V31.5041C80.2668 31.7281 80.3041 31.8828 80.3788 31.9681C80.4641 32.0535 80.5868 32.0961 80.7467 32.0961H81.0188V33.5841C80.9548 33.6055 80.8481 33.6215 80.6988 33.6321C80.5601 33.6428 80.4161 33.6481 80.2668 33.6481C79.9148 33.6481 79.6001 33.5948 79.3228 33.4881C79.0454 33.3708 78.8321 33.1735 78.6828 32.8961C78.5334 32.6081 78.4588 32.2188 78.4588 31.7281L78.6348 31.8561C78.5494 32.2295 78.3628 32.5655 78.0748 32.8641C77.7974 33.1521 77.4454 33.3761 77.0188 33.5361C76.5921 33.6961 76.1121 33.7761 75.5788 33.7761ZM75.9948 32.2881C76.4534 32.2881 76.8481 32.1975 77.1788 32.0161C77.5094 31.8348 77.7654 31.5841 77.9468 31.2641C78.1281 30.9441 78.2188 30.5655 78.2188 30.1281V29.6481L76.0107 30.0961C75.5521 30.1921 75.2214 30.3361 75.0187 30.5281C74.8267 30.7095 74.7308 30.9495 74.7308 31.2481C74.7308 31.5788 74.8374 31.8348 75.0508 32.0161C75.2748 32.1975 75.5894 32.2881 75.9948 32.2881Z" fill="#00022A"/>
<path d="M82.1887 33.5841V25.0401H84.1087L84.1887 27.4081L84.0127 27.3761C84.1407 26.5548 84.3807 25.9628 84.7327 25.6001C85.0954 25.2268 85.5861 25.0401 86.2048 25.0401H86.9887V26.8001H86.1888C85.7514 26.8001 85.3887 26.8641 85.1007 26.9921C84.8127 27.1201 84.5941 27.3228 84.4447 27.6001C84.3061 27.8668 84.2367 28.2188 84.2367 28.6561V33.5841H82.1887Z" fill="#00022A"/>
<path d="M90.975 33.7761C90.2497 33.7761 89.6203 33.5948 89.087 33.2321C88.5643 32.8695 88.159 32.3521 87.871 31.6801C87.583 31.0081 87.439 30.2188 87.439 29.3121C87.439 28.4055 87.583 27.6161 87.871 26.9441C88.159 26.2721 88.5697 25.7548 89.103 25.3921C89.6363 25.0295 90.2603 24.8481 90.975 24.8481C91.5723 24.8481 92.095 24.9708 92.543 25.2161C93.0017 25.4615 93.3483 25.8081 93.583 26.2561V22.2241H95.631V33.5841H93.679L93.631 32.3201C93.3963 32.7788 93.0443 33.1361 92.575 33.3921C92.1057 33.6481 91.5723 33.7761 90.975 33.7761ZM91.599 32.1121C92.0257 32.1121 92.383 32.0055 92.671 31.7921C92.9697 31.5788 93.1937 31.2641 93.343 30.8481C93.503 30.4215 93.583 29.9095 93.583 29.3121C93.583 28.7041 93.503 28.1921 93.343 27.7761C93.1937 27.3601 92.9697 27.0455 92.671 26.8321C92.383 26.6188 92.0257 26.5121 91.599 26.5121C90.9803 26.5121 90.4843 26.7628 90.111 27.2641C89.7483 27.7548 89.567 28.4375 89.567 29.3121C89.567 30.1655 89.7483 30.8481 90.111 31.3601C90.4843 31.8615 90.9803 32.1121 91.599 32.1121Z" fill="#00022A"/>
<rect x="119.631" y="10" width="94" height="36" rx="7" fill="white"/>
<rect x="120.131" y="10.5" width="93" height="35" rx="6.5" stroke="#065AC7" stroke-opacity="0.2"/>
<path d="M131.639 33.0891C131.023 33.0891 130.477 32.9445 130.001 32.6551C129.525 32.3565 129.151 31.9458 128.881 31.4231C128.619 30.9005 128.484 30.2985 128.475 29.6171L129.707 29.5331C129.716 30.2985 129.889 30.8865 130.225 31.2971C130.561 31.7078 131.032 31.9131 131.639 31.9131C132.273 31.9131 132.759 31.6938 133.095 31.2551C133.44 30.8165 133.613 30.1958 133.613 29.3931V22.9251H134.817V29.3931C134.817 30.1491 134.686 30.8071 134.425 31.3671C134.163 31.9178 133.795 32.3425 133.319 32.6411C132.852 32.9398 132.292 33.0891 131.639 33.0891Z" fill="#00022A"/>
<path d="M138.872 33.0331C138.107 33.0331 137.495 32.8558 137.038 32.5011C136.59 32.1465 136.366 31.6518 136.366 31.0171C136.366 30.3825 136.553 29.8831 136.926 29.5191C137.299 29.1551 137.892 28.8985 138.704 28.7491L141.336 28.2591C141.336 27.6338 141.187 27.1671 140.888 26.8591C140.599 26.5511 140.16 26.3971 139.572 26.3971C139.059 26.3971 138.653 26.5138 138.354 26.7471C138.055 26.9711 137.85 27.2978 137.738 27.7271L136.492 27.6291C136.632 26.9291 136.968 26.3645 137.5 25.9351C138.041 25.4965 138.732 25.2771 139.572 25.2771C140.524 25.2771 141.252 25.5478 141.756 26.0891C142.26 26.6211 142.512 27.3585 142.512 28.3011V31.3671C142.512 31.5351 142.54 31.6565 142.596 31.7311C142.661 31.7965 142.764 31.8291 142.904 31.8291H143.198V32.8651C143.161 32.8745 143.1 32.8791 143.016 32.8791C142.932 32.8885 142.843 32.8931 142.75 32.8931C142.414 32.8931 142.139 32.8418 141.924 32.7391C141.719 32.6271 141.569 32.4591 141.476 32.2351C141.383 32.0018 141.336 31.6985 141.336 31.3251L141.476 31.3531C141.411 31.6705 141.252 31.9598 141 32.2211C140.748 32.4731 140.435 32.6738 140.062 32.8231C139.689 32.9631 139.292 33.0331 138.872 33.0331ZM138.984 31.9971C139.479 31.9971 139.899 31.9038 140.244 31.7171C140.599 31.5211 140.869 31.2598 141.056 30.9331C141.243 30.5971 141.336 30.2238 141.336 29.8131V29.2811L138.928 29.7291C138.424 29.8225 138.074 29.9671 137.878 30.1631C137.691 30.3498 137.598 30.5971 137.598 30.9051C137.598 31.2505 137.719 31.5211 137.962 31.7171C138.214 31.9038 138.555 31.9971 138.984 31.9971Z" fill="#00022A"/>
<path d="M147.061 33.0331C146.398 33.0331 145.834 32.9258 145.367 32.7111C144.91 32.4965 144.55 32.2025 144.289 31.8291C144.037 31.4465 143.892 31.0125 143.855 30.5271L145.087 30.4431C145.162 30.8911 145.353 31.2505 145.661 31.5211C145.969 31.7825 146.436 31.9131 147.061 31.9131C147.565 31.9131 147.966 31.8338 148.265 31.6751C148.573 31.5071 148.727 31.2411 148.727 30.8771C148.727 30.6811 148.68 30.5178 148.587 30.3871C148.494 30.2565 148.312 30.1445 148.041 30.0511C147.77 29.9485 147.369 29.8505 146.837 29.7571C146.128 29.6265 145.568 29.4678 145.157 29.2811C144.756 29.0851 144.466 28.8471 144.289 28.5671C144.121 28.2778 144.037 27.9371 144.037 27.5451C144.037 26.8825 144.28 26.3411 144.765 25.9211C145.25 25.4918 145.941 25.2771 146.837 25.2771C147.444 25.2771 147.952 25.3891 148.363 25.6131C148.783 25.8278 149.11 26.1171 149.343 26.4811C149.586 26.8358 149.744 27.2278 149.819 27.6571L148.587 27.7411C148.531 27.4798 148.428 27.2511 148.279 27.0551C148.13 26.8498 147.934 26.6911 147.691 26.5791C147.448 26.4578 147.159 26.3971 146.823 26.3971C146.291 26.3971 145.899 26.4998 145.647 26.7051C145.395 26.9105 145.269 27.1718 145.269 27.4891C145.269 27.7318 145.325 27.9325 145.437 28.0911C145.558 28.2405 145.75 28.3665 146.011 28.4691C146.272 28.5625 146.622 28.6465 147.061 28.7211C147.817 28.8518 148.405 29.0105 148.825 29.1971C149.245 29.3838 149.539 29.6125 149.707 29.8831C149.875 30.1538 149.959 30.4851 149.959 30.8771C149.959 31.3345 149.828 31.7265 149.567 32.0531C149.315 32.3705 148.97 32.6131 148.531 32.7811C148.102 32.9491 147.612 33.0331 147.061 33.0331Z" fill="#00022A"/>
<path d="M151.424 32.8651V25.4451H152.502L152.544 27.3211L152.376 27.2651C152.46 26.8545 152.605 26.5045 152.81 26.2151C153.025 25.9165 153.286 25.6878 153.594 25.5291C153.902 25.3611 154.243 25.2771 154.616 25.2771C155.26 25.2771 155.783 25.4545 156.184 25.8091C156.595 26.1638 156.851 26.6585 156.954 27.2931L156.73 27.2791C156.805 26.8498 156.94 26.4905 157.136 26.2011C157.341 25.9025 157.603 25.6738 157.92 25.5151C158.237 25.3565 158.601 25.2771 159.012 25.2771C159.544 25.2771 159.992 25.3891 160.356 25.6131C160.72 25.8278 160.995 26.1451 161.182 26.5651C161.369 26.9851 161.462 27.4938 161.462 28.0911V32.8651H160.286V28.3431C160.286 27.6711 160.155 27.1671 159.894 26.8311C159.633 26.4858 159.245 26.3131 158.732 26.3131C158.387 26.3131 158.083 26.3971 157.822 26.5651C157.57 26.7331 157.374 26.9758 157.234 27.2931C157.094 27.6011 157.024 27.9791 157.024 28.4271V32.8651H155.848V28.4271C155.848 27.7645 155.731 27.2465 155.498 26.8731C155.265 26.4998 154.873 26.3131 154.322 26.3131C153.977 26.3131 153.673 26.3971 153.412 26.5651C153.16 26.7331 152.959 26.9758 152.81 27.2931C152.67 27.6105 152.6 27.9885 152.6 28.4271V32.8651H151.424Z" fill="#00022A"/>
<path d="M163.425 32.8651V25.4451H164.601V32.8651H163.425ZM163.397 24.2831V22.9111H164.629V24.2831H163.397Z" fill="#00022A"/>
<path d="M166.839 32.8651V25.4451H167.917L167.959 27.3351L167.819 27.2091C167.913 26.7705 168.076 26.4111 168.309 26.1311C168.543 25.8418 168.823 25.6271 169.149 25.4871C169.485 25.3471 169.845 25.2771 170.227 25.2771C170.797 25.2771 171.263 25.4031 171.627 25.6551C172.001 25.9071 172.276 26.2478 172.453 26.6771C172.64 27.0971 172.733 27.5685 172.733 28.0911V32.8651H171.557V28.4271C171.557 27.9698 171.501 27.5871 171.389 27.2791C171.287 26.9618 171.119 26.7238 170.885 26.5651C170.652 26.3971 170.349 26.3131 169.975 26.3131C169.406 26.3131 168.935 26.4951 168.561 26.8591C168.197 27.2138 168.015 27.7365 168.015 28.4271V32.8651H166.839Z" fill="#00022A"/>
<path d="M177.568 33.0331C176.868 33.0331 176.261 32.8745 175.748 32.5571C175.244 32.2398 174.852 31.7918 174.572 31.2131C174.301 30.6251 174.166 29.9391 174.166 29.1551C174.166 28.3711 174.301 27.6898 174.572 27.1111C174.852 26.5325 175.239 26.0845 175.734 25.7671C176.238 25.4405 176.831 25.2771 177.512 25.2771C178.156 25.2771 178.725 25.4311 179.22 25.7391C179.715 26.0378 180.097 26.4765 180.368 27.0551C180.648 27.6338 180.788 28.3385 180.788 29.1691V29.5191H175.398C175.445 30.3125 175.655 30.9098 176.028 31.3111C176.411 31.7125 176.924 31.9131 177.568 31.9131C178.053 31.9131 178.45 31.8011 178.758 31.5771C179.075 31.3438 179.295 31.0405 179.416 30.6671L180.676 30.7651C180.48 31.4278 180.107 31.9738 179.556 32.4031C179.015 32.8231 178.352 33.0331 177.568 33.0331ZM175.398 28.4831H179.5C179.444 27.7645 179.234 27.2371 178.87 26.9011C178.515 26.5651 178.063 26.3971 177.512 26.3971C176.943 26.3971 176.471 26.5745 176.098 26.9291C175.734 27.2745 175.501 27.7925 175.398 28.4831Z" fill="#00022A"/>
<g clip-path="url(#clip0_405_3885)">
<path fill-rule="evenodd" clip-rule="evenodd" d="M198.103 30.4712C197.978 30.5962 197.809 30.6664 197.632 30.6664C197.455 30.6664 197.285 30.5962 197.16 30.4712L193.389 26.6999C193.325 26.6384 193.275 26.5648 193.24 26.4835C193.205 26.4022 193.186 26.3147 193.186 26.2262C193.185 26.1377 193.202 26.0499 193.235 25.9679C193.269 25.886 193.318 25.8116 193.381 25.749C193.443 25.6864 193.518 25.6369 193.6 25.6034C193.682 25.5698 193.769 25.553 193.858 25.5537C193.947 25.5545 194.034 25.5729 194.115 25.6078C194.197 25.6428 194.27 25.6936 194.332 25.7572L197.632 29.0572L200.932 25.7572C201.057 25.6358 201.226 25.5686 201.401 25.5701C201.575 25.5716 201.743 25.6418 201.866 25.7654C201.99 25.889 202.06 26.0562 202.062 26.231C202.063 26.4058 201.996 26.5742 201.874 26.6999L198.103 30.4712Z" fill="#065AC7"/>
</g>
<rect x="238.131" y="8.5" width="109" height="39" rx="6.5" stroke="#065AC7" stroke-opacity="0.2"/>
<rect x="241.631" y="12" width="38" height="32" rx="5" fill="#065AC7"/>
<path d="M254.181 34.5338C253.257 34.5338 252.459 34.3358 251.787 33.9398C251.115 33.5318 250.599 32.9738 250.239 32.2658C249.891 31.5458 249.711 30.7298 249.699 29.8178L252.057 29.6918C252.081 30.6278 252.273 31.3298 252.633 31.7978C253.005 32.2658 253.521 32.4998 254.181 32.4998C254.853 32.4998 255.375 32.2658 255.747 31.7978C256.119 31.3178 256.305 30.6158 256.305 29.6918V21.4658H258.645V29.6918C258.645 30.6758 258.459 31.5338 258.087 32.2658C257.715 32.9858 257.193 33.5438 256.521 33.9398C255.861 34.3358 255.081 34.5338 254.181 34.5338Z" fill="white"/>
<path d="M259.484 34.2458L264.092 21.4658H266.954L271.562 34.2458H269.114L268.052 31.2218H262.994L261.932 34.2458H259.484ZM263.678 29.2238H267.368L265.532 23.8238L263.678 29.2238Z" fill="white"/>
<path d="M292.152 33.1168C291.489 33.1168 290.906 32.9675 290.402 32.6688C289.907 32.3608 289.525 31.9408 289.254 31.4088C288.983 30.8675 288.843 30.2468 288.834 29.5468L290.374 29.4628C290.383 30.2095 290.542 30.7741 290.85 31.1568C291.158 31.5395 291.592 31.7308 292.152 31.7308C292.74 31.7308 293.188 31.5301 293.496 31.1288C293.813 30.7275 293.972 30.1488 293.972 29.3928V22.9528H295.484V29.3928C295.484 30.1488 295.344 30.8068 295.064 31.3668C294.793 31.9268 294.411 32.3608 293.916 32.6688C293.421 32.9675 292.833 33.1168 292.152 33.1168Z" fill="#626884"/>
<path d="M299.48 33.0608C298.705 33.0608 298.085 32.8835 297.618 32.5288C297.161 32.1741 296.932 31.6748 296.932 31.0308C296.932 30.3868 297.123 29.8875 297.506 29.5328C297.898 29.1688 298.5 28.9075 299.312 28.7488L301.874 28.2588C301.874 27.6801 301.739 27.2508 301.468 26.9708C301.197 26.6815 300.796 26.5368 300.264 26.5368C299.788 26.5368 299.415 26.6441 299.144 26.8588C298.873 27.0641 298.687 27.3721 298.584 27.7828L297.058 27.6848C297.198 26.9381 297.543 26.3501 298.094 25.9208C298.654 25.4915 299.377 25.2768 300.264 25.2768C301.272 25.2768 302.037 25.5475 302.56 26.0888C303.092 26.6208 303.358 27.3721 303.358 28.3428V31.2408C303.358 31.4181 303.386 31.5441 303.442 31.6188C303.507 31.6841 303.61 31.7168 303.75 31.7168H304.016V32.8928C303.969 32.9021 303.895 32.9115 303.792 32.9208C303.689 32.9301 303.582 32.9348 303.47 32.9348C303.153 32.9348 302.877 32.8835 302.644 32.7808C302.42 32.6781 302.252 32.5101 302.14 32.2768C302.028 32.0341 301.972 31.7121 301.972 31.3108L302.126 31.3808C302.051 31.7075 301.888 31.9968 301.636 32.2488C301.393 32.5008 301.081 32.7015 300.698 32.8508C300.325 32.9908 299.919 33.0608 299.48 33.0608ZM299.718 31.8848C300.166 31.8848 300.549 31.8008 300.866 31.6328C301.183 31.4555 301.431 31.2128 301.608 30.9048C301.785 30.5968 301.874 30.2468 301.874 29.8548V29.3788L299.69 29.7988C299.242 29.8828 298.925 30.0181 298.738 30.2048C298.561 30.3821 298.472 30.6108 298.472 30.8908C298.472 31.2081 298.579 31.4555 298.794 31.6328C299.018 31.8008 299.326 31.8848 299.718 31.8848Z" fill="#626884"/>
<path d="M307.944 33.0608C307.244 33.0608 306.652 32.9535 306.166 32.7388C305.69 32.5241 305.322 32.2301 305.06 31.8568C304.799 31.4741 304.65 31.0355 304.612 30.5408L306.138 30.4708C306.213 30.8815 306.39 31.2081 306.67 31.4508C306.95 31.6935 307.375 31.8148 307.944 31.8148C308.411 31.8148 308.78 31.7401 309.05 31.5908C309.321 31.4415 309.456 31.2035 309.456 30.8768C309.456 30.6995 309.41 30.5501 309.316 30.4288C309.232 30.2981 309.064 30.1908 308.812 30.1068C308.56 30.0135 308.187 29.9248 307.692 29.8408C306.955 29.7008 306.376 29.5375 305.956 29.3508C305.536 29.1641 305.238 28.9261 305.06 28.6368C304.883 28.3475 304.794 27.9975 304.794 27.5868C304.794 26.9055 305.046 26.3501 305.55 25.9208C306.064 25.4915 306.801 25.2768 307.762 25.2768C308.406 25.2768 308.948 25.3888 309.386 25.6128C309.825 25.8275 310.166 26.1215 310.408 26.4948C310.66 26.8588 310.819 27.2695 310.884 27.7268L309.358 27.8108C309.312 27.5495 309.218 27.3255 309.078 27.1388C308.948 26.9428 308.77 26.7935 308.546 26.6908C308.322 26.5788 308.056 26.5228 307.748 26.5228C307.272 26.5228 306.918 26.6161 306.684 26.8028C306.451 26.9895 306.334 27.2321 306.334 27.5308C306.334 27.7548 306.386 27.9368 306.488 28.0768C306.6 28.2168 306.778 28.3335 307.02 28.4268C307.263 28.5108 307.585 28.5855 307.986 28.6508C308.761 28.7815 309.368 28.9448 309.806 29.1408C310.245 29.3275 310.553 29.5608 310.73 29.8408C310.908 30.1208 310.996 30.4615 310.996 30.8628C310.996 31.3295 310.866 31.7261 310.604 32.0528C310.343 32.3795 309.984 32.6315 309.526 32.8088C309.069 32.9768 308.542 33.0608 307.944 33.0608Z" fill="#626884"/>
<path d="M312.358 32.8928V25.4448H313.716L313.758 27.2928L313.59 27.2368C313.674 26.8261 313.819 26.4761 314.024 26.1868C314.239 25.8975 314.5 25.6735 314.808 25.5148C315.116 25.3561 315.452 25.2768 315.816 25.2768C316.451 25.2768 316.969 25.4588 317.37 25.8228C317.771 26.1775 318.023 26.6675 318.126 27.2928H317.888C317.972 26.8541 318.112 26.4901 318.308 26.2008C318.513 25.9021 318.775 25.6735 319.092 25.5148C319.409 25.3561 319.769 25.2768 320.17 25.2768C320.693 25.2768 321.136 25.3888 321.5 25.6128C321.873 25.8275 322.153 26.1448 322.34 26.5648C322.536 26.9848 322.634 27.4981 322.634 28.1048V32.8928H321.15V28.4688C321.15 27.8248 321.033 27.3395 320.8 27.0128C320.567 26.6861 320.212 26.5228 319.736 26.5228C319.428 26.5228 319.157 26.6021 318.924 26.7608C318.691 26.9195 318.509 27.1481 318.378 27.4468C318.257 27.7455 318.196 28.1048 318.196 28.5248V32.8928H316.782V28.5248C316.782 27.8901 316.675 27.4001 316.46 27.0548C316.255 26.7001 315.9 26.5228 315.396 26.5228C315.079 26.5228 314.803 26.6021 314.57 26.7608C314.346 26.9195 314.169 27.1528 314.038 27.4608C313.907 27.7595 313.842 28.1141 313.842 28.5248V32.8928H312.358Z" fill="#626884"/>
<path d="M324.468 32.8928V25.4448H325.952V32.8928H324.468ZM324.44 24.3668V22.8828H325.98V24.3668H324.44Z" fill="#626884"/>
<path d="M328.033 32.8928V25.4448H329.391L329.447 27.4328L329.265 27.3348C329.349 26.8495 329.508 26.4575 329.741 26.1588C329.974 25.8601 330.259 25.6408 330.595 25.5008C330.931 25.3515 331.295 25.2768 331.687 25.2768C332.247 25.2768 332.709 25.4028 333.073 25.6548C333.446 25.8975 333.726 26.2335 333.913 26.6628C334.109 27.0828 334.207 27.5635 334.207 28.1048V32.8928H332.723V28.5528C332.723 28.1141 332.676 27.7455 332.583 27.4468C332.49 27.1481 332.336 26.9195 332.121 26.7608C331.906 26.6021 331.626 26.5228 331.281 26.5228C330.758 26.5228 330.334 26.6955 330.007 27.0408C329.68 27.3861 329.517 27.8901 329.517 28.5528V32.8928H328.033Z" fill="#626884"/>
<path d="M339.067 33.0608C338.339 33.0608 337.709 32.9021 337.177 32.5848C336.654 32.2675 336.248 31.8148 335.959 31.2268C335.679 30.6388 335.539 29.9528 335.539 29.1688C335.539 28.3848 335.679 27.7035 335.959 27.1248C336.248 26.5368 336.654 26.0841 337.177 25.7668C337.699 25.4401 338.315 25.2768 339.025 25.2768C339.697 25.2768 340.289 25.4355 340.803 25.7528C341.316 26.0608 341.713 26.5088 341.993 27.0968C342.282 27.6848 342.427 28.3941 342.427 29.2248V29.6028H337.079C337.116 30.3308 337.307 30.8768 337.653 31.2408C338.007 31.6048 338.483 31.7868 339.081 31.7868C339.519 31.7868 339.883 31.6841 340.173 31.4788C340.462 31.2735 340.663 30.9981 340.775 30.6528L342.315 30.7508C342.119 31.4415 341.731 32.0015 341.153 32.4308C340.583 32.8508 339.888 33.0608 339.067 33.0608ZM337.079 28.4828H340.859C340.812 27.8201 340.621 27.3301 340.285 27.0128C339.958 26.6955 339.538 26.5368 339.025 26.5368C338.493 26.5368 338.054 26.7048 337.709 27.0408C337.373 27.3675 337.163 27.8481 337.079 28.4828Z" fill="#626884"/>
<defs>
<clipPath id="clip0_405_3885">
<rect width="16" height="16" fill="white" transform="translate(189.631 20)"/>
</clipPath>
</defs>
</svg>
