<svg width="228" height="40" viewBox="0 0 228 40" fill="none" xmlns="http://www.w3.org/2000/svg">
<rect y="2" width="94" height="36" rx="7" fill="white"/>
<rect x="0.5" y="2.5" width="93" height="35" rx="6.5" stroke="#065AC7" stroke-opacity="0.2"/>
<path d="M12.0078 25.0891C11.3918 25.0891 10.8458 24.9445 10.3698 24.6551C9.89375 24.3565 9.52042 23.9458 9.24975 23.4231C8.98842 22.9005 8.85308 22.2985 8.84375 21.6171L10.0757 21.5331C10.0851 22.2985 10.2578 22.8865 10.5938 23.2971C10.9298 23.7078 11.4011 23.9131 12.0078 23.9131C12.6424 23.9131 13.1278 23.6938 13.4638 23.2551C13.8091 22.8165 13.9818 22.1958 13.9818 21.3931V14.9251H15.1858V21.3931C15.1858 22.1491 15.0551 22.8071 14.7938 23.3671C14.5324 23.9178 14.1638 24.3425 13.6878 24.6411C13.2211 24.9398 12.6611 25.0891 12.0078 25.0891Z" fill="#00022A"/>
<path d="M19.2413 25.0331C18.4759 25.0331 17.8646 24.8558 17.4073 24.5011C16.9593 24.1465 16.7353 23.6518 16.7353 23.0171C16.7353 22.3825 16.9219 21.8831 17.2953 21.5191C17.6686 21.1551 18.2613 20.8985 19.0733 20.7491L21.7053 20.2591C21.7053 19.6338 21.5559 19.1671 21.2573 18.8591C20.9679 18.5511 20.5293 18.3971 19.9413 18.3971C19.4279 18.3971 19.0219 18.5138 18.7233 18.7471C18.4246 18.9711 18.2193 19.2978 18.1073 19.7271L16.8613 19.6291C17.0013 18.9291 17.3373 18.3645 17.8693 17.9351C18.4106 17.4965 19.1013 17.2771 19.9413 17.2771C20.8933 17.2771 21.6213 17.5478 22.1253 18.0891C22.6293 18.6211 22.8813 19.3585 22.8813 20.3011V23.3671C22.8813 23.5351 22.9093 23.6565 22.9653 23.7311C23.0306 23.7965 23.1333 23.8291 23.2733 23.8291H23.5673V24.8651C23.5299 24.8745 23.4693 24.8791 23.3853 24.8791C23.3013 24.8885 23.2126 24.8931 23.1193 24.8931C22.7833 24.8931 22.5079 24.8418 22.2933 24.7391C22.0879 24.6271 21.9386 24.4591 21.8453 24.2351C21.7519 24.0018 21.7053 23.6985 21.7053 23.3251L21.8453 23.3531C21.7799 23.6705 21.6213 23.9598 21.3693 24.2211C21.1173 24.4731 20.8046 24.6738 20.4313 24.8231C20.0579 24.9631 19.6613 25.0331 19.2413 25.0331ZM19.3533 23.9971C19.8479 23.9971 20.2679 23.9038 20.6133 23.7171C20.9679 23.5211 21.2386 23.2598 21.4253 22.9331C21.6119 22.5971 21.7053 22.2238 21.7053 21.8131V21.2811L19.2973 21.7291C18.7933 21.8225 18.4433 21.9671 18.2473 22.1631C18.0606 22.3498 17.9673 22.5971 17.9673 22.9051C17.9673 23.2505 18.0886 23.5211 18.3313 23.7171C18.5833 23.9038 18.9239 23.9971 19.3533 23.9971Z" fill="#00022A"/>
<path d="M27.4302 25.0331C26.7675 25.0331 26.2028 24.9258 25.7362 24.7111C25.2788 24.4965 24.9195 24.2025 24.6582 23.8291C24.4062 23.4465 24.2615 23.0125 24.2242 22.5271L25.4562 22.4431C25.5308 22.8911 25.7222 23.2505 26.0302 23.5211C26.3382 23.7825 26.8048 23.9131 27.4302 23.9131C27.9342 23.9131 28.3355 23.8338 28.6342 23.6751C28.9422 23.5071 29.0962 23.2411 29.0962 22.8771C29.0962 22.6811 29.0495 22.5178 28.9562 22.3871C28.8628 22.2565 28.6808 22.1445 28.4102 22.0511C28.1395 21.9485 27.7382 21.8505 27.2062 21.7571C26.4968 21.6265 25.9368 21.4678 25.5262 21.2811C25.1248 21.0851 24.8355 20.8471 24.6582 20.5671C24.4902 20.2778 24.4062 19.9371 24.4062 19.5451C24.4062 18.8825 24.6488 18.3411 25.1342 17.9211C25.6195 17.4918 26.3102 17.2771 27.2062 17.2771C27.8128 17.2771 28.3215 17.3891 28.7322 17.6131C29.1522 17.8278 29.4788 18.1171 29.7122 18.4811C29.9548 18.8358 30.1135 19.2278 30.1882 19.6571L28.9562 19.7411C28.9002 19.4798 28.7975 19.2511 28.6482 19.0551C28.4988 18.8498 28.3028 18.6911 28.0602 18.5791C27.8175 18.4578 27.5282 18.3971 27.1922 18.3971C26.6602 18.3971 26.2682 18.4998 26.0162 18.7051C25.7642 18.9105 25.6382 19.1718 25.6382 19.4891C25.6382 19.7318 25.6942 19.9325 25.8062 20.0911C25.9275 20.2405 26.1188 20.3665 26.3802 20.4691C26.6415 20.5625 26.9915 20.6465 27.4302 20.7211C28.1862 20.8518 28.7742 21.0105 29.1942 21.1971C29.6142 21.3838 29.9082 21.6125 30.0762 21.8831C30.2442 22.1538 30.3282 22.4851 30.3282 22.8771C30.3282 23.3345 30.1975 23.7265 29.9362 24.0531C29.6842 24.3705 29.3388 24.6131 28.9002 24.7811C28.4708 24.9491 27.9808 25.0331 27.4302 25.0331Z" fill="#00022A"/>
<path d="M31.7932 24.8651V17.4451H32.8713L32.9132 19.3211L32.7453 19.2651C32.8293 18.8545 32.9739 18.5045 33.1793 18.2151C33.3939 17.9165 33.6552 17.6878 33.9632 17.5291C34.2712 17.3611 34.6119 17.2771 34.9853 17.2771C35.6293 17.2771 36.1519 17.4545 36.5532 17.8091C36.9639 18.1638 37.2206 18.6585 37.3232 19.2931L37.0993 19.2791C37.1739 18.8498 37.3093 18.4905 37.5053 18.2011C37.7106 17.9025 37.9719 17.6738 38.2892 17.5151C38.6066 17.3565 38.9706 17.2771 39.3813 17.2771C39.9133 17.2771 40.3612 17.3891 40.7253 17.6131C41.0892 17.8278 41.3646 18.1451 41.5513 18.5651C41.7379 18.9851 41.8312 19.4938 41.8312 20.0911V24.8651H40.6553V20.3431C40.6553 19.6711 40.5246 19.1671 40.2633 18.8311C40.0019 18.4858 39.6146 18.3131 39.1013 18.3131C38.7559 18.3131 38.4526 18.3971 38.1912 18.5651C37.9393 18.7331 37.7433 18.9758 37.6033 19.2931C37.4633 19.6011 37.3932 19.9791 37.3932 20.4271V24.8651H36.2173V20.4271C36.2173 19.7645 36.1006 19.2465 35.8673 18.8731C35.6339 18.4998 35.2419 18.3131 34.6912 18.3131C34.3459 18.3131 34.0426 18.3971 33.7812 18.5651C33.5292 18.7331 33.3286 18.9758 33.1793 19.2931C33.0393 19.6105 32.9692 19.9885 32.9692 20.4271V24.8651H31.7932Z" fill="#00022A"/>
<path d="M43.7939 24.8651V17.4451H44.9699V24.8651H43.7939ZM43.7659 16.2831V14.9111H44.9979V16.2831H43.7659Z" fill="#00022A"/>
<path d="M47.2086 24.8651V17.4451H48.2866L48.3286 19.3351L48.1886 19.2091C48.2819 18.7705 48.4452 18.4111 48.6786 18.1311C48.9119 17.8418 49.1919 17.6271 49.5186 17.4871C49.8546 17.3471 50.2139 17.2771 50.5966 17.2771C51.1659 17.2771 51.6326 17.4031 51.9966 17.6551C52.3699 17.9071 52.6452 18.2478 52.8226 18.6771C53.0092 19.0971 53.1026 19.5685 53.1026 20.0911V24.8651H51.9266V20.4271C51.9266 19.9698 51.8706 19.5871 51.7586 19.2791C51.6559 18.9618 51.4879 18.7238 51.2546 18.5651C51.0212 18.3971 50.7179 18.3131 50.3446 18.3131C49.7752 18.3131 49.3039 18.4951 48.9306 18.8591C48.5666 19.2138 48.3846 19.7365 48.3846 20.4271V24.8651H47.2086Z" fill="#00022A"/>
<path d="M57.9373 25.0331C57.2373 25.0331 56.6306 24.8745 56.1173 24.5571C55.6133 24.2398 55.2213 23.7918 54.9413 23.2131C54.6706 22.6251 54.5353 21.9391 54.5353 21.1551C54.5353 20.3711 54.6706 19.6898 54.9413 19.1111C55.2213 18.5325 55.6086 18.0845 56.1033 17.7671C56.6073 17.4405 57.1999 17.2771 57.8813 17.2771C58.5253 17.2771 59.0946 17.4311 59.5893 17.7391C60.0839 18.0378 60.4666 18.4765 60.7373 19.0551C61.0173 19.6338 61.1573 20.3385 61.1573 21.1691V21.5191H55.7673C55.8139 22.3125 56.0239 22.9098 56.3973 23.3111C56.7799 23.7125 57.2933 23.9131 57.9373 23.9131C58.4226 23.9131 58.8193 23.8011 59.1273 23.5771C59.4446 23.3438 59.6639 23.0405 59.7853 22.6671L61.0453 22.7651C60.8493 23.4278 60.4759 23.9738 59.9253 24.4031C59.3839 24.8231 58.7213 25.0331 57.9373 25.0331ZM55.7673 20.4831H59.8693C59.8133 19.7645 59.6033 19.2371 59.2393 18.9011C58.8846 18.5651 58.4319 18.3971 57.8813 18.3971C57.3119 18.3971 56.8406 18.5745 56.4673 18.9291C56.1033 19.2745 55.8699 19.7925 55.7673 20.4831Z" fill="#00022A"/>
<g clip-path="url(#clip0_405_3888)">
<path fill-rule="evenodd" clip-rule="evenodd" d="M78.4722 22.4712C78.3472 22.5962 78.1777 22.6664 78.0009 22.6664C77.8241 22.6664 77.6546 22.5962 77.5295 22.4712L73.7582 18.6999C73.6945 18.6384 73.6438 18.5648 73.6088 18.4835C73.5739 18.4022 73.5555 18.3147 73.5547 18.2262C73.5539 18.1377 73.5708 18.0499 73.6043 17.9679C73.6379 17.886 73.6874 17.8116 73.7499 17.749C73.8125 17.6864 73.887 17.6369 73.9689 17.6034C74.0508 17.5698 74.1386 17.553 74.2271 17.5537C74.3157 17.5545 74.4031 17.5729 74.4845 17.6078C74.5658 17.6428 74.6394 17.6936 74.7009 17.7572L78.0009 21.0572L81.3009 17.7572C81.4266 17.6358 81.595 17.5686 81.7698 17.5701C81.9446 17.5716 82.1118 17.6418 82.2354 17.7654C82.359 17.889 82.4291 18.0562 82.4307 18.231C82.4322 18.4058 82.365 18.5742 82.2435 18.6999L78.4722 22.4712Z" fill="#065AC7"/>
</g>
<rect x="118.5" y="0.5" width="109" height="39" rx="6.5" stroke="#065AC7" stroke-opacity="0.2"/>
<rect x="122" y="4" width="38" height="32" rx="5" fill="#065AC7"/>
<path d="M134.55 26.5338C133.626 26.5338 132.828 26.3358 132.156 25.9398C131.484 25.5318 130.968 24.9738 130.608 24.2658C130.26 23.5458 130.08 22.7298 130.068 21.8178L132.426 21.6918C132.45 22.6278 132.642 23.3298 133.002 23.7978C133.374 24.2658 133.89 24.4998 134.55 24.4998C135.222 24.4998 135.744 24.2658 136.116 23.7978C136.488 23.3178 136.674 22.6158 136.674 21.6918V13.4658H139.014V21.6918C139.014 22.6758 138.828 23.5338 138.456 24.2658C138.084 24.9858 137.562 25.5438 136.89 25.9398C136.23 26.3358 135.45 26.5338 134.55 26.5338Z" fill="white"/>
<path d="M139.853 26.2458L144.461 13.4658H147.323L151.931 26.2458H149.483L148.421 23.2218H143.363L142.301 26.2458H139.853ZM144.047 21.2238H147.737L145.901 15.8238L144.047 21.2238Z" fill="white"/>
<path d="M172.521 25.1168C171.858 25.1168 171.275 24.9675 170.771 24.6688C170.276 24.3608 169.894 23.9408 169.623 23.4088C169.352 22.8675 169.212 22.2468 169.203 21.5468L170.743 21.4628C170.752 22.2095 170.911 22.7741 171.219 23.1568C171.527 23.5395 171.961 23.7308 172.521 23.7308C173.109 23.7308 173.557 23.5301 173.865 23.1288C174.182 22.7275 174.341 22.1488 174.341 21.3928V14.9528H175.853V21.3928C175.853 22.1488 175.713 22.8068 175.433 23.3668C175.162 23.9268 174.78 24.3608 174.285 24.6688C173.79 24.9675 173.202 25.1168 172.521 25.1168Z" fill="#626884"/>
<path d="M179.849 25.0608C179.074 25.0608 178.454 24.8835 177.987 24.5288C177.53 24.1741 177.301 23.6748 177.301 23.0308C177.301 22.3868 177.492 21.8875 177.875 21.5328C178.267 21.1688 178.869 20.9075 179.681 20.7488L182.243 20.2588C182.243 19.6801 182.108 19.2508 181.837 18.9708C181.566 18.6815 181.165 18.5368 180.633 18.5368C180.157 18.5368 179.784 18.6441 179.513 18.8588C179.242 19.0641 179.056 19.3721 178.953 19.7828L177.427 19.6848C177.567 18.9381 177.912 18.3501 178.463 17.9208C179.023 17.4915 179.746 17.2768 180.633 17.2768C181.641 17.2768 182.406 17.5475 182.929 18.0888C183.461 18.6208 183.727 19.3721 183.727 20.3428V23.2408C183.727 23.4181 183.755 23.5441 183.811 23.6188C183.876 23.6841 183.979 23.7168 184.119 23.7168H184.385V24.8928C184.338 24.9021 184.264 24.9115 184.161 24.9208C184.058 24.9301 183.951 24.9348 183.839 24.9348C183.522 24.9348 183.246 24.8835 183.013 24.7808C182.789 24.6781 182.621 24.5101 182.509 24.2768C182.397 24.0341 182.341 23.7121 182.341 23.3108L182.495 23.3808C182.42 23.7075 182.257 23.9968 182.005 24.2488C181.762 24.5008 181.45 24.7015 181.067 24.8508C180.694 24.9908 180.288 25.0608 179.849 25.0608ZM180.087 23.8848C180.535 23.8848 180.918 23.8008 181.235 23.6328C181.552 23.4555 181.8 23.2128 181.977 22.9048C182.154 22.5968 182.243 22.2468 182.243 21.8548V21.3788L180.059 21.7988C179.611 21.8828 179.294 22.0181 179.107 22.2048C178.93 22.3821 178.841 22.6108 178.841 22.8908C178.841 23.2081 178.948 23.4555 179.163 23.6328C179.387 23.8008 179.695 23.8848 180.087 23.8848Z" fill="#626884"/>
<path d="M188.313 25.0608C187.613 25.0608 187.021 24.9535 186.535 24.7388C186.059 24.5241 185.691 24.2301 185.429 23.8568C185.168 23.4741 185.019 23.0355 184.981 22.5408L186.507 22.4708C186.582 22.8815 186.759 23.2081 187.039 23.4508C187.319 23.6935 187.744 23.8148 188.313 23.8148C188.78 23.8148 189.149 23.7401 189.419 23.5908C189.69 23.4415 189.825 23.2035 189.825 22.8768C189.825 22.6995 189.779 22.5501 189.685 22.4288C189.601 22.2981 189.433 22.1908 189.181 22.1068C188.929 22.0135 188.556 21.9248 188.061 21.8408C187.324 21.7008 186.745 21.5375 186.325 21.3508C185.905 21.1641 185.607 20.9261 185.429 20.6368C185.252 20.3475 185.163 19.9975 185.163 19.5868C185.163 18.9055 185.415 18.3501 185.919 17.9208C186.433 17.4915 187.17 17.2768 188.131 17.2768C188.775 17.2768 189.317 17.3888 189.755 17.6128C190.194 17.8275 190.535 18.1215 190.777 18.4948C191.029 18.8588 191.188 19.2695 191.253 19.7268L189.727 19.8108C189.681 19.5495 189.587 19.3255 189.447 19.1388C189.317 18.9428 189.139 18.7935 188.915 18.6908C188.691 18.5788 188.425 18.5228 188.117 18.5228C187.641 18.5228 187.287 18.6161 187.053 18.8028C186.82 18.9895 186.703 19.2321 186.703 19.5308C186.703 19.7548 186.755 19.9368 186.857 20.0768C186.969 20.2168 187.147 20.3335 187.389 20.4268C187.632 20.5108 187.954 20.5855 188.355 20.6508C189.13 20.7815 189.737 20.9448 190.175 21.1408C190.614 21.3275 190.922 21.5608 191.099 21.8408C191.277 22.1208 191.365 22.4615 191.365 22.8628C191.365 23.3295 191.235 23.7261 190.973 24.0528C190.712 24.3795 190.353 24.6315 189.895 24.8088C189.438 24.9768 188.911 25.0608 188.313 25.0608Z" fill="#626884"/>
<path d="M192.727 24.8928V17.4448H194.085L194.127 19.2928L193.959 19.2368C194.043 18.8261 194.188 18.4761 194.393 18.1868C194.608 17.8975 194.869 17.6735 195.177 17.5148C195.485 17.3561 195.821 17.2768 196.185 17.2768C196.82 17.2768 197.338 17.4588 197.739 17.8228C198.141 18.1775 198.393 18.6675 198.495 19.2928H198.257C198.341 18.8541 198.481 18.4901 198.677 18.2008C198.883 17.9021 199.144 17.6735 199.461 17.5148C199.779 17.3561 200.138 17.2768 200.539 17.2768C201.062 17.2768 201.505 17.3888 201.869 17.6128C202.243 17.8275 202.523 18.1448 202.709 18.5648C202.905 18.9848 203.003 19.4981 203.003 20.1048V24.8928H201.519V20.4688C201.519 19.8248 201.403 19.3395 201.169 19.0128C200.936 18.6861 200.581 18.5228 200.105 18.5228C199.797 18.5228 199.527 18.6021 199.293 18.7608C199.06 18.9195 198.878 19.1481 198.747 19.4468C198.626 19.7455 198.565 20.1048 198.565 20.5248V24.8928H197.151V20.5248C197.151 19.8901 197.044 19.4001 196.829 19.0548C196.624 18.7001 196.269 18.5228 195.765 18.5228C195.448 18.5228 195.173 18.6021 194.939 18.7608C194.715 18.9195 194.538 19.1528 194.407 19.4608C194.277 19.7595 194.211 20.1141 194.211 20.5248V24.8928H192.727Z" fill="#626884"/>
<path d="M204.837 24.8928V17.4448H206.321V24.8928H204.837ZM204.809 16.3668V14.8828H206.349V16.3668H204.809Z" fill="#626884"/>
<path d="M208.402 24.8928V17.4448H209.76L209.816 19.4328L209.634 19.3348C209.718 18.8495 209.877 18.4575 210.11 18.1588C210.344 17.8601 210.628 17.6408 210.964 17.5008C211.3 17.3515 211.664 17.2768 212.056 17.2768C212.616 17.2768 213.078 17.4028 213.442 17.6548C213.816 17.8975 214.096 18.2335 214.282 18.6628C214.478 19.0828 214.576 19.5635 214.576 20.1048V24.8928H213.092V20.5528C213.092 20.1141 213.046 19.7455 212.952 19.4468C212.859 19.1481 212.705 18.9195 212.49 18.7608C212.276 18.6021 211.996 18.5228 211.65 18.5228C211.128 18.5228 210.703 18.6955 210.376 19.0408C210.05 19.3861 209.886 19.8901 209.886 20.5528V24.8928H208.402Z" fill="#626884"/>
<path d="M219.436 25.0608C218.708 25.0608 218.078 24.9021 217.546 24.5848C217.023 24.2675 216.617 23.8148 216.328 23.2268C216.048 22.6388 215.908 21.9528 215.908 21.1688C215.908 20.3848 216.048 19.7035 216.328 19.1248C216.617 18.5368 217.023 18.0841 217.546 17.7668C218.068 17.4401 218.684 17.2768 219.394 17.2768C220.066 17.2768 220.658 17.4355 221.172 17.7528C221.685 18.0608 222.082 18.5088 222.362 19.0968C222.651 19.6848 222.796 20.3941 222.796 21.2248V21.6028H217.448C217.485 22.3308 217.676 22.8768 218.022 23.2408C218.376 23.6048 218.852 23.7868 219.45 23.7868C219.888 23.7868 220.252 23.6841 220.542 23.4788C220.831 23.2735 221.032 22.9981 221.144 22.6528L222.684 22.7508C222.488 23.4415 222.1 24.0015 221.522 24.4308C220.952 24.8508 220.257 25.0608 219.436 25.0608ZM217.448 20.4828H221.228C221.181 19.8201 220.99 19.3301 220.654 19.0128C220.327 18.6955 219.907 18.5368 219.394 18.5368C218.862 18.5368 218.423 18.7048 218.078 19.0408C217.742 19.3675 217.532 19.8481 217.448 20.4828Z" fill="#626884"/>
<defs>
<clipPath id="clip0_405_3888">
<rect width="16" height="16" fill="white" transform="translate(70 12)"/>
</clipPath>
</defs>
</svg>
