<svg width="208" height="336" viewBox="0 0 208 336" fill="none" xmlns="http://www.w3.org/2000/svg">
<rect x="8" y="8" width="192" height="40" rx="5" fill="#065AC7" fill-opacity="0.1"/>
<path d="M31.2682 28.8748H29.0078C28.7081 28.8745 28.4206 28.9931 28.2082 29.2044C27.9959 29.4158 27.876 29.7028 27.8749 30.0024V32.2628C27.8748 32.4116 27.904 32.559 27.9609 32.6965C28.0177 32.834 28.1012 32.959 28.2064 33.0642C28.3116 33.1694 28.4366 33.2529 28.5741 33.3098C28.7116 33.3666 28.859 33.3958 29.0078 33.3957H31.2682C31.5677 33.3944 31.8545 33.2745 32.0658 33.0622C32.277 32.8498 32.3955 32.5624 32.3952 32.2628V30.0024C32.3953 29.8544 32.3663 29.7078 32.3097 29.571C32.2531 29.4342 32.1701 29.3099 32.0654 29.2052C31.9608 29.1005 31.8365 29.0175 31.6996 28.9609C31.5628 28.9043 31.4162 28.8753 31.2682 28.8754M24.9909 28.8748H22.7305C22.431 28.8765 22.1444 28.9967 21.9332 29.2091C21.722 29.4214 21.6035 29.7088 21.6035 30.0083V32.2687C21.6034 32.4167 21.6324 32.5633 21.689 32.7001C21.7456 32.8369 21.8286 32.9612 21.9333 33.0659C22.0379 33.1706 22.1622 33.2536 22.2991 33.3102C22.4359 33.3668 22.5825 33.3958 22.7305 33.3957H24.9909C25.2905 33.396 25.5779 33.2775 25.7903 33.0663C26.0026 32.855 26.1225 32.5682 26.1238 32.2687V30.0083C26.1239 29.8594 26.0947 29.7121 26.0378 29.5746C25.981 29.437 25.8975 29.3121 25.7923 29.2069C25.6871 29.1017 25.5621 29.0182 25.4246 28.9613C25.2871 28.9045 25.1397 28.8753 24.9909 28.8754M24.9909 22.604H22.7305C22.5825 22.6039 22.4359 22.6329 22.2991 22.6895C22.1622 22.7461 22.0379 22.8291 21.9333 22.9338C21.8286 23.0384 21.7456 23.1627 21.689 23.2995C21.6324 23.4363 21.6034 23.583 21.6035 23.731V25.9914C21.6032 26.291 21.7217 26.5784 21.9329 26.7907C22.1442 27.0031 22.431 27.123 22.7305 27.1243H24.9909C25.1397 27.1244 25.2871 27.0952 25.4246 27.0383C25.5621 26.9815 25.6871 26.898 25.7923 26.7928C25.8975 26.6876 25.981 26.5626 26.0378 26.4251C26.0947 26.2876 26.1239 26.1402 26.1238 25.9914V23.731C26.1225 23.4315 26.0026 23.1447 25.7903 22.9334C25.5779 22.7221 25.2905 22.6037 24.9909 22.604ZM31.2682 22.604H29.0078C28.7082 22.6037 28.4208 22.7221 28.2084 22.9334C27.9961 23.1447 27.8762 23.4315 27.8749 23.731V25.9914C27.8751 26.2918 27.9945 26.5799 28.2069 26.7923C28.4193 27.0047 28.7074 27.1241 29.0078 27.1243H31.2682C31.5677 27.123 31.8545 27.0031 32.0658 26.7907C32.277 26.5784 32.3955 26.291 32.3952 25.9914V23.731C32.3953 23.583 32.3663 23.4363 32.3097 23.2995C32.2531 23.1627 32.1701 23.0384 32.0654 22.9338C31.9608 22.8291 31.8365 22.7461 31.6996 22.6895C31.5628 22.6329 31.4162 22.6039 31.2682 22.604Z" stroke="#065AC7" stroke-width="0.875" stroke-linecap="round" stroke-linejoin="round"/>
<path d="M42 32.188V23.668H44.736C46.072 23.668 47.1 24.04 47.82 24.784C48.54 25.52 48.9 26.572 48.9 27.94C48.9 29.3 48.544 30.348 47.832 31.084C47.128 31.82 46.12 32.188 44.808 32.188H42ZM43.296 31H44.736C45.68 31 46.384 30.748 46.848 30.244C47.32 29.732 47.556 28.964 47.556 27.94C47.556 26.9 47.32 26.128 46.848 25.624C46.384 25.112 45.68 24.856 44.736 24.856H43.296V31Z" fill="#065AC7"/>
<path d="M52.0907 32.332C51.4267 32.332 50.8947 32.18 50.4947 31.876C50.1027 31.572 49.9067 31.144 49.9067 30.592C49.9067 30.04 50.0707 29.612 50.3987 29.308C50.7347 28.996 51.2507 28.772 51.9467 28.636L54.1427 28.216C54.1427 27.72 54.0267 27.352 53.7947 27.112C53.5627 26.864 53.2187 26.74 52.7627 26.74C52.3547 26.74 52.0347 26.832 51.8027 27.016C51.5707 27.192 51.4107 27.456 51.3227 27.808L50.0147 27.724C50.1347 27.084 50.4307 26.58 50.9027 26.212C51.3827 25.844 52.0027 25.66 52.7627 25.66C53.6267 25.66 54.2827 25.892 54.7307 26.356C55.1867 26.812 55.4147 27.456 55.4147 28.288V30.772C55.4147 30.924 55.4387 31.032 55.4867 31.096C55.5427 31.152 55.6307 31.18 55.7507 31.18H55.9787V32.188C55.9387 32.196 55.8747 32.204 55.7867 32.212C55.6987 32.22 55.6067 32.224 55.5107 32.224C55.2387 32.224 55.0027 32.18 54.8027 32.092C54.6107 32.004 54.4667 31.86 54.3707 31.66C54.2747 31.452 54.2267 31.176 54.2267 30.832L54.3587 30.892C54.2947 31.172 54.1547 31.42 53.9387 31.636C53.7307 31.852 53.4627 32.024 53.1347 32.152C52.8147 32.272 52.4667 32.332 52.0907 32.332ZM52.2947 31.324C52.6787 31.324 53.0067 31.252 53.2787 31.108C53.5507 30.956 53.7627 30.748 53.9147 30.484C54.0667 30.22 54.1427 29.92 54.1427 29.584V29.176L52.2707 29.536C51.8867 29.608 51.6147 29.724 51.4547 29.884C51.3027 30.036 51.2267 30.232 51.2267 30.472C51.2267 30.744 51.3187 30.956 51.5027 31.108C51.6947 31.252 51.9587 31.324 52.2947 31.324Z" fill="#065AC7"/>
<path d="M59.3458 32.332C58.7458 32.332 58.2378 32.24 57.8218 32.056C57.4138 31.872 57.0978 31.62 56.8738 31.3C56.6498 30.972 56.5218 30.596 56.4898 30.172L57.7978 30.112C57.8618 30.464 58.0138 30.744 58.2538 30.952C58.4938 31.16 58.8578 31.264 59.3458 31.264C59.7458 31.264 60.0618 31.2 60.2938 31.072C60.5258 30.944 60.6418 30.74 60.6418 30.46C60.6418 30.308 60.6018 30.18 60.5218 30.076C60.4498 29.964 60.3058 29.872 60.0898 29.8C59.8738 29.72 59.5538 29.644 59.1298 29.572C58.4978 29.452 58.0018 29.312 57.6418 29.152C57.2818 28.992 57.0258 28.788 56.8738 28.54C56.7218 28.292 56.6458 27.992 56.6458 27.64C56.6458 27.056 56.8618 26.58 57.2938 26.212C57.7338 25.844 58.3658 25.66 59.1898 25.66C59.7418 25.66 60.2058 25.756 60.5818 25.948C60.9578 26.132 61.2498 26.384 61.4578 26.704C61.6738 27.016 61.8098 27.368 61.8658 27.76L60.5578 27.832C60.5178 27.608 60.4378 27.416 60.3178 27.256C60.2058 27.088 60.0538 26.96 59.8618 26.872C59.6698 26.776 59.4418 26.728 59.1778 26.728C58.7698 26.728 58.4658 26.808 58.2658 26.968C58.0658 27.128 57.9658 27.336 57.9658 27.592C57.9658 27.784 58.0098 27.94 58.0978 28.06C58.1938 28.18 58.3458 28.28 58.5538 28.36C58.7618 28.432 59.0378 28.496 59.3818 28.552C60.0458 28.664 60.5658 28.804 60.9418 28.972C61.3178 29.132 61.5818 29.332 61.7338 29.572C61.8858 29.812 61.9618 30.104 61.9618 30.448C61.9618 30.848 61.8498 31.188 61.6258 31.468C61.4018 31.748 61.0938 31.964 60.7018 32.116C60.3098 32.26 59.8578 32.332 59.3458 32.332Z" fill="#065AC7"/>
<path d="M63.1291 32.188V23.668H64.4011V27.244L64.2451 27.22C64.3171 26.86 64.4491 26.568 64.6411 26.344C64.8331 26.112 65.0691 25.94 65.3491 25.828C65.6291 25.716 65.9371 25.66 66.2731 25.66C66.7371 25.66 67.1291 25.764 67.4491 25.972C67.7691 26.172 68.0091 26.456 68.1691 26.824C68.3371 27.192 68.4211 27.612 68.4211 28.084V32.188H67.1491V28.42C67.1491 27.844 67.0491 27.42 66.8491 27.148C66.6571 26.868 66.3531 26.728 65.9371 26.728C65.4731 26.728 65.1011 26.876 64.8211 27.172C64.5411 27.46 64.4011 27.884 64.4011 28.444V32.188H63.1291Z" fill="#065AC7"/>
<path d="M73.1618 32.332C72.7218 32.332 72.3298 32.236 71.9858 32.044C71.6498 31.844 71.3897 31.572 71.2057 31.228L71.1698 32.188H69.9818V23.668H71.2537V26.704C71.4217 26.424 71.6698 26.18 71.9978 25.972C72.3338 25.764 72.7218 25.66 73.1618 25.66C73.7138 25.66 74.1937 25.796 74.6017 26.068C75.0097 26.34 75.3218 26.728 75.5378 27.232C75.7618 27.728 75.8738 28.316 75.8738 28.996C75.8738 29.676 75.7618 30.268 75.5378 30.772C75.3218 31.268 75.0097 31.652 74.6017 31.924C74.1937 32.196 73.7138 32.332 73.1618 32.332ZM72.9578 31.228C73.4458 31.228 73.8337 31.032 74.1217 30.64C74.4097 30.24 74.5537 29.692 74.5537 28.996C74.5537 28.3 74.4097 27.756 74.1217 27.364C73.8337 26.964 73.4498 26.764 72.9698 26.764C72.6098 26.764 72.3017 26.852 72.0457 27.028C71.7897 27.204 71.5938 27.46 71.4578 27.796C71.3218 28.124 71.2537 28.524 71.2537 28.996C71.2537 29.452 71.3218 29.848 71.4578 30.184C71.5938 30.52 71.7897 30.78 72.0457 30.964C72.3017 31.14 72.6058 31.228 72.9578 31.228Z" fill="#065AC7"/>
<path d="M79.6733 32.332C79.0653 32.332 78.5333 32.196 78.0773 31.924C77.6213 31.652 77.2693 31.264 77.0213 30.76C76.7733 30.256 76.6493 29.668 76.6493 28.996C76.6493 28.316 76.7733 27.728 77.0213 27.232C77.2693 26.736 77.6213 26.352 78.0773 26.08C78.5333 25.8 79.0653 25.66 79.6733 25.66C80.2813 25.66 80.8133 25.8 81.2693 26.08C81.7253 26.352 82.0773 26.736 82.3253 27.232C82.5733 27.728 82.6973 28.316 82.6973 28.996C82.6973 29.668 82.5733 30.256 82.3253 30.76C82.0773 31.264 81.7253 31.652 81.2693 31.924C80.8133 32.196 80.2813 32.332 79.6733 32.332ZM79.6733 31.228C80.2173 31.228 80.6373 31.032 80.9333 30.64C81.2293 30.24 81.3773 29.692 81.3773 28.996C81.3773 28.3 81.2293 27.756 80.9333 27.364C80.6373 26.964 80.2173 26.764 79.6733 26.764C79.1373 26.764 78.7173 26.964 78.4133 27.364C78.1173 27.756 77.9693 28.3 77.9693 28.996C77.9693 29.692 78.1173 30.24 78.4133 30.64C78.7173 31.032 79.1373 31.228 79.6733 31.228Z" fill="#065AC7"/>
<path d="M85.7797 32.332C85.1157 32.332 84.5838 32.18 84.1838 31.876C83.7918 31.572 83.5957 31.144 83.5957 30.592C83.5957 30.04 83.7597 29.612 84.0877 29.308C84.4237 28.996 84.9397 28.772 85.6357 28.636L87.8317 28.216C87.8317 27.72 87.7157 27.352 87.4837 27.112C87.2517 26.864 86.9077 26.74 86.4517 26.74C86.0437 26.74 85.7237 26.832 85.4917 27.016C85.2597 27.192 85.0997 27.456 85.0117 27.808L83.7038 27.724C83.8238 27.084 84.1197 26.58 84.5917 26.212C85.0717 25.844 85.6917 25.66 86.4517 25.66C87.3157 25.66 87.9718 25.892 88.4198 26.356C88.8758 26.812 89.1037 27.456 89.1037 28.288V30.772C89.1037 30.924 89.1278 31.032 89.1758 31.096C89.2318 31.152 89.3198 31.18 89.4398 31.18H89.6677V32.188C89.6277 32.196 89.5638 32.204 89.4757 32.212C89.3878 32.22 89.2957 32.224 89.1997 32.224C88.9277 32.224 88.6917 32.18 88.4917 32.092C88.2997 32.004 88.1557 31.86 88.0597 31.66C87.9637 31.452 87.9157 31.176 87.9157 30.832L88.0477 30.892C87.9837 31.172 87.8438 31.42 87.6278 31.636C87.4198 31.852 87.1517 32.024 86.8237 32.152C86.5037 32.272 86.1557 32.332 85.7797 32.332ZM85.9837 31.324C86.3677 31.324 86.6958 31.252 86.9678 31.108C87.2398 30.956 87.4517 30.748 87.6037 30.484C87.7557 30.22 87.8317 29.92 87.8317 29.584V29.176L85.9597 29.536C85.5757 29.608 85.3037 29.724 85.1437 29.884C84.9917 30.036 84.9157 30.232 84.9157 30.472C84.9157 30.744 85.0077 30.956 85.1917 31.108C85.3837 31.252 85.6477 31.324 85.9837 31.324Z" fill="#065AC7"/>
<path d="M90.6217 32.188V25.804H91.7858L91.8338 27.496L91.7257 27.46C91.8137 26.884 91.9897 26.464 92.2537 26.2C92.5257 25.936 92.8897 25.804 93.3457 25.804H93.9577V26.944H93.3457C93.0257 26.944 92.7578 26.996 92.5418 27.1C92.3258 27.204 92.1618 27.364 92.0498 27.58C91.9458 27.796 91.8937 28.076 91.8937 28.42V32.188H90.6217Z" fill="#065AC7"/>
<path d="M97.0119 32.332C96.4679 32.332 95.9919 32.196 95.5839 31.924C95.1839 31.652 94.8759 31.268 94.6599 30.772C94.4519 30.268 94.3479 29.676 94.3479 28.996C94.3479 28.316 94.4559 27.728 94.6719 27.232C94.8879 26.728 95.1959 26.34 95.5959 26.068C95.9959 25.796 96.4679 25.66 97.0119 25.66C97.4519 25.66 97.8439 25.752 98.1879 25.936C98.5319 26.12 98.7919 26.376 98.9679 26.704V23.668H100.24V32.188H99.0519L99.0159 31.228C98.8399 31.572 98.5719 31.844 98.2119 32.044C97.8599 32.236 97.4599 32.332 97.0119 32.332ZM97.3479 31.228C97.6919 31.228 97.9839 31.14 98.2239 30.964C98.4639 30.788 98.6479 30.532 98.7759 30.196C98.9039 29.86 98.9679 29.46 98.9679 28.996C98.9679 28.516 98.9039 28.112 98.7759 27.784C98.6479 27.448 98.4639 27.196 98.2239 27.028C97.9839 26.852 97.6919 26.764 97.3479 26.764C96.8359 26.764 96.4279 26.964 96.1239 27.364C95.8199 27.756 95.6679 28.3 95.6679 28.996C95.6679 29.684 95.8199 30.228 96.1239 30.628C96.4279 31.028 96.8359 31.228 97.3479 31.228Z" fill="#065AC7"/>
<rect x="8" y="56" width="192" height="40" rx="5" fill="white"/>
<path d="M26.9947 78.3333H26.9999M26.9947 76.5833V73.6667M27.1802 70.75H26.8185C25.3975 70.75 24.687 70.75 24.106 71.0726C23.5244 71.3946 23.1797 71.9797 22.4896 73.1504L22.1454 73.7337C21.4927 74.8415 21.166 75.3951 21.166 76C21.166 76.6049 21.4927 77.1585 22.146 78.2662L22.4896 78.8496C23.1797 80.0203 23.5244 80.6054 24.1054 80.928C24.687 81.25 25.3975 81.25 26.8179 81.25H27.1808C28.6012 81.25 29.3117 81.25 29.8933 80.928C30.4743 80.6054 30.819 80.0203 31.5091 78.8496L31.8533 78.2662C32.506 77.1585 32.8327 76.6049 32.8327 76C32.8327 75.3951 32.506 74.8415 31.8527 73.7337L31.5091 73.1504C30.819 71.9797 30.4743 71.3946 29.8933 71.0726C29.3117 70.75 28.6012 70.75 27.1802 70.75Z" stroke="#00022A" stroke-width="0.875" stroke-linecap="round" stroke-linejoin="round"/>
<path d="M45.456 79.6481C44.776 79.6481 44.184 79.5241 43.68 79.2761C43.184 79.0281 42.792 78.6841 42.504 78.2441C42.216 77.8041 42.048 77.2921 42 76.7081L43.332 76.6241C43.388 77.0241 43.504 77.3641 43.68 77.6441C43.856 77.9161 44.092 78.1241 44.388 78.2681C44.692 78.4041 45.056 78.4721 45.48 78.4721C45.848 78.4721 46.16 78.4281 46.416 78.3401C46.68 78.2441 46.88 78.1041 47.016 77.9201C47.152 77.7361 47.22 77.5121 47.22 77.2481C47.22 77.0081 47.16 76.7961 47.04 76.6121C46.928 76.4201 46.708 76.2481 46.38 76.0961C46.06 75.9361 45.588 75.7801 44.964 75.6281C44.284 75.4601 43.74 75.2761 43.332 75.0761C42.924 74.8761 42.628 74.6281 42.444 74.3321C42.268 74.0281 42.18 73.6561 42.18 73.2161C42.18 72.7281 42.296 72.3001 42.528 71.9321C42.768 71.5561 43.108 71.2641 43.548 71.0561C43.988 70.8481 44.516 70.7441 45.132 70.7441C45.78 70.7441 46.332 70.8641 46.788 71.1041C47.252 71.3441 47.616 71.6721 47.88 72.0881C48.152 72.5041 48.32 72.9801 48.384 73.5161L47.052 73.5881C47.012 73.2601 46.912 72.9721 46.752 72.7241C46.592 72.4681 46.376 72.2721 46.104 72.1361C45.832 71.9921 45.5 71.9201 45.108 71.9201C44.612 71.9201 44.22 72.0361 43.932 72.2681C43.652 72.4921 43.512 72.7921 43.512 73.1681C43.512 73.4081 43.568 73.6121 43.68 73.7801C43.8 73.9401 44.008 74.0801 44.304 74.2001C44.608 74.3201 45.036 74.4481 45.588 74.5841C46.324 74.7521 46.908 74.9601 47.34 75.2081C47.78 75.4481 48.092 75.7321 48.276 76.0601C48.46 76.3881 48.552 76.7601 48.552 77.1761C48.552 77.6801 48.42 78.1201 48.156 78.4961C47.9 78.8641 47.54 79.1481 47.076 79.3481C46.612 79.5481 46.072 79.6481 45.456 79.6481Z" fill="#00022A"/>
<path d="M49.9836 81.2561V73.0721H51.1836L51.2196 74.4401L51.0756 74.3681C51.2356 73.8961 51.4996 73.5401 51.8676 73.3001C52.2356 73.0521 52.6596 72.9281 53.1396 72.9281C53.7636 72.9281 54.2756 73.0841 54.6756 73.3961C55.0836 73.7001 55.3836 74.1041 55.5756 74.6081C55.7756 75.1121 55.8756 75.6641 55.8756 76.2641C55.8756 76.8641 55.7756 77.4161 55.5756 77.9201C55.3836 78.4241 55.0836 78.8321 54.6756 79.1441C54.2756 79.4481 53.7636 79.6001 53.1396 79.6001C52.8196 79.6001 52.5196 79.5441 52.2396 79.4321C51.9596 79.3201 51.7196 79.1641 51.5196 78.9641C51.3276 78.7561 51.1916 78.5121 51.1116 78.2321L51.2556 78.0881V81.2561H49.9836ZM52.9116 78.4961C53.4236 78.4961 53.8236 78.3001 54.1116 77.9081C54.4076 77.5161 54.5556 76.9681 54.5556 76.2641C54.5556 75.5601 54.4076 75.0121 54.1116 74.6201C53.8236 74.2281 53.4236 74.0321 52.9116 74.0321C52.5756 74.0321 52.2836 74.1161 52.0356 74.2841C51.7876 74.4441 51.5956 74.6921 51.4596 75.0281C51.3236 75.3641 51.2556 75.7761 51.2556 76.2641C51.2556 76.7521 51.3196 77.1641 51.4476 77.5001C51.5836 77.8361 51.7756 78.0881 52.0236 78.2561C52.2796 78.4161 52.5756 78.4961 52.9116 78.4961Z" fill="#00022A"/>
<path d="M58.9641 79.6001C58.3001 79.6001 57.7681 79.4481 57.3681 79.1441C56.9761 78.8401 56.7801 78.4121 56.7801 77.8601C56.7801 77.3081 56.9441 76.8801 57.2721 76.5761C57.6081 76.2641 58.1241 76.0401 58.8201 75.9041L61.0161 75.4841C61.0161 74.9881 60.9001 74.6201 60.6681 74.3801C60.4361 74.1321 60.0921 74.0081 59.6361 74.0081C59.2281 74.0081 58.9081 74.1001 58.6761 74.2841C58.4441 74.4601 58.2841 74.7241 58.1961 75.0761L56.8881 74.9921C57.0081 74.3521 57.3041 73.8481 57.7761 73.4801C58.2561 73.1121 58.8761 72.9281 59.6361 72.9281C60.5001 72.9281 61.1561 73.1601 61.6041 73.6241C62.0601 74.0801 62.2881 74.7241 62.2881 75.5561V78.0401C62.2881 78.1921 62.3121 78.3001 62.3601 78.3641C62.4161 78.4201 62.5041 78.4481 62.6241 78.4481H62.8521V79.4561C62.8121 79.4641 62.7481 79.4721 62.6601 79.4801C62.5721 79.4881 62.4801 79.4921 62.3841 79.4921C62.1121 79.4921 61.8761 79.4481 61.6761 79.3601C61.4841 79.2721 61.3401 79.1281 61.2441 78.9281C61.1481 78.7201 61.1001 78.4441 61.1001 78.1001L61.2321 78.1601C61.1681 78.4401 61.0281 78.6881 60.8121 78.9041C60.6041 79.1201 60.3361 79.2921 60.0081 79.4201C59.6881 79.5401 59.3401 79.6001 58.9641 79.6001ZM59.1681 78.5921C59.5521 78.5921 59.8801 78.5201 60.1521 78.3761C60.4241 78.2241 60.6361 78.0161 60.7881 77.7521C60.9401 77.4881 61.0161 77.1881 61.0161 76.8521V76.4441L59.1441 76.8041C58.7601 76.8761 58.4881 76.9921 58.3281 77.1521C58.1761 77.3041 58.1001 77.5001 58.1001 77.7401C58.1001 78.0121 58.1921 78.2241 58.3761 78.3761C58.5681 78.5201 58.8321 78.5921 59.1681 78.5921Z" fill="#00022A"/>
<path d="M63.8061 79.4561V73.0721H64.9701L65.0061 74.6561L64.8621 74.6081C64.9341 74.2561 65.0581 73.9561 65.2341 73.7081C65.4181 73.4601 65.6421 73.2681 65.9061 73.1321C66.1701 72.9961 66.4581 72.9281 66.7701 72.9281C67.3141 72.9281 67.7581 73.0841 68.1021 73.3961C68.4461 73.7001 68.6621 74.1201 68.7501 74.6561H68.5461C68.6181 74.2801 68.7381 73.9681 68.9061 73.7201C69.0821 73.4641 69.3061 73.2681 69.5781 73.1321C69.8501 72.9961 70.1581 72.9281 70.5021 72.9281C70.9501 72.9281 71.3301 73.0241 71.6421 73.2161C71.9621 73.4001 72.2021 73.6721 72.3621 74.0321C72.5301 74.3921 72.6141 74.8321 72.6141 75.3521V79.4561H71.3421V75.6641C71.3421 75.1121 71.2421 74.6961 71.0421 74.4161C70.8421 74.1361 70.5381 73.9961 70.1301 73.9961C69.8661 73.9961 69.6341 74.0641 69.4341 74.2001C69.2341 74.3361 69.0781 74.5321 68.9661 74.7881C68.8621 75.0441 68.8101 75.3521 68.8101 75.7121V79.4561H67.5981V75.7121C67.5981 75.1681 67.5061 74.7481 67.3221 74.4521C67.1461 74.1481 66.8421 73.9961 66.4101 73.9961C66.1381 73.9961 65.9021 74.0641 65.7021 74.2001C65.5101 74.3361 65.3581 74.5361 65.2461 74.8001C65.1341 75.0561 65.0781 75.3601 65.0781 75.7121V79.4561H63.8061Z" fill="#00022A"/>
<path d="M78.9132 79.4561L76.6572 70.9361H78.0372L79.6932 77.6681L81.3492 70.9361H82.6692L84.3252 77.6681L85.9692 70.9361H87.3732L85.1052 79.4561H83.5932L82.0092 73.2401L80.4252 79.4561H78.9132Z" fill="#00022A"/>
<path d="M89.7848 79.6001C89.1208 79.6001 88.5888 79.4481 88.1888 79.1441C87.7968 78.8401 87.6008 78.4121 87.6008 77.8601C87.6008 77.3081 87.7648 76.8801 88.0928 76.5761C88.4288 76.2641 88.9448 76.0401 89.6408 75.9041L91.8368 75.4841C91.8368 74.9881 91.7208 74.6201 91.4888 74.3801C91.2568 74.1321 90.9128 74.0081 90.4568 74.0081C90.0488 74.0081 89.7288 74.1001 89.4968 74.2841C89.2648 74.4601 89.1048 74.7241 89.0168 75.0761L87.7088 74.9921C87.8288 74.3521 88.1248 73.8481 88.5968 73.4801C89.0768 73.1121 89.6968 72.9281 90.4568 72.9281C91.3208 72.9281 91.9768 73.1601 92.4248 73.6241C92.8808 74.0801 93.1088 74.7241 93.1088 75.5561V78.0401C93.1088 78.1921 93.1328 78.3001 93.1808 78.3641C93.2368 78.4201 93.3248 78.4481 93.4448 78.4481H93.6728V79.4561C93.6328 79.4641 93.5688 79.4721 93.4808 79.4801C93.3928 79.4881 93.3008 79.4921 93.2048 79.4921C92.9328 79.4921 92.6968 79.4481 92.4968 79.3601C92.3048 79.2721 92.1608 79.1281 92.0648 78.9281C91.9688 78.7201 91.9208 78.4441 91.9208 78.1001L92.0528 78.1601C91.9888 78.4401 91.8488 78.6881 91.6328 78.9041C91.4248 79.1201 91.1568 79.2921 90.8288 79.4201C90.5088 79.5401 90.1608 79.6001 89.7848 79.6001ZM89.9888 78.5921C90.3728 78.5921 90.7008 78.5201 90.9728 78.3761C91.2448 78.2241 91.4568 78.0161 91.6088 77.7521C91.7608 77.4881 91.8368 77.1881 91.8368 76.8521V76.4441L89.9648 76.8041C89.5808 76.8761 89.3088 76.9921 89.1488 77.1521C88.9968 77.3041 88.9208 77.5001 88.9208 77.7401C88.9208 78.0121 89.0128 78.2241 89.1968 78.3761C89.3888 78.5201 89.6528 78.5921 89.9888 78.5921Z" fill="#00022A"/>
<path d="M96.7467 79.4561C96.1387 79.4561 95.6907 79.3161 95.4027 79.0361C95.1147 78.7561 94.9707 78.3201 94.9707 77.7281V71.5721H96.2427V77.6321C96.2427 77.9281 96.3067 78.1321 96.4347 78.2441C96.5627 78.3561 96.7587 78.4121 97.0227 78.4121H97.9347V79.4561H96.7467ZM93.9987 74.1161V73.0721H97.9347V74.1161H93.9987Z" fill="#00022A"/>
<path d="M101.553 79.6001C100.945 79.6001 100.413 79.4641 99.9568 79.1921C99.5008 78.9201 99.1488 78.5321 98.9008 78.0281C98.6528 77.5241 98.5288 76.9361 98.5288 76.2641C98.5288 75.5921 98.6528 75.0081 98.9008 74.5121C99.1488 74.0081 99.5008 73.6201 99.9568 73.3481C100.413 73.0681 100.945 72.9281 101.553 72.9281C102.073 72.9281 102.533 73.0201 102.933 73.2041C103.341 73.3801 103.669 73.6401 103.917 73.9841C104.173 74.3281 104.337 74.7481 104.409 75.2441L103.077 75.3161C103.013 74.9001 102.845 74.5841 102.573 74.3681C102.301 74.1441 101.961 74.0321 101.553 74.0321C101.017 74.0321 100.597 74.2321 100.293 74.6321C99.9968 75.0241 99.8488 75.5681 99.8488 76.2641C99.8488 76.9601 99.9968 77.5081 100.293 77.9081C100.597 78.3001 101.017 78.4961 101.553 78.4961C101.961 78.4961 102.301 78.3841 102.573 78.1601C102.845 77.9281 103.013 77.5801 103.077 77.1161L104.409 77.1881C104.337 77.6761 104.173 78.1001 103.917 78.4601C103.669 78.8201 103.341 79.1001 102.933 79.3001C102.533 79.5001 102.073 79.6001 101.553 79.6001Z" fill="#00022A"/>
<path d="M105.449 79.4561V70.9361H106.721V74.5121L106.565 74.4881C106.637 74.1281 106.769 73.8361 106.961 73.6121C107.153 73.3801 107.389 73.2081 107.669 73.0961C107.949 72.9841 108.257 72.9281 108.593 72.9281C109.057 72.9281 109.449 73.0321 109.769 73.2401C110.089 73.4401 110.329 73.7241 110.489 74.0921C110.657 74.4601 110.741 74.8801 110.741 75.3521V79.4561H109.469V75.6881C109.469 75.1121 109.369 74.6881 109.169 74.4161C108.977 74.1361 108.673 73.9961 108.257 73.9961C107.793 73.9961 107.421 74.1441 107.141 74.4401C106.861 74.7281 106.721 75.1521 106.721 75.7121V79.4561H105.449Z" fill="#00022A"/>
<rect x="8" y="104" width="192" height="40" rx="5" fill="white"/>
<path d="M24.084 121.375L25.8002 122.39C26.8006 122.981 27.2002 122.981 28.2012 122.39L29.9173 121.375" stroke="#00022A" stroke-width="0.875" stroke-linecap="round" stroke-linejoin="round"/>
<path d="M26.9998 128.375C26.4363 128.375 25.874 128.368 25.3076 128.353C23.4706 128.307 22.5525 128.285 21.8927 127.622C21.233 126.96 21.2137 126.066 21.1752 124.278C21.1629 123.704 21.1629 123.13 21.1752 122.556C21.2137 120.768 21.233 119.873 21.8927 119.211C22.5525 118.549 23.4706 118.526 25.3076 118.48C26.4355 118.451 27.5641 118.451 28.6921 118.48C30.529 118.526 31.4471 118.549 32.1069 119.211C32.7666 119.873 32.7859 120.768 32.8244 122.556C32.8302 122.843 32.8331 122.839 32.8331 123.125" stroke="#00022A" stroke-width="0.875" stroke-linecap="round" stroke-linejoin="round"/>
<path d="M29.7646 126.145V125.334C29.7646 125.214 29.7693 125.093 29.8125 124.981C29.9262 124.684 30.2295 124.293 30.7808 124.293C31.3315 124.293 31.6465 124.684 31.7608 124.981C31.8034 125.093 31.8086 125.215 31.8086 125.334V126.145M29.8049 129.542H31.78C32.3616 129.542 32.833 129.071 32.833 128.491V127.324C32.833 126.743 32.3616 126.272 31.78 126.272H29.8049C29.2233 126.272 28.752 126.743 28.752 127.323V128.491C28.752 129.071 29.2233 129.542 29.8049 129.542Z" stroke="#00022A" stroke-width="0.875" stroke-linecap="round" stroke-linejoin="round"/>
<path d="M42 128.218V119.698H47.544V120.886H43.296V123.37H47.4V124.522H43.296V127.03H47.64V128.218H42Z" fill="#00022A"/>
<path d="M49.0605 128.218V121.834H50.2245L50.2605 123.418L50.1165 123.37C50.1885 123.018 50.3125 122.718 50.4885 122.47C50.6725 122.222 50.8965 122.03 51.1605 121.894C51.4245 121.758 51.7125 121.69 52.0245 121.69C52.5685 121.69 53.0125 121.846 53.3565 122.158C53.7005 122.462 53.9165 122.882 54.0045 123.418H53.8005C53.8725 123.042 53.9925 122.73 54.1605 122.482C54.3365 122.226 54.5605 122.03 54.8325 121.894C55.1045 121.758 55.4125 121.69 55.7565 121.69C56.2045 121.69 56.5845 121.786 56.8965 121.978C57.2165 122.162 57.4565 122.434 57.6165 122.794C57.7845 123.154 57.8685 123.594 57.8685 124.114V128.218H56.5965V124.426C56.5965 123.874 56.4965 123.458 56.2965 123.178C56.0965 122.898 55.7925 122.758 55.3845 122.758C55.1205 122.758 54.8885 122.826 54.6885 122.962C54.4885 123.098 54.3325 123.294 54.2205 123.55C54.1165 123.806 54.0645 124.114 54.0645 124.474V128.218H52.8525V124.474C52.8525 123.93 52.7605 123.51 52.5765 123.214C52.4005 122.91 52.0965 122.758 51.6645 122.758C51.3925 122.758 51.1565 122.826 50.9565 122.962C50.7645 123.098 50.6125 123.298 50.5005 123.562C50.3885 123.818 50.3325 124.122 50.3325 124.474V128.218H49.0605Z" fill="#00022A"/>
<path d="M61.2168 128.362C60.5528 128.362 60.0208 128.21 59.6208 127.906C59.2288 127.602 59.0328 127.174 59.0328 126.622C59.0328 126.07 59.1968 125.642 59.5248 125.338C59.8608 125.026 60.3768 124.802 61.0728 124.666L63.2688 124.246C63.2688 123.75 63.1528 123.382 62.9208 123.142C62.6888 122.894 62.3448 122.77 61.8888 122.77C61.4808 122.77 61.1608 122.862 60.9288 123.046C60.6968 123.222 60.5368 123.486 60.4488 123.838L59.1408 123.754C59.2608 123.114 59.5568 122.61 60.0288 122.242C60.5088 121.874 61.1288 121.69 61.8888 121.69C62.7528 121.69 63.4088 121.922 63.8568 122.386C64.3128 122.842 64.5408 123.486 64.5408 124.318V126.802C64.5408 126.954 64.5648 127.062 64.6128 127.126C64.6688 127.182 64.7568 127.21 64.8768 127.21H65.1048V128.218C65.0648 128.226 65.0008 128.234 64.9128 128.242C64.8248 128.25 64.7328 128.254 64.6368 128.254C64.3648 128.254 64.1288 128.21 63.9288 128.122C63.7368 128.034 63.5928 127.89 63.4968 127.69C63.4008 127.482 63.3528 127.206 63.3528 126.862L63.4848 126.922C63.4208 127.202 63.2808 127.45 63.0648 127.666C62.8568 127.882 62.5888 128.054 62.2608 128.182C61.9408 128.302 61.5928 128.362 61.2168 128.362ZM61.4208 127.354C61.8048 127.354 62.1328 127.282 62.4048 127.138C62.6768 126.986 62.8888 126.778 63.0408 126.514C63.1928 126.25 63.2688 125.95 63.2688 125.614V125.206L61.3968 125.566C61.0128 125.638 60.7408 125.754 60.5808 125.914C60.4288 126.066 60.3528 126.262 60.3528 126.502C60.3528 126.774 60.4448 126.986 60.6288 127.138C60.8208 127.282 61.0848 127.354 61.4208 127.354Z" fill="#00022A"/>
<path d="M66.0002 128.218V121.834H67.2722V128.218H66.0002ZM65.9762 120.91V119.638H67.2962V120.91H65.9762Z" fill="#00022A"/>
<path d="M70.2488 128.218C69.8328 128.218 69.4968 128.11 69.2408 127.894C68.9848 127.678 68.8568 127.334 68.8568 126.862V119.698H70.1287V126.742C70.1287 126.886 70.1647 126.994 70.2367 127.066C70.3167 127.138 70.4288 127.174 70.5728 127.174H71.0767V128.218H70.2488Z" fill="#00022A"/>
<path d="M74.2614 128.218L77.3334 119.698H78.9774L82.0494 128.218H80.6694L79.8894 125.998H76.4094L75.6414 128.218H74.2614ZM76.8174 124.822H79.4934L78.1494 120.934L76.8174 124.822Z" fill="#00022A"/>
<path d="M84.9288 128.362C84.2888 128.362 83.7768 128.15 83.3928 127.726C83.0168 127.294 82.8288 126.698 82.8288 125.938V121.834H84.1008V125.614C84.1008 126.19 84.2008 126.614 84.4008 126.886C84.6008 127.158 84.9048 127.294 85.3128 127.294C85.7768 127.294 86.1368 127.146 86.3928 126.85C86.6568 126.546 86.7888 126.122 86.7888 125.578V121.834H88.0608V128.218H86.8728L86.8488 126.55L87.0288 126.622C86.9168 127.182 86.6808 127.614 86.3208 127.918C85.9608 128.214 85.4968 128.362 84.9288 128.362Z" fill="#00022A"/>
<path d="M91.8908 128.362C91.3468 128.362 90.8708 128.226 90.4628 127.954C90.0628 127.682 89.7548 127.298 89.5388 126.802C89.3308 126.298 89.2268 125.706 89.2268 125.026C89.2268 124.346 89.3348 123.758 89.5508 123.262C89.7668 122.758 90.0748 122.37 90.4748 122.098C90.8748 121.826 91.3468 121.69 91.8908 121.69C92.3308 121.69 92.7228 121.782 93.0668 121.966C93.4108 122.15 93.6708 122.406 93.8468 122.734V119.698H95.1188V128.218H93.9308L93.8948 127.258C93.7188 127.602 93.4508 127.874 93.0908 128.074C92.7388 128.266 92.3388 128.362 91.8908 128.362ZM92.2268 127.258C92.5708 127.258 92.8628 127.17 93.1028 126.994C93.3428 126.818 93.5268 126.562 93.6548 126.226C93.7828 125.89 93.8468 125.49 93.8468 125.026C93.8468 124.546 93.7828 124.142 93.6548 123.814C93.5268 123.478 93.3428 123.226 93.1028 123.058C92.8628 122.882 92.5708 122.794 92.2268 122.794C91.7148 122.794 91.3068 122.994 91.0028 123.394C90.6988 123.786 90.5468 124.33 90.5468 125.026C90.5468 125.714 90.6988 126.258 91.0028 126.658C91.3068 127.058 91.7148 127.258 92.2268 127.258Z" fill="#00022A"/>
<path d="M96.5927 128.218V121.834H97.8647V128.218H96.5927ZM96.5687 120.91V119.638H97.8887V120.91H96.5687Z" fill="#00022A"/>
<path d="M101.557 128.218C100.949 128.218 100.501 128.078 100.213 127.798C99.9254 127.518 99.7814 127.082 99.7814 126.49V120.334H101.053V126.394C101.053 126.69 101.117 126.894 101.245 127.006C101.373 127.118 101.569 127.174 101.833 127.174H102.745V128.218H101.557ZM98.8094 122.878V121.834H102.745V122.878H98.8094Z" fill="#00022A"/>
<rect x="8" y="152" width="192" height="40" rx="5" fill="white"/>
<g clip-path="url(#clip0_405_3836)">
<path d="M32.8327 172C32.8327 168.778 30.2211 166.167 26.9993 166.167C23.7776 166.167 21.166 168.778 21.166 172C21.166 175.222 23.7776 177.833 26.9993 177.833" stroke="#00022A" stroke-width="0.875" stroke-linecap="round" stroke-linejoin="round"/>
<path d="M27.5824 166.196C27.5824 166.196 29.3324 168.5 29.3324 172M26.4157 177.804C26.4157 177.804 24.6657 175.5 24.6657 172C24.6657 168.5 26.4157 166.196 26.4157 166.196M21.5332 174.042H26.999M21.5332 169.958H32.4649" stroke="#00022A" stroke-width="0.875" stroke-linecap="round" stroke-linejoin="round"/>
<path d="M32.7629 175.452C33.051 175.629 33.0329 176.06 32.7366 176.094L31.2392 176.264L30.5678 177.612C30.4348 177.88 30.0235 177.749 29.9553 177.417L29.2232 173.85C29.1654 173.57 29.4174 173.394 29.6607 173.544L32.7629 175.452Z" stroke="#00022A" stroke-width="0.875"/>
</g>
<path d="M42 176.218V167.698H44.736C46.072 167.698 47.1 168.07 47.82 168.814C48.54 169.55 48.9 170.602 48.9 171.97C48.9 173.33 48.544 174.378 47.832 175.114C47.128 175.85 46.12 176.218 44.808 176.218H42ZM43.296 175.03H44.736C45.68 175.03 46.384 174.778 46.848 174.274C47.32 173.762 47.556 172.994 47.556 171.97C47.556 170.93 47.32 170.158 46.848 169.654C46.384 169.142 45.68 168.886 44.736 168.886H43.296V175.03Z" fill="#00022A"/>
<path d="M52.9776 176.362C52.3696 176.362 51.8376 176.226 51.3816 175.954C50.9256 175.682 50.5736 175.294 50.3256 174.79C50.0776 174.286 49.9536 173.698 49.9536 173.026C49.9536 172.346 50.0776 171.758 50.3256 171.262C50.5736 170.766 50.9256 170.382 51.3816 170.11C51.8376 169.83 52.3696 169.69 52.9776 169.69C53.5856 169.69 54.1176 169.83 54.5736 170.11C55.0296 170.382 55.3816 170.766 55.6296 171.262C55.8776 171.758 56.0016 172.346 56.0016 173.026C56.0016 173.698 55.8776 174.286 55.6296 174.79C55.3816 175.294 55.0296 175.682 54.5736 175.954C54.1176 176.226 53.5856 176.362 52.9776 176.362ZM52.9776 175.258C53.5216 175.258 53.9416 175.062 54.2376 174.67C54.5336 174.27 54.6816 173.722 54.6816 173.026C54.6816 172.33 54.5336 171.786 54.2376 171.394C53.9416 170.994 53.5216 170.794 52.9776 170.794C52.4416 170.794 52.0216 170.994 51.7176 171.394C51.4216 171.786 51.2736 172.33 51.2736 173.026C51.2736 173.722 51.4216 174.27 51.7176 174.67C52.0216 175.062 52.4416 175.258 52.9776 175.258Z" fill="#00022A"/>
<path d="M57.1671 176.218V169.834H58.3311L58.3671 171.418L58.2231 171.37C58.2951 171.018 58.4191 170.718 58.5951 170.47C58.7791 170.222 59.0031 170.03 59.2671 169.894C59.5311 169.758 59.8191 169.69 60.1311 169.69C60.6751 169.69 61.1191 169.846 61.4631 170.158C61.8071 170.462 62.0231 170.882 62.1111 171.418H61.9071C61.9791 171.042 62.0991 170.73 62.2671 170.482C62.4431 170.226 62.6671 170.03 62.9391 169.894C63.2111 169.758 63.5191 169.69 63.8631 169.69C64.3111 169.69 64.6911 169.786 65.0031 169.978C65.3231 170.162 65.5631 170.434 65.7231 170.794C65.8911 171.154 65.9751 171.594 65.9751 172.114V176.218H64.7031V172.426C64.7031 171.874 64.6031 171.458 64.4031 171.178C64.2031 170.898 63.8991 170.758 63.4911 170.758C63.2271 170.758 62.9951 170.826 62.7951 170.962C62.5951 171.098 62.4391 171.294 62.3271 171.55C62.2231 171.806 62.1711 172.114 62.1711 172.474V176.218H60.9591V172.474C60.9591 171.93 60.8671 171.51 60.6831 171.214C60.5071 170.91 60.2031 170.758 59.7711 170.758C59.4991 170.758 59.2631 170.826 59.0631 170.962C58.8711 171.098 58.7191 171.298 58.6071 171.562C58.4951 171.818 58.4391 172.122 58.4391 172.474V176.218H57.1671Z" fill="#00022A"/>
<path d="M69.3233 176.362C68.6593 176.362 68.1273 176.21 67.7273 175.906C67.3353 175.602 67.1393 175.174 67.1393 174.622C67.1393 174.07 67.3033 173.642 67.6313 173.338C67.9673 173.026 68.4833 172.802 69.1793 172.666L71.3753 172.246C71.3753 171.75 71.2593 171.382 71.0273 171.142C70.7953 170.894 70.4513 170.77 69.9953 170.77C69.5873 170.77 69.2673 170.862 69.0353 171.046C68.8033 171.222 68.6433 171.486 68.5553 171.838L67.2473 171.754C67.3673 171.114 67.6633 170.61 68.1353 170.242C68.6153 169.874 69.2353 169.69 69.9953 169.69C70.8593 169.69 71.5153 169.922 71.9633 170.386C72.4193 170.842 72.6473 171.486 72.6473 172.318V174.802C72.6473 174.954 72.6713 175.062 72.7193 175.126C72.7753 175.182 72.8633 175.21 72.9833 175.21H73.2113V176.218C73.1713 176.226 73.1073 176.234 73.0193 176.242C72.9313 176.25 72.8393 176.254 72.7433 176.254C72.4713 176.254 72.2353 176.21 72.0353 176.122C71.8433 176.034 71.6993 175.89 71.6033 175.69C71.5073 175.482 71.4593 175.206 71.4593 174.862L71.5913 174.922C71.5273 175.202 71.3873 175.45 71.1713 175.666C70.9633 175.882 70.6953 176.054 70.3673 176.182C70.0473 176.302 69.6993 176.362 69.3233 176.362ZM69.5273 175.354C69.9113 175.354 70.2393 175.282 70.5113 175.138C70.7833 174.986 70.9953 174.778 71.1473 174.514C71.2993 174.25 71.3753 173.95 71.3753 173.614V173.206L69.5033 173.566C69.1193 173.638 68.8473 173.754 68.6873 173.914C68.5353 174.066 68.4593 174.262 68.4593 174.502C68.4593 174.774 68.5513 174.986 68.7353 175.138C68.9273 175.282 69.1913 175.354 69.5273 175.354Z" fill="#00022A"/>
<path d="M74.1068 176.218V169.834H75.3787V176.218H74.1068ZM74.0828 168.91V167.638H75.4028V168.91H74.0828Z" fill="#00022A"/>
<path d="M77.1625 176.218V169.834H78.3265L78.3745 171.538L78.2185 171.454C78.2905 171.038 78.4265 170.702 78.6265 170.446C78.8265 170.19 79.0705 170.002 79.3585 169.882C79.6465 169.754 79.9585 169.69 80.2945 169.69C80.7745 169.69 81.1705 169.798 81.4825 170.014C81.8025 170.222 82.0425 170.51 82.2025 170.878C82.3705 171.238 82.4545 171.65 82.4545 172.114V176.218H81.1825V172.498C81.1825 172.122 81.1425 171.806 81.0625 171.55C80.9825 171.294 80.8505 171.098 80.6665 170.962C80.4825 170.826 80.2425 170.758 79.9465 170.758C79.4985 170.758 79.1345 170.906 78.8545 171.202C78.5745 171.498 78.4345 171.93 78.4345 172.498V176.218H77.1625Z" fill="#00022A"/>
<path d="M86.2703 176.218L89.3423 167.698H90.9863L94.0583 176.218H92.6783L91.8983 173.998H88.4183L87.6503 176.218H86.2703ZM88.8263 172.822H91.5023L90.1583 168.934L88.8263 172.822Z" fill="#00022A"/>
<path d="M96.9377 176.362C96.2977 176.362 95.7857 176.15 95.4017 175.726C95.0257 175.294 94.8377 174.698 94.8377 173.938V169.834H96.1097V173.614C96.1097 174.19 96.2097 174.614 96.4097 174.886C96.6097 175.158 96.9137 175.294 97.3217 175.294C97.7857 175.294 98.1457 175.146 98.4017 174.85C98.6657 174.546 98.7977 174.122 98.7977 173.578V169.834H100.07V176.218H98.8817L98.8577 174.55L99.0377 174.622C98.9257 175.182 98.6897 175.614 98.3297 175.918C97.9697 176.214 97.5057 176.362 96.9377 176.362Z" fill="#00022A"/>
<path d="M103.9 176.362C103.356 176.362 102.88 176.226 102.472 175.954C102.072 175.682 101.764 175.298 101.548 174.802C101.34 174.298 101.236 173.706 101.236 173.026C101.236 172.346 101.344 171.758 101.56 171.262C101.776 170.758 102.084 170.37 102.484 170.098C102.884 169.826 103.356 169.69 103.9 169.69C104.34 169.69 104.732 169.782 105.076 169.966C105.42 170.15 105.68 170.406 105.856 170.734V167.698H107.128V176.218H105.94L105.904 175.258C105.728 175.602 105.46 175.874 105.1 176.074C104.748 176.266 104.348 176.362 103.9 176.362ZM104.236 175.258C104.58 175.258 104.872 175.17 105.112 174.994C105.352 174.818 105.536 174.562 105.664 174.226C105.792 173.89 105.856 173.49 105.856 173.026C105.856 172.546 105.792 172.142 105.664 171.814C105.536 171.478 105.352 171.226 105.112 171.058C104.872 170.882 104.58 170.794 104.236 170.794C103.724 170.794 103.316 170.994 103.012 171.394C102.708 171.786 102.556 172.33 102.556 173.026C102.556 173.714 102.708 174.258 103.012 174.658C103.316 175.058 103.724 175.258 104.236 175.258Z" fill="#00022A"/>
<path d="M108.602 176.218V169.834H109.874V176.218H108.602ZM108.578 168.91V167.638H109.898V168.91H108.578Z" fill="#00022A"/>
<path d="M113.566 176.218C112.958 176.218 112.51 176.078 112.222 175.798C111.934 175.518 111.79 175.082 111.79 174.49V168.334H113.062V174.394C113.062 174.69 113.126 174.894 113.254 175.006C113.382 175.118 113.578 175.174 113.842 175.174H114.754V176.218H113.566ZM110.818 170.878V169.834H114.754V170.878H110.818Z" fill="#00022A"/>
<rect x="8" y="200" width="192" height="40" rx="5" fill="white"/>
<g clip-path="url(#clip1_405_3836)">
<path fill-rule="evenodd" clip-rule="evenodd" d="M32.9261 216.049L32.2436 215.888L30.3991 217.722L29.3543 216.658L31.1533 214.771L30.9958 214.078C30.6158 213.95 30.2181 213.883 29.8172 213.878C29.3799 213.871 28.9457 213.954 28.5423 214.123C28.1524 214.299 27.8 214.549 27.5046 214.858C27.1747 215.17 26.9138 215.547 26.739 215.965C26.4009 216.797 26.4009 217.728 26.739 218.561C24.9148 220.355 23.1142 222.174 21.3376 224.015C21.1538 224.256 21.0663 224.556 21.0891 224.858C21.0978 225.019 21.1382 225.176 21.2079 225.321C21.2775 225.467 21.3751 225.597 21.4951 225.704C21.6048 225.824 21.7322 225.919 21.8775 225.991C22.0262 226.057 22.1863 226.094 22.3482 226.102C22.6247 226.097 22.8898 225.992 23.0955 225.807C24.45 224.532 27.0452 221.914 28.5196 220.379C28.9195 220.549 29.3491 220.636 29.7831 220.635C30.2199 220.635 30.6522 220.547 31.0545 220.376C31.4568 220.206 31.821 219.957 32.1255 219.644C32.7495 219.005 33.0985 218.148 33.0976 217.255C33.1079 216.846 33.0499 216.439 32.9261 216.049ZM22.5661 225.187C22.5326 225.217 22.492 225.238 22.448 225.248C22.4049 225.256 22.3607 225.256 22.3176 225.248C22.2724 225.241 22.2293 225.224 22.1916 225.198C22.1512 225.175 22.1171 225.142 22.0918 225.102C21.9693 224.977 21.8547 224.739 21.9693 224.605C23.1681 223.33 25.6365 220.838 27.18 219.315C27.2675 219.431 27.3631 219.541 27.467 219.644C27.5702 219.752 27.6811 219.851 27.7995 219.942C26.3067 221.473 23.8716 223.936 22.5661 225.187ZM32.2943 217.255C32.2961 217.924 32.0353 218.568 31.5663 219.047C31.0984 219.506 30.469 219.764 29.8133 219.764C29.1576 219.764 28.5281 219.506 28.0602 219.047C27.717 218.689 27.4826 218.241 27.3842 217.755C27.2858 217.269 27.3276 216.765 27.5046 216.302C27.6224 215.987 27.8049 215.7 28.0405 215.46C28.2761 215.22 28.5594 215.031 28.8722 214.907C29.1695 214.784 29.4883 214.72 29.8102 214.72H30.0325L28.4426 216.359V216.968L30.1007 218.618H30.6782L32.2943 217.029V217.255ZM22.8347 218.852H24.1743L24.7912 219.479L25.3845 218.89L24.8026 218.296V218.259L24.8525 216.816L24.66 216.433L22.1575 214.787L21.6403 214.844L20.9132 215.587L20.8555 216.111L22.4637 218.665L22.8347 218.852ZM22.0078 215.674L24.0326 217.007L23.9985 217.99H23.057L21.7515 215.923L22.0078 215.674ZM28.2247 221.764L28.8145 221.175L31.5322 223.962C31.7609 224.203 31.8885 224.522 31.8885 224.854C31.8885 225.186 31.7609 225.505 31.5322 225.746C31.3604 225.923 31.139 226.044 30.8972 226.093C30.6553 226.143 30.4042 226.118 30.1768 226.022C30.0315 225.958 29.9013 225.864 29.7945 225.746L27.0452 222.943L27.6393 222.35L30.3798 225.145C30.4167 225.186 30.4625 225.217 30.5137 225.237C30.6145 225.277 30.7271 225.277 30.8278 225.237C30.8791 225.217 30.9249 225.186 30.9617 225.145C31.0008 225.108 31.0308 225.062 31.0492 225.011C31.0698 224.96 31.0805 224.905 31.0807 224.85C31.079 224.795 31.0687 224.741 31.0501 224.689C31.0317 224.638 31.0017 224.592 30.9626 224.555L28.2247 221.764Z" fill="#00022A"/>
</g>
<path d="M44.616 224.188V216.856H42V215.668H48.528V216.856H45.912V224.188H44.616Z" fill="#00022A"/>
<path d="M51.1234 224.332C50.5154 224.332 49.9834 224.196 49.5274 223.924C49.0714 223.652 48.7194 223.264 48.4714 222.76C48.2234 222.256 48.0994 221.668 48.0994 220.996C48.0994 220.316 48.2234 219.728 48.4714 219.232C48.7194 218.736 49.0714 218.352 49.5274 218.08C49.9834 217.8 50.5154 217.66 51.1234 217.66C51.7314 217.66 52.2634 217.8 52.7194 218.08C53.1754 218.352 53.5274 218.736 53.7754 219.232C54.0234 219.728 54.1474 220.316 54.1474 220.996C54.1474 221.668 54.0234 222.256 53.7754 222.76C53.5274 223.264 53.1754 223.652 52.7194 223.924C52.2634 224.196 51.7314 224.332 51.1234 224.332ZM51.1234 223.228C51.6674 223.228 52.0874 223.032 52.3834 222.64C52.6794 222.24 52.8274 221.692 52.8274 220.996C52.8274 220.3 52.6794 219.756 52.3834 219.364C52.0874 218.964 51.6674 218.764 51.1234 218.764C50.5874 218.764 50.1674 218.964 49.8634 219.364C49.5674 219.756 49.4194 220.3 49.4194 220.996C49.4194 221.692 49.5674 222.24 49.8634 222.64C50.1674 223.032 50.5874 223.228 51.1234 223.228Z" fill="#00022A"/>
<path d="M57.9409 224.332C57.3329 224.332 56.8009 224.196 56.3449 223.924C55.8889 223.652 55.5369 223.264 55.2889 222.76C55.0409 222.256 54.9169 221.668 54.9169 220.996C54.9169 220.316 55.0409 219.728 55.2889 219.232C55.5369 218.736 55.8889 218.352 56.3449 218.08C56.8009 217.8 57.3329 217.66 57.9409 217.66C58.5489 217.66 59.0809 217.8 59.5369 218.08C59.9929 218.352 60.3449 218.736 60.5929 219.232C60.8409 219.728 60.9649 220.316 60.9649 220.996C60.9649 221.668 60.8409 222.256 60.5929 222.76C60.3449 223.264 59.9929 223.652 59.5369 223.924C59.0809 224.196 58.5489 224.332 57.9409 224.332ZM57.9409 223.228C58.4849 223.228 58.9049 223.032 59.2009 222.64C59.4969 222.24 59.6449 221.692 59.6449 220.996C59.6449 220.3 59.4969 219.756 59.2009 219.364C58.9049 218.964 58.4849 218.764 57.9409 218.764C57.4049 218.764 56.9849 218.964 56.6809 219.364C56.3849 219.756 56.2369 220.3 56.2369 220.996C56.2369 221.692 56.3849 222.24 56.6809 222.64C56.9849 223.032 57.4049 223.228 57.9409 223.228Z" fill="#00022A"/>
<path d="M63.581 224.188C63.165 224.188 62.829 224.08 62.573 223.864C62.317 223.648 62.189 223.304 62.189 222.832V215.668H63.461V222.712C63.461 222.856 63.497 222.964 63.569 223.036C63.649 223.108 63.761 223.144 63.905 223.144H64.409V224.188H63.581Z" fill="#00022A"/>
<path d="M67.8337 224.332C67.2337 224.332 66.7257 224.24 66.3097 224.056C65.9017 223.872 65.5857 223.62 65.3617 223.3C65.1377 222.972 65.0097 222.596 64.9777 222.172L66.2857 222.112C66.3497 222.464 66.5017 222.744 66.7417 222.952C66.9817 223.16 67.3457 223.264 67.8337 223.264C68.2337 223.264 68.5497 223.2 68.7817 223.072C69.0137 222.944 69.1297 222.74 69.1297 222.46C69.1297 222.308 69.0897 222.18 69.0097 222.076C68.9377 221.964 68.7937 221.872 68.5777 221.8C68.3617 221.72 68.0417 221.644 67.6177 221.572C66.9857 221.452 66.4897 221.312 66.1297 221.152C65.7697 220.992 65.5137 220.788 65.3617 220.54C65.2097 220.292 65.1337 219.992 65.1337 219.64C65.1337 219.056 65.3497 218.58 65.7817 218.212C66.2217 217.844 66.8537 217.66 67.6777 217.66C68.2297 217.66 68.6937 217.756 69.0697 217.948C69.4457 218.132 69.7377 218.384 69.9457 218.704C70.1617 219.016 70.2977 219.368 70.3537 219.76L69.0457 219.832C69.0057 219.608 68.9257 219.416 68.8057 219.256C68.6937 219.088 68.5417 218.96 68.3497 218.872C68.1577 218.776 67.9297 218.728 67.6657 218.728C67.2577 218.728 66.9537 218.808 66.7537 218.968C66.5537 219.128 66.4537 219.336 66.4537 219.592C66.4537 219.784 66.4977 219.94 66.5857 220.06C66.6817 220.18 66.8337 220.28 67.0417 220.36C67.2497 220.432 67.5257 220.496 67.8697 220.552C68.5337 220.664 69.0537 220.804 69.4297 220.972C69.8057 221.132 70.0697 221.332 70.2217 221.572C70.3737 221.812 70.4497 222.104 70.4497 222.448C70.4497 222.848 70.3377 223.188 70.1137 223.468C69.8897 223.748 69.5817 223.964 69.1897 224.116C68.7977 224.26 68.3457 224.332 67.8337 224.332Z" fill="#00022A"/>
<rect x="8" y="248" width="192" height="40" rx="5" fill="white"/>
<g clip-path="url(#clip2_405_3836)">
<path d="M23.9388 272.483C24.8115 273.171 25.8904 273.544 27.0013 273.542C28.1572 273.542 29.2209 273.147 30.0638 272.483M25.543 263.843C23.5162 264.466 22.043 266.353 22.043 268.584C22.043 269.145 22.1363 269.685 22.3084 270.188M28.4596 263.843C30.4864 264.466 31.9596 266.353 31.9596 268.584C31.9596 269.145 31.8663 269.685 31.6942 270.188" stroke="#00022A" stroke-width="1.16667"/>
<path d="M32.5423 271.5C32.5423 271.892 32.3883 272.247 32.1375 272.509C31.9032 272.753 31.5911 272.909 31.2547 272.949C30.9183 272.988 30.5785 272.91 30.2938 272.726C30.0091 272.542 29.7972 272.266 29.6944 271.943C29.5916 271.62 29.6044 271.271 29.7306 270.957C29.8568 270.643 30.0885 270.382 30.3859 270.22C30.6833 270.058 31.0279 270.004 31.3605 270.068C31.6931 270.133 31.993 270.311 32.2087 270.572C32.4243 270.833 32.5423 271.161 32.5423 271.5ZM24.3757 271.5C24.3757 271.892 24.2217 272.247 23.9708 272.509C23.7366 272.753 23.4245 272.909 23.088 272.949C22.7516 272.988 22.4119 272.91 22.1271 272.726C21.8424 272.542 21.6305 272.266 21.5277 271.943C21.4249 271.62 21.4378 271.271 21.5639 270.957C21.6901 270.643 21.9218 270.382 22.2192 270.22C22.5167 270.058 22.8613 270.004 23.1939 270.068C23.5265 270.133 23.8263 270.311 24.042 270.572C24.2576 270.833 24.3756 271.161 24.3757 271.5ZM28.459 263.625C28.459 264.017 28.305 264.372 28.0542 264.634C27.8199 264.878 27.5078 265.034 27.1714 265.074C26.8349 265.113 26.4952 265.035 26.2105 264.851C25.9258 264.667 25.7138 264.391 25.611 264.068C25.5083 263.745 25.5211 263.396 25.6473 263.082C25.7735 262.768 26.0052 262.507 26.3026 262.345C26.6 262.183 26.9446 262.129 27.2772 262.193C27.6098 262.258 27.9097 262.436 28.1253 262.697C28.341 262.958 28.4589 263.286 28.459 263.625Z" stroke="#00022A" stroke-width="1.16667" stroke-linecap="round" stroke-linejoin="round"/>
</g>
<path d="M42 271.318V262.798H43.296V271.318H42Z" fill="#00022A"/>
<path d="M45.2168 271.318V264.934H46.3808L46.4288 266.638L46.2727 266.554C46.3447 266.138 46.4808 265.802 46.6808 265.546C46.8808 265.29 47.1248 265.102 47.4128 264.982C47.7008 264.854 48.0128 264.79 48.3488 264.79C48.8288 264.79 49.2248 264.898 49.5368 265.114C49.8568 265.322 50.0968 265.61 50.2568 265.978C50.4248 266.338 50.5088 266.75 50.5088 267.214V271.318H49.2368V267.598C49.2368 267.222 49.1968 266.906 49.1168 266.65C49.0368 266.394 48.9048 266.198 48.7208 266.062C48.5368 265.926 48.2968 265.858 48.0008 265.858C47.5528 265.858 47.1888 266.006 46.9088 266.302C46.6288 266.598 46.4887 267.03 46.4887 267.598V271.318H45.2168Z" fill="#00022A"/>
<path d="M54.1776 271.318C53.5696 271.318 53.1216 271.178 52.8336 270.898C52.5456 270.618 52.4016 270.182 52.4016 269.59V263.434H53.6736V269.494C53.6736 269.79 53.7376 269.994 53.8656 270.106C53.9936 270.218 54.1896 270.274 54.4536 270.274H55.3656V271.318H54.1776ZM51.4296 265.978V264.934H55.3656V265.978H51.4296Z" fill="#00022A"/>
<path d="M58.9837 271.462C58.3597 271.462 57.8197 271.326 57.3637 271.054C56.9157 270.782 56.5677 270.394 56.3197 269.89C56.0797 269.386 55.9597 268.798 55.9597 268.126C55.9597 267.454 56.0797 266.87 56.3197 266.374C56.5677 265.87 56.9157 265.482 57.3637 265.21C57.8117 264.93 58.3397 264.79 58.9477 264.79C59.5237 264.79 60.0317 264.926 60.4717 265.198C60.9117 265.462 61.2517 265.846 61.4917 266.35C61.7397 266.854 61.8637 267.462 61.8637 268.174V268.498H57.2797C57.3117 269.122 57.4757 269.59 57.7717 269.902C58.0757 270.214 58.4837 270.37 58.9957 270.37C59.3717 270.37 59.6837 270.282 59.9317 270.106C60.1797 269.93 60.3517 269.694 60.4477 269.398L61.7677 269.482C61.5997 270.074 61.2677 270.554 60.7717 270.922C60.2837 271.282 59.6877 271.462 58.9837 271.462ZM57.2797 267.538H60.5197C60.4797 266.97 60.3157 266.55 60.0277 266.278C59.7477 266.006 59.3877 265.87 58.9477 265.87C58.4917 265.87 58.1157 266.014 57.8197 266.302C57.5317 266.582 57.3517 266.994 57.2797 267.538Z" fill="#00022A"/>
<path d="M65.6005 273.262C65.0965 273.262 64.6525 273.186 64.2685 273.034C63.8845 272.882 63.5685 272.666 63.3205 272.386C63.0725 272.114 62.9045 271.794 62.8165 271.426L64.1365 271.342C64.2245 271.606 64.3765 271.814 64.5925 271.966C64.8165 272.126 65.1525 272.206 65.6005 272.206C66.1285 272.206 66.5325 272.094 66.8125 271.87C67.1005 271.646 67.2445 271.306 67.2445 270.85V269.926C67.0925 270.254 66.8485 270.514 66.5125 270.706C66.1765 270.898 65.8005 270.994 65.3845 270.994C64.8485 270.994 64.3725 270.862 63.9565 270.598C63.5405 270.334 63.2165 269.97 62.9845 269.506C62.7525 269.042 62.6365 268.506 62.6365 267.898C62.6365 267.282 62.7485 266.742 62.9725 266.278C63.2045 265.814 63.5245 265.45 63.9325 265.186C64.3485 264.922 64.8165 264.79 65.3365 264.79C65.7925 264.79 66.1925 264.894 66.5365 265.102C66.8885 265.31 67.1405 265.59 67.2925 265.942V264.934H68.5165V270.814C68.5165 271.342 68.3965 271.786 68.1565 272.146C67.9245 272.514 67.5885 272.79 67.1485 272.974C66.7165 273.166 66.2005 273.262 65.6005 273.262ZM65.5885 269.914C66.0845 269.914 66.4805 269.734 66.7765 269.374C67.0805 269.014 67.2365 268.518 67.2445 267.886C67.2525 267.47 67.1885 267.114 67.0525 266.818C66.9165 266.514 66.7205 266.282 66.4645 266.122C66.2165 265.954 65.9245 265.87 65.5885 265.87C65.0685 265.87 64.6645 266.054 64.3765 266.422C64.0965 266.782 63.9565 267.27 63.9565 267.886C63.9565 268.51 64.1005 269.006 64.3885 269.374C64.6845 269.734 65.0845 269.914 65.5885 269.914Z" fill="#00022A"/>
<path d="M70.2016 271.318V264.934H71.3656L71.4136 266.626L71.3056 266.59C71.3936 266.014 71.5696 265.594 71.8336 265.33C72.1056 265.066 72.4696 264.934 72.9256 264.934H73.5376V266.074H72.9256C72.6056 266.074 72.3376 266.126 72.1216 266.23C71.9056 266.334 71.7416 266.494 71.6296 266.71C71.5256 266.926 71.4736 267.206 71.4736 267.55V271.318H70.2016Z" fill="#00022A"/>
<path d="M76.1352 271.462C75.4712 271.462 74.9392 271.31 74.5392 271.006C74.1472 270.702 73.9512 270.274 73.9512 269.722C73.9512 269.17 74.1152 268.742 74.4432 268.438C74.7792 268.126 75.2952 267.902 75.9912 267.766L78.1872 267.346C78.1872 266.85 78.0712 266.482 77.8392 266.242C77.6072 265.994 77.2632 265.87 76.8072 265.87C76.3992 265.87 76.0792 265.962 75.8472 266.146C75.6152 266.322 75.4552 266.586 75.3672 266.938L74.0592 266.854C74.1792 266.214 74.4752 265.71 74.9472 265.342C75.4272 264.974 76.0472 264.79 76.8072 264.79C77.6712 264.79 78.3272 265.022 78.7752 265.486C79.2312 265.942 79.4592 266.586 79.4592 267.418V269.902C79.4592 270.054 79.4832 270.162 79.5312 270.226C79.5872 270.282 79.6752 270.31 79.7952 270.31H80.0232V271.318C79.9832 271.326 79.9192 271.334 79.8312 271.342C79.7432 271.35 79.6512 271.354 79.5552 271.354C79.2832 271.354 79.0472 271.31 78.8472 271.222C78.6552 271.134 78.5112 270.99 78.4152 270.79C78.3192 270.582 78.2712 270.306 78.2712 269.962L78.4032 270.022C78.3392 270.302 78.1992 270.55 77.9832 270.766C77.7752 270.982 77.5072 271.154 77.1792 271.282C76.8592 271.402 76.5112 271.462 76.1352 271.462ZM76.3392 270.454C76.7232 270.454 77.0512 270.382 77.3232 270.238C77.5952 270.086 77.8072 269.878 77.9592 269.614C78.1112 269.35 78.1872 269.05 78.1872 268.714V268.306L76.3152 268.666C75.9312 268.738 75.6592 268.854 75.4992 269.014C75.3472 269.166 75.2712 269.362 75.2712 269.602C75.2712 269.874 75.3632 270.086 75.5472 270.238C75.7392 270.382 76.0032 270.454 76.3392 270.454Z" fill="#00022A"/>
<path d="M83.0971 271.318C82.4891 271.318 82.0411 271.178 81.7531 270.898C81.4651 270.618 81.3211 270.182 81.3211 269.59V263.434H82.5931V269.494C82.5931 269.79 82.6571 269.994 82.7851 270.106C82.9131 270.218 83.1091 270.274 83.3731 270.274H84.2851V271.318H83.0971ZM80.3491 265.978V264.934H84.2851V265.978H80.3491Z" fill="#00022A"/>
<path d="M85.3807 271.318V264.934H86.6527V271.318H85.3807ZM85.3567 264.01V262.738H86.6767V264.01H85.3567Z" fill="#00022A"/>
<path d="M90.8418 271.462C90.2338 271.462 89.7018 271.326 89.2458 271.054C88.7898 270.782 88.4378 270.394 88.1898 269.89C87.9418 269.386 87.8178 268.798 87.8178 268.126C87.8178 267.446 87.9418 266.858 88.1898 266.362C88.4378 265.866 88.7898 265.482 89.2458 265.21C89.7018 264.93 90.2338 264.79 90.8418 264.79C91.4498 264.79 91.9818 264.93 92.4378 265.21C92.8938 265.482 93.2458 265.866 93.4938 266.362C93.7418 266.858 93.8658 267.446 93.8658 268.126C93.8658 268.798 93.7418 269.386 93.4938 269.89C93.2458 270.394 92.8938 270.782 92.4378 271.054C91.9818 271.326 91.4498 271.462 90.8418 271.462ZM90.8418 270.358C91.3858 270.358 91.8058 270.162 92.1018 269.77C92.3978 269.37 92.5458 268.822 92.5458 268.126C92.5458 267.43 92.3978 266.886 92.1018 266.494C91.8058 266.094 91.3858 265.894 90.8418 265.894C90.3058 265.894 89.8858 266.094 89.5818 266.494C89.2858 266.886 89.1378 267.43 89.1378 268.126C89.1378 268.822 89.2858 269.37 89.5818 269.77C89.8858 270.162 90.3058 270.358 90.8418 270.358Z" fill="#00022A"/>
<path d="M95.0313 271.318V264.934H96.1953L96.2433 266.638L96.0873 266.554C96.1593 266.138 96.2953 265.802 96.4953 265.546C96.6953 265.29 96.9393 265.102 97.2273 264.982C97.5153 264.854 97.8273 264.79 98.1633 264.79C98.6433 264.79 99.0393 264.898 99.3513 265.114C99.6713 265.322 99.9113 265.61 100.071 265.978C100.239 266.338 100.323 266.75 100.323 267.214V271.318H99.0513V267.598C99.0513 267.222 99.0113 266.906 98.9313 266.65C98.8513 266.394 98.7193 266.198 98.5353 266.062C98.3513 265.926 98.1113 265.858 97.8153 265.858C97.3673 265.858 97.0033 266.006 96.7233 266.302C96.4433 266.598 96.3033 267.03 96.3033 267.598V271.318H95.0313Z" fill="#00022A"/>
<rect x="8" y="296" width="192" height="40" rx="5" fill="white"/>
<path d="M27.0776 317.985C27.3353 317.985 27.5904 317.934 27.8285 317.836C28.0666 317.737 28.2829 317.593 28.4651 317.41C28.6474 317.228 28.7919 317.012 28.8905 316.774C28.9891 316.536 29.0399 316.281 29.0399 316.023C29.0399 315.765 28.9891 315.51 28.8905 315.272C28.7919 315.034 28.6474 314.818 28.4651 314.635C28.2829 314.453 28.0666 314.309 27.8285 314.21C27.5904 314.111 27.3353 314.061 27.0776 314.061C26.5571 314.061 26.058 314.267 25.69 314.635C25.322 315.003 25.1152 315.502 25.1152 316.023C25.1152 316.543 25.322 317.042 25.69 317.41C26.058 317.778 26.5571 317.985 27.0776 317.985Z" stroke="#00022A" stroke-width="0.875" stroke-linecap="round" stroke-linejoin="round"/>
<path d="M32.2399 317.805C32.0088 318.469 31.6519 319.083 31.1888 319.613L29.9498 319.332C29.4799 319.753 28.9216 320.064 28.3158 320.242L27.981 321.455C27.6672 321.511 27.349 321.54 27.0302 321.541C26.6313 321.542 26.2336 321.497 25.8448 321.407L25.4896 320.155C24.9602 319.96 24.4735 319.665 24.0563 319.285L22.8313 319.6C22.3455 319.032 21.9809 318.371 21.7598 317.657L22.6639 316.653C22.5814 316.139 22.5951 315.614 22.7042 315.106L21.8123 314.175C22.0715 313.445 22.4825 312.779 23.018 312.219L24.2838 312.534C24.6324 312.255 25.0207 312.029 25.4359 311.864L25.7708 310.625C26.1843 310.518 26.6094 310.462 27.0366 310.458C27.3778 310.458 27.7191 310.489 28.0545 310.551L28.3759 311.783C28.8601 311.94 29.3139 312.18 29.7153 312.493L30.9881 312.165C31.5016 312.682 31.9068 313.297 32.1798 313.973L31.3165 314.911C31.4802 315.553 31.4938 316.225 31.3562 316.873L32.2399 317.805Z" stroke="#00022A" stroke-width="0.875" stroke-linecap="round" stroke-linejoin="round"/>
<path d="M45.456 319.576C44.776 319.576 44.184 319.452 43.68 319.204C43.184 318.956 42.792 318.612 42.504 318.172C42.216 317.732 42.048 317.22 42 316.636L43.332 316.552C43.388 316.952 43.504 317.292 43.68 317.572C43.856 317.844 44.092 318.052 44.388 318.196C44.692 318.332 45.056 318.4 45.48 318.4C45.848 318.4 46.16 318.356 46.416 318.268C46.68 318.172 46.88 318.032 47.016 317.848C47.152 317.664 47.22 317.44 47.22 317.176C47.22 316.936 47.16 316.724 47.04 316.54C46.928 316.348 46.708 316.176 46.38 316.024C46.06 315.864 45.588 315.708 44.964 315.556C44.284 315.388 43.74 315.204 43.332 315.004C42.924 314.804 42.628 314.556 42.444 314.26C42.268 313.956 42.18 313.584 42.18 313.144C42.18 312.656 42.296 312.228 42.528 311.86C42.768 311.484 43.108 311.192 43.548 310.984C43.988 310.776 44.516 310.672 45.132 310.672C45.78 310.672 46.332 310.792 46.788 311.032C47.252 311.272 47.616 311.6 47.88 312.016C48.152 312.432 48.32 312.908 48.384 313.444L47.052 313.516C47.012 313.188 46.912 312.9 46.752 312.652C46.592 312.396 46.376 312.2 46.104 312.064C45.832 311.92 45.5 311.848 45.108 311.848C44.612 311.848 44.22 311.964 43.932 312.196C43.652 312.42 43.512 312.72 43.512 313.096C43.512 313.336 43.568 313.54 43.68 313.708C43.8 313.868 44.008 314.008 44.304 314.128C44.608 314.248 45.036 314.376 45.588 314.512C46.324 314.68 46.908 314.888 47.34 315.136C47.78 315.376 48.092 315.66 48.276 315.988C48.46 316.316 48.552 316.688 48.552 317.104C48.552 317.608 48.42 318.048 48.156 318.424C47.9 318.792 47.54 319.076 47.076 319.276C46.612 319.476 46.072 319.576 45.456 319.576Z" fill="#00022A"/>
<path d="M52.7522 319.528C52.1282 319.528 51.5882 319.392 51.1322 319.12C50.6842 318.848 50.3362 318.46 50.0882 317.956C49.8482 317.452 49.7282 316.864 49.7282 316.192C49.7282 315.52 49.8482 314.936 50.0882 314.44C50.3362 313.936 50.6842 313.548 51.1322 313.276C51.5802 312.996 52.1082 312.856 52.7162 312.856C53.2922 312.856 53.8002 312.992 54.2402 313.264C54.6802 313.528 55.0202 313.912 55.2602 314.416C55.5082 314.92 55.6322 315.528 55.6322 316.24V316.564H51.0482C51.0802 317.188 51.2442 317.656 51.5402 317.968C51.8442 318.28 52.2522 318.436 52.7642 318.436C53.1402 318.436 53.4522 318.348 53.7002 318.172C53.9482 317.996 54.1202 317.76 54.2162 317.464L55.5362 317.548C55.3682 318.14 55.0362 318.62 54.5402 318.988C54.0522 319.348 53.4562 319.528 52.7522 319.528ZM51.0482 315.604H54.2882C54.2482 315.036 54.0842 314.616 53.7962 314.344C53.5162 314.072 53.1562 313.936 52.7162 313.936C52.2602 313.936 51.8842 314.08 51.5882 314.368C51.3002 314.648 51.1202 315.06 51.0482 315.604Z" fill="#00022A"/>
<path d="M59.0147 319.384C58.4067 319.384 57.9587 319.244 57.6707 318.964C57.3827 318.684 57.2387 318.248 57.2387 317.656V311.5H58.5107V317.56C58.5107 317.856 58.5747 318.06 58.7027 318.172C58.8307 318.284 59.0267 318.34 59.2907 318.34H60.2027V319.384H59.0147ZM56.2667 314.044V313H60.2027V314.044H56.2667Z" fill="#00022A"/>
<path d="M63.6994 319.384C63.0914 319.384 62.6434 319.244 62.3554 318.964C62.0674 318.684 61.9234 318.248 61.9234 317.656V311.5H63.1954V317.56C63.1954 317.856 63.2594 318.06 63.3874 318.172C63.5154 318.284 63.7114 318.34 63.9754 318.34H64.8874V319.384H63.6994ZM60.9514 314.044V313H64.8874V314.044H60.9514Z" fill="#00022A"/>
<path d="M65.9829 319.384V313H67.2549V319.384H65.9829ZM65.9589 312.076V310.804H67.2789V312.076H65.9589Z" fill="#00022A"/>
<path d="M69.0387 319.384V313H70.2027L70.2507 314.704L70.0947 314.62C70.1667 314.204 70.3027 313.868 70.5027 313.612C70.7027 313.356 70.9467 313.168 71.2347 313.048C71.5227 312.92 71.8347 312.856 72.1707 312.856C72.6507 312.856 73.0467 312.964 73.3587 313.18C73.6787 313.388 73.9187 313.676 74.0787 314.044C74.2467 314.404 74.3307 314.816 74.3307 315.28V319.384H73.0587V315.664C73.0587 315.288 73.0187 314.972 72.9387 314.716C72.8587 314.46 72.7267 314.264 72.5427 314.128C72.3587 313.992 72.1187 313.924 71.8227 313.924C71.3747 313.924 71.0107 314.072 70.7307 314.368C70.4507 314.664 70.3107 315.096 70.3107 315.664V319.384H69.0387Z" fill="#00022A"/>
<path d="M78.4359 321.328C77.9319 321.328 77.4879 321.252 77.1039 321.1C76.7199 320.948 76.4039 320.732 76.1559 320.452C75.9079 320.18 75.7399 319.86 75.6519 319.492L76.9719 319.408C77.0599 319.672 77.2119 319.88 77.4279 320.032C77.6519 320.192 77.9879 320.272 78.4359 320.272C78.9639 320.272 79.3679 320.16 79.6479 319.936C79.9359 319.712 80.0799 319.372 80.0799 318.916V317.992C79.9279 318.32 79.6839 318.58 79.3479 318.772C79.0119 318.964 78.6359 319.06 78.2199 319.06C77.6839 319.06 77.2079 318.928 76.7919 318.664C76.3759 318.4 76.0519 318.036 75.8199 317.572C75.5879 317.108 75.4719 316.572 75.4719 315.964C75.4719 315.348 75.5839 314.808 75.8079 314.344C76.0399 313.88 76.3599 313.516 76.7679 313.252C77.1839 312.988 77.6519 312.856 78.1719 312.856C78.6279 312.856 79.0279 312.96 79.3719 313.168C79.7239 313.376 79.9759 313.656 80.1279 314.008V313H81.3519V318.88C81.3519 319.408 81.2319 319.852 80.9919 320.212C80.7599 320.58 80.4239 320.856 79.9839 321.04C79.5519 321.232 79.0359 321.328 78.4359 321.328ZM78.4239 317.98C78.9199 317.98 79.3159 317.8 79.6119 317.44C79.9159 317.08 80.0719 316.584 80.0799 315.952C80.0879 315.536 80.0239 315.18 79.8879 314.884C79.7519 314.58 79.5559 314.348 79.2999 314.188C79.0519 314.02 78.7599 313.936 78.4239 313.936C77.9039 313.936 77.4999 314.12 77.2119 314.488C76.9319 314.848 76.7919 315.336 76.7919 315.952C76.7919 316.576 76.9359 317.072 77.2239 317.44C77.5199 317.8 77.9199 317.98 78.4239 317.98Z" fill="#00022A"/>
<path d="M85.3798 319.528C84.7798 319.528 84.2718 319.436 83.8558 319.252C83.4478 319.068 83.1318 318.816 82.9078 318.496C82.6838 318.168 82.5558 317.792 82.5238 317.368L83.8318 317.308C83.8958 317.66 84.0478 317.94 84.2878 318.148C84.5278 318.356 84.8918 318.46 85.3798 318.46C85.7798 318.46 86.0958 318.396 86.3278 318.268C86.5598 318.14 86.6758 317.936 86.6758 317.656C86.6758 317.504 86.6358 317.376 86.5558 317.272C86.4838 317.16 86.3398 317.068 86.1238 316.996C85.9078 316.916 85.5878 316.84 85.1638 316.768C84.5318 316.648 84.0358 316.508 83.6758 316.348C83.3158 316.188 83.0598 315.984 82.9078 315.736C82.7558 315.488 82.6798 315.188 82.6798 314.836C82.6798 314.252 82.8958 313.776 83.3278 313.408C83.7678 313.04 84.3998 312.856 85.2238 312.856C85.7758 312.856 86.2398 312.952 86.6158 313.144C86.9918 313.328 87.2838 313.58 87.4918 313.9C87.7078 314.212 87.8438 314.564 87.8998 314.956L86.5918 315.028C86.5518 314.804 86.4718 314.612 86.3518 314.452C86.2398 314.284 86.0878 314.156 85.8958 314.068C85.7038 313.972 85.4758 313.924 85.2118 313.924C84.8038 313.924 84.4998 314.004 84.2998 314.164C84.0998 314.324 83.9998 314.532 83.9998 314.788C83.9998 314.98 84.0438 315.136 84.1318 315.256C84.2278 315.376 84.3798 315.476 84.5878 315.556C84.7958 315.628 85.0718 315.692 85.4158 315.748C86.0798 315.86 86.5998 316 86.9758 316.168C87.3518 316.328 87.6158 316.528 87.7678 316.768C87.9198 317.008 87.9958 317.3 87.9958 317.644C87.9958 318.044 87.8838 318.384 87.6598 318.664C87.4358 318.944 87.1278 319.16 86.7358 319.312C86.3438 319.456 85.8918 319.528 85.3798 319.528Z" fill="#00022A"/>
<defs>
<clipPath id="clip0_405_3836">
<rect width="14" height="14" fill="white" transform="translate(20 165)"/>
</clipPath>
<clipPath id="clip1_405_3836">
<rect width="14" height="14" fill="white" transform="translate(20 213)"/>
</clipPath>
<clipPath id="clip2_405_3836">
<rect width="14" height="14" fill="white" transform="translate(20 261)"/>
</clipPath>
</defs>
</svg>
