<svg width="208" height="134" viewBox="0 0 208 134" fill="none" xmlns="http://www.w3.org/2000/svg">
<rect x="8.5" y="8.5" width="191" height="117" rx="4.5" stroke="#E6E6EF"/>
<path d="M20 32.7177V24.1977H25.532V25.3857H20.612L21.296 24.6777V28.5897L20.612 27.9777H25.316V29.1297H20.612L21.296 28.5177V32.7177H20Z" fill="#626884"/>
<path d="M26.3049 32.7177V26.3337H27.4689L27.5169 28.0257L27.4089 27.9897C27.4969 27.4137 27.6729 26.9937 27.9369 26.7297C28.2089 26.4657 28.5729 26.3337 29.0289 26.3337H29.6409V27.4737H29.0289C28.7089 27.4737 28.4409 27.5257 28.2249 27.6297C28.0089 27.7337 27.8449 27.8937 27.7329 28.1097C27.6289 28.3257 27.5769 28.6057 27.5769 28.9497V32.7177H26.3049Z" fill="#626884"/>
<path d="M32.8151 32.8617C32.1911 32.8617 31.6511 32.7257 31.1951 32.4537C30.7471 32.1817 30.3991 31.7937 30.1511 31.2897C29.9111 30.7857 29.7911 30.1977 29.7911 29.5257C29.7911 28.8537 29.9111 28.2697 30.1511 27.7737C30.3991 27.2697 30.7471 26.8817 31.1951 26.6097C31.6431 26.3297 32.1711 26.1897 32.7791 26.1897C33.3551 26.1897 33.8631 26.3257 34.3031 26.5977C34.7431 26.8617 35.0831 27.2457 35.3231 27.7497C35.5711 28.2537 35.6951 28.8617 35.6951 29.5737V29.8977H31.1111C31.1431 30.5217 31.3071 30.9897 31.6031 31.3017C31.9071 31.6137 32.3151 31.7697 32.8271 31.7697C33.2031 31.7697 33.5151 31.6817 33.7631 31.5057C34.0111 31.3297 34.1831 31.0937 34.2791 30.7977L35.5991 30.8817C35.4311 31.4737 35.0991 31.9537 34.6031 32.3217C34.1151 32.6817 33.5191 32.8617 32.8151 32.8617ZM31.1111 28.9377H34.3511C34.3111 28.3697 34.1471 27.9497 33.8591 27.6777C33.5791 27.4057 33.2191 27.2697 32.7791 27.2697C32.3231 27.2697 31.9471 27.4137 31.6511 27.7017C31.3631 27.9817 31.1831 28.3937 31.1111 28.9377Z" fill="#626884"/>
<path d="M39.2519 32.8617C38.6279 32.8617 38.0879 32.7257 37.6319 32.4537C37.1839 32.1817 36.8359 31.7937 36.5879 31.2897C36.3479 30.7857 36.2279 30.1977 36.2279 29.5257C36.2279 28.8537 36.3479 28.2697 36.5879 27.7737C36.8359 27.2697 37.1839 26.8817 37.6319 26.6097C38.0799 26.3297 38.6079 26.1897 39.2159 26.1897C39.7919 26.1897 40.2999 26.3257 40.7399 26.5977C41.1799 26.8617 41.5199 27.2457 41.7599 27.7497C42.0079 28.2537 42.1319 28.8617 42.1319 29.5737V29.8977H37.5479C37.5799 30.5217 37.7439 30.9897 38.0399 31.3017C38.3439 31.6137 38.7519 31.7697 39.2639 31.7697C39.6399 31.7697 39.9519 31.6817 40.1999 31.5057C40.4479 31.3297 40.6199 31.0937 40.7159 30.7977L42.0359 30.8817C41.8679 31.4737 41.5359 31.9537 41.0399 32.3217C40.5519 32.6817 39.9559 32.8617 39.2519 32.8617ZM37.5479 28.9377H40.7879C40.7479 28.3697 40.5839 27.9497 40.2959 27.6777C40.0159 27.4057 39.6559 27.2697 39.2159 27.2697C38.7599 27.2697 38.3839 27.4137 38.0879 27.7017C37.7999 27.9817 37.6199 28.3937 37.5479 28.9377Z" fill="#626884"/>
<path d="M47.596 32.7177V25.3857H44.98V24.1977H51.508V25.3857H48.892V32.7177H47.596Z" fill="#626884"/>
<path d="M51.6221 32.7177V26.3337H52.7861L52.8341 28.0257L52.7261 27.9897C52.8141 27.4137 52.9901 26.9937 53.2541 26.7297C53.5261 26.4657 53.8901 26.3337 54.3461 26.3337H54.9581V27.4737H54.3461C54.0261 27.4737 53.7581 27.5257 53.5421 27.6297C53.3261 27.7337 53.1621 27.8937 53.0501 28.1097C52.9461 28.3257 52.8941 28.6057 52.8941 28.9497V32.7177H51.6221Z" fill="#626884"/>
<path d="M55.6449 32.7177V26.3337H56.9169V32.7177H55.6449ZM55.6209 25.4097V24.1377H56.9409V25.4097H55.6209Z" fill="#626884"/>
<path d="M60.026 32.8617C59.362 32.8617 58.83 32.7097 58.43 32.4057C58.038 32.1017 57.842 31.6737 57.842 31.1217C57.842 30.5697 58.006 30.1417 58.334 29.8377C58.67 29.5257 59.186 29.3017 59.882 29.1657L62.078 28.7457C62.078 28.2497 61.962 27.8817 61.73 27.6417C61.498 27.3937 61.154 27.2697 60.698 27.2697C60.29 27.2697 59.97 27.3617 59.738 27.5457C59.506 27.7217 59.346 27.9857 59.258 28.3377L57.95 28.2537C58.07 27.6137 58.366 27.1097 58.838 26.7417C59.318 26.3737 59.938 26.1897 60.698 26.1897C61.562 26.1897 62.218 26.4217 62.666 26.8857C63.122 27.3417 63.35 27.9857 63.35 28.8177V31.3017C63.35 31.4537 63.374 31.5617 63.422 31.6257C63.478 31.6817 63.566 31.7097 63.686 31.7097H63.914V32.7177C63.874 32.7257 63.81 32.7337 63.722 32.7417C63.634 32.7497 63.542 32.7537 63.446 32.7537C63.174 32.7537 62.938 32.7097 62.738 32.6217C62.546 32.5337 62.402 32.3897 62.306 32.1897C62.21 31.9817 62.162 31.7057 62.162 31.3617L62.294 31.4217C62.23 31.7017 62.09 31.9497 61.874 32.1657C61.666 32.3817 61.398 32.5537 61.07 32.6817C60.75 32.8017 60.402 32.8617 60.026 32.8617ZM60.23 31.8537C60.614 31.8537 60.942 31.7817 61.214 31.6377C61.486 31.4857 61.698 31.2777 61.85 31.0137C62.002 30.7497 62.078 30.4497 62.078 30.1137V29.7057L60.206 30.0657C59.822 30.1377 59.55 30.2537 59.39 30.4137C59.238 30.5657 59.162 30.7617 59.162 31.0017C59.162 31.2737 59.254 31.4857 59.438 31.6377C59.63 31.7817 59.894 31.8537 60.23 31.8537Z" fill="#626884"/>
<path d="M65.938 32.7177C65.522 32.7177 65.186 32.6097 64.93 32.3937C64.674 32.1777 64.546 31.8337 64.546 31.3617V24.1977H65.818V31.2417C65.818 31.3857 65.854 31.4937 65.926 31.5657C66.006 31.6377 66.118 31.6737 66.262 31.6737H66.766V32.7177H65.938Z" fill="#626884"/>
<path d="M21.836 55.3598C21.836 54.4798 21.952 53.6118 22.184 52.7558C22.424 51.8918 22.76 51.0638 23.192 50.2718C23.632 49.4718 24.156 48.7238 24.764 48.0278H20V46.8398H26.132V47.9438C25.46 48.7118 24.9 49.4798 24.452 50.2478C24.012 51.0078 23.684 51.8078 23.468 52.6478C23.26 53.4798 23.156 54.3838 23.156 55.3598H21.836Z" fill="#00022A"/>
<path d="M31.501 55.5038C30.957 55.5038 30.481 55.3678 30.073 55.0958C29.673 54.8238 29.365 54.4398 29.149 53.9438C28.941 53.4398 28.837 52.8478 28.837 52.1678C28.837 51.4878 28.945 50.8998 29.161 50.4038C29.377 49.8998 29.685 49.5118 30.085 49.2398C30.485 48.9678 30.957 48.8318 31.501 48.8318C31.941 48.8318 32.333 48.9238 32.677 49.1078C33.021 49.2918 33.281 49.5478 33.457 49.8758V46.8398H34.729V55.3598H33.541L33.505 54.3998C33.329 54.7438 33.061 55.0158 32.701 55.2158C32.349 55.4078 31.949 55.5038 31.501 55.5038ZM31.837 54.3998C32.181 54.3998 32.473 54.3118 32.713 54.1358C32.953 53.9598 33.137 53.7038 33.265 53.3678C33.393 53.0318 33.457 52.6318 33.457 52.1678C33.457 51.6878 33.393 51.2838 33.265 50.9558C33.137 50.6198 32.953 50.3678 32.713 50.1998C32.473 50.0238 32.181 49.9358 31.837 49.9358C31.325 49.9358 30.917 50.1358 30.613 50.5358C30.309 50.9278 30.157 51.4718 30.157 52.1678C30.157 52.8558 30.309 53.3998 30.613 53.7998C30.917 54.1998 31.325 54.3998 31.837 54.3998Z" fill="#00022A"/>
<path d="M37.8446 55.5038C37.1806 55.5038 36.6486 55.3518 36.2486 55.0478C35.8566 54.7438 35.6606 54.3158 35.6606 53.7638C35.6606 53.2118 35.8246 52.7838 36.1526 52.4798C36.4886 52.1678 37.0046 51.9438 37.7006 51.8078L39.8966 51.3878C39.8966 50.8918 39.7806 50.5238 39.5486 50.2838C39.3166 50.0358 38.9726 49.9118 38.5166 49.9118C38.1086 49.9118 37.7886 50.0038 37.5566 50.1878C37.3246 50.3638 37.1646 50.6278 37.0766 50.9798L35.7686 50.8958C35.8886 50.2558 36.1846 49.7518 36.6566 49.3838C37.1366 49.0158 37.7566 48.8318 38.5166 48.8318C39.3806 48.8318 40.0366 49.0638 40.4846 49.5278C40.9406 49.9838 41.1686 50.6278 41.1686 51.4598V53.9438C41.1686 54.0958 41.1926 54.2038 41.2406 54.2678C41.2966 54.3238 41.3846 54.3518 41.5046 54.3518H41.7326V55.3598C41.6926 55.3678 41.6286 55.3758 41.5406 55.3838C41.4526 55.3918 41.3606 55.3958 41.2646 55.3958C40.9926 55.3958 40.7566 55.3518 40.5566 55.2638C40.3646 55.1758 40.2206 55.0318 40.1246 54.8318C40.0286 54.6238 39.9806 54.3478 39.9806 54.0038L40.1126 54.0638C40.0486 54.3438 39.9086 54.5918 39.6926 54.8078C39.4846 55.0238 39.2166 55.1958 38.8886 55.3238C38.5686 55.4438 38.2206 55.5038 37.8446 55.5038ZM38.0486 54.4958C38.4326 54.4958 38.7606 54.4238 39.0326 54.2798C39.3046 54.1278 39.5166 53.9198 39.6686 53.6558C39.8206 53.3918 39.8966 53.0918 39.8966 52.7558V52.3478L38.0246 52.7078C37.6406 52.7798 37.3686 52.8958 37.2086 53.0558C37.0566 53.2078 36.9806 53.4038 36.9806 53.6438C36.9806 53.9158 37.0726 54.1278 37.2566 54.2798C37.4486 54.4238 37.7126 54.4958 38.0486 54.4958Z" fill="#00022A"/>
<path d="M42.5136 57.1598V56.1158H43.2936C43.5096 56.1158 43.6696 56.0838 43.7736 56.0198C43.8776 55.9558 43.9576 55.8478 44.0136 55.6958L44.2176 55.1678H43.8216L41.5176 48.9758H42.8616L44.6136 53.9918L46.2816 48.9758H47.6376L45.0936 56.1038C44.9656 56.4718 44.7736 56.7398 44.5176 56.9078C44.2696 57.0758 43.9216 57.1598 43.4736 57.1598H42.5136Z" fill="#00022A"/>
<path d="M50.5583 55.5038C49.9583 55.5038 49.4503 55.4118 49.0343 55.2278C48.6263 55.0438 48.3103 54.7918 48.0863 54.4718C47.8623 54.1438 47.7343 53.7678 47.7023 53.3438L49.0103 53.2838C49.0743 53.6358 49.2263 53.9158 49.4663 54.1238C49.7063 54.3318 50.0703 54.4358 50.5583 54.4358C50.9583 54.4358 51.2743 54.3718 51.5063 54.2438C51.7383 54.1158 51.8543 53.9118 51.8543 53.6318C51.8543 53.4798 51.8143 53.3518 51.7343 53.2478C51.6623 53.1358 51.5183 53.0438 51.3023 52.9718C51.0863 52.8918 50.7663 52.8158 50.3423 52.7438C49.7103 52.6238 49.2143 52.4838 48.8543 52.3238C48.4943 52.1638 48.2383 51.9598 48.0863 51.7118C47.9343 51.4638 47.8583 51.1638 47.8583 50.8118C47.8583 50.2278 48.0743 49.7518 48.5063 49.3838C48.9463 49.0158 49.5783 48.8318 50.4023 48.8318C50.9543 48.8318 51.4183 48.9278 51.7943 49.1198C52.1703 49.3038 52.4623 49.5558 52.6703 49.8758C52.8863 50.1878 53.0223 50.5398 53.0783 50.9318L51.7703 51.0038C51.7303 50.7798 51.6503 50.5878 51.5303 50.4278C51.4183 50.2598 51.2663 50.1318 51.0743 50.0438C50.8823 49.9478 50.6543 49.8998 50.3903 49.8998C49.9823 49.8998 49.6783 49.9798 49.4783 50.1398C49.2783 50.2998 49.1783 50.5078 49.1783 50.7638C49.1783 50.9558 49.2223 51.1118 49.3103 51.2318C49.4063 51.3518 49.5583 51.4518 49.7663 51.5318C49.9743 51.6038 50.2503 51.6678 50.5943 51.7238C51.2583 51.8358 51.7783 51.9758 52.1543 52.1438C52.5303 52.3038 52.7943 52.5038 52.9463 52.7438C53.0983 52.9838 53.1743 53.2758 53.1743 53.6198C53.1743 54.0198 53.0623 54.3598 52.8383 54.6398C52.6143 54.9198 52.3063 55.1358 51.9143 55.2878C51.5223 55.4318 51.0703 55.5038 50.5583 55.5038Z" fill="#00022A"/>
<path d="M58.1687 55.3598C57.7527 55.3598 57.4167 55.2518 57.1607 55.0358C56.9047 54.8198 56.7767 54.4758 56.7767 54.0038V46.8398H58.0487V53.8838C58.0487 54.0278 58.0847 54.1358 58.1567 54.2078C58.2367 54.2798 58.3487 54.3158 58.4927 54.3158H58.9967V55.3598H58.1687Z" fill="#00022A"/>
<path d="M62.3494 55.5038C61.7254 55.5038 61.1854 55.3678 60.7294 55.0958C60.2814 54.8238 59.9334 54.4358 59.6854 53.9318C59.4454 53.4278 59.3254 52.8398 59.3254 52.1678C59.3254 51.4958 59.4454 50.9118 59.6854 50.4158C59.9334 49.9118 60.2814 49.5238 60.7294 49.2518C61.1774 48.9718 61.7054 48.8318 62.3134 48.8318C62.8894 48.8318 63.3974 48.9678 63.8374 49.2398C64.2774 49.5038 64.6174 49.8878 64.8574 50.3918C65.1054 50.8958 65.2294 51.5038 65.2294 52.2158V52.5398H60.6454C60.6774 53.1638 60.8414 53.6318 61.1374 53.9438C61.4414 54.2558 61.8494 54.4118 62.3614 54.4118C62.7374 54.4118 63.0494 54.3238 63.2974 54.1478C63.5454 53.9718 63.7174 53.7358 63.8134 53.4398L65.1334 53.5238C64.9654 54.1158 64.6334 54.5958 64.1374 54.9638C63.6494 55.3238 63.0534 55.5038 62.3494 55.5038ZM60.6454 51.5798H63.8854C63.8454 51.0118 63.6814 50.5918 63.3934 50.3198C63.1134 50.0478 62.7534 49.9118 62.3134 49.9118C61.8574 49.9118 61.4814 50.0558 61.1854 50.3438C60.8974 50.6238 60.7174 51.0358 60.6454 51.5798Z" fill="#00022A"/>
<path d="M66.5602 55.3598V48.5678C66.5602 48.0398 66.7082 47.6198 67.0042 47.3078C67.3002 46.9958 67.7642 46.8398 68.3962 46.8398H69.5242V47.8838H68.5642C68.3162 47.8838 68.1322 47.9518 68.0122 48.0878C67.8922 48.2158 67.8322 48.3998 67.8322 48.6398V55.3598H66.5602ZM65.6722 50.0918V49.0598H69.4282V50.0918H65.6722Z" fill="#00022A"/>
<path d="M72.5119 55.3598C71.9039 55.3598 71.4559 55.2198 71.1679 54.9398C70.8799 54.6598 70.7359 54.2238 70.7359 53.6318V47.4758H72.0079V53.5358C72.0079 53.8318 72.0719 54.0358 72.1999 54.1478C72.3279 54.2598 72.5239 54.3158 72.7879 54.3158H73.6999V55.3598H72.5119ZM69.7639 50.0198V48.9758H73.6999V50.0198H69.7639Z" fill="#00022A"/>
<g filter="url(#filter0_d_405_3873)">
<rect x="20" y="75" width="168" height="35" rx="12" fill="url(#paint0_linear_405_3873)" shape-rendering="crispEdges"/>
<path d="M78.8476 97.1476C77.9516 97.1476 77.1676 96.977 76.4956 96.6356C75.8343 96.2836 75.3223 95.7876 74.9596 95.1476C74.6076 94.5076 74.4316 93.7503 74.4316 92.8756V85.5156H76.1596V92.8756C76.1596 93.7396 76.3943 94.4063 76.8636 94.8756C77.333 95.3343 77.9943 95.5636 78.8476 95.5636C79.701 95.5636 80.3623 95.3343 80.8316 94.8756C81.301 94.4063 81.5356 93.7396 81.5356 92.8756V85.5156H83.2636V92.8756C83.2636 93.7503 83.0823 94.5076 82.7196 95.1476C82.3676 95.7876 81.861 96.2836 81.1996 96.6356C80.5383 96.977 79.7543 97.1476 78.8476 97.1476Z" fill="white"/>
<path d="M85.125 99.2916V88.3796H86.725L86.773 90.2036L86.581 90.1076C86.7943 89.4783 87.1463 89.0036 87.637 88.6836C88.1277 88.353 88.693 88.1876 89.333 88.1876C90.165 88.1876 90.8477 88.3956 91.381 88.8116C91.925 89.217 92.325 89.7556 92.581 90.4276C92.8477 91.0996 92.981 91.8356 92.981 92.6356C92.981 93.4356 92.8477 94.1716 92.581 94.8436C92.325 95.5156 91.925 96.0596 91.381 96.4756C90.8477 96.881 90.165 97.0836 89.333 97.0836C88.9063 97.0836 88.5063 97.009 88.133 96.8596C87.7597 96.7103 87.4397 96.5023 87.173 96.2356C86.917 95.9583 86.7357 95.633 86.629 95.2596L86.821 95.0676V99.2916H85.125ZM89.029 95.6116C89.7117 95.6116 90.245 95.3503 90.629 94.8276C91.0237 94.305 91.221 93.5743 91.221 92.6356C91.221 91.697 91.0237 90.9663 90.629 90.4436C90.245 89.921 89.7117 89.6596 89.029 89.6596C88.581 89.6596 88.1917 89.7716 87.861 89.9956C87.5303 90.209 87.2743 90.5396 87.093 90.9876C86.9117 91.4356 86.821 91.985 86.821 92.6356C86.821 93.2863 86.9063 93.8356 87.077 94.2836C87.2583 94.7316 87.5143 95.0676 87.845 95.2916C88.1863 95.505 88.581 95.6116 89.029 95.6116Z" fill="white"/>
<path d="M97.6471 99.4836C96.9751 99.4836 96.3831 99.3823 95.8711 99.1796C95.3591 98.977 94.9378 98.689 94.6071 98.3156C94.2765 97.953 94.0525 97.5263 93.9351 97.0356L95.6951 96.9236C95.8125 97.2756 96.0151 97.553 96.3031 97.7556C96.6018 97.969 97.0498 98.0756 97.6471 98.0756C98.3511 98.0756 98.8898 97.9263 99.2631 97.6276C99.6471 97.329 99.8391 96.8756 99.8391 96.2676V95.0356C99.6365 95.473 99.3111 95.8196 98.8631 96.0756C98.4151 96.3316 97.9138 96.4596 97.3591 96.4596C96.6445 96.4596 96.0098 96.2836 95.4551 95.9316C94.9005 95.5796 94.4685 95.0943 94.1591 94.4756C93.8498 93.857 93.6951 93.1423 93.6951 92.3316C93.6951 91.5103 93.8445 90.7903 94.1431 90.1716C94.4525 89.553 94.8791 89.0676 95.4231 88.7156C95.9778 88.3636 96.6018 88.1876 97.2951 88.1876C97.9031 88.1876 98.4365 88.3263 98.8951 88.6036C99.3645 88.881 99.7005 89.2543 99.9031 89.7236V88.3796H101.535V96.2196C101.535 96.9236 101.375 97.5156 101.055 97.9956C100.746 98.4863 100.298 98.8543 99.7111 99.0996C99.1351 99.3556 98.4471 99.4836 97.6471 99.4836ZM97.6311 95.0196C98.2925 95.0196 98.8205 94.7796 99.2151 94.2996C99.6205 93.8196 99.8285 93.1583 99.8391 92.3156C99.8498 91.761 99.7645 91.2863 99.5831 90.8916C99.4018 90.4863 99.1405 90.177 98.7991 89.9636C98.4685 89.7396 98.0791 89.6276 97.6311 89.6276C96.9378 89.6276 96.3991 89.873 96.0151 90.3636C95.6418 90.8436 95.4551 91.4943 95.4551 92.3156C95.4551 93.1476 95.6471 93.809 96.0311 94.2996C96.4258 94.7796 96.9591 95.0196 97.6311 95.0196Z" fill="white"/>
<path d="M103.462 96.8916V88.3796H105.014L105.078 90.6356L104.934 90.5876C105.051 89.8196 105.286 89.2596 105.638 88.9076C106.001 88.5556 106.486 88.3796 107.094 88.3796H107.91V89.8996H107.094C106.667 89.8996 106.31 89.969 106.022 90.1076C105.734 90.2463 105.515 90.4596 105.366 90.7476C105.227 91.0356 105.158 91.409 105.158 91.8676V96.8916H103.462Z" fill="white"/>
<path d="M111.053 97.0836C110.168 97.0836 109.459 96.881 108.925 96.4756C108.403 96.0703 108.141 95.4996 108.141 94.7636C108.141 94.0276 108.36 93.457 108.797 93.0516C109.245 92.6356 109.933 92.337 110.861 92.1556L113.789 91.5956C113.789 90.9343 113.635 90.4436 113.325 90.1236C113.016 89.793 112.557 89.6276 111.949 89.6276C111.405 89.6276 110.979 89.7503 110.669 89.9956C110.36 90.2303 110.147 90.5823 110.029 91.0516L108.285 90.9396C108.445 90.0863 108.84 89.4143 109.469 88.9236C110.109 88.433 110.936 88.1876 111.949 88.1876C113.101 88.1876 113.976 88.497 114.573 89.1156C115.181 89.7236 115.485 90.5823 115.485 91.6916V95.0036C115.485 95.2063 115.517 95.3503 115.581 95.4356C115.656 95.5103 115.773 95.5476 115.933 95.5476H116.237V96.8916C116.184 96.9023 116.099 96.913 115.981 96.9236C115.864 96.9343 115.741 96.9396 115.613 96.9396C115.251 96.9396 114.936 96.881 114.669 96.7636C114.413 96.6463 114.221 96.4543 114.093 96.1876C113.965 95.9103 113.901 95.5423 113.901 95.0836L114.077 95.1636C113.992 95.537 113.805 95.8676 113.517 96.1556C113.24 96.4436 112.883 96.673 112.445 96.8436C112.019 97.0036 111.555 97.0836 111.053 97.0836ZM111.325 95.7396C111.837 95.7396 112.275 95.6436 112.637 95.4516C113 95.249 113.283 94.9716 113.485 94.6196C113.688 94.2676 113.789 93.8676 113.789 93.4196V92.8756L111.293 93.3556C110.781 93.4516 110.419 93.6063 110.205 93.8196C110.003 94.0223 109.901 94.2836 109.901 94.6036C109.901 94.9663 110.024 95.249 110.269 95.4516C110.525 95.6436 110.877 95.7396 111.325 95.7396Z" fill="white"/>
<path d="M120.151 97.0836C119.426 97.0836 118.791 96.9023 118.247 96.5396C117.714 96.177 117.303 95.665 117.015 95.0036C116.738 94.3316 116.599 93.5423 116.599 92.6356C116.599 91.729 116.743 90.945 117.031 90.2836C117.319 89.6116 117.73 89.0943 118.263 88.7316C118.796 88.369 119.426 88.1876 120.151 88.1876C120.738 88.1876 121.26 88.3103 121.719 88.5556C122.178 88.801 122.524 89.1423 122.759 89.5796V85.5316H124.455V96.8916H122.871L122.823 95.6116C122.588 96.0703 122.231 96.433 121.751 96.6996C121.282 96.9556 120.748 97.0836 120.151 97.0836ZM120.599 95.6116C121.058 95.6116 121.447 95.4943 121.767 95.2596C122.087 95.025 122.332 94.6836 122.503 94.2356C122.674 93.7876 122.759 93.2543 122.759 92.6356C122.759 91.9956 122.674 91.457 122.503 91.0196C122.332 90.5716 122.087 90.2356 121.767 90.0116C121.447 89.777 121.058 89.6596 120.599 89.6596C119.916 89.6596 119.372 89.9263 118.967 90.4596C118.562 90.9823 118.359 91.7076 118.359 92.6356C118.359 93.553 118.562 94.2783 118.967 94.8116C119.372 95.345 119.916 95.6116 120.599 95.6116Z" fill="white"/>
<path d="M129.729 97.0836C128.897 97.0836 128.177 96.9023 127.569 96.5396C126.972 96.177 126.508 95.6596 126.177 94.9876C125.857 94.3156 125.697 93.5316 125.697 92.6356C125.697 91.7396 125.857 90.961 126.177 90.2996C126.508 89.6276 126.972 89.1103 127.569 88.7476C128.166 88.3743 128.87 88.1876 129.681 88.1876C130.449 88.1876 131.126 88.369 131.713 88.7316C132.3 89.0836 132.753 89.5956 133.073 90.2676C133.404 90.9396 133.569 91.7503 133.569 92.6996V93.1316H127.457C127.5 93.9636 127.718 94.5876 128.113 95.0036C128.518 95.4196 129.062 95.6276 129.745 95.6276C130.246 95.6276 130.662 95.5103 130.993 95.2756C131.324 95.041 131.553 94.7263 131.681 94.3316L133.441 94.4436C133.217 95.233 132.774 95.873 132.113 96.3636C131.462 96.8436 130.668 97.0836 129.729 97.0836ZM127.457 91.8516H131.777C131.724 91.0943 131.505 90.5343 131.121 90.1716C130.748 89.809 130.268 89.6276 129.681 89.6276C129.073 89.6276 128.572 89.8196 128.177 90.2036C127.793 90.577 127.553 91.1263 127.457 91.8516Z" fill="white"/>
</g>
<defs>
<filter id="filter0_d_405_3873" x="16" y="71" width="176" height="43" filterUnits="userSpaceOnUse" color-interpolation-filters="sRGB">
<feFlood flood-opacity="0" result="BackgroundImageFix"/>
<feColorMatrix in="SourceAlpha" type="matrix" values="0 0 0 0 0 0 0 0 0 0 0 0 0 0 0 0 0 0 127 0" result="hardAlpha"/>
<feOffset/>
<feGaussianBlur stdDeviation="2"/>
<feComposite in2="hardAlpha" operator="out"/>
<feColorMatrix type="matrix" values="0 0 0 0 0.0192055 0 0 0 0 0.151199 0 0 0 0 0.321911 0 0 0 0.05 0"/>
<feBlend mode="normal" in2="BackgroundImageFix" result="effect1_dropShadow_405_3873"/>
<feBlend mode="normal" in="SourceGraphic" in2="effect1_dropShadow_405_3873" result="shape"/>
</filter>
<linearGradient id="paint0_linear_405_3873" x1="104" y1="60.4815" x2="98.205" y2="109.97" gradientUnits="userSpaceOnUse">
<stop offset="0.124902" stop-color="#9DC8FF"/>
<stop offset="1" stop-color="#065AC7"/>
</linearGradient>
</defs>
</svg>
